<svg width="147" height="97" viewBox="0 0 147 97" fill="none" xmlns="http://www.w3.org/2000/svg">
<rect y="9" width="84" height="8" fill="#C2F1DE"/>
<rect y="45" width="84" height="8" fill="#DADDFE"/>
<rect y="81" width="84" height="8" fill="#6470F3"/>
<rect x="93" width="54" height="25" rx="3.88889" fill="#C5C9FD"/>
<rect x="115" y="10" width="25" height="6" rx="3" fill="#F0F1FF"/>
<path d="M109.584 15.248C109.584 15.8951 109.416 16.5049 109.08 17.0773C108.756 17.6373 108.271 18.104 107.624 18.4773C106.989 18.8382 106.236 19.0498 105.365 19.112V20.624H104.171V19.0933C102.926 18.9813 101.924 18.608 101.165 17.9733C100.406 17.3262 100.014 16.4551 99.9893 15.36H102.789C102.864 16.256 103.324 16.7973 104.171 16.984V13.4187C103.275 13.1947 102.553 12.9707 102.005 12.7467C101.458 12.5227 100.985 12.1618 100.587 11.664C100.188 11.1662 99.9893 10.488 99.9893 9.62933C99.9893 8.54667 100.375 7.66311 101.147 6.97866C101.931 6.29422 102.939 5.90222 104.171 5.80267V4.29066H105.365V5.80267C106.56 5.90222 107.512 6.26311 108.221 6.88533C108.943 7.50755 109.348 8.36622 109.435 9.46133H106.616C106.579 9.10044 106.448 8.78933 106.224 8.528C106.012 8.25422 105.726 8.06133 105.365 7.94933V11.4773C106.299 11.7138 107.033 11.944 107.568 12.168C108.116 12.3796 108.588 12.7342 108.987 13.232C109.385 13.7173 109.584 14.3893 109.584 15.248ZM102.715 9.49867C102.715 9.90933 102.839 10.2453 103.088 10.5067C103.337 10.7556 103.698 10.9609 104.171 11.1227V7.89333C103.723 7.95555 103.368 8.12355 103.107 8.39733C102.845 8.67111 102.715 9.03822 102.715 9.49867ZM105.365 17.0213C105.838 16.9342 106.205 16.7413 106.467 16.4427C106.74 16.144 106.877 15.7831 106.877 15.36C106.877 14.9493 106.747 14.6196 106.485 14.3707C106.224 14.1218 105.851 13.9164 105.365 13.7547V17.0213Z" fill="#007780"/>
<rect x="93" y="36" width="54" height="25" rx="3.88889" fill="#3A46CC"/>
<rect x="115" y="46" width="25" height="6" rx="3" fill="#6470F3"/>
<path d="M109.584 51.248C109.584 51.8951 109.416 52.5049 109.08 53.0773C108.756 53.6373 108.271 54.104 107.624 54.4773C106.989 54.8382 106.236 55.0498 105.365 55.112V56.624H104.171V55.0933C102.926 54.9813 101.924 54.608 101.165 53.9733C100.406 53.3262 100.014 52.4551 99.9893 51.36H102.789C102.864 52.256 103.324 52.7973 104.171 52.984V49.4187C103.275 49.1947 102.553 48.9707 102.005 48.7467C101.458 48.5227 100.985 48.1618 100.587 47.664C100.188 47.1662 99.9893 46.488 99.9893 45.6293C99.9893 44.5467 100.375 43.6631 101.147 42.9787C101.931 42.2942 102.939 41.9022 104.171 41.8027V40.2907H105.365V41.8027C106.56 41.9022 107.512 42.2631 108.221 42.8853C108.943 43.5076 109.348 44.3662 109.435 45.4613H106.616C106.579 45.1004 106.448 44.7893 106.224 44.528C106.012 44.2542 105.726 44.0613 105.365 43.9493V47.4773C106.299 47.7138 107.033 47.944 107.568 48.168C108.116 48.3796 108.588 48.7342 108.987 49.232C109.385 49.7173 109.584 50.3893 109.584 51.248ZM102.715 45.4987C102.715 45.9093 102.839 46.2453 103.088 46.5067C103.337 46.7556 103.698 46.9609 104.171 47.1227V43.8933C103.723 43.9556 103.368 44.1236 103.107 44.3973C102.845 44.6711 102.715 45.0382 102.715 45.4987ZM105.365 53.0213C105.838 52.9342 106.205 52.7413 106.467 52.4427C106.74 52.144 106.877 51.7831 106.877 51.36C106.877 50.9493 106.747 50.6196 106.485 50.3707C106.224 50.1218 105.851 49.9164 105.365 49.7547V53.0213Z" fill="#69D3A7"/>
<rect x="93" y="72" width="54" height="25" rx="3.88889" fill="#C2F1DE"/>
<rect x="115" y="82" width="25" height="6" rx="3" fill="#3A46CC"/>
<path d="M109.584 87.248C109.584 87.8951 109.416 88.5049 109.08 89.0773C108.756 89.6373 108.271 90.104 107.624 90.4773C106.989 90.8382 106.236 91.0498 105.365 91.112V92.624H104.171V91.0933C102.926 90.9813 101.924 90.608 101.165 89.9733C100.406 89.3262 100.014 88.4551 99.9893 87.36H102.789C102.864 88.256 103.324 88.7973 104.171 88.984V85.4187C103.275 85.1947 102.553 84.9707 102.005 84.7467C101.458 84.5227 100.985 84.1618 100.587 83.664C100.188 83.1662 99.9893 82.488 99.9893 81.6293C99.9893 80.5467 100.375 79.6631 101.147 78.9787C101.931 78.2942 102.939 77.9022 104.171 77.8027V76.2907H105.365V77.8027C106.56 77.9022 107.512 78.2631 108.221 78.8853C108.943 79.5076 109.348 80.3662 109.435 81.4613H106.616C106.579 81.1004 106.448 80.7893 106.224 80.528C106.012 80.2542 105.726 80.0613 105.365 79.9493V83.4773C106.299 83.7138 107.033 83.944 107.568 84.168C108.116 84.3796 108.588 84.7342 108.987 85.232C109.385 85.7173 109.584 86.3893 109.584 87.248ZM102.715 81.4987C102.715 81.9093 102.839 82.2453 103.088 82.5067C103.337 82.7556 103.698 82.9609 104.171 83.1227V79.8933C103.723 79.9556 103.368 80.1236 103.107 80.3973C102.845 80.6711 102.715 81.0382 102.715 81.4987ZM105.365 89.0213C105.838 88.9342 106.205 88.7413 106.467 88.4427C106.74 88.144 106.877 87.7831 106.877 87.36C106.877 86.9493 106.747 86.6196 106.485 86.3707C106.224 86.1218 105.851 85.9164 105.365 85.7547V89.0213Z" fill="#007780"/>
</svg>
