<svg width="192" height="36" viewBox="0 0 192 36" fill="none" xmlns="http://www.w3.org/2000/svg">
<rect x="25" y="14" width="147" height="8" fill="#2F3AB0"/>
<circle cx="18" cy="18" r="18" fill="#A3E7CB"/>
<circle cx="96" cy="18" r="18" fill="#C5C9FD"/>
<circle cx="174" cy="18" r="18" fill="#E4FBF2"/>
<path d="M15.8012 13.48V11.986H19.1852V25H17.5292V13.48H15.8012Z" fill="#4956E3"/>
<path d="M91.7412 23.686C93.2652 22.462 94.4592 21.46 95.3232 20.68C96.1872 19.888 96.9132 19.066 97.5012 18.214C98.1012 17.35 98.4012 16.504 98.4012 15.676C98.4012 14.896 98.2092 14.284 97.8252 13.84C97.4532 13.384 96.8472 13.156 96.0072 13.156C95.1912 13.156 94.5552 13.414 94.0992 13.93C93.6552 14.434 93.4152 15.112 93.3792 15.964H91.7952C91.8432 14.62 92.2512 13.582 93.0192 12.85C93.7872 12.118 94.7772 11.752 95.9892 11.752C97.2252 11.752 98.2032 12.094 98.9232 12.778C99.6552 13.462 100.021 14.404 100.021 15.604C100.021 16.6 99.7212 17.572 99.1212 18.52C98.5332 19.456 97.8612 20.284 97.1052 21.004C96.3492 21.712 95.3832 22.54 94.2072 23.488H100.399V24.856H91.7412V23.686Z" fill="#4956E3"/>
<path d="M169.78 15.262C169.864 14.158 170.29 13.294 171.058 12.67C171.826 12.046 172.822 11.734 174.046 11.734C174.862 11.734 175.564 11.884 176.152 12.184C176.752 12.472 177.202 12.868 177.502 13.372C177.814 13.876 177.97 14.446 177.97 15.082C177.97 15.826 177.754 16.468 177.322 17.008C176.902 17.548 176.35 17.896 175.666 18.052V18.142C176.446 18.334 177.064 18.712 177.52 19.276C177.976 19.84 178.204 20.578 178.204 21.49C178.204 22.174 178.048 22.792 177.736 23.344C177.424 23.884 176.956 24.31 176.332 24.622C175.708 24.934 174.958 25.09 174.082 25.09C172.81 25.09 171.766 24.76 170.95 24.1C170.134 23.428 169.678 22.48 169.582 21.256H171.166C171.25 21.976 171.544 22.564 172.048 23.02C172.552 23.476 173.224 23.704 174.064 23.704C174.904 23.704 175.54 23.488 175.972 23.056C176.416 22.612 176.638 22.042 176.638 21.346C176.638 20.446 176.338 19.798 175.738 19.402C175.138 19.006 174.232 18.808 173.02 18.808H172.606V17.44H173.038C174.142 17.428 174.976 17.248 175.54 16.9C176.104 16.54 176.386 15.988 176.386 15.244C176.386 14.608 176.176 14.098 175.756 13.714C175.348 13.33 174.76 13.138 173.992 13.138C173.248 13.138 172.648 13.33 172.192 13.714C171.736 14.098 171.466 14.614 171.382 15.262H169.78Z" fill="#4956E3"/>
</svg>
