<svg width="163" height="74" viewBox="0 0 163 74" fill="none" xmlns="http://www.w3.org/2000/svg">
<rect width="163" height="36" rx="18" fill="#A3E7CB"/>
<rect x="84" y="45" width="37" height="14" rx="7" fill="#E4FBF2"/>
<rect x="126" y="45" width="37" height="14" rx="7" fill="#3A46CC"/>
<rect y="45" width="37" height="14" rx="7" fill="#6470F3"/>
<rect x="42" y="45" width="37" height="14" rx="7" fill="#C5C9FD"/>
<path d="M98.8352 41.049L93.9338 45.9631L103.736 55.7915L108.638 50.8773L98.8352 41.049Z" fill="#4956E3"/>
<path d="M125.362 66.1196L118.946 72.5522C118.097 73.4034 116.721 73.4034 115.872 72.5522L99.5161 56.1421L109.005 46.6279L125.372 63.038C126.211 63.8892 126.211 65.2684 125.362 66.1196Z" fill="#4956E3"/>
<path d="M98.3019 11.1033C107.748 20.5744 107.748 35.9393 98.3019 45.4104C88.8557 54.8814 73.531 54.8814 64.0847 45.4104C54.6384 35.9393 54.6384 20.5744 64.0847 11.1033C73.531 1.63223 88.8449 1.63223 98.3019 11.1033ZM70.2963 17.3419C64.2781 23.3758 64.2781 33.1486 70.2963 39.1825C76.3144 45.2164 86.0615 45.2164 92.0796 39.1825C98.0978 33.1486 98.0978 23.3758 92.0796 17.3419C86.0615 11.308 76.3144 11.308 70.2963 17.3419Z" fill="#4956E3"/>
</svg>
