<svg width="126" height="97" viewBox="0 0 126 97" fill="none" xmlns="http://www.w3.org/2000/svg">
<rect y="8" width="106" height="89" rx="8" fill="#DADDFE"/>
<rect x="18" y="29" width="70" height="15" fill="#2F3AB0"/>
<path d="M64 66.96L79.34 82.3L123 41" stroke="#69D3A7" stroke-width="8"/>
<circle cx="52.5" cy="20.5" r="20.5" fill="#4956E3"/>
<path d="M59.2683 25.195C59.2683 26.117 59.029 26.9857 58.5503 27.8013C58.0893 28.5991 57.3979 29.264 56.4759 29.7959C55.5717 30.31 54.499 30.6114 53.258 30.7001V32.8543H51.5559V30.6735C49.7829 30.5139 48.3557 29.982 47.2742 29.0778C46.1927 28.1559 45.6342 26.9148 45.5987 25.3546H49.5879C49.6943 26.6311 50.3503 27.4024 51.5559 27.6683V22.5887C50.2794 22.2696 49.251 21.9505 48.4709 21.6313C47.6908 21.3122 47.0171 20.798 46.4497 20.0889C45.8824 19.3797 45.5987 18.4134 45.5987 17.19C45.5987 15.6476 46.1483 14.3887 47.2476 13.4136C48.3646 12.4385 49.8007 11.88 51.5559 11.7381V9.58398H53.258V11.7381C54.96 11.88 56.3163 12.3941 57.3269 13.2806C58.3553 14.1671 58.9315 15.3905 59.0556 16.9507H55.0398C54.9866 16.4365 54.8005 15.9933 54.4813 15.621C54.1799 15.2309 53.7721 14.9561 53.258 14.7965V19.8229C54.5877 20.1598 55.6338 20.4878 56.3961 20.8069C57.1762 21.1083 57.85 21.6136 58.4173 22.3228C58.9847 23.0143 59.2683 23.9717 59.2683 25.195ZM49.4815 17.0039C49.4815 17.589 49.6588 18.0677 50.0134 18.44C50.368 18.7946 50.8822 19.0871 51.5559 19.3176V14.7167C50.9176 14.8054 50.4123 15.0447 50.04 15.4348C49.6677 15.8249 49.4815 16.3479 49.4815 17.0039ZM53.258 27.7215C53.9317 27.5974 54.4547 27.3226 54.827 26.8971C55.2171 26.4716 55.4121 25.9574 55.4121 25.3546C55.4121 24.7695 55.226 24.2997 54.8536 23.9451C54.4813 23.5905 53.9494 23.2979 53.258 23.0674V27.7215Z" fill="#69D3A7"/>
</svg>
