<svg width="114" height="87" viewBox="0 0 114 87" fill="none" xmlns="http://www.w3.org/2000/svg">
<path d="M93.9325 0H5.6181C2.51531 0 0 2.51531 0 5.6181V64.4284C0 67.5312 2.51531 70.0465 5.6181 70.0465H93.9325C97.0352 70.0465 99.5506 67.5312 99.5506 64.4284V5.6181C99.5506 2.51531 97.0352 0 93.9325 0Z" fill="#4956E3"/>
<path d="M33.385 30.6001C38.0293 30.6001 41.7942 26.8352 41.7942 22.1909C41.7942 17.5467 38.0293 13.7817 33.385 13.7817C28.7407 13.7817 24.9758 17.5467 24.9758 22.1909C24.9758 26.8352 28.7407 30.6001 33.385 30.6001Z" fill="#C2F1DE"/>
<path d="M12.9731 53.4258C13.0648 48.0736 15.2554 42.9715 19.0728 39.2189C22.8903 35.4663 28.0291 33.3635 33.3821 33.3635C38.7352 33.3635 43.874 35.4663 47.6915 39.2189C51.5089 42.9715 53.6995 48.0736 53.7912 53.4258H12.9731Z" fill="#C2F1DE"/>
<path d="M85.1102 14.8298H57.6965V20.7055H85.1102V14.8298Z" fill="#C5C9FD"/>
<path d="M85.1102 25.3833H57.6965V31.2589H85.1102V25.3833Z" fill="#2F3AB0"/>
<path d="M88.5358 86.0863C102.323 86.0863 113.5 74.9095 113.5 61.1223C113.5 47.335 102.323 36.1583 88.5358 36.1583C74.7485 36.1583 63.5718 47.335 63.5718 61.1223C63.5718 74.9095 74.7485 86.0863 88.5358 86.0863Z" fill="#C2F1DE"/>
<path d="M101.689 69.7719L79.8816 47.965L75.3796 52.467L97.1865 74.2739L101.689 69.7719Z" fill="#007780"/>
<path d="M97.1856 47.9697L75.3787 69.7766L79.8807 74.2786L101.688 52.4717L97.1856 47.9697Z" fill="#007780"/>
</svg>
