<svg width="114" height="81" viewBox="0 0 114 81" fill="none" xmlns="http://www.w3.org/2000/svg">
<rect y="9" width="97.8325" height="12.1134" rx="6.05672" fill="#4956E3"/>
<rect y="28.2013" width="97.8325" height="12.1134" rx="6.05672" fill="#6470F3"/>
<rect y="47.4025" width="97.8325" height="12.1134" rx="6.05672" fill="#C5C9FD"/>
<rect x="24.0566" y="66.6039" width="49.5857" height="13.7465" rx="6.87327" fill="#3A46CC"/>
<g clip-path="url(#clip0_120_407)">
<path d="M71.4783 29.5363L90.0074 1.32467C90.2742 0.917478 90.6408 0.582543 91.0737 0.350584C91.5067 0.118624 91.992 -0.00292969 92.4853 -0.00292969C92.9785 -0.00292969 93.4639 0.118624 93.8968 0.350584C94.3297 0.582543 94.6964 0.917478 94.9632 1.32467L113.511 29.5363C113.798 29.9733 113.96 30.4783 113.98 30.9981C113.999 31.5179 113.876 32.0332 113.622 32.4899C113.369 32.9466 112.995 33.3279 112.539 33.5935C112.083 33.8591 111.563 33.9993 111.033 33.9993H73.9531C73.423 33.9998 72.9026 33.8598 72.4468 33.5942C71.9909 33.3286 71.6166 32.9472 71.3632 32.4902C71.1098 32.0332 70.9868 31.5176 71.007 30.9977C71.0273 30.4778 71.1901 29.9729 71.4783 29.5363Z" fill="#A3E7CB"/>
<path d="M93.6086 24.3897H91.4103L90.1541 13.9748C90.1141 13.6473 90.1454 13.3151 90.2458 13.0003C90.3463 12.6854 90.5136 12.3951 90.7368 12.1483C90.96 11.9016 91.2339 11.7042 91.5406 11.569C91.8472 11.4338 92.1796 11.364 92.5158 11.3642C92.8508 11.3658 93.1818 11.4369 93.487 11.5728C93.7921 11.7087 94.0645 11.9064 94.2863 12.1529C94.5081 12.3994 94.6743 12.6892 94.774 13.0032C94.8737 13.3172 94.9047 13.6483 94.8649 13.9748L93.6086 24.3897Z" fill="#007780"/>
<path d="M92.5 29.6263C93.6066 29.6263 94.5036 28.7459 94.5036 27.6599C94.5036 26.5738 93.6066 25.6934 92.5 25.6934C91.3934 25.6934 90.4963 26.5738 90.4963 27.6599C90.4963 28.7459 91.3934 29.6263 92.5 29.6263Z" fill="#007780"/>
</g>
<defs>
<clipPath id="clip0_120_407">
<rect width="43" height="34" fill="white" transform="translate(71)"/>
</clipPath>
</defs>
</svg>
