<svg width="109" height="97" viewBox="0 0 109 97" fill="none" xmlns="http://www.w3.org/2000/svg">
<path d="M108.22 18.5657H47.5447V96.4523H108.22V18.5657Z" fill="#A3E7CB"/>
<path d="M34.3143 45.0017H0V89.0393H34.3143V45.0017Z" fill="#2F3AB0"/>
<path d="M81.5018 0H20.8264V77.8865H81.5018V0Z" fill="#6470F3"/>
<path d="M44.428 9.05853H29.6353V68.3793H44.428V9.05853Z" fill="#C2F1DE"/>
<path d="M73.5071 9.05853H44.4202V68.3793H73.5071V9.05853Z" fill="#69D3A7"/>
<path d="M60.1934 45.2842C72.0775 59.2127 91.8483 59.2127 103.732 45.2842C91.8483 31.3557 72.0775 31.3557 60.1934 45.2842Z" fill="white"/>
<path d="M81.9589 52.905C86.1678 52.905 89.5797 49.4931 89.5797 45.2842C89.5797 41.0754 86.1678 37.6635 81.9589 37.6635C77.7501 37.6635 74.3381 41.0754 74.3381 45.2842C74.3381 49.4931 77.7501 52.905 81.9589 52.905Z" fill="#00595D"/>
</svg>
