<svg width="98" height="93" viewBox="0 0 98 93" fill="none" xmlns="http://www.w3.org/2000/svg">
<path d="M47.3397 39.0324C58.1182 39.0324 66.8559 30.2947 66.8559 19.5162C66.8559 8.73771 58.1182 0 47.3397 0C36.5612 0 27.8235 8.73771 27.8235 19.5162C27.8235 30.2947 36.5612 39.0324 47.3397 39.0324Z" fill="#2F3AB0"/>
<path d="M0 91.9769C-9.93805e-07 79.4248 4.98501 67.3865 13.8589 58.5091C22.7328 49.6317 34.7691 44.6418 47.3212 44.6368C59.8774 44.6368 71.9195 49.6241 80.799 58.5019C89.6785 67.3796 94.6682 79.4207 94.6707 91.9769H0Z" fill="#2F3AB0"/>
<path d="M97.2703 58.5392H53.3494V92.297H97.2703V58.5392Z" fill="#C2F1DE"/>
<path d="M75.3521 41.6038C78.2317 41.6163 80.9891 42.7689 83.0209 44.8096C85.0527 46.8502 86.1934 49.6126 86.1934 52.4922V63.3712H64.426V52.4922C64.426 51.0592 64.7089 49.6402 65.2584 48.3167C65.808 46.9932 66.6134 45.7912 67.6285 44.7796C68.6435 43.768 69.8483 42.9668 71.1737 42.4218C72.4991 41.8768 73.919 41.5989 75.3521 41.6038Z" stroke="#C2F1DE" stroke-width="7.04" stroke-miterlimit="10"/>
<path d="M78.0836 72.3664C78.0836 70.837 76.8437 69.5972 75.3144 69.5972C73.785 69.5972 72.5452 70.837 72.5452 72.3664V78.1779C72.5452 79.7073 73.785 80.9471 75.3144 80.9471C76.8437 80.9471 78.0836 79.7073 78.0836 78.1779V72.3664Z" fill="#2F3AB0"/>
</svg>
