<svg width="1440" height="598" viewBox="0 0 1440 598" fill="none" xmlns="http://www.w3.org/2000/svg">
<g clip-path="url(#clip0_515_20527)">
<rect x="1" width="1445" height="598" fill="#E4FBF2"/>
<path d="M975.887 1039.13C830.343 974.78 674.797 870.794 595.742 728.553C505.688 566.271 514.158 321.963 577.233 151.267C655.052 -59.4189 799.415 -179.054 989.746 -285.827C989.746 -285.827 1075.8 -322.107 1101.67 -299.686C1145.11 -261.966 1165.74 -202.601 1175.96 -137.865C1180.1 -111.458 1182.51 -84.1467 1184.03 -57.0568C1184.43 -49.8229 1184.78 -42.6198 1185.06 -35.4475C1187.07 14.3774 1186.76 62.5783 1189.49 101.922C1198.07 225.967 1231.14 386.2 1199.91 508.603C1176.52 600.374 1175.04 692.014 1174.41 784.246C1174.08 832.705 1173.97 881.349 1171.03 930.233C1168.8 967.14 1153.95 997.718 1131.19 1019.16C1093.81 1054.54 1034.75 1065.2 975.887 1039.13Z" fill="#69D3A7"/>
<path d="M1174.43 784.264C1145.76 771.652 1119.26 754.587 1095.93 733.701C993.102 641.082 1029.11 473.91 1029.11 473.91C1038.42 420.136 1047.56 366.325 1057.04 312.57C1073.28 220.541 1078.65 128.033 1125.84 44.9913C1142.04 16.4804 1161.03 -22.5122 1184.04 -57.0759C1184.45 -49.8421 1184.79 -42.639 1185.08 -35.4667C1187.09 14.3582 1186.77 62.5592 1189.5 101.902C1198.09 225.948 1231.15 386.181 1199.93 508.584C1176.53 600.391 1175 692.032 1174.43 784.264Z" fill="#003131"/>
<path d="M1466.31 83.4469C1466.31 83.4469 1484.76 208.009 1464.63 298.912C1444.49 389.815 1427.59 482.378 1382.16 532.886C1336.72 583.394 1227.31 591.753 1149.9 537.924C1072.49 484.094 1082.56 367.947 1082.56 367.947C1084.3 330.781 1085.92 293.616 1087.73 256.468C1090.85 192.84 1086.6 129.839 1111.44 69.6804C1127.4 30.9277 1146.85 -33.4018 1183.56 -57.8898C1218.9 -81.4551 1324.93 -74.7011 1373.76 -35.9853C1422.59 2.73053 1449.42 16.1279 1466.31 83.4653L1466.31 83.4469Z" fill="#A3E7CB"/>
</g>
<defs>
<clipPath id="clip0_515_20527">
<rect width="1470" height="598" fill="white" transform="translate(-24)"/>
</clipPath>
</defs>
</svg>
