<svg width="625" height="309" viewBox="0 0 625 309" fill="none" xmlns="http://www.w3.org/2000/svg">
<g filter="url(#filter0_d_178_1027)">
<rect x="20" y="18" width="585" height="269" rx="15" fill="#F3F4FA"/>
</g>
<rect x="363" y="106" width="179" height="22" rx="11" fill="#DADDFE"/>
<rect x="363" y="139" width="179" height="22" rx="11" fill="#DADDFE"/>
<rect x="363" y="173" width="179" height="22" rx="11" fill="#DADDFE"/>
<rect x="363" y="206" width="91" height="25" rx="12.5" fill="#4956E3"/>
<path d="M128 18H590C598.284 18 605 24.7157 605 33V66H128V18Z" fill="#2F3AB0"/>
<path d="M20 33C20 24.7157 26.7157 18 35 18H147V287H35C26.7157 287 20 280.284 20 272V33Z" fill="white"/>
<rect x="40" y="100" width="88" height="10" rx="5" fill="#69D3A7"/>
<circle cx="53" cy="58" r="15" fill="#6470F3"/>
<rect x="80" y="46" width="48" height="10" rx="5" fill="#DADDFE"/>
<rect x="80" y="61" width="48" height="10" rx="5" fill="#DADDFE"/>
<rect x="61" y="143" width="67" height="10" rx="5" fill="#DADDFE"/>
<circle cx="47" cy="148" r="7" fill="#6470F3"/>
<rect x="61" y="170" width="67" height="10" rx="5" fill="#DADDFE"/>
<circle cx="47" cy="175" r="7" fill="#6470F3"/>
<rect x="61" y="197" width="67" height="10" rx="5" fill="#DADDFE"/>
<circle cx="47" cy="202" r="7" fill="#6470F3"/>
<circle cx="261" cy="169" r="64" fill="#69D3A7"/>
<defs>
<filter id="filter0_d_178_1027" x="0" y="0" width="625" height="309" filterUnits="userSpaceOnUse" color-interpolation-filters="sRGB">
<feFlood flood-opacity="0" result="BackgroundImageFix"/>
<feColorMatrix in="SourceAlpha" type="matrix" values="0 0 0 0 0 0 0 0 0 0 0 0 0 0 0 0 0 0 127 0" result="hardAlpha"/>
<feOffset dy="2"/>
<feGaussianBlur stdDeviation="10"/>
<feComposite in2="hardAlpha" operator="out"/>
<feColorMatrix type="matrix" values="0 0 0 0 0 0 0 0 0 0 0 0 0 0 0 0 0 0 0.1 0"/>
<feBlend mode="normal" in2="BackgroundImageFix" result="effect1_dropShadow_178_1027"/>
<feBlend mode="normal" in="SourceGraphic" in2="effect1_dropShadow_178_1027" result="shape"/>
</filter>
</defs>
</svg>
