<svg width="72" height="73" viewBox="0 0 72 73" fill="none" xmlns="http://www.w3.org/2000/svg">
<path d="M60 7.5H15H14C12.8954 7.5 12 8.39543 12 9.5V52.5H15H58.5H60V7.5Z" fill="#D0D2E0"/>
<path d="M60 64.5C60 64.5 59.0858 64.5 58.5 64.5M12 52.5V62.5C12 63.6046 12.8954 64.5 14 64.5H15M12 52.5V9.5C12 8.39543 12.8954 7.5 14 7.5H15M12 52.5H15M15 7.5H60V52.5H58.5M15 7.5V52.5M15 52.5V64.5M15 52.5H58.5M15 64.5C15 64.5 41.5122 64.5 58.5 64.5M58.5 52.5C58.5 52.5 57 58.5 58.5 64.5" stroke="#434861" stroke-width="4" stroke-linecap="round" stroke-linejoin="round"/>
<path d="M21 58.5H33V70.5L27 67.9286L21 70.5V58.5Z" fill="#69D3A7"/>
<path d="M21 58.5V56.5H19V58.5H21ZM33 58.5H35V56.5H33V58.5ZM33 70.5L32.2122 72.3383C32.8301 72.6031 33.5397 72.5398 34.101 72.1697C34.6622 71.7996 35 71.1723 35 70.5H33ZM21 70.5H19C19 71.1723 19.3378 71.7996 19.899 72.1697C20.4603 72.5398 21.1699 72.6031 21.7878 72.3383L21 70.5ZM27 67.9286L27.7878 66.0903C27.2847 65.8747 26.7153 65.8747 26.2122 66.0903L27 67.9286ZM21 60.5H33V56.5H21V60.5ZM31 58.5V70.5H35V58.5H31ZM23 70.5V58.5H19V70.5H23ZM33.7878 68.6617L27.7878 66.0903L26.2122 69.7669L32.2122 72.3383L33.7878 68.6617ZM26.2122 66.0903L20.2122 68.6617L21.7878 72.3383L27.7878 69.7669L26.2122 66.0903Z" fill="#00814D"/>
</svg>
