<svg width="52" height="52" viewBox="0 0 52 52" fill="none" xmlns="http://www.w3.org/2000/svg">
<path d="M28 1H49.5C50.3284 1 51 1.67157 51 2.5V24H28V1Z" fill="#69D3A7"/>
<path d="M24 28H1V49.5C1 50.3284 1.67157 51 2.5 51H24V28Z" fill="#69D3A7"/>
<path d="M24 5H25V4H24V5ZM28 1V0H27V1H28ZM51 24V25H52V24H51ZM28 24H27V25H28V24ZM47 28H48V27H47V28ZM2.5 6H24V4H2.5V6ZM23 5V28H25V5H23ZM24 27H1V29H24V27ZM2 28V6.5H0V28H2ZM23 28V51H25V28H23ZM24 50H2.5V52H24V50ZM2 49.5V28H0V49.5H2ZM28 2H49.5V0H28V2ZM50 2.5V24H52V2.5H50ZM51 23H28V25H51V23ZM29 24V1H27V24H29ZM24 29H47V27H24V29ZM46 28V49.5H48V28H46ZM45.5 50H24V52H45.5V50ZM46 49.5C46 49.7761 45.7761 50 45.5 50V52C46.8807 52 48 50.8807 48 49.5H46ZM49.5 2C49.7762 2 50 2.22386 50 2.5H52C52 1.11929 50.8807 0 49.5 0V2ZM2.5 50C2.22386 50 2 49.7761 2 49.5H0C0 50.8807 1.11929 52 2.5 52V50ZM2.5 4C1.11929 4 0 5.11929 0 6.5H2C2 6.22386 2.22386 6 2.5 6V4Z" fill="#007780"/>
</svg>
