<svg width="152" height="90" viewBox="0 0 152 90" fill="none" xmlns="http://www.w3.org/2000/svg">
<rect width="152" height="90" rx="5" fill="#2F3AB0"/>
<rect x="54" y="21" width="76" height="7" rx="3.5" fill="#9AA2FC"/>
<rect x="54" y="39" width="76" height="7" rx="3.5" fill="#9AA2FC"/>
<rect x="54" y="57" width="76" height="7" rx="3.5" fill="#69D3A7"/>
<path d="M26.608 27.176C26.608 28.008 26.392 28.792 25.96 29.528C25.544 30.248 24.92 30.848 24.088 31.328C23.272 31.792 22.304 32.064 21.184 32.144V34.088H19.648V32.12C18.048 31.976 16.76 31.496 15.784 30.68C14.808 29.848 14.304 28.728 14.272 27.32H17.872C17.968 28.472 18.56 29.168 19.648 29.408V24.824C18.496 24.536 17.568 24.248 16.864 23.96C16.16 23.672 15.552 23.208 15.04 22.568C14.528 21.928 14.272 21.056 14.272 19.952C14.272 18.56 14.768 17.424 15.76 16.544C16.768 15.664 18.064 15.16 19.648 15.032V13.088H21.184V15.032C22.72 15.16 23.944 15.624 24.856 16.424C25.784 17.224 26.304 18.328 26.416 19.736H22.792C22.744 19.272 22.576 18.872 22.288 18.536C22.016 18.184 21.648 17.936 21.184 17.792V22.328C22.384 22.632 23.328 22.928 24.016 23.216C24.72 23.488 25.328 23.944 25.84 24.584C26.352 25.208 26.608 26.072 26.608 27.176ZM17.776 19.784C17.776 20.312 17.936 20.744 18.256 21.08C18.576 21.4 19.04 21.664 19.648 21.872V17.72C19.072 17.8 18.616 18.016 18.28 18.368C17.944 18.72 17.776 19.192 17.776 19.784ZM21.184 29.456C21.792 29.344 22.264 29.096 22.6 28.712C22.952 28.328 23.128 27.864 23.128 27.32C23.128 26.792 22.96 26.368 22.624 26.048C22.288 25.728 21.808 25.464 21.184 25.256V29.456Z" fill="#A3E7CB"/>
</svg>
