<svg width="625" height="309" viewBox="0 0 625 309" fill="none" xmlns="http://www.w3.org/2000/svg">
<g filter="url(#filter0_d_178_1084)">
<rect x="20" y="18" width="585" height="269" rx="15" fill="#DADDFE"/>
</g>
<path d="M310.104 69L307.448 64.44H305.688V69H304.232V57.848H307.832C308.675 57.848 309.384 57.992 309.96 58.28C310.547 58.568 310.984 58.9573 311.272 59.448C311.56 59.9387 311.704 60.4987 311.704 61.128C311.704 61.896 311.48 62.5733 311.032 63.16C310.595 63.7467 309.933 64.136 309.048 64.328L311.848 69H310.104ZM305.688 63.272H307.832C308.621 63.272 309.213 63.08 309.608 62.696C310.003 62.3013 310.2 61.7787 310.2 61.128C310.2 60.4667 310.003 59.9547 309.608 59.592C309.224 59.2293 308.632 59.048 307.832 59.048H305.688V63.272ZM321.966 64.28C321.966 64.5573 321.95 64.8507 321.918 65.16H314.91C314.964 66.024 315.257 66.7013 315.79 67.192C316.334 67.672 316.99 67.912 317.758 67.912C318.388 67.912 318.91 67.768 319.326 67.48C319.753 67.1813 320.052 66.7867 320.222 66.296H321.79C321.556 67.1387 321.086 67.8267 320.382 68.36C319.678 68.8827 318.804 69.144 317.758 69.144C316.926 69.144 316.18 68.9573 315.518 68.584C314.868 68.2107 314.356 67.6827 313.982 67C313.609 66.3067 313.422 65.5067 313.422 64.6C313.422 63.6933 313.604 62.8987 313.966 62.216C314.329 61.5333 314.836 61.0107 315.486 60.648C316.148 60.2747 316.905 60.088 317.758 60.088C318.59 60.088 319.326 60.2693 319.966 60.632C320.606 60.9947 321.097 61.496 321.438 62.136C321.79 62.7653 321.966 63.48 321.966 64.28ZM320.462 63.976C320.462 63.4213 320.34 62.9467 320.094 62.552C319.849 62.1467 319.513 61.8427 319.086 61.64C318.67 61.4267 318.206 61.32 317.694 61.32C316.958 61.32 316.329 61.5547 315.806 62.024C315.294 62.4933 315.001 63.144 314.926 63.976H320.462ZM323.344 64.584C323.344 63.688 323.526 62.904 323.888 62.232C324.251 61.5493 324.747 61.0213 325.376 60.648C326.016 60.2747 326.726 60.088 327.504 60.088C328.272 60.088 328.939 60.2533 329.504 60.584C330.07 60.9147 330.491 61.3307 330.768 61.832V60.232H332.24V69H330.768V67.368C330.48 67.88 330.048 68.3067 329.472 68.648C328.907 68.9787 328.246 69.144 327.488 69.144C326.71 69.144 326.006 68.952 325.376 68.568C324.747 68.184 324.251 67.6453 323.888 66.952C323.526 66.2587 323.344 65.4693 323.344 64.584ZM330.768 64.6C330.768 63.9387 330.635 63.3627 330.368 62.872C330.102 62.3813 329.739 62.008 329.28 61.752C328.832 61.4853 328.336 61.352 327.792 61.352C327.248 61.352 326.752 61.48 326.304 61.736C325.856 61.992 325.499 62.3653 325.232 62.856C324.966 63.3467 324.832 63.9227 324.832 64.584C324.832 65.256 324.966 65.8427 325.232 66.344C325.499 66.8347 325.856 67.2133 326.304 67.48C326.752 67.736 327.248 67.864 327.792 67.864C328.336 67.864 328.832 67.736 329.28 67.48C329.739 67.2133 330.102 66.8347 330.368 66.344C330.635 65.8427 330.768 65.2613 330.768 64.6ZM336.157 57.16V69H334.701V57.16H336.157ZM356.92 57.848L353.688 69H352.056L349.464 60.024L346.776 69L345.16 69.016L342.04 57.848H343.592L346.024 67.304L348.712 57.848H350.344L352.904 67.272L355.352 57.848H356.92ZM362.337 69.144C361.516 69.144 360.769 68.9573 360.097 68.584C359.436 68.2107 358.913 67.6827 358.529 67C358.156 66.3067 357.969 65.5067 357.969 64.6C357.969 63.704 358.161 62.9147 358.545 62.232C358.94 61.5387 359.473 61.0107 360.145 60.648C360.817 60.2747 361.569 60.088 362.401 60.088C363.233 60.088 363.985 60.2747 364.657 60.648C365.329 61.0107 365.857 61.5333 366.241 62.216C366.636 62.8987 366.833 63.6933 366.833 64.6C366.833 65.5067 366.631 66.3067 366.225 67C365.831 67.6827 365.292 68.2107 364.609 68.584C363.927 68.9573 363.169 69.144 362.337 69.144ZM362.337 67.864C362.86 67.864 363.351 67.7413 363.809 67.496C364.268 67.2507 364.636 66.8827 364.913 66.392C365.201 65.9013 365.345 65.304 365.345 64.6C365.345 63.896 365.207 63.2987 364.929 62.808C364.652 62.3173 364.289 61.9547 363.841 61.72C363.393 61.4747 362.908 61.352 362.385 61.352C361.852 61.352 361.361 61.4747 360.913 61.72C360.476 61.9547 360.124 62.3173 359.857 62.808C359.591 63.2987 359.457 63.896 359.457 64.6C359.457 65.3147 359.585 65.9173 359.841 66.408C360.108 66.8987 360.46 67.2667 360.897 67.512C361.335 67.7467 361.815 67.864 362.337 67.864ZM370.204 61.656C370.46 61.1547 370.822 60.7653 371.292 60.488C371.772 60.2107 372.353 60.072 373.036 60.072V61.576H372.652C371.02 61.576 370.204 62.4613 370.204 64.232V69H368.748V60.232H370.204V61.656ZM376.172 57.16V69H374.716V57.16H376.172ZM378.11 64.584C378.11 63.688 378.291 62.904 378.654 62.232C379.017 61.5493 379.513 61.0213 380.142 60.648C380.782 60.2747 381.497 60.088 382.286 60.088C382.969 60.088 383.603 60.248 384.19 60.568C384.777 60.8773 385.225 61.288 385.534 61.8V57.16H387.006V69H385.534V67.352C385.246 67.8747 384.819 68.3067 384.254 68.648C383.689 68.9787 383.027 69.144 382.27 69.144C381.491 69.144 380.782 68.952 380.142 68.568C379.513 68.184 379.017 67.6453 378.654 66.952C378.291 66.2587 378.11 65.4693 378.11 64.584ZM385.534 64.6C385.534 63.9387 385.401 63.3627 385.134 62.872C384.867 62.3813 384.505 62.008 384.046 61.752C383.598 61.4853 383.102 61.352 382.558 61.352C382.014 61.352 381.518 61.48 381.07 61.736C380.622 61.992 380.265 62.3653 379.998 62.856C379.731 63.3467 379.598 63.9227 379.598 64.584C379.598 65.256 379.731 65.8427 379.998 66.344C380.265 66.8347 380.622 67.2133 381.07 67.48C381.518 67.736 382.014 67.864 382.558 67.864C383.102 67.864 383.598 67.736 384.046 67.48C384.505 67.2133 384.867 66.8347 385.134 66.344C385.401 65.8427 385.534 65.2613 385.534 64.6ZM400.324 66.52H395.46L394.564 69H393.028L397.06 57.912H398.74L402.756 69H401.22L400.324 66.52ZM399.908 65.336L397.892 59.704L395.876 65.336H399.908ZM405.969 61.848C406.257 61.3467 406.684 60.9307 407.249 60.6C407.825 60.2587 408.492 60.088 409.249 60.088C410.028 60.088 410.732 60.2747 411.361 60.648C412.001 61.0213 412.503 61.5493 412.865 62.232C413.228 62.904 413.409 63.688 413.409 64.584C413.409 65.4693 413.228 66.2587 412.865 66.952C412.503 67.6453 412.001 68.184 411.361 68.568C410.732 68.952 410.028 69.144 409.249 69.144C408.503 69.144 407.841 68.9787 407.265 68.648C406.7 68.3067 406.268 67.8853 405.969 67.384V73.16H404.513V60.232H405.969V61.848ZM411.921 64.584C411.921 63.9227 411.788 63.3467 411.521 62.856C411.255 62.3653 410.892 61.992 410.433 61.736C409.985 61.48 409.489 61.352 408.945 61.352C408.412 61.352 407.916 61.4853 407.457 61.752C407.009 62.008 406.647 62.3867 406.369 62.888C406.103 63.3787 405.969 63.9493 405.969 64.6C405.969 65.2613 406.103 65.8427 406.369 66.344C406.647 66.8347 407.009 67.2133 407.457 67.48C407.916 67.736 408.412 67.864 408.945 67.864C409.489 67.864 409.985 67.736 410.433 67.48C410.892 67.2133 411.255 66.8347 411.521 66.344C411.788 65.8427 411.921 65.256 411.921 64.584ZM416.782 61.848C417.07 61.3467 417.496 60.9307 418.062 60.6C418.638 60.2587 419.304 60.088 420.062 60.088C420.84 60.088 421.544 60.2747 422.174 60.648C422.814 61.0213 423.315 61.5493 423.678 62.232C424.04 62.904 424.222 63.688 424.222 64.584C424.222 65.4693 424.04 66.2587 423.678 66.952C423.315 67.6453 422.814 68.184 422.174 68.568C421.544 68.952 420.84 69.144 420.062 69.144C419.315 69.144 418.654 68.9787 418.078 68.648C417.512 68.3067 417.08 67.8853 416.782 67.384V73.16H415.326V60.232H416.782V61.848ZM422.734 64.584C422.734 63.9227 422.6 63.3467 422.334 62.856C422.067 62.3653 421.704 61.992 421.246 61.736C420.798 61.48 420.302 61.352 419.758 61.352C419.224 61.352 418.728 61.4853 418.27 61.752C417.822 62.008 417.459 62.3867 417.182 62.888C416.915 63.3787 416.782 63.9493 416.782 64.6C416.782 65.2613 416.915 65.8427 417.182 66.344C417.459 66.8347 417.822 67.2133 418.27 67.48C418.728 67.736 419.224 67.864 419.758 67.864C420.302 67.864 420.798 67.736 421.246 67.48C421.704 67.2133 422.067 66.8347 422.334 66.344C422.6 65.8427 422.734 65.256 422.734 64.584ZM431.86 61.656C432.116 61.1547 432.479 60.7653 432.948 60.488C433.428 60.2107 434.009 60.072 434.692 60.072V61.576H434.308C432.676 61.576 431.86 62.4613 431.86 64.232V69H430.404V60.232H431.86V61.656ZM444.373 64.28C444.373 64.5573 444.357 64.8507 444.325 65.16H437.317C437.37 66.024 437.663 66.7013 438.197 67.192C438.741 67.672 439.397 67.912 440.165 67.912C440.794 67.912 441.317 67.768 441.733 67.48C442.159 67.1813 442.458 66.7867 442.629 66.296H444.197C443.962 67.1387 443.493 67.8267 442.789 68.36C442.085 68.8827 441.21 69.144 440.165 69.144C439.333 69.144 438.586 68.9573 437.925 68.584C437.274 68.2107 436.762 67.6827 436.389 67C436.015 66.3067 435.829 65.5067 435.829 64.6C435.829 63.6933 436.01 62.8987 436.373 62.216C436.735 61.5333 437.242 61.0107 437.893 60.648C438.554 60.2747 439.311 60.088 440.165 60.088C440.997 60.088 441.733 60.2693 442.373 60.632C443.013 60.9947 443.503 61.496 443.845 62.136C444.197 62.7653 444.373 63.48 444.373 64.28ZM442.869 63.976C442.869 63.4213 442.746 62.9467 442.501 62.552C442.255 62.1467 441.919 61.8427 441.493 61.64C441.077 61.4267 440.613 61.32 440.101 61.32C439.365 61.32 438.735 61.5547 438.213 62.024C437.701 62.4933 437.407 63.144 437.333 63.976H442.869ZM445.751 64.584C445.751 63.688 445.932 62.904 446.295 62.232C446.657 61.5493 447.153 61.0213 447.783 60.648C448.423 60.2747 449.137 60.088 449.927 60.088C450.684 60.088 451.345 60.2587 451.911 60.6C452.487 60.9307 452.908 61.3413 453.175 61.832V60.232H454.647V73.16H453.175V67.384C452.897 67.8747 452.471 68.2907 451.895 68.632C451.319 68.9733 450.647 69.144 449.879 69.144C449.111 69.144 448.412 68.952 447.783 68.568C447.153 68.184 446.657 67.6453 446.295 66.952C445.932 66.2587 445.751 65.4693 445.751 64.584ZM453.175 64.6C453.175 63.9387 453.041 63.3627 452.775 62.872C452.508 62.3813 452.145 62.008 451.687 61.752C451.239 61.4853 450.743 61.352 450.199 61.352C449.655 61.352 449.159 61.48 448.711 61.736C448.263 61.992 447.905 62.3653 447.639 62.856C447.372 63.3467 447.239 63.9227 447.239 64.584C447.239 65.256 447.372 65.8427 447.639 66.344C447.905 66.8347 448.263 67.2133 448.711 67.48C449.159 67.736 449.655 67.864 450.199 67.864C450.743 67.864 451.239 67.736 451.687 67.48C452.145 67.2133 452.508 66.8347 452.775 66.344C453.041 65.8427 453.175 65.2613 453.175 64.6ZM464.883 60.232V69H463.427V67.704C463.15 68.152 462.76 68.504 462.259 68.76C461.768 69.0053 461.224 69.128 460.627 69.128C459.944 69.128 459.331 68.9893 458.787 68.712C458.243 68.424 457.811 67.9973 457.491 67.432C457.182 66.8667 457.027 66.1787 457.027 65.368V60.232H458.467V65.176C458.467 66.04 458.686 66.7067 459.123 67.176C459.56 67.6347 460.158 67.864 460.915 67.864C461.694 67.864 462.307 67.624 462.755 67.144C463.203 66.664 463.427 65.9653 463.427 65.048V60.232H464.883ZM468.093 58.808C467.816 58.808 467.581 58.712 467.389 58.52C467.197 58.328 467.101 58.0933 467.101 57.816C467.101 57.5387 467.197 57.304 467.389 57.112C467.581 56.92 467.816 56.824 468.093 56.824C468.36 56.824 468.584 56.92 468.765 57.112C468.957 57.304 469.053 57.5387 469.053 57.816C469.053 58.0933 468.957 58.328 468.765 58.52C468.584 58.712 468.36 58.808 468.093 58.808ZM468.797 60.232V69H467.341V60.232H468.797ZM472.735 61.656C472.991 61.1547 473.354 60.7653 473.823 60.488C474.303 60.2107 474.884 60.072 475.567 60.072V61.576H475.183C473.551 61.576 472.735 62.4613 472.735 64.232V69H471.279V60.232H472.735V61.656ZM485.248 64.28C485.248 64.5573 485.232 64.8507 485.2 65.16H478.192C478.245 66.024 478.538 66.7013 479.072 67.192C479.616 67.672 480.272 67.912 481.04 67.912C481.669 67.912 482.192 67.768 482.608 67.48C483.034 67.1813 483.333 66.7867 483.504 66.296H485.072C484.837 67.1387 484.368 67.8267 483.664 68.36C482.96 68.8827 482.085 69.144 481.04 69.144C480.208 69.144 479.461 68.9573 478.8 68.584C478.149 68.2107 477.637 67.6827 477.264 67C476.89 66.3067 476.704 65.5067 476.704 64.6C476.704 63.6933 476.885 62.8987 477.248 62.216C477.61 61.5333 478.117 61.0107 478.768 60.648C479.429 60.2747 480.186 60.088 481.04 60.088C481.872 60.088 482.608 60.2693 483.248 60.632C483.888 60.9947 484.378 61.496 484.72 62.136C485.072 62.7653 485.248 63.48 485.248 64.28ZM483.744 63.976C483.744 63.4213 483.621 62.9467 483.376 62.552C483.13 62.1467 482.794 61.8427 482.368 61.64C481.952 61.4267 481.488 61.32 480.976 61.32C480.24 61.32 479.61 61.5547 479.088 62.024C478.576 62.4933 478.282 63.144 478.208 63.976H483.744ZM490.274 69.144C489.602 69.144 488.999 69.032 488.466 68.808C487.932 68.5733 487.511 68.2533 487.202 67.848C486.892 67.432 486.722 66.9573 486.69 66.424H488.194C488.236 66.8613 488.439 67.2187 488.802 67.496C489.175 67.7733 489.66 67.912 490.258 67.912C490.812 67.912 491.25 67.7893 491.57 67.544C491.89 67.2987 492.05 66.9893 492.05 66.616C492.05 66.232 491.879 65.9493 491.538 65.768C491.196 65.576 490.668 65.3893 489.954 65.208C489.303 65.0373 488.77 64.8667 488.354 64.696C487.948 64.5147 487.596 64.2533 487.298 63.912C487.01 63.56 486.866 63.1013 486.866 62.536C486.866 62.088 486.999 61.6773 487.266 61.304C487.532 60.9307 487.911 60.6373 488.402 60.424C488.892 60.2 489.452 60.088 490.082 60.088C491.052 60.088 491.836 60.3333 492.434 60.824C493.031 61.3147 493.351 61.9867 493.394 62.84H491.938C491.906 62.3813 491.719 62.0133 491.378 61.736C491.047 61.4587 490.599 61.32 490.034 61.32C489.511 61.32 489.095 61.432 488.786 61.656C488.476 61.88 488.322 62.1733 488.322 62.536C488.322 62.824 488.412 63.064 488.594 63.256C488.786 63.4373 489.02 63.5867 489.298 63.704C489.586 63.8107 489.98 63.9333 490.482 64.072C491.111 64.2427 491.623 64.4133 492.018 64.584C492.412 64.744 492.748 64.9893 493.026 65.32C493.314 65.6507 493.463 66.0827 493.474 66.616C493.474 67.096 493.34 67.528 493.074 67.912C492.807 68.296 492.428 68.6 491.938 68.824C491.458 69.0373 490.903 69.144 490.274 69.144ZM499.251 64.584C499.251 63.688 499.432 62.904 499.795 62.232C500.157 61.5493 500.653 61.0213 501.283 60.648C501.923 60.2747 502.632 60.088 503.411 60.088C504.179 60.088 504.845 60.2533 505.411 60.584C505.976 60.9147 506.397 61.3307 506.675 61.832V60.232H508.147V69H506.675V67.368C506.387 67.88 505.955 68.3067 505.379 68.648C504.813 68.9787 504.152 69.144 503.395 69.144C502.616 69.144 501.912 68.952 501.283 68.568C500.653 68.184 500.157 67.6453 499.795 66.952C499.432 66.2587 499.251 65.4693 499.251 64.584ZM506.675 64.6C506.675 63.9387 506.541 63.3627 506.275 62.872C506.008 62.3813 505.645 62.008 505.187 61.752C504.739 61.4853 504.243 61.352 503.699 61.352C503.155 61.352 502.659 61.48 502.211 61.736C501.763 61.992 501.405 62.3653 501.139 62.856C500.872 63.3467 500.739 63.9227 500.739 64.584C500.739 65.256 500.872 65.8427 501.139 66.344C501.405 66.8347 501.763 67.2133 502.211 67.48C502.659 67.736 503.155 67.864 503.699 67.864C504.243 67.864 504.739 67.736 505.187 67.48C505.645 67.2133 506.008 66.8347 506.275 66.344C506.541 65.8427 506.675 65.2613 506.675 64.6ZM520.457 63.256C520.862 63.32 521.23 63.4853 521.561 63.752C521.902 64.0187 522.169 64.3493 522.361 64.744C522.563 65.1387 522.665 65.56 522.665 66.008C522.665 66.5733 522.521 67.0853 522.233 67.544C521.945 67.992 521.523 68.3493 520.969 68.616C520.425 68.872 519.779 69 519.033 69H514.873V57.848H518.873C519.63 57.848 520.275 57.976 520.809 58.232C521.342 58.4773 521.742 58.8133 522.009 59.24C522.275 59.6667 522.409 60.1467 522.409 60.68C522.409 61.3413 522.227 61.8907 521.865 62.328C521.513 62.7547 521.043 63.064 520.457 63.256ZM516.329 62.664H518.777C519.459 62.664 519.987 62.504 520.361 62.184C520.734 61.864 520.921 61.4213 520.921 60.856C520.921 60.2907 520.734 59.848 520.361 59.528C519.987 59.208 519.449 59.048 518.745 59.048H516.329V62.664ZM518.905 67.8C519.63 67.8 520.195 67.6293 520.601 67.288C521.006 66.9467 521.209 66.472 521.209 65.864C521.209 65.2453 520.995 64.76 520.569 64.408C520.142 64.0453 519.571 63.864 518.857 63.864H516.329V67.8H518.905ZM524.141 64.584C524.141 63.688 524.322 62.904 524.685 62.232C525.048 61.5493 525.544 61.0213 526.173 60.648C526.813 60.2747 527.522 60.088 528.301 60.088C529.069 60.088 529.736 60.2533 530.301 60.584C530.866 60.9147 531.288 61.3307 531.565 61.832V60.232H533.037V69H531.565V67.368C531.277 67.88 530.845 68.3067 530.269 68.648C529.704 68.9787 529.042 69.144 528.285 69.144C527.506 69.144 526.802 68.952 526.173 68.568C525.544 68.184 525.048 67.6453 524.685 66.952C524.322 66.2587 524.141 65.4693 524.141 64.584ZM531.565 64.6C531.565 63.9387 531.432 63.3627 531.165 62.872C530.898 62.3813 530.536 62.008 530.077 61.752C529.629 61.4853 529.133 61.352 528.589 61.352C528.045 61.352 527.549 61.48 527.101 61.736C526.653 61.992 526.296 62.3653 526.029 62.856C525.762 63.3467 525.629 63.9227 525.629 64.584C525.629 65.256 525.762 65.8427 526.029 66.344C526.296 66.8347 526.653 67.2133 527.101 67.48C527.549 67.736 528.045 67.864 528.589 67.864C529.133 67.864 529.629 67.736 530.077 67.48C530.536 67.2133 530.898 66.8347 531.165 66.344C531.432 65.8427 531.565 65.2613 531.565 64.6ZM539.77 60.072C540.836 60.072 541.7 60.3973 542.362 61.048C543.023 61.688 543.354 62.616 543.354 63.832V69H541.914V64.04C541.914 63.1653 541.695 62.4987 541.258 62.04C540.82 61.5707 540.223 61.336 539.466 61.336C538.698 61.336 538.084 61.576 537.626 62.056C537.178 62.536 536.954 63.2347 536.954 64.152V69H535.498V60.232H536.954V61.48C537.242 61.032 537.631 60.6853 538.122 60.44C538.623 60.1947 539.172 60.072 539.77 60.072ZM550.628 69L547.188 65.128V69H545.732V57.16H547.188V64.12L550.564 60.232H552.596L548.468 64.6L552.612 69H550.628ZM310.824 87.52H305.96L305.064 90H303.528L307.56 78.912H309.24L313.256 90H311.72L310.824 87.52ZM310.408 86.336L308.392 80.704L306.376 86.336H310.408ZM314.469 85.6C314.469 84.6933 314.651 83.904 315.013 83.232C315.376 82.5493 315.877 82.0213 316.517 81.648C317.168 81.2747 317.909 81.088 318.741 81.088C319.819 81.088 320.704 81.3493 321.397 81.872C322.101 82.3947 322.565 83.12 322.789 84.048H321.221C321.072 83.5147 320.779 83.0933 320.341 82.784C319.915 82.4747 319.381 82.32 318.741 82.32C317.909 82.32 317.237 82.608 316.725 83.184C316.213 83.7493 315.957 84.5547 315.957 85.6C315.957 86.656 316.213 87.472 316.725 88.048C317.237 88.624 317.909 88.912 318.741 88.912C319.381 88.912 319.915 88.7627 320.341 88.464C320.768 88.1653 321.061 87.7387 321.221 87.184H322.789C322.555 88.08 322.085 88.8 321.381 89.344C320.677 89.8773 319.797 90.144 318.741 90.144C317.909 90.144 317.168 89.9573 316.517 89.584C315.877 89.2107 315.376 88.6827 315.013 88C314.651 87.3173 314.469 86.5173 314.469 85.6ZM324.188 85.6C324.188 84.6933 324.369 83.904 324.732 83.232C325.095 82.5493 325.596 82.0213 326.236 81.648C326.887 81.2747 327.628 81.088 328.46 81.088C329.537 81.088 330.423 81.3493 331.116 81.872C331.82 82.3947 332.284 83.12 332.508 84.048H330.94C330.791 83.5147 330.497 83.0933 330.06 82.784C329.633 82.4747 329.1 82.32 328.46 82.32C327.628 82.32 326.956 82.608 326.444 83.184C325.932 83.7493 325.676 84.5547 325.676 85.6C325.676 86.656 325.932 87.472 326.444 88.048C326.956 88.624 327.628 88.912 328.46 88.912C329.1 88.912 329.633 88.7627 330.06 88.464C330.487 88.1653 330.78 87.7387 330.94 87.184H332.508C332.273 88.08 331.804 88.8 331.1 89.344C330.396 89.8773 329.516 90.144 328.46 90.144C327.628 90.144 326.887 89.9573 326.236 89.584C325.596 89.2107 325.095 88.6827 324.732 88C324.369 87.3173 324.188 86.5173 324.188 85.6ZM338.275 90.144C337.453 90.144 336.707 89.9573 336.035 89.584C335.373 89.2107 334.851 88.6827 334.467 88C334.093 87.3067 333.907 86.5067 333.907 85.6C333.907 84.704 334.099 83.9147 334.483 83.232C334.877 82.5387 335.411 82.0107 336.083 81.648C336.755 81.2747 337.507 81.088 338.339 81.088C339.171 81.088 339.923 81.2747 340.595 81.648C341.267 82.0107 341.795 82.5333 342.179 83.216C342.573 83.8987 342.771 84.6933 342.771 85.6C342.771 86.5067 342.568 87.3067 342.163 88C341.768 88.6827 341.229 89.2107 340.547 89.584C339.864 89.9573 339.107 90.144 338.275 90.144ZM338.275 88.864C338.797 88.864 339.288 88.7413 339.747 88.496C340.205 88.2507 340.573 87.8827 340.851 87.392C341.139 86.9013 341.283 86.304 341.283 85.6C341.283 84.896 341.144 84.2987 340.867 83.808C340.589 83.3173 340.227 82.9547 339.779 82.72C339.331 82.4747 338.845 82.352 338.323 82.352C337.789 82.352 337.299 82.4747 336.851 82.72C336.413 82.9547 336.061 83.3173 335.795 83.808C335.528 84.2987 335.395 84.896 335.395 85.6C335.395 86.3147 335.523 86.9173 335.779 87.408C336.045 87.8987 336.397 88.2667 336.835 88.512C337.272 88.7467 337.752 88.864 338.275 88.864ZM352.461 81.232V90H351.005V88.704C350.728 89.152 350.338 89.504 349.837 89.76C349.346 90.0053 348.802 90.128 348.205 90.128C347.522 90.128 346.909 89.9893 346.365 89.712C345.821 89.424 345.389 88.9973 345.069 88.432C344.76 87.8667 344.605 87.1787 344.605 86.368V81.232H346.045V86.176C346.045 87.04 346.264 87.7067 346.701 88.176C347.138 88.6347 347.736 88.864 348.493 88.864C349.272 88.864 349.885 88.624 350.333 88.144C350.781 87.664 351.005 86.9653 351.005 86.048V81.232H352.461ZM359.192 81.072C360.258 81.072 361.122 81.3973 361.784 82.048C362.445 82.688 362.776 83.616 362.776 84.832V90H361.336V85.04C361.336 84.1653 361.117 83.4987 360.68 83.04C360.242 82.5707 359.645 82.336 358.888 82.336C358.12 82.336 357.506 82.576 357.048 83.056C356.6 83.536 356.376 84.2347 356.376 85.152V90H354.92V81.232H356.376V82.48C356.664 82.032 357.053 81.6853 357.544 81.44C358.045 81.1947 358.594 81.072 359.192 81.072ZM366.93 82.432V87.6C366.93 88.0267 367.021 88.3307 367.202 88.512C367.383 88.6827 367.698 88.768 368.146 88.768H369.218V90H367.906C367.095 90 366.487 89.8133 366.082 89.44C365.677 89.0667 365.474 88.4533 365.474 87.6V82.432H364.338V81.232H365.474V79.024H366.93V81.232H369.218V82.432H366.93ZM377.024 82.432V87.6C377.024 88.0267 377.114 88.3307 377.296 88.512C377.477 88.6827 377.792 88.768 378.24 88.768H379.312V90H378C377.189 90 376.581 89.8133 376.176 89.44C375.77 89.0667 375.568 88.4533 375.568 87.6V82.432H374.432V81.232H375.568V79.024H377.024V81.232H379.312V82.432H377.024ZM384.9 90.144C384.078 90.144 383.332 89.9573 382.66 89.584C381.998 89.2107 381.476 88.6827 381.092 88C380.718 87.3067 380.532 86.5067 380.532 85.6C380.532 84.704 380.724 83.9147 381.108 83.232C381.502 82.5387 382.036 82.0107 382.708 81.648C383.38 81.2747 384.132 81.088 384.964 81.088C385.796 81.088 386.548 81.2747 387.22 81.648C387.892 82.0107 388.42 82.5333 388.804 83.216C389.198 83.8987 389.396 84.6933 389.396 85.6C389.396 86.5067 389.193 87.3067 388.788 88C388.393 88.6827 387.854 89.2107 387.172 89.584C386.489 89.9573 385.732 90.144 384.9 90.144ZM384.9 88.864C385.422 88.864 385.913 88.7413 386.372 88.496C386.83 88.2507 387.198 87.8827 387.476 87.392C387.764 86.9013 387.908 86.304 387.908 85.6C387.908 84.896 387.769 84.2987 387.492 83.808C387.214 83.3173 386.852 82.9547 386.404 82.72C385.956 82.4747 385.47 82.352 384.948 82.352C384.414 82.352 383.924 82.4747 383.476 82.72C383.038 82.9547 382.686 83.3173 382.42 83.808C382.153 84.2987 382.02 84.896 382.02 85.6C382.02 86.3147 382.148 86.9173 382.404 87.408C382.67 87.8987 383.022 88.2667 383.46 88.512C383.897 88.7467 384.377 88.864 384.9 88.864ZM397.032 82.848C397.32 82.3467 397.746 81.9307 398.312 81.6C398.888 81.2587 399.554 81.088 400.312 81.088C401.09 81.088 401.794 81.2747 402.424 81.648C403.064 82.0213 403.565 82.5493 403.928 83.232C404.29 83.904 404.472 84.688 404.472 85.584C404.472 86.4693 404.29 87.2587 403.928 87.952C403.565 88.6453 403.064 89.184 402.424 89.568C401.794 89.952 401.09 90.144 400.312 90.144C399.565 90.144 398.904 89.9787 398.328 89.648C397.762 89.3067 397.33 88.8853 397.032 88.384V94.16H395.576V81.232H397.032V82.848ZM402.984 85.584C402.984 84.9227 402.85 84.3467 402.584 83.856C402.317 83.3653 401.954 82.992 401.496 82.736C401.048 82.48 400.552 82.352 400.008 82.352C399.474 82.352 398.978 82.4853 398.52 82.752C398.072 83.008 397.709 83.3867 397.432 83.888C397.165 84.3787 397.032 84.9493 397.032 85.6C397.032 86.2613 397.165 86.8427 397.432 87.344C397.709 87.8347 398.072 88.2133 398.52 88.48C398.978 88.736 399.474 88.864 400.008 88.864C400.552 88.864 401.048 88.736 401.496 88.48C401.954 88.2133 402.317 87.8347 402.584 87.344C402.85 86.8427 402.984 86.256 402.984 85.584ZM414.388 85.28C414.388 85.5573 414.372 85.8507 414.34 86.16H407.332C407.386 87.024 407.679 87.7013 408.212 88.192C408.756 88.672 409.412 88.912 410.18 88.912C410.81 88.912 411.332 88.768 411.748 88.48C412.175 88.1813 412.474 87.7867 412.644 87.296H414.212C413.978 88.1387 413.508 88.8267 412.804 89.36C412.1 89.8827 411.226 90.144 410.18 90.144C409.348 90.144 408.602 89.9573 407.94 89.584C407.29 89.2107 406.778 88.6827 406.404 88C406.031 87.3067 405.844 86.5067 405.844 85.6C405.844 84.6933 406.026 83.8987 406.388 83.216C406.751 82.5333 407.258 82.0107 407.908 81.648C408.57 81.2747 409.327 81.088 410.18 81.088C411.012 81.088 411.748 81.2693 412.388 81.632C413.028 81.9947 413.519 82.496 413.86 83.136C414.212 83.7653 414.388 84.48 414.388 85.28ZM412.884 84.976C412.884 84.4213 412.762 83.9467 412.516 83.552C412.271 83.1467 411.935 82.8427 411.508 82.64C411.092 82.4267 410.628 82.32 410.116 82.32C409.38 82.32 408.751 82.5547 408.228 83.024C407.716 83.4933 407.423 84.144 407.348 84.976H412.884ZM417.766 82.656C418.022 82.1547 418.385 81.7653 418.854 81.488C419.334 81.2107 419.915 81.072 420.598 81.072V82.576H420.214C418.582 82.576 417.766 83.4613 417.766 85.232V90H416.31V81.232H417.766V82.656ZM425.847 82.432H424.007V90H422.551V82.432H421.415V81.232H422.551V80.608C422.551 79.6267 422.802 78.912 423.303 78.464C423.815 78.0053 424.631 77.776 425.751 77.776V78.992C425.111 78.992 424.658 79.12 424.391 79.376C424.135 79.6213 424.007 80.032 424.007 80.608V81.232H425.847V82.432ZM431.369 90.144C430.547 90.144 429.801 89.9573 429.129 89.584C428.467 89.2107 427.945 88.6827 427.561 88C427.187 87.3067 427.001 86.5067 427.001 85.6C427.001 84.704 427.193 83.9147 427.577 83.232C427.971 82.5387 428.505 82.0107 429.177 81.648C429.849 81.2747 430.601 81.088 431.433 81.088C432.265 81.088 433.017 81.2747 433.689 81.648C434.361 82.0107 434.889 82.5333 435.273 83.216C435.667 83.8987 435.865 84.6933 435.865 85.6C435.865 86.5067 435.662 87.3067 435.257 88C434.862 88.6827 434.323 89.2107 433.641 89.584C432.958 89.9573 432.201 90.144 431.369 90.144ZM431.369 88.864C431.891 88.864 432.382 88.7413 432.841 88.496C433.299 88.2507 433.667 87.8827 433.945 87.392C434.233 86.9013 434.377 86.304 434.377 85.6C434.377 84.896 434.238 84.2987 433.961 83.808C433.683 83.3173 433.321 82.9547 432.873 82.72C432.425 82.4747 431.939 82.352 431.417 82.352C430.883 82.352 430.393 82.4747 429.945 82.72C429.507 82.9547 429.155 83.3173 428.889 83.808C428.622 84.2987 428.489 84.896 428.489 85.6C428.489 86.3147 428.617 86.9173 428.873 87.408C429.139 87.8987 429.491 88.2667 429.929 88.512C430.366 88.7467 430.846 88.864 431.369 88.864ZM439.235 82.656C439.491 82.1547 439.854 81.7653 440.323 81.488C440.803 81.2107 441.384 81.072 442.067 81.072V82.576H441.683C440.051 82.576 439.235 83.4613 439.235 85.232V90H437.779V81.232H439.235V82.656ZM454.292 81.072C454.974 81.072 455.582 81.216 456.116 81.504C456.649 81.7813 457.07 82.2027 457.38 82.768C457.689 83.3333 457.844 84.0213 457.844 84.832V90H456.404V85.04C456.404 84.1653 456.185 83.4987 455.748 83.04C455.321 82.5707 454.74 82.336 454.004 82.336C453.246 82.336 452.644 82.5813 452.196 83.072C451.748 83.552 451.524 84.2507 451.524 85.168V90H450.084V85.04C450.084 84.1653 449.865 83.4987 449.428 83.04C449.001 82.5707 448.42 82.336 447.684 82.336C446.926 82.336 446.324 82.5813 445.876 83.072C445.428 83.552 445.204 84.2507 445.204 85.168V90H443.748V81.232H445.204V82.496C445.492 82.0373 445.876 81.6853 446.356 81.44C446.846 81.1947 447.385 81.072 447.972 81.072C448.708 81.072 449.358 81.2373 449.924 81.568C450.489 81.8987 450.91 82.384 451.188 83.024C451.433 82.4053 451.838 81.9253 452.404 81.584C452.969 81.2427 453.598 81.072 454.292 81.072ZM466.274 82.432V87.6C466.274 88.0267 466.364 88.3307 466.546 88.512C466.727 88.6827 467.042 88.768 467.49 88.768H468.562V90H467.25C466.439 90 465.831 89.8133 465.426 89.44C465.02 89.0667 464.818 88.4533 464.818 87.6V82.432H463.682V81.232H464.818V79.024H466.274V81.232H468.562V82.432H466.274ZM471.782 82.656C472.038 82.1547 472.4 81.7653 472.87 81.488C473.35 81.2107 473.931 81.072 474.614 81.072V82.576H474.23C472.598 82.576 471.782 83.4613 471.782 85.232V90H470.326V81.232H471.782V82.656ZM475.751 85.584C475.751 84.688 475.932 83.904 476.295 83.232C476.657 82.5493 477.153 82.0213 477.783 81.648C478.423 81.2747 479.132 81.088 479.911 81.088C480.679 81.088 481.345 81.2533 481.911 81.584C482.476 81.9147 482.897 82.3307 483.175 82.832V81.232H484.647V90H483.175V88.368C482.887 88.88 482.455 89.3067 481.879 89.648C481.313 89.9787 480.652 90.144 479.895 90.144C479.116 90.144 478.412 89.952 477.783 89.568C477.153 89.184 476.657 88.6453 476.295 87.952C475.932 87.2587 475.751 86.4693 475.751 85.584ZM483.175 85.6C483.175 84.9387 483.041 84.3627 482.775 83.872C482.508 83.3813 482.145 83.008 481.687 82.752C481.239 82.4853 480.743 82.352 480.199 82.352C479.655 82.352 479.159 82.48 478.711 82.736C478.263 82.992 477.905 83.3653 477.639 83.856C477.372 84.3467 477.239 84.9227 477.239 85.584C477.239 86.256 477.372 86.8427 477.639 87.344C477.905 87.8347 478.263 88.2133 478.711 88.48C479.159 88.736 479.655 88.864 480.199 88.864C480.743 88.864 481.239 88.736 481.687 88.48C482.145 88.2133 482.508 87.8347 482.775 87.344C483.041 86.8427 483.175 86.2613 483.175 85.6ZM491.379 81.072C492.446 81.072 493.31 81.3973 493.971 82.048C494.632 82.688 494.963 83.616 494.963 84.832V90H493.523V85.04C493.523 84.1653 493.304 83.4987 492.867 83.04C492.43 82.5707 491.832 82.336 491.075 82.336C490.307 82.336 489.694 82.576 489.235 83.056C488.787 83.536 488.563 84.2347 488.563 85.152V90H487.107V81.232H488.563V82.48C488.851 82.032 489.24 81.6853 489.731 81.44C490.232 81.1947 490.782 81.072 491.379 81.072ZM500.445 90.144C499.773 90.144 499.171 90.032 498.637 89.808C498.104 89.5733 497.683 89.2533 497.373 88.848C497.064 88.432 496.893 87.9573 496.861 87.424H498.365C498.408 87.8613 498.611 88.2187 498.973 88.496C499.347 88.7733 499.832 88.912 500.429 88.912C500.984 88.912 501.421 88.7893 501.741 88.544C502.061 88.2987 502.221 87.9893 502.221 87.616C502.221 87.232 502.051 86.9493 501.709 86.768C501.368 86.576 500.84 86.3893 500.125 86.208C499.475 86.0373 498.941 85.8667 498.525 85.696C498.12 85.5147 497.768 85.2533 497.469 84.912C497.181 84.56 497.037 84.1013 497.037 83.536C497.037 83.088 497.171 82.6773 497.437 82.304C497.704 81.9307 498.083 81.6373 498.573 81.424C499.064 81.2 499.624 81.088 500.253 81.088C501.224 81.088 502.008 81.3333 502.605 81.824C503.203 82.3147 503.523 82.9867 503.565 83.84H502.109C502.077 83.3813 501.891 83.0133 501.549 82.736C501.219 82.4587 500.771 82.32 500.205 82.32C499.683 82.32 499.267 82.432 498.957 82.656C498.648 82.88 498.493 83.1733 498.493 83.536C498.493 83.824 498.584 84.064 498.765 84.256C498.957 84.4373 499.192 84.5867 499.469 84.704C499.757 84.8107 500.152 84.9333 500.653 85.072C501.283 85.2427 501.795 85.4133 502.189 85.584C502.584 85.744 502.92 85.9893 503.197 86.32C503.485 86.6507 503.635 87.0827 503.645 87.616C503.645 88.096 503.512 88.528 503.245 88.912C502.979 89.296 502.6 89.6 502.109 89.824C501.629 90.0373 501.075 90.144 500.445 90.144ZM505.157 85.584C505.157 84.688 505.338 83.904 505.701 83.232C506.063 82.5493 506.559 82.0213 507.189 81.648C507.829 81.2747 508.538 81.088 509.317 81.088C510.085 81.088 510.751 81.2533 511.317 81.584C511.882 81.9147 512.303 82.3307 512.581 82.832V81.232H514.053V90H512.581V88.368C512.293 88.88 511.861 89.3067 511.285 89.648C510.719 89.9787 510.058 90.144 509.301 90.144C508.522 90.144 507.818 89.952 507.189 89.568C506.559 89.184 506.063 88.6453 505.701 87.952C505.338 87.2587 505.157 86.4693 505.157 85.584ZM512.581 85.6C512.581 84.9387 512.447 84.3627 512.181 83.872C511.914 83.3813 511.551 83.008 511.093 82.752C510.645 82.4853 510.149 82.352 509.605 82.352C509.061 82.352 508.565 82.48 508.117 82.736C507.669 82.992 507.311 83.3653 507.045 83.856C506.778 84.3467 506.645 84.9227 506.645 85.584C506.645 86.256 506.778 86.8427 507.045 87.344C507.311 87.8347 507.669 88.2133 508.117 88.48C508.565 88.736 509.061 88.864 509.605 88.864C510.149 88.864 510.645 88.736 511.093 88.48C511.551 88.2133 511.914 87.8347 512.181 87.344C512.447 86.8427 512.581 86.2613 512.581 85.6ZM515.969 85.6C515.969 84.6933 516.151 83.904 516.513 83.232C516.876 82.5493 517.377 82.0213 518.017 81.648C518.668 81.2747 519.409 81.088 520.241 81.088C521.319 81.088 522.204 81.3493 522.897 81.872C523.601 82.3947 524.065 83.12 524.289 84.048H522.721C522.572 83.5147 522.279 83.0933 521.841 82.784C521.415 82.4747 520.881 82.32 520.241 82.32C519.409 82.32 518.737 82.608 518.225 83.184C517.713 83.7493 517.457 84.5547 517.457 85.6C517.457 86.656 517.713 87.472 518.225 88.048C518.737 88.624 519.409 88.912 520.241 88.912C520.881 88.912 521.415 88.7627 521.841 88.464C522.268 88.1653 522.561 87.7387 522.721 87.184H524.289C524.055 88.08 523.585 88.8 522.881 89.344C522.177 89.8773 521.297 90.144 520.241 90.144C519.409 90.144 518.668 89.9573 518.017 89.584C517.377 89.2107 516.876 88.6827 516.513 88C516.151 87.3173 515.969 86.5173 515.969 85.6ZM528.008 82.432V87.6C528.008 88.0267 528.099 88.3307 528.28 88.512C528.461 88.6827 528.776 88.768 529.224 88.768H530.296V90H528.984C528.173 90 527.565 89.8133 527.16 89.44C526.755 89.0667 526.552 88.4533 526.552 87.6V82.432H525.416V81.232H526.552V79.024H528.008V81.232H530.296V82.432H528.008ZM532.812 79.808C532.535 79.808 532.3 79.712 532.108 79.52C531.916 79.328 531.82 79.0933 531.82 78.816C531.82 78.5387 531.916 78.304 532.108 78.112C532.3 77.92 532.535 77.824 532.812 77.824C533.079 77.824 533.303 77.92 533.484 78.112C533.676 78.304 533.772 78.5387 533.772 78.816C533.772 79.0933 533.676 79.328 533.484 79.52C533.303 79.712 533.079 79.808 532.812 79.808ZM533.516 81.232V90H532.06V81.232H533.516ZM539.822 90.144C539 90.144 538.254 89.9573 537.582 89.584C536.92 89.2107 536.398 88.6827 536.014 88C535.64 87.3067 535.454 86.5067 535.454 85.6C535.454 84.704 535.646 83.9147 536.03 83.232C536.424 82.5387 536.958 82.0107 537.63 81.648C538.302 81.2747 539.054 81.088 539.886 81.088C540.718 81.088 541.47 81.2747 542.142 81.648C542.814 82.0107 543.342 82.5333 543.726 83.216C544.12 83.8987 544.318 84.6933 544.318 85.6C544.318 86.5067 544.115 87.3067 543.71 88C543.315 88.6827 542.776 89.2107 542.094 89.584C541.411 89.9573 540.654 90.144 539.822 90.144ZM539.822 88.864C540.344 88.864 540.835 88.7413 541.294 88.496C541.752 88.2507 542.12 87.8827 542.398 87.392C542.686 86.9013 542.83 86.304 542.83 85.6C542.83 84.896 542.691 84.2987 542.414 83.808C542.136 83.3173 541.774 82.9547 541.326 82.72C540.878 82.4747 540.392 82.352 539.87 82.352C539.336 82.352 538.846 82.4747 538.398 82.72C537.96 82.9547 537.608 83.3173 537.342 83.808C537.075 84.2987 536.942 84.896 536.942 85.6C536.942 86.3147 537.07 86.9173 537.326 87.408C537.592 87.8987 537.944 88.2667 538.382 88.512C538.819 88.7467 539.299 88.864 539.822 88.864ZM550.504 81.072C551.571 81.072 552.435 81.3973 553.096 82.048C553.757 82.688 554.088 83.616 554.088 84.832V90H552.648V85.04C552.648 84.1653 552.429 83.4987 551.992 83.04C551.555 82.5707 550.957 82.336 550.2 82.336C549.432 82.336 548.819 82.576 548.36 83.056C547.912 83.536 547.688 84.2347 547.688 85.152V90H546.232V81.232H547.688V82.48C547.976 82.032 548.365 81.6853 548.856 81.44C549.357 81.1947 549.907 81.072 550.504 81.072ZM559.57 90.144C558.898 90.144 558.296 90.032 557.762 89.808C557.229 89.5733 556.808 89.2533 556.498 88.848C556.189 88.432 556.018 87.9573 555.986 87.424H557.49C557.533 87.8613 557.736 88.2187 558.098 88.496C558.472 88.7733 558.957 88.912 559.554 88.912C560.109 88.912 560.546 88.7893 560.866 88.544C561.186 88.2987 561.346 87.9893 561.346 87.616C561.346 87.232 561.176 86.9493 560.834 86.768C560.493 86.576 559.965 86.3893 559.25 86.208C558.6 86.0373 558.066 85.8667 557.65 85.696C557.245 85.5147 556.893 85.2533 556.594 84.912C556.306 84.56 556.162 84.1013 556.162 83.536C556.162 83.088 556.296 82.6773 556.562 82.304C556.829 81.9307 557.208 81.6373 557.698 81.424C558.189 81.2 558.749 81.088 559.378 81.088C560.349 81.088 561.133 81.3333 561.73 81.824C562.328 82.3147 562.648 82.9867 562.69 83.84H561.234C561.202 83.3813 561.016 83.0133 560.674 82.736C560.344 82.4587 559.896 82.32 559.33 82.32C558.808 82.32 558.392 82.432 558.082 82.656C557.773 82.88 557.618 83.1733 557.618 83.536C557.618 83.824 557.709 84.064 557.89 84.256C558.082 84.4373 558.317 84.5867 558.594 84.704C558.882 84.8107 559.277 84.9333 559.778 85.072C560.408 85.2427 560.92 85.4133 561.314 85.584C561.709 85.744 562.045 85.9893 562.322 86.32C562.61 86.6507 562.76 87.0827 562.77 87.616C562.77 88.096 562.637 88.528 562.37 88.912C562.104 89.296 561.725 89.6 561.234 89.824C560.754 90.0373 560.2 90.144 559.57 90.144ZM565.29 90.096C565.012 90.096 564.778 90 564.586 89.808C564.394 89.616 564.298 89.3813 564.298 89.104C564.298 88.8267 564.394 88.592 564.586 88.4C564.778 88.208 565.012 88.112 565.29 88.112C565.556 88.112 565.78 88.208 565.962 88.4C566.154 88.592 566.25 88.8267 566.25 89.104C566.25 89.3813 566.154 89.616 565.962 89.808C565.78 90 565.556 90.096 565.29 90.096Z" fill="#4956E3"/>
<path d="M78.32 63.288C77.936 62.584 77.408 62.048 76.736 61.68C76.064 61.312 75.28 61.128 74.384 61.128C73.392 61.128 72.512 61.352 71.744 61.8C70.976 62.248 70.376 62.888 69.944 63.72C69.512 64.552 69.296 65.512 69.296 66.6C69.296 67.72 69.512 68.696 69.944 69.528C70.392 70.36 71.008 71 71.792 71.448C72.576 71.896 73.488 72.12 74.528 72.12C75.808 72.12 76.856 71.784 77.672 71.112C78.488 70.424 79.024 69.472 79.28 68.256H73.52V65.688H82.592V68.616C82.368 69.784 81.888 70.864 81.152 71.856C80.416 72.848 79.464 73.648 78.296 74.256C77.144 74.848 75.848 75.144 74.408 75.144C72.792 75.144 71.328 74.784 70.016 74.064C68.72 73.328 67.696 72.312 66.944 71.016C66.208 69.72 65.84 68.248 65.84 66.6C65.84 64.952 66.208 63.48 66.944 62.184C67.696 60.872 68.72 59.856 70.016 59.136C71.328 58.4 72.784 58.032 74.384 58.032C76.272 58.032 77.912 58.496 79.304 59.424C80.696 60.336 81.656 61.624 82.184 63.288H78.32ZM97.4379 68.064C97.4379 68.544 97.4059 68.976 97.3419 69.36H87.6219C87.7019 70.32 88.0379 71.072 88.6299 71.616C89.2219 72.16 89.9499 72.432 90.8139 72.432C92.0619 72.432 92.9499 71.896 93.4779 70.824H97.1019C96.7179 72.104 95.9819 73.16 94.8939 73.992C93.8059 74.808 92.4699 75.216 90.8859 75.216C89.6059 75.216 88.4539 74.936 87.4299 74.376C86.4219 73.8 85.6299 72.992 85.0539 71.952C84.4939 70.912 84.2139 69.712 84.2139 68.352C84.2139 66.976 84.4939 65.768 85.0539 64.728C85.6139 63.688 86.3979 62.888 87.4059 62.328C88.4139 61.768 89.5739 61.488 90.8859 61.488C92.1499 61.488 93.2779 61.76 94.2699 62.304C95.2779 62.848 96.0539 63.624 96.5979 64.632C97.1579 65.624 97.4379 66.768 97.4379 68.064ZM93.9579 67.104C93.9419 66.24 93.6299 65.552 93.0219 65.04C92.4139 64.512 91.6699 64.248 90.7899 64.248C89.9579 64.248 89.2539 64.504 88.6779 65.016C88.1179 65.512 87.7739 66.208 87.6459 67.104H93.9579ZM103.802 64.464V70.896C103.802 71.344 103.906 71.672 104.114 71.88C104.338 72.072 104.706 72.168 105.218 72.168H106.778V75H104.666C101.834 75 100.418 73.624 100.418 70.872V64.464H98.8344V61.704H100.418V58.416H103.802V61.704H106.778V64.464H103.802ZM120.698 75.168C119.53 75.168 118.474 74.968 117.53 74.568C116.602 74.168 115.866 73.592 115.322 72.84C114.778 72.088 114.498 71.2 114.482 70.176H118.082C118.13 70.864 118.37 71.408 118.802 71.808C119.25 72.208 119.858 72.408 120.626 72.408C121.41 72.408 122.026 72.224 122.474 71.856C122.922 71.472 123.146 70.976 123.146 70.368C123.146 69.872 122.994 69.464 122.69 69.144C122.386 68.824 122.002 68.576 121.538 68.4C121.09 68.208 120.466 68 119.666 67.776C118.578 67.456 117.69 67.144 117.002 66.84C116.33 66.52 115.746 66.048 115.25 65.424C114.77 64.784 114.53 63.936 114.53 62.88C114.53 61.888 114.778 61.024 115.274 60.288C115.77 59.552 116.466 58.992 117.362 58.608C118.258 58.208 119.282 58.008 120.434 58.008C122.162 58.008 123.562 58.432 124.634 59.28C125.722 60.112 126.322 61.28 126.434 62.784H122.738C122.706 62.208 122.458 61.736 121.994 61.368C121.546 60.984 120.946 60.792 120.194 60.792C119.538 60.792 119.01 60.96 118.61 61.296C118.226 61.632 118.034 62.12 118.034 62.76C118.034 63.208 118.178 63.584 118.466 63.888C118.77 64.176 119.138 64.416 119.57 64.608C120.018 64.784 120.642 64.992 121.442 65.232C122.53 65.552 123.418 65.872 124.106 66.192C124.794 66.512 125.386 66.992 125.882 67.632C126.378 68.272 126.626 69.112 126.626 70.152C126.626 71.048 126.394 71.88 125.93 72.648C125.466 73.416 124.786 74.032 123.89 74.496C122.994 74.944 121.93 75.168 120.698 75.168ZM133.451 64.464V70.896C133.451 71.344 133.555 71.672 133.763 71.88C133.987 72.072 134.355 72.168 134.867 72.168H136.427V75H134.315C131.483 75 130.067 73.624 130.067 70.872V64.464H128.483V61.704H130.067V58.416H133.451V61.704H136.427V64.464H133.451ZM137.979 68.304C137.979 66.96 138.243 65.768 138.771 64.728C139.316 63.688 140.044 62.888 140.956 62.328C141.884 61.768 142.916 61.488 144.052 61.488C145.044 61.488 145.908 61.688 146.644 62.088C147.396 62.488 147.996 62.992 148.444 63.6V61.704H151.828V75H148.444V73.056C148.012 73.68 147.412 74.2 146.644 74.616C145.892 75.016 145.02 75.216 144.028 75.216C142.908 75.216 141.884 74.928 140.956 74.352C140.044 73.776 139.316 72.968 138.771 71.928C138.243 70.872 137.979 69.664 137.979 68.304ZM148.444 68.352C148.444 67.536 148.284 66.84 147.964 66.264C147.644 65.672 147.212 65.224 146.668 64.92C146.124 64.6 145.54 64.44 144.916 64.44C144.292 64.44 143.716 64.592 143.188 64.896C142.66 65.2 142.228 65.648 141.892 66.24C141.572 66.816 141.412 67.504 141.412 68.304C141.412 69.104 141.572 69.808 141.892 70.416C142.228 71.008 142.66 71.464 143.188 71.784C143.732 72.104 144.308 72.264 144.916 72.264C145.54 72.264 146.124 72.112 146.668 71.808C147.212 71.488 147.644 71.04 147.964 70.464C148.284 69.872 148.444 69.168 148.444 68.352ZM158.469 63.768C158.901 63.064 159.461 62.512 160.149 62.112C160.853 61.712 161.653 61.512 162.549 61.512V65.04H161.661C160.605 65.04 159.805 65.288 159.261 65.784C158.733 66.28 158.469 67.144 158.469 68.376V75H155.109V61.704H158.469V63.768ZM168.724 64.464V70.896C168.724 71.344 168.828 71.672 169.036 71.88C169.26 72.072 169.628 72.168 170.14 72.168H171.7V75H169.588C166.756 75 165.34 73.624 165.34 70.872V64.464H163.756V61.704H165.34V58.416H168.724V61.704H171.7V64.464H168.724ZM186.477 68.064C186.477 68.544 186.445 68.976 186.381 69.36H176.661C176.741 70.32 177.077 71.072 177.669 71.616C178.261 72.16 178.989 72.432 179.853 72.432C181.101 72.432 181.989 71.896 182.517 70.824H186.141C185.757 72.104 185.021 73.16 183.933 73.992C182.845 74.808 181.509 75.216 179.925 75.216C178.645 75.216 177.493 74.936 176.469 74.376C175.461 73.8 174.669 72.992 174.093 71.952C173.533 70.912 173.253 69.712 173.253 68.352C173.253 66.976 173.533 65.768 174.093 64.728C174.653 63.688 175.437 62.888 176.445 62.328C177.453 61.768 178.613 61.488 179.925 61.488C181.189 61.488 182.317 61.76 183.309 62.304C184.317 62.848 185.093 63.624 185.637 64.632C186.197 65.624 186.477 66.768 186.477 68.064ZM182.997 67.104C182.981 66.24 182.669 65.552 182.061 65.04C181.453 64.512 180.709 64.248 179.829 64.248C178.997 64.248 178.293 64.504 177.717 65.016C177.157 65.512 176.813 66.208 176.685 67.104H182.997ZM188.065 68.304C188.065 66.96 188.329 65.768 188.857 64.728C189.401 63.688 190.137 62.888 191.065 62.328C191.993 61.768 193.025 61.488 194.161 61.488C195.025 61.488 195.849 61.68 196.633 62.064C197.417 62.432 198.041 62.928 198.505 63.552V57.24H201.913V75H198.505V73.032C198.089 73.688 197.505 74.216 196.753 74.616C196.001 75.016 195.129 75.216 194.137 75.216C193.017 75.216 191.993 74.928 191.065 74.352C190.137 73.776 189.401 72.968 188.857 71.928C188.329 70.872 188.065 69.664 188.065 68.304ZM198.529 68.352C198.529 67.536 198.369 66.84 198.049 66.264C197.729 65.672 197.297 65.224 196.753 64.92C196.209 64.6 195.625 64.44 195.001 64.44C194.377 64.44 193.801 64.592 193.273 64.896C192.745 65.2 192.313 65.648 191.977 66.24C191.657 66.816 191.497 67.504 191.497 68.304C191.497 69.104 191.657 69.808 191.977 70.416C192.313 71.008 192.745 71.464 193.273 71.784C193.817 72.104 194.393 72.264 195.001 72.264C195.625 72.264 196.209 72.112 196.753 71.808C197.297 71.488 197.729 71.04 198.049 70.464C198.369 69.872 198.529 69.168 198.529 68.352ZM229.346 61.704L225.458 75H221.834L219.41 65.712L216.986 75H213.338L209.426 61.704H212.834L215.186 71.832L217.73 61.704H221.282L223.778 71.808L226.13 61.704H229.346ZM232.868 60.12C232.276 60.12 231.78 59.936 231.38 59.568C230.996 59.184 230.804 58.712 230.804 58.152C230.804 57.592 230.996 57.128 231.38 56.76C231.78 56.376 232.276 56.184 232.868 56.184C233.46 56.184 233.948 56.376 234.332 56.76C234.732 57.128 234.932 57.592 234.932 58.152C234.932 58.712 234.732 59.184 234.332 59.568C233.948 59.936 233.46 60.12 232.868 60.12ZM234.524 61.704V75H231.164V61.704H234.524ZM241.756 64.464V70.896C241.756 71.344 241.86 71.672 242.068 71.88C242.292 72.072 242.66 72.168 243.172 72.168H244.732V75H242.62C239.788 75 238.372 73.624 238.372 70.872V64.464H236.788V61.704H238.372V58.416H241.756V61.704H244.732V64.464H241.756ZM254.636 61.512C255.644 61.512 256.54 61.736 257.324 62.184C258.108 62.616 258.716 63.264 259.148 64.128C259.596 64.976 259.82 66 259.82 67.2V75H256.46V67.656C256.46 66.6 256.196 65.792 255.668 65.232C255.14 64.656 254.42 64.368 253.508 64.368C252.58 64.368 251.844 64.656 251.3 65.232C250.772 65.792 250.508 66.6 250.508 67.656V75H247.148V57.24H250.508V63.36C250.94 62.784 251.516 62.336 252.236 62.016C252.956 61.68 253.756 61.512 254.636 61.512ZM75.296 103L71.6 96.472H70.016V103H66.656V86.248H72.944C74.24 86.248 75.344 86.48 76.256 86.944C77.168 87.392 77.848 88.008 78.296 88.792C78.76 89.56 78.992 90.424 78.992 91.384C78.992 92.488 78.672 93.488 78.032 94.384C77.392 95.264 76.44 95.872 75.176 96.208L79.184 103H75.296ZM70.016 93.952H72.824C73.736 93.952 74.416 93.736 74.864 93.304C75.312 92.856 75.536 92.24 75.536 91.456C75.536 90.688 75.312 90.096 74.864 89.68C74.416 89.248 73.736 89.032 72.824 89.032H70.016V93.952ZM94.391 96.064C94.391 96.544 94.359 96.976 94.295 97.36H84.575C84.655 98.32 84.991 99.072 85.583 99.616C86.175 100.16 86.903 100.432 87.767 100.432C89.015 100.432 89.903 99.896 90.431 98.824H94.055C93.671 100.104 92.935 101.16 91.847 101.992C90.759 102.808 89.423 103.216 87.839 103.216C86.559 103.216 85.407 102.936 84.383 102.376C83.375 101.8 82.583 100.992 82.007 99.952C81.447 98.912 81.167 97.712 81.167 96.352C81.167 94.976 81.447 93.768 82.007 92.728C82.567 91.688 83.351 90.888 84.359 90.328C85.367 89.768 86.527 89.488 87.839 89.488C89.103 89.488 90.231 89.76 91.223 90.304C92.231 90.848 93.007 91.624 93.551 92.632C94.111 93.624 94.391 94.768 94.391 96.064ZM90.911 95.104C90.895 94.24 90.583 93.552 89.975 93.04C89.367 92.512 88.623 92.248 87.743 92.248C86.911 92.248 86.207 92.504 85.631 93.016C85.071 93.512 84.727 94.208 84.599 95.104H90.911ZM95.9795 96.304C95.9795 94.96 96.2435 93.768 96.7715 92.728C97.3155 91.688 98.0435 90.888 98.9555 90.328C99.8835 89.768 100.916 89.488 102.052 89.488C103.044 89.488 103.908 89.688 104.644 90.088C105.396 90.488 105.996 90.992 106.444 91.6V89.704H109.828V103H106.444V101.056C106.012 101.68 105.412 102.2 104.644 102.616C103.892 103.016 103.02 103.216 102.028 103.216C100.908 103.216 99.8835 102.928 98.9555 102.352C98.0435 101.776 97.3155 100.968 96.7715 99.928C96.2435 98.872 95.9795 97.664 95.9795 96.304ZM106.444 96.352C106.444 95.536 106.284 94.84 105.964 94.264C105.644 93.672 105.212 93.224 104.668 92.92C104.124 92.6 103.54 92.44 102.916 92.44C102.292 92.44 101.716 92.592 101.188 92.896C100.66 93.2 100.228 93.648 99.8915 94.24C99.5715 94.816 99.4115 95.504 99.4115 96.304C99.4115 97.104 99.5715 97.808 99.8915 98.416C100.228 99.008 100.66 99.464 101.188 99.784C101.732 100.104 102.308 100.264 102.916 100.264C103.54 100.264 104.124 100.112 104.668 99.808C105.212 99.488 105.644 99.04 105.964 98.464C106.284 97.872 106.444 97.168 106.444 96.352ZM116.469 85.24V103H113.109V85.24H116.469ZM147.9 86.248L143.22 103H139.26L136.116 91.072L132.828 103L128.892 103.024L124.38 86.248H127.98L130.932 99.256L134.34 86.248H138.084L141.3 99.184L144.276 86.248H147.9ZM155.998 103.216C154.718 103.216 153.566 102.936 152.542 102.376C151.518 101.8 150.71 100.992 150.118 99.952C149.542 98.912 149.254 97.712 149.254 96.352C149.254 94.992 149.55 93.792 150.142 92.752C150.75 91.712 151.574 90.912 152.614 90.352C153.654 89.776 154.814 89.488 156.094 89.488C157.374 89.488 158.534 89.776 159.574 90.352C160.614 90.912 161.43 91.712 162.022 92.752C162.63 93.792 162.934 94.992 162.934 96.352C162.934 97.712 162.622 98.912 161.997 99.952C161.39 100.992 160.558 101.8 159.502 102.376C158.462 102.936 157.294 103.216 155.998 103.216ZM155.998 100.288C156.606 100.288 157.174 100.144 157.702 99.856C158.246 99.552 158.678 99.104 158.998 98.512C159.318 97.92 159.478 97.2 159.478 96.352C159.478 95.088 159.142 94.12 158.47 93.448C157.814 92.76 157.006 92.416 156.046 92.416C155.086 92.416 154.278 92.76 153.622 93.448C152.982 94.12 152.662 95.088 152.662 96.352C152.662 97.616 152.974 98.592 153.598 99.28C154.238 99.952 155.038 100.288 155.998 100.288ZM168.758 91.768C169.19 91.064 169.75 90.512 170.438 90.112C171.142 89.712 171.942 89.512 172.838 89.512V93.04H171.95C170.894 93.04 170.094 93.288 169.55 93.784C169.022 94.28 168.758 95.144 168.758 96.376V103H165.398V89.704H168.758V91.768ZM178.461 85.24V103H175.101V85.24H178.461ZM180.917 96.304C180.917 94.96 181.181 93.768 181.709 92.728C182.253 91.688 182.989 90.888 183.917 90.328C184.845 89.768 185.877 89.488 187.013 89.488C187.877 89.488 188.701 89.68 189.485 90.064C190.269 90.432 190.893 90.928 191.357 91.552V85.24H194.765V103H191.357V101.032C190.941 101.688 190.357 102.216 189.605 102.616C188.853 103.016 187.981 103.216 186.989 103.216C185.869 103.216 184.845 102.928 183.917 102.352C182.989 101.776 182.253 100.968 181.709 99.928C181.181 98.872 180.917 97.664 180.917 96.304ZM191.381 96.352C191.381 95.536 191.221 94.84 190.901 94.264C190.581 93.672 190.149 93.224 189.605 92.92C189.061 92.6 188.477 92.44 187.853 92.44C187.229 92.44 186.653 92.592 186.125 92.896C185.597 93.2 185.165 93.648 184.829 94.24C184.509 94.816 184.349 95.504 184.349 96.304C184.349 97.104 184.509 97.808 184.829 98.416C185.165 99.008 185.597 99.464 186.125 99.784C186.669 100.104 187.245 100.264 187.853 100.264C188.477 100.264 189.061 100.112 189.605 99.808C190.149 99.488 190.581 99.04 190.901 98.464C191.221 97.872 191.381 97.168 191.381 96.352ZM214.037 99.808H207.365L206.261 103H202.733L208.757 86.224H212.669L218.693 103H215.141L214.037 99.808ZM213.125 97.12L210.701 90.112L208.277 97.12H213.125ZM224.305 91.624C224.737 91.016 225.329 90.512 226.081 90.112C226.849 89.696 227.721 89.488 228.697 89.488C229.833 89.488 230.857 89.768 231.769 90.328C232.697 90.888 233.425 91.688 233.953 92.728C234.497 93.752 234.769 94.944 234.769 96.304C234.769 97.664 234.497 98.872 233.953 99.928C233.425 100.968 232.697 101.776 231.769 102.352C230.857 102.928 229.833 103.216 228.697 103.216C227.721 103.216 226.857 103.016 226.105 102.616C225.369 102.216 224.769 101.712 224.305 101.104V109.336H220.945V89.704H224.305V91.624ZM231.337 96.304C231.337 95.504 231.169 94.816 230.833 94.24C230.513 93.648 230.081 93.2 229.537 92.896C229.009 92.592 228.433 92.44 227.809 92.44C227.201 92.44 226.625 92.6 226.081 92.92C225.553 93.224 225.121 93.672 224.785 94.264C224.465 94.856 224.305 95.552 224.305 96.352C224.305 97.152 224.465 97.848 224.785 98.44C225.121 99.032 225.553 99.488 226.081 99.808C226.625 100.112 227.201 100.264 227.809 100.264C228.433 100.264 229.009 100.104 229.537 99.784C230.081 99.464 230.513 99.008 230.833 98.416C231.169 97.824 231.337 97.12 231.337 96.304ZM240.571 91.624C241.003 91.016 241.595 90.512 242.347 90.112C243.115 89.696 243.987 89.488 244.963 89.488C246.099 89.488 247.123 89.768 248.035 90.328C248.963 90.888 249.691 91.688 250.219 92.728C250.763 93.752 251.035 94.944 251.035 96.304C251.035 97.664 250.763 98.872 250.219 99.928C249.691 100.968 248.963 101.776 248.035 102.352C247.123 102.928 246.099 103.216 244.963 103.216C243.987 103.216 243.123 103.016 242.371 102.616C241.635 102.216 241.035 101.712 240.571 101.104V109.336H237.211V89.704H240.571V91.624ZM247.603 96.304C247.603 95.504 247.435 94.816 247.099 94.24C246.779 93.648 246.347 93.2 245.803 92.896C245.275 92.592 244.699 92.44 244.075 92.44C243.467 92.44 242.891 92.6 242.347 92.92C241.819 93.224 241.387 93.672 241.051 94.264C240.731 94.856 240.571 95.552 240.571 96.352C240.571 97.152 240.731 97.848 241.051 98.44C241.387 99.032 241.819 99.488 242.347 99.808C242.891 100.112 243.467 100.264 244.075 100.264C244.699 100.264 245.275 100.104 245.803 99.784C246.347 99.464 246.779 99.008 247.099 98.416C247.435 97.824 247.603 97.12 247.603 96.304Z" fill="#4956E3"/>
<path d="M303.688 122.416C303.688 121.328 303.933 120.352 304.424 119.488C304.915 118.613 305.581 117.931 306.424 117.44C307.277 116.949 308.221 116.704 309.256 116.704C310.472 116.704 311.533 116.997 312.44 117.584C313.347 118.171 314.008 119.003 314.424 120.08H312.68C312.371 119.408 311.923 118.891 311.336 118.528C310.76 118.165 310.067 117.984 309.256 117.984C308.477 117.984 307.779 118.165 307.16 118.528C306.541 118.891 306.056 119.408 305.704 120.08C305.352 120.741 305.176 121.52 305.176 122.416C305.176 123.301 305.352 124.08 305.704 124.752C306.056 125.413 306.541 125.925 307.16 126.288C307.779 126.651 308.477 126.832 309.256 126.832C310.067 126.832 310.76 126.656 311.336 126.304C311.923 125.941 312.371 125.424 312.68 124.752H314.424C314.008 125.819 313.347 126.645 312.44 127.232C311.533 127.808 310.472 128.096 309.256 128.096C308.221 128.096 307.277 127.856 306.424 127.376C305.581 126.885 304.915 126.208 304.424 125.344C303.933 124.48 303.688 123.504 303.688 122.416ZM318.047 116.16V128H316.591V116.16H318.047ZM321.281 117.808C321.004 117.808 320.769 117.712 320.577 117.52C320.385 117.328 320.289 117.093 320.289 116.816C320.289 116.539 320.385 116.304 320.577 116.112C320.769 115.92 321.004 115.824 321.281 115.824C321.548 115.824 321.772 115.92 321.953 116.112C322.145 116.304 322.241 116.539 322.241 116.816C322.241 117.093 322.145 117.328 321.953 117.52C321.772 117.712 321.548 117.808 321.281 117.808ZM321.985 119.232V128H320.529V119.232H321.985ZM323.922 123.6C323.922 122.693 324.104 121.904 324.466 121.232C324.829 120.549 325.33 120.021 325.97 119.648C326.621 119.275 327.362 119.088 328.194 119.088C329.272 119.088 330.157 119.349 330.85 119.872C331.554 120.395 332.018 121.12 332.242 122.048H330.674C330.525 121.515 330.232 121.093 329.794 120.784C329.368 120.475 328.834 120.32 328.194 120.32C327.362 120.32 326.69 120.608 326.178 121.184C325.666 121.749 325.41 122.555 325.41 123.6C325.41 124.656 325.666 125.472 326.178 126.048C326.69 126.624 327.362 126.912 328.194 126.912C328.834 126.912 329.368 126.763 329.794 126.464C330.221 126.165 330.514 125.739 330.674 125.184H332.242C332.008 126.08 331.538 126.8 330.834 127.344C330.13 127.877 329.25 128.144 328.194 128.144C327.362 128.144 326.621 127.957 325.97 127.584C325.33 127.211 324.829 126.683 324.466 126C324.104 125.317 323.922 124.517 323.922 123.6ZM339.081 128L335.641 124.128V128H334.185V116.16H335.641V123.12L339.017 119.232H341.049L336.921 123.6L341.065 128H339.081ZM355.453 128H353.997L348.141 119.12V128H346.685V116.832H348.141L353.997 125.696V116.832H355.453V128ZM365.935 123.28C365.935 123.557 365.919 123.851 365.887 124.16H358.879C358.932 125.024 359.226 125.701 359.759 126.192C360.303 126.672 360.959 126.912 361.727 126.912C362.356 126.912 362.879 126.768 363.295 126.48C363.722 126.181 364.02 125.787 364.191 125.296H365.759C365.524 126.139 365.055 126.827 364.351 127.36C363.647 127.883 362.772 128.144 361.727 128.144C360.895 128.144 360.148 127.957 359.487 127.584C358.836 127.211 358.324 126.683 357.951 126C357.578 125.307 357.391 124.507 357.391 123.6C357.391 122.693 357.572 121.899 357.935 121.216C358.298 120.533 358.804 120.011 359.455 119.648C360.116 119.275 360.874 119.088 361.727 119.088C362.559 119.088 363.295 119.269 363.935 119.632C364.575 119.995 365.066 120.496 365.407 121.136C365.759 121.765 365.935 122.48 365.935 123.28ZM364.431 122.976C364.431 122.421 364.308 121.947 364.063 121.552C363.818 121.147 363.482 120.843 363.055 120.64C362.639 120.427 362.175 120.32 361.663 120.32C360.927 120.32 360.298 120.555 359.775 121.024C359.263 121.493 358.97 122.144 358.895 122.976H364.431ZM372.433 128L370.353 124.736L368.353 128H366.833L369.665 123.648L366.833 119.232H368.481L370.561 122.48L372.545 119.232H374.065L371.249 123.568L374.081 128H372.433ZM377.289 120.432V125.6C377.289 126.027 377.38 126.331 377.561 126.512C377.743 126.683 378.057 126.768 378.505 126.768H379.577V128H378.265C377.455 128 376.847 127.813 376.441 127.44C376.036 127.067 375.833 126.453 375.833 125.6V120.432H374.697V119.232H375.833V117.024H377.289V119.232H379.577V120.432H377.289ZM387.383 120.432V125.6C387.383 126.027 387.474 126.331 387.655 126.512C387.836 126.683 388.151 126.768 388.599 126.768H389.671V128H388.359C387.548 128 386.94 127.813 386.535 127.44C386.13 127.067 385.927 126.453 385.927 125.6V120.432H384.791V119.232H385.927V117.024H387.383V119.232H389.671V120.432H387.383ZM395.259 128.144C394.438 128.144 393.691 127.957 393.019 127.584C392.358 127.211 391.835 126.683 391.451 126C391.078 125.307 390.891 124.507 390.891 123.6C390.891 122.704 391.083 121.915 391.467 121.232C391.862 120.539 392.395 120.011 393.067 119.648C393.739 119.275 394.491 119.088 395.323 119.088C396.155 119.088 396.907 119.275 397.579 119.648C398.251 120.011 398.779 120.533 399.163 121.216C399.558 121.899 399.755 122.693 399.755 123.6C399.755 124.507 399.552 125.307 399.147 126C398.752 126.683 398.214 127.211 397.531 127.584C396.848 127.957 396.091 128.144 395.259 128.144ZM395.259 126.864C395.782 126.864 396.272 126.741 396.731 126.496C397.19 126.251 397.558 125.883 397.835 125.392C398.123 124.901 398.267 124.304 398.267 123.6C398.267 122.896 398.128 122.299 397.851 121.808C397.574 121.317 397.211 120.955 396.763 120.72C396.315 120.475 395.83 120.352 395.307 120.352C394.774 120.352 394.283 120.475 393.835 120.72C393.398 120.955 393.046 121.317 392.779 121.808C392.512 122.299 392.379 122.896 392.379 123.6C392.379 124.315 392.507 124.917 392.763 125.408C393.03 125.899 393.382 126.267 393.819 126.512C394.256 126.747 394.736 126.864 395.259 126.864ZM407.391 120.864C407.69 120.341 408.127 119.915 408.703 119.584C409.279 119.253 409.935 119.088 410.671 119.088C411.46 119.088 412.17 119.275 412.799 119.648C413.428 120.021 413.924 120.549 414.287 121.232C414.65 121.904 414.831 122.688 414.831 123.584C414.831 124.469 414.65 125.259 414.287 125.952C413.924 126.645 413.423 127.184 412.783 127.568C412.154 127.952 411.45 128.144 410.671 128.144C409.914 128.144 409.247 127.979 408.671 127.648C408.106 127.317 407.679 126.896 407.391 126.384V128H405.935V116.16H407.391V120.864ZM413.343 123.584C413.343 122.923 413.21 122.347 412.943 121.856C412.676 121.365 412.314 120.992 411.855 120.736C411.407 120.48 410.911 120.352 410.367 120.352C409.834 120.352 409.338 120.485 408.879 120.752C408.431 121.008 408.068 121.387 407.791 121.888C407.524 122.379 407.391 122.949 407.391 123.6C407.391 124.261 407.524 124.843 407.791 125.344C408.068 125.835 408.431 126.213 408.879 126.48C409.338 126.736 409.834 126.864 410.367 126.864C410.911 126.864 411.407 126.736 411.855 126.48C412.314 126.213 412.676 125.835 412.943 125.344C413.21 124.843 413.343 124.256 413.343 123.584ZM424.748 123.28C424.748 123.557 424.732 123.851 424.7 124.16H417.692C417.745 125.024 418.038 125.701 418.572 126.192C419.116 126.672 419.772 126.912 420.54 126.912C421.169 126.912 421.692 126.768 422.108 126.48C422.534 126.181 422.833 125.787 423.004 125.296H424.572C424.337 126.139 423.868 126.827 423.164 127.36C422.46 127.883 421.585 128.144 420.54 128.144C419.708 128.144 418.961 127.957 418.3 127.584C417.649 127.211 417.137 126.683 416.764 126C416.39 125.307 416.204 124.507 416.204 123.6C416.204 122.693 416.385 121.899 416.748 121.216C417.11 120.533 417.617 120.011 418.268 119.648C418.929 119.275 419.686 119.088 420.54 119.088C421.372 119.088 422.108 119.269 422.748 119.632C423.388 119.995 423.878 120.496 424.22 121.136C424.572 121.765 424.748 122.48 424.748 123.28ZM423.244 122.976C423.244 122.421 423.121 121.947 422.876 121.552C422.63 121.147 422.294 120.843 421.868 120.64C421.452 120.427 420.988 120.32 420.476 120.32C419.74 120.32 419.11 120.555 418.588 121.024C418.076 121.493 417.782 122.144 417.708 122.976H423.244ZM430.286 119.088C431.043 119.088 431.704 119.253 432.27 119.584C432.846 119.915 433.272 120.331 433.55 120.832V119.232H435.022V128.192C435.022 128.992 434.851 129.701 434.51 130.32C434.168 130.949 433.678 131.44 433.038 131.792C432.408 132.144 431.672 132.32 430.83 132.32C429.678 132.32 428.718 132.048 427.95 131.504C427.182 130.96 426.728 130.219 426.59 129.28H428.03C428.19 129.813 428.52 130.24 429.022 130.56C429.523 130.891 430.126 131.056 430.83 131.056C431.63 131.056 432.28 130.805 432.782 130.304C433.294 129.803 433.55 129.099 433.55 128.192V126.352C433.262 126.864 432.835 127.291 432.27 127.632C431.704 127.973 431.043 128.144 430.286 128.144C429.507 128.144 428.798 127.952 428.158 127.568C427.528 127.184 427.032 126.645 426.67 125.952C426.307 125.259 426.126 124.469 426.126 123.584C426.126 122.688 426.307 121.904 426.67 121.232C427.032 120.549 427.528 120.021 428.158 119.648C428.798 119.275 429.507 119.088 430.286 119.088ZM433.55 123.6C433.55 122.939 433.416 122.363 433.15 121.872C432.883 121.381 432.52 121.008 432.062 120.752C431.614 120.485 431.118 120.352 430.574 120.352C430.03 120.352 429.534 120.48 429.086 120.736C428.638 120.992 428.28 121.365 428.014 121.856C427.747 122.347 427.614 122.923 427.614 123.584C427.614 124.256 427.747 124.843 428.014 125.344C428.28 125.835 428.638 126.213 429.086 126.48C429.534 126.736 430.03 126.864 430.574 126.864C431.118 126.864 431.614 126.736 432.062 126.48C432.52 126.213 432.883 125.835 433.15 125.344C433.416 124.843 433.55 124.261 433.55 123.6ZM438.234 117.808C437.957 117.808 437.722 117.712 437.53 117.52C437.338 117.328 437.242 117.093 437.242 116.816C437.242 116.539 437.338 116.304 437.53 116.112C437.722 115.92 437.957 115.824 438.234 115.824C438.501 115.824 438.725 115.92 438.906 116.112C439.098 116.304 439.194 116.539 439.194 116.816C439.194 117.093 439.098 117.328 438.906 117.52C438.725 117.712 438.501 117.808 438.234 117.808ZM438.938 119.232V128H437.482V119.232H438.938ZM445.692 119.072C446.758 119.072 447.622 119.397 448.284 120.048C448.945 120.688 449.276 121.616 449.276 122.832V128H447.836V123.04C447.836 122.165 447.617 121.499 447.18 121.04C446.742 120.571 446.145 120.336 445.388 120.336C444.62 120.336 444.006 120.576 443.548 121.056C443.1 121.536 442.876 122.235 442.876 123.152V128H441.42V119.232H442.876V120.48C443.164 120.032 443.553 119.685 444.044 119.44C444.545 119.195 445.094 119.072 445.692 119.072ZM459.024 128.144C458.352 128.144 457.749 128.032 457.216 127.808C456.682 127.573 456.261 127.253 455.952 126.848C455.642 126.432 455.472 125.957 455.44 125.424H456.944C456.986 125.861 457.189 126.219 457.552 126.496C457.925 126.773 458.41 126.912 459.008 126.912C459.562 126.912 460 126.789 460.32 126.544C460.64 126.299 460.8 125.989 460.8 125.616C460.8 125.232 460.629 124.949 460.288 124.768C459.946 124.576 459.418 124.389 458.704 124.208C458.053 124.037 457.52 123.867 457.104 123.696C456.698 123.515 456.346 123.253 456.048 122.912C455.76 122.56 455.616 122.101 455.616 121.536C455.616 121.088 455.749 120.677 456.016 120.304C456.282 119.931 456.661 119.637 457.152 119.424C457.642 119.2 458.202 119.088 458.832 119.088C459.802 119.088 460.586 119.333 461.184 119.824C461.781 120.315 462.101 120.987 462.144 121.84H460.688C460.656 121.381 460.469 121.013 460.128 120.736C459.797 120.459 459.349 120.32 458.784 120.32C458.261 120.32 457.845 120.432 457.536 120.656C457.226 120.88 457.072 121.173 457.072 121.536C457.072 121.824 457.162 122.064 457.344 122.256C457.536 122.437 457.77 122.587 458.048 122.704C458.336 122.811 458.73 122.933 459.232 123.072C459.861 123.243 460.373 123.413 460.768 123.584C461.162 123.744 461.498 123.989 461.776 124.32C462.064 124.651 462.213 125.083 462.224 125.616C462.224 126.096 462.09 126.528 461.824 126.912C461.557 127.296 461.178 127.6 460.688 127.824C460.208 128.037 459.653 128.144 459.024 128.144ZM472.279 123.28C472.279 123.557 472.263 123.851 472.231 124.16H465.223C465.276 125.024 465.57 125.701 466.103 126.192C466.647 126.672 467.303 126.912 468.071 126.912C468.7 126.912 469.223 126.768 469.639 126.48C470.066 126.181 470.364 125.787 470.535 125.296H472.103C471.868 126.139 471.399 126.827 470.695 127.36C469.991 127.883 469.116 128.144 468.071 128.144C467.239 128.144 466.492 127.957 465.831 127.584C465.18 127.211 464.668 126.683 464.295 126C463.922 125.307 463.735 124.507 463.735 123.6C463.735 122.693 463.916 121.899 464.279 121.216C464.642 120.533 465.148 120.011 465.799 119.648C466.46 119.275 467.218 119.088 468.071 119.088C468.903 119.088 469.639 119.269 470.279 119.632C470.919 119.995 471.41 120.496 471.751 121.136C472.103 121.765 472.279 122.48 472.279 123.28ZM470.775 122.976C470.775 122.421 470.652 121.947 470.407 121.552C470.162 121.147 469.826 120.843 469.399 120.64C468.983 120.427 468.519 120.32 468.007 120.32C467.271 120.32 466.642 120.555 466.119 121.024C465.607 121.493 465.314 122.144 465.239 122.976H470.775ZM475.977 120.432V125.6C475.977 126.027 476.067 126.331 476.249 126.512C476.43 126.683 476.745 126.768 477.193 126.768H478.265V128H476.953C476.142 128 475.534 127.813 475.129 127.44C474.723 127.067 474.521 126.453 474.521 125.6V120.432H473.385V119.232H474.521V117.024H475.977V119.232H478.265V120.432H475.977ZM487.805 119.232V128H486.349V126.704C486.072 127.152 485.682 127.504 485.181 127.76C484.69 128.005 484.146 128.128 483.549 128.128C482.866 128.128 482.253 127.989 481.709 127.712C481.165 127.424 480.733 126.997 480.413 126.432C480.104 125.867 479.949 125.179 479.949 124.368V119.232H481.389V124.176C481.389 125.04 481.608 125.707 482.045 126.176C482.482 126.635 483.08 126.864 483.837 126.864C484.616 126.864 485.229 126.624 485.677 126.144C486.125 125.664 486.349 124.965 486.349 124.048V119.232H487.805ZM491.719 120.848C492.007 120.347 492.434 119.931 492.999 119.6C493.575 119.259 494.242 119.088 494.999 119.088C495.778 119.088 496.482 119.275 497.111 119.648C497.751 120.021 498.253 120.549 498.615 121.232C498.978 121.904 499.159 122.688 499.159 123.584C499.159 124.469 498.978 125.259 498.615 125.952C498.253 126.645 497.751 127.184 497.111 127.568C496.482 127.952 495.778 128.144 494.999 128.144C494.253 128.144 493.591 127.979 493.015 127.648C492.45 127.307 492.018 126.885 491.719 126.384V132.16H490.263V119.232H491.719V120.848ZM497.671 123.584C497.671 122.923 497.538 122.347 497.271 121.856C497.005 121.365 496.642 120.992 496.183 120.736C495.735 120.48 495.239 120.352 494.695 120.352C494.162 120.352 493.666 120.485 493.207 120.752C492.759 121.008 492.397 121.387 492.119 121.888C491.853 122.379 491.719 122.949 491.719 123.6C491.719 124.261 491.853 124.843 492.119 125.344C492.397 125.835 492.759 126.213 493.207 126.48C493.666 126.736 494.162 126.864 494.695 126.864C495.239 126.864 495.735 126.736 496.183 126.48C496.642 126.213 497.005 125.835 497.271 125.344C497.538 124.843 497.671 124.256 497.671 123.584ZM509.165 128.144C508.344 128.144 507.597 127.957 506.925 127.584C506.264 127.211 505.741 126.683 505.357 126C504.984 125.307 504.797 124.507 504.797 123.6C504.797 122.704 504.989 121.915 505.373 121.232C505.768 120.539 506.301 120.011 506.973 119.648C507.645 119.275 508.397 119.088 509.229 119.088C510.061 119.088 510.813 119.275 511.485 119.648C512.157 120.011 512.685 120.533 513.069 121.216C513.464 121.899 513.661 122.693 513.661 123.6C513.661 124.507 513.459 125.307 513.053 126C512.659 126.683 512.12 127.211 511.437 127.584C510.755 127.957 509.997 128.144 509.165 128.144ZM509.165 126.864C509.688 126.864 510.179 126.741 510.637 126.496C511.096 126.251 511.464 125.883 511.741 125.392C512.029 124.901 512.173 124.304 512.173 123.6C512.173 122.896 512.035 122.299 511.757 121.808C511.48 121.317 511.117 120.955 510.669 120.72C510.221 120.475 509.736 120.352 509.213 120.352C508.68 120.352 508.189 120.475 507.741 120.72C507.304 120.955 506.952 121.317 506.685 121.808C506.419 122.299 506.285 122.896 506.285 123.6C506.285 124.315 506.413 124.917 506.669 125.408C506.936 125.899 507.288 126.267 507.725 126.512C508.163 126.747 508.643 126.864 509.165 126.864ZM519.144 120.432H517.304V128H515.848V120.432H514.712V119.232H515.848V118.608C515.848 117.627 516.098 116.912 516.6 116.464C517.112 116.005 517.928 115.776 519.048 115.776V116.992C518.408 116.992 517.954 117.12 517.688 117.376C517.432 117.621 517.304 118.032 517.304 118.608V119.232H519.144V120.432ZM532.659 119.232L527.379 132.128H525.875L527.603 127.904L524.067 119.232H525.683L528.435 126.336L531.155 119.232H532.659ZM537.947 128.144C537.125 128.144 536.379 127.957 535.707 127.584C535.045 127.211 534.523 126.683 534.139 126C533.765 125.307 533.579 124.507 533.579 123.6C533.579 122.704 533.771 121.915 534.155 121.232C534.549 120.539 535.083 120.011 535.755 119.648C536.427 119.275 537.179 119.088 538.011 119.088C538.843 119.088 539.595 119.275 540.267 119.648C540.939 120.011 541.467 120.533 541.851 121.216C542.245 121.899 542.443 122.693 542.443 123.6C542.443 124.507 542.24 125.307 541.835 126C541.44 126.683 540.901 127.211 540.219 127.584C539.536 127.957 538.779 128.144 537.947 128.144ZM537.947 126.864C538.469 126.864 538.96 126.741 539.419 126.496C539.877 126.251 540.245 125.883 540.523 125.392C540.811 124.901 540.955 124.304 540.955 123.6C540.955 122.896 540.816 122.299 540.539 121.808C540.261 121.317 539.899 120.955 539.451 120.72C539.003 120.475 538.517 120.352 537.995 120.352C537.461 120.352 536.971 120.475 536.523 120.72C536.085 120.955 535.733 121.317 535.467 121.808C535.2 122.299 535.067 122.896 535.067 123.6C535.067 124.315 535.195 124.917 535.451 125.408C535.717 125.899 536.069 126.267 536.507 126.512C536.944 126.747 537.424 126.864 537.947 126.864ZM552.133 119.232V128H550.677V126.704C550.4 127.152 550.01 127.504 549.509 127.76C549.018 128.005 548.474 128.128 547.877 128.128C547.194 128.128 546.581 127.989 546.037 127.712C545.493 127.424 545.061 126.997 544.741 126.432C544.432 125.867 544.277 125.179 544.277 124.368V119.232H545.717V124.176C545.717 125.04 545.936 125.707 546.373 126.176C546.81 126.635 547.408 126.864 548.165 126.864C548.944 126.864 549.557 126.624 550.005 126.144C550.453 125.664 550.677 124.965 550.677 124.048V119.232H552.133ZM556.047 120.656C556.303 120.155 556.666 119.765 557.135 119.488C557.615 119.211 558.197 119.072 558.879 119.072V120.576H558.495C556.863 120.576 556.047 121.461 556.047 123.232V128H554.591V119.232H556.047V120.656ZM309.816 143.256C310.221 143.32 310.589 143.485 310.92 143.752C311.261 144.019 311.528 144.349 311.72 144.744C311.923 145.139 312.024 145.56 312.024 146.008C312.024 146.573 311.88 147.085 311.592 147.544C311.304 147.992 310.883 148.349 310.328 148.616C309.784 148.872 309.139 149 308.392 149H304.232V137.848H308.232C308.989 137.848 309.635 137.976 310.168 138.232C310.701 138.477 311.101 138.813 311.368 139.24C311.635 139.667 311.768 140.147 311.768 140.68C311.768 141.341 311.587 141.891 311.224 142.328C310.872 142.755 310.403 143.064 309.816 143.256ZM305.688 142.664H308.136C308.819 142.664 309.347 142.504 309.72 142.184C310.093 141.864 310.28 141.421 310.28 140.856C310.28 140.291 310.093 139.848 309.72 139.528C309.347 139.208 308.808 139.048 308.104 139.048H305.688V142.664ZM308.264 147.8C308.989 147.8 309.555 147.629 309.96 147.288C310.365 146.947 310.568 146.472 310.568 145.864C310.568 145.245 310.355 144.76 309.928 144.408C309.501 144.045 308.931 143.864 308.216 143.864H305.688V147.8H308.264ZM313.501 144.584C313.501 143.688 313.682 142.904 314.045 142.232C314.407 141.549 314.903 141.021 315.533 140.648C316.173 140.275 316.882 140.088 317.661 140.088C318.429 140.088 319.095 140.253 319.661 140.584C320.226 140.915 320.647 141.331 320.925 141.832V140.232H322.397V149H320.925V147.368C320.637 147.88 320.205 148.307 319.629 148.648C319.063 148.979 318.402 149.144 317.645 149.144C316.866 149.144 316.162 148.952 315.533 148.568C314.903 148.184 314.407 147.645 314.045 146.952C313.682 146.259 313.501 145.469 313.501 144.584ZM320.925 144.6C320.925 143.939 320.791 143.363 320.525 142.872C320.258 142.381 319.895 142.008 319.437 141.752C318.989 141.485 318.493 141.352 317.949 141.352C317.405 141.352 316.909 141.48 316.461 141.736C316.013 141.992 315.655 142.365 315.389 142.856C315.122 143.347 314.989 143.923 314.989 144.584C314.989 145.256 315.122 145.843 315.389 146.344C315.655 146.835 316.013 147.213 316.461 147.48C316.909 147.736 317.405 147.864 317.949 147.864C318.493 147.864 318.989 147.736 319.437 147.48C319.895 147.213 320.258 146.835 320.525 146.344C320.791 145.843 320.925 145.261 320.925 144.6ZM329.129 140.072C330.196 140.072 331.06 140.397 331.721 141.048C332.382 141.688 332.713 142.616 332.713 143.832V149H331.273V144.04C331.273 143.165 331.054 142.499 330.617 142.04C330.18 141.571 329.582 141.336 328.825 141.336C328.057 141.336 327.444 141.576 326.985 142.056C326.537 142.536 326.313 143.235 326.313 144.152V149H324.857V140.232H326.313V141.48C326.601 141.032 326.99 140.685 327.481 140.44C327.982 140.195 328.532 140.072 329.129 140.072ZM339.987 149L336.547 145.128V149H335.091V137.16H336.547V144.12L339.923 140.232H341.955L337.827 144.6L341.971 149H339.987ZM354.183 146.52H349.319L348.423 149H346.887L350.919 137.912H352.599L356.615 149H355.079L354.183 146.52ZM353.767 145.336L351.751 139.704L349.735 145.336H353.767ZM357.829 144.6C357.829 143.693 358.01 142.904 358.373 142.232C358.735 141.549 359.237 141.021 359.877 140.648C360.527 140.275 361.269 140.088 362.101 140.088C363.178 140.088 364.063 140.349 364.757 140.872C365.461 141.395 365.925 142.12 366.149 143.048H364.581C364.431 142.515 364.138 142.093 363.701 141.784C363.274 141.475 362.741 141.32 362.101 141.32C361.269 141.32 360.597 141.608 360.085 142.184C359.573 142.749 359.317 143.555 359.317 144.6C359.317 145.656 359.573 146.472 360.085 147.048C360.597 147.624 361.269 147.912 362.101 147.912C362.741 147.912 363.274 147.763 363.701 147.464C364.127 147.165 364.421 146.739 364.581 146.184H366.149C365.914 147.08 365.445 147.8 364.741 148.344C364.037 148.877 363.157 149.144 362.101 149.144C361.269 149.144 360.527 148.957 359.877 148.584C359.237 148.211 358.735 147.683 358.373 147C358.01 146.317 357.829 145.517 357.829 144.6ZM367.547 144.6C367.547 143.693 367.729 142.904 368.091 142.232C368.454 141.549 368.955 141.021 369.595 140.648C370.246 140.275 370.987 140.088 371.819 140.088C372.897 140.088 373.782 140.349 374.475 140.872C375.179 141.395 375.643 142.12 375.867 143.048H374.299C374.15 142.515 373.857 142.093 373.419 141.784C372.993 141.475 372.459 141.32 371.819 141.32C370.987 141.32 370.315 141.608 369.803 142.184C369.291 142.749 369.035 143.555 369.035 144.6C369.035 145.656 369.291 146.472 369.803 147.048C370.315 147.624 370.987 147.912 371.819 147.912C372.459 147.912 372.993 147.763 373.419 147.464C373.846 147.165 374.139 146.739 374.299 146.184H375.867C375.633 147.08 375.163 147.8 374.459 148.344C373.755 148.877 372.875 149.144 371.819 149.144C370.987 149.144 370.246 148.957 369.595 148.584C368.955 148.211 368.454 147.683 368.091 147C367.729 146.317 367.547 145.517 367.547 144.6ZM381.634 149.144C380.813 149.144 380.066 148.957 379.394 148.584C378.733 148.211 378.21 147.683 377.826 147C377.453 146.307 377.266 145.507 377.266 144.6C377.266 143.704 377.458 142.915 377.842 142.232C378.237 141.539 378.77 141.011 379.442 140.648C380.114 140.275 380.866 140.088 381.698 140.088C382.53 140.088 383.282 140.275 383.954 140.648C384.626 141.011 385.154 141.533 385.538 142.216C385.933 142.899 386.13 143.693 386.13 144.6C386.13 145.507 385.927 146.307 385.522 147C385.127 147.683 384.589 148.211 383.906 148.584C383.223 148.957 382.466 149.144 381.634 149.144ZM381.634 147.864C382.157 147.864 382.647 147.741 383.106 147.496C383.565 147.251 383.933 146.883 384.21 146.392C384.498 145.901 384.642 145.304 384.642 144.6C384.642 143.896 384.503 143.299 384.226 142.808C383.949 142.317 383.586 141.955 383.138 141.72C382.69 141.475 382.205 141.352 381.682 141.352C381.149 141.352 380.658 141.475 380.21 141.72C379.773 141.955 379.421 142.317 379.154 142.808C378.887 143.299 378.754 143.896 378.754 144.6C378.754 145.315 378.882 145.917 379.138 146.408C379.405 146.899 379.757 147.267 380.194 147.512C380.631 147.747 381.111 147.864 381.634 147.864ZM395.821 140.232V149H394.365V147.704C394.087 148.152 393.698 148.504 393.197 148.76C392.706 149.005 392.162 149.128 391.565 149.128C390.882 149.128 390.269 148.989 389.725 148.712C389.181 148.424 388.749 147.997 388.429 147.432C388.119 146.867 387.965 146.179 387.965 145.368V140.232H389.405V145.176C389.405 146.04 389.623 146.707 390.061 147.176C390.498 147.635 391.095 147.864 391.853 147.864C392.631 147.864 393.245 147.624 393.693 147.144C394.141 146.664 394.365 145.965 394.365 145.048V140.232H395.821ZM402.551 140.072C403.618 140.072 404.482 140.397 405.143 141.048C405.804 141.688 406.135 142.616 406.135 143.832V149H404.695V144.04C404.695 143.165 404.476 142.499 404.039 142.04C403.602 141.571 403.004 141.336 402.247 141.336C401.479 141.336 400.866 141.576 400.407 142.056C399.959 142.536 399.735 143.235 399.735 144.152V149H398.279V140.232H399.735V141.48C400.023 141.032 400.412 140.685 400.903 140.44C401.404 140.195 401.954 140.072 402.551 140.072ZM410.289 141.432V146.6C410.289 147.027 410.38 147.331 410.561 147.512C410.743 147.683 411.057 147.768 411.505 147.768H412.577V149H411.265C410.455 149 409.847 148.813 409.441 148.44C409.036 148.067 408.833 147.453 408.833 146.6V141.432H407.697V140.232H408.833V138.024H410.289V140.232H412.577V141.432H410.289ZM414.805 149.096C414.528 149.096 414.293 149 414.101 148.808C413.909 148.616 413.813 148.381 413.813 148.104C413.813 147.827 413.909 147.592 414.101 147.4C414.293 147.208 414.528 147.112 414.805 147.112C415.072 147.112 415.296 147.208 415.477 147.4C415.669 147.592 415.765 147.827 415.765 148.104C415.765 148.381 415.669 148.616 415.477 148.808C415.296 149 415.072 149.096 414.805 149.096Z" fill="#4956E3"/>
<rect x="462" y="209" width="98" height="41" rx="5" fill="#69D3A7"/>
<path d="M500.56 237H496.456L489.592 226.608V237H485.488V220.152H489.592L496.456 230.592V220.152H500.56V237ZM516.159 230.088C516.159 230.472 516.135 230.872 516.087 231.288H506.799C506.863 232.12 507.127 232.76 507.591 233.208C508.071 233.64 508.655 233.856 509.343 233.856C510.367 233.856 511.079 233.424 511.479 232.56H515.847C515.623 233.44 515.215 234.232 514.623 234.936C514.047 235.64 513.319 236.192 512.439 236.592C511.559 236.992 510.575 237.192 509.487 237.192C508.175 237.192 507.007 236.912 505.983 236.352C504.959 235.792 504.159 234.992 503.583 233.952C503.007 232.912 502.719 231.696 502.719 230.304C502.719 228.912 502.999 227.696 503.559 226.656C504.135 225.616 504.935 224.816 505.959 224.256C506.983 223.696 508.159 223.416 509.487 223.416C510.783 223.416 511.935 223.688 512.943 224.232C513.951 224.776 514.735 225.552 515.295 226.56C515.871 227.568 516.159 228.744 516.159 230.088ZM511.959 229.008C511.959 228.304 511.719 227.744 511.239 227.328C510.759 226.912 510.159 226.704 509.439 226.704C508.751 226.704 508.167 226.904 507.687 227.304C507.223 227.704 506.935 228.272 506.823 229.008H511.959ZM526.244 237L523.676 233.28L521.516 237H517.076L521.492 230.16L516.956 223.608H521.564L524.132 227.304L526.292 223.608H530.732L526.244 230.352L530.852 237H526.244ZM539.897 233.52V237H537.809C536.321 237 535.161 236.64 534.329 235.92C533.497 235.184 533.081 233.992 533.081 232.344V227.016H531.449V223.608H533.081V220.344H537.185V223.608H539.873V227.016H537.185V232.392C537.185 232.792 537.281 233.08 537.473 233.256C537.665 233.432 537.985 233.52 538.433 233.52H539.897Z" fill="#007780"/>
<defs>
<filter id="filter0_d_178_1084" x="0" y="0" width="625" height="309" filterUnits="userSpaceOnUse" color-interpolation-filters="sRGB">
<feFlood flood-opacity="0" result="BackgroundImageFix"/>
<feColorMatrix in="SourceAlpha" type="matrix" values="0 0 0 0 0 0 0 0 0 0 0 0 0 0 0 0 0 0 127 0" result="hardAlpha"/>
<feOffset dy="2"/>
<feGaussianBlur stdDeviation="10"/>
<feComposite in2="hardAlpha" operator="out"/>
<feColorMatrix type="matrix" values="0 0 0 0 0 0 0 0 0 0 0 0 0 0 0 0 0 0 0.1 0"/>
<feBlend mode="normal" in2="BackgroundImageFix" result="effect1_dropShadow_178_1084"/>
<feBlend mode="normal" in="SourceGraphic" in2="effect1_dropShadow_178_1084" result="shape"/>
</filter>
</defs>
</svg>
