<svg width="625" height="309" viewBox="0 0 625 309" fill="none" xmlns="http://www.w3.org/2000/svg">
<g filter="url(#filter0_d_178_1098)">
<rect x="20" y="18" width="585" height="269" rx="15" fill="#F3F4FA"/>
</g>
<path d="M287.643 113.112C286.907 113.112 286.246 112.984 285.659 112.728C285.083 112.461 284.63 112.099 284.299 111.64C283.968 111.171 283.798 110.632 283.787 110.024H285.339C285.392 110.547 285.606 110.989 285.979 111.352C286.363 111.704 286.918 111.88 287.643 111.88C288.336 111.88 288.88 111.709 289.275 111.368C289.68 111.016 289.883 110.568 289.883 110.024C289.883 109.597 289.766 109.251 289.531 108.984C289.296 108.717 289.003 108.515 288.651 108.376C288.299 108.237 287.824 108.088 287.227 107.928C286.491 107.736 285.899 107.544 285.451 107.352C285.014 107.16 284.635 106.861 284.315 106.456C284.006 106.04 283.851 105.485 283.851 104.792C283.851 104.184 284.006 103.645 284.315 103.176C284.624 102.707 285.056 102.344 285.611 102.088C286.176 101.832 286.822 101.704 287.547 101.704C288.592 101.704 289.446 101.965 290.107 102.488C290.779 103.011 291.158 103.704 291.243 104.568H289.643C289.59 104.141 289.366 103.768 288.971 103.448C288.576 103.117 288.054 102.952 287.403 102.952C286.795 102.952 286.299 103.112 285.915 103.432C285.531 103.741 285.339 104.179 285.339 104.744C285.339 105.149 285.451 105.48 285.675 105.736C285.91 105.992 286.192 106.189 286.523 106.328C286.864 106.456 287.339 106.605 287.947 106.776C288.683 106.979 289.275 107.181 289.723 107.384C290.171 107.576 290.555 107.88 290.875 108.296C291.195 108.701 291.355 109.256 291.355 109.96C291.355 110.504 291.211 111.016 290.923 111.496C290.635 111.976 290.208 112.365 289.643 112.664C289.078 112.963 288.411 113.112 287.643 113.112ZM294.25 102.808C293.972 102.808 293.738 102.712 293.546 102.52C293.354 102.328 293.258 102.093 293.258 101.816C293.258 101.539 293.354 101.304 293.546 101.112C293.738 100.92 293.972 100.824 294.25 100.824C294.516 100.824 294.74 100.92 294.922 101.112C295.114 101.304 295.21 101.539 295.21 101.816C295.21 102.093 295.114 102.328 294.922 102.52C294.74 102.712 294.516 102.808 294.25 102.808ZM294.954 104.232V113H293.498V104.232H294.954ZM301.051 104.088C301.808 104.088 302.47 104.253 303.035 104.584C303.611 104.915 304.038 105.331 304.315 105.832V104.232H305.787V113.192C305.787 113.992 305.616 114.701 305.275 115.32C304.934 115.949 304.443 116.44 303.803 116.792C303.174 117.144 302.438 117.32 301.595 117.32C300.443 117.32 299.483 117.048 298.715 116.504C297.947 115.96 297.494 115.219 297.355 114.28H298.795C298.955 114.813 299.286 115.24 299.787 115.56C300.288 115.891 300.891 116.056 301.595 116.056C302.395 116.056 303.046 115.805 303.547 115.304C304.059 114.803 304.315 114.099 304.315 113.192V111.352C304.027 111.864 303.6 112.291 303.035 112.632C302.47 112.973 301.808 113.144 301.051 113.144C300.272 113.144 299.563 112.952 298.923 112.568C298.294 112.184 297.798 111.645 297.435 110.952C297.072 110.259 296.891 109.469 296.891 108.584C296.891 107.688 297.072 106.904 297.435 106.232C297.798 105.549 298.294 105.021 298.923 104.648C299.563 104.275 300.272 104.088 301.051 104.088ZM304.315 108.6C304.315 107.939 304.182 107.363 303.915 106.872C303.648 106.381 303.286 106.008 302.827 105.752C302.379 105.485 301.883 105.352 301.339 105.352C300.795 105.352 300.299 105.48 299.851 105.736C299.403 105.992 299.046 106.365 298.779 106.856C298.512 107.347 298.379 107.923 298.379 108.584C298.379 109.256 298.512 109.843 298.779 110.344C299.046 110.835 299.403 111.213 299.851 111.48C300.299 111.736 300.795 111.864 301.339 111.864C301.883 111.864 302.379 111.736 302.827 111.48C303.286 111.213 303.648 110.835 303.915 110.344C304.182 109.843 304.315 109.261 304.315 108.6ZM312.52 104.072C313.586 104.072 314.45 104.397 315.112 105.048C315.773 105.688 316.104 106.616 316.104 107.832V113H314.664V108.04C314.664 107.165 314.445 106.499 314.008 106.04C313.57 105.571 312.973 105.336 312.216 105.336C311.448 105.336 310.834 105.576 310.376 106.056C309.928 106.536 309.704 107.235 309.704 108.152V113H308.248V104.232H309.704V105.48C309.992 105.032 310.381 104.685 310.872 104.44C311.373 104.195 311.922 104.072 312.52 104.072ZM324.172 101.848V108.904C324.172 109.896 324.412 110.632 324.892 111.112C325.382 111.592 326.06 111.832 326.924 111.832C327.777 111.832 328.444 111.592 328.924 111.112C329.414 110.632 329.66 109.896 329.66 108.904V101.848H331.116V108.888C331.116 109.816 330.929 110.6 330.556 111.24C330.182 111.869 329.676 112.339 329.036 112.648C328.406 112.957 327.697 113.112 326.908 113.112C326.118 113.112 325.404 112.957 324.764 112.648C324.134 112.339 323.633 111.869 323.26 111.24C322.897 110.6 322.716 109.816 322.716 108.888V101.848H324.172ZM335.001 105.848C335.289 105.347 335.715 104.931 336.281 104.6C336.857 104.259 337.523 104.088 338.281 104.088C339.059 104.088 339.763 104.275 340.392 104.648C341.032 105.021 341.534 105.549 341.897 106.232C342.259 106.904 342.441 107.688 342.441 108.584C342.441 109.469 342.259 110.259 341.897 110.952C341.534 111.645 341.032 112.184 340.392 112.568C339.763 112.952 339.059 113.144 338.281 113.144C337.534 113.144 336.873 112.979 336.297 112.648C335.731 112.307 335.299 111.885 335.001 111.384V117.16H333.545V104.232H335.001V105.848ZM340.953 108.584C340.953 107.923 340.819 107.347 340.553 106.856C340.286 106.365 339.923 105.992 339.465 105.736C339.017 105.48 338.521 105.352 337.977 105.352C337.443 105.352 336.947 105.485 336.489 105.752C336.041 106.008 335.678 106.387 335.401 106.888C335.134 107.379 335.001 107.949 335.001 108.6C335.001 109.261 335.134 109.843 335.401 110.344C335.678 110.835 336.041 111.213 336.489 111.48C336.947 111.736 337.443 111.864 337.977 111.864C338.521 111.864 339.017 111.736 339.465 111.48C339.923 111.213 340.286 110.835 340.553 110.344C340.819 109.843 340.953 109.256 340.953 108.584Z" fill="#9AA2FC"/>
<path d="M229.386 84L225.69 77.472H224.106V84H220.746V67.248H227.034C228.33 67.248 229.434 67.48 230.346 67.944C231.258 68.392 231.938 69.008 232.386 69.792C232.85 70.56 233.082 71.424 233.082 72.384C233.082 73.488 232.762 74.488 232.122 75.384C231.482 76.264 230.53 76.872 229.266 77.208L233.274 84H229.386ZM224.106 74.952H226.914C227.826 74.952 228.506 74.736 228.954 74.304C229.402 73.856 229.626 73.24 229.626 72.456C229.626 71.688 229.402 71.096 228.954 70.68C228.506 70.248 227.826 70.032 226.914 70.032H224.106V74.952ZM248.481 77.064C248.481 77.544 248.449 77.976 248.385 78.36H238.665C238.745 79.32 239.081 80.072 239.673 80.616C240.265 81.16 240.993 81.432 241.857 81.432C243.105 81.432 243.993 80.896 244.521 79.824H248.145C247.761 81.104 247.025 82.16 245.937 82.992C244.849 83.808 243.513 84.216 241.929 84.216C240.649 84.216 239.497 83.936 238.473 83.376C237.465 82.8 236.673 81.992 236.097 80.952C235.537 79.912 235.257 78.712 235.257 77.352C235.257 75.976 235.537 74.768 236.097 73.728C236.657 72.688 237.441 71.888 238.449 71.328C239.457 70.768 240.617 70.488 241.929 70.488C243.193 70.488 244.321 70.76 245.313 71.304C246.321 71.848 247.097 72.624 247.641 73.632C248.201 74.624 248.481 75.768 248.481 77.064ZM245.001 76.104C244.985 75.24 244.673 74.552 244.065 74.04C243.457 73.512 242.713 73.248 241.833 73.248C241.001 73.248 240.297 73.504 239.721 74.016C239.161 74.512 238.817 75.208 238.689 76.104H245.001ZM250.069 77.304C250.069 75.96 250.333 74.768 250.861 73.728C251.405 72.688 252.133 71.888 253.045 71.328C253.973 70.768 255.005 70.488 256.141 70.488C257.133 70.488 257.997 70.688 258.733 71.088C259.485 71.488 260.085 71.992 260.533 72.6V70.704H263.917V84H260.533V82.056C260.101 82.68 259.501 83.2 258.733 83.616C257.981 84.016 257.109 84.216 256.117 84.216C254.997 84.216 253.973 83.928 253.045 83.352C252.133 82.776 251.405 81.968 250.861 80.928C250.333 79.872 250.069 78.664 250.069 77.304ZM260.533 77.352C260.533 76.536 260.373 75.84 260.053 75.264C259.733 74.672 259.301 74.224 258.757 73.92C258.213 73.6 257.629 73.44 257.005 73.44C256.381 73.44 255.805 73.592 255.277 73.896C254.749 74.2 254.317 74.648 253.981 75.24C253.661 75.816 253.501 76.504 253.501 77.304C253.501 78.104 253.661 78.808 253.981 79.416C254.317 80.008 254.749 80.464 255.277 80.784C255.821 81.104 256.397 81.264 257.005 81.264C257.629 81.264 258.213 81.112 258.757 80.808C259.301 80.488 259.733 80.04 260.053 79.464C260.373 78.872 260.533 78.168 260.533 77.352ZM270.559 66.24V84H267.199V66.24H270.559ZM301.989 67.248L297.309 84H293.349L290.205 72.072L286.917 84L282.981 84.024L278.469 67.248H282.069L285.021 80.256L288.429 67.248H292.173L295.389 80.184L298.365 67.248H301.989ZM310.087 84.216C308.807 84.216 307.655 83.936 306.631 83.376C305.607 82.8 304.799 81.992 304.207 80.952C303.631 79.912 303.343 78.712 303.343 77.352C303.343 75.992 303.639 74.792 304.231 73.752C304.839 72.712 305.663 71.912 306.703 71.352C307.743 70.776 308.903 70.488 310.183 70.488C311.463 70.488 312.623 70.776 313.663 71.352C314.703 71.912 315.519 72.712 316.111 73.752C316.719 74.792 317.023 75.992 317.023 77.352C317.023 78.712 316.711 79.912 316.087 80.952C315.479 81.992 314.647 82.8 313.591 83.376C312.551 83.936 311.383 84.216 310.087 84.216ZM310.087 81.288C310.695 81.288 311.263 81.144 311.791 80.856C312.335 80.552 312.767 80.104 313.087 79.512C313.407 78.92 313.567 78.2 313.567 77.352C313.567 76.088 313.231 75.12 312.559 74.448C311.903 73.76 311.095 73.416 310.135 73.416C309.175 73.416 308.367 73.76 307.711 74.448C307.071 75.12 306.751 76.088 306.751 77.352C306.751 78.616 307.063 79.592 307.687 80.28C308.327 80.952 309.127 81.288 310.087 81.288ZM322.848 72.768C323.28 72.064 323.84 71.512 324.528 71.112C325.232 70.712 326.032 70.512 326.928 70.512V74.04H326.04C324.984 74.04 324.184 74.288 323.64 74.784C323.112 75.28 322.848 76.144 322.848 77.376V84H319.488V70.704H322.848V72.768ZM332.551 66.24V84H329.191V66.24H332.551ZM335.007 77.304C335.007 75.96 335.271 74.768 335.799 73.728C336.343 72.688 337.079 71.888 338.007 71.328C338.935 70.768 339.967 70.488 341.103 70.488C341.967 70.488 342.791 70.68 343.575 71.064C344.359 71.432 344.983 71.928 345.447 72.552V66.24H348.855V84H345.447V82.032C345.031 82.688 344.447 83.216 343.695 83.616C342.943 84.016 342.071 84.216 341.079 84.216C339.959 84.216 338.935 83.928 338.007 83.352C337.079 82.776 336.343 81.968 335.799 80.928C335.271 79.872 335.007 78.664 335.007 77.304ZM345.471 77.352C345.471 76.536 345.311 75.84 344.991 75.264C344.671 74.672 344.239 74.224 343.695 73.92C343.151 73.6 342.567 73.44 341.943 73.44C341.319 73.44 340.743 73.592 340.215 73.896C339.687 74.2 339.255 74.648 338.919 75.24C338.599 75.816 338.439 76.504 338.439 77.304C338.439 78.104 338.599 78.808 338.919 79.416C339.255 80.008 339.687 80.464 340.215 80.784C340.759 81.104 341.335 81.264 341.943 81.264C342.567 81.264 343.151 81.112 343.695 80.808C344.239 80.488 344.671 80.04 344.991 79.464C345.311 78.872 345.471 78.168 345.471 77.352ZM368.127 80.808H361.455L360.351 84H356.823L362.847 67.224H366.759L372.783 84H369.231L368.127 80.808ZM367.215 78.12L364.791 71.112L362.367 78.12H367.215ZM378.395 72.624C378.827 72.016 379.419 71.512 380.171 71.112C380.939 70.696 381.811 70.488 382.787 70.488C383.923 70.488 384.947 70.768 385.859 71.328C386.787 71.888 387.515 72.688 388.043 73.728C388.587 74.752 388.859 75.944 388.859 77.304C388.859 78.664 388.587 79.872 388.043 80.928C387.515 81.968 386.787 82.776 385.859 83.352C384.947 83.928 383.923 84.216 382.787 84.216C381.811 84.216 380.947 84.016 380.195 83.616C379.459 83.216 378.859 82.712 378.395 82.104V90.336H375.035V70.704H378.395V72.624ZM385.427 77.304C385.427 76.504 385.259 75.816 384.923 75.24C384.603 74.648 384.171 74.2 383.627 73.896C383.099 73.592 382.523 73.44 381.899 73.44C381.291 73.44 380.715 73.6 380.171 73.92C379.643 74.224 379.211 74.672 378.875 75.264C378.555 75.856 378.395 76.552 378.395 77.352C378.395 78.152 378.555 78.848 378.875 79.44C379.211 80.032 379.643 80.488 380.171 80.808C380.715 81.112 381.291 81.264 381.899 81.264C382.523 81.264 383.099 81.104 383.627 80.784C384.171 80.464 384.603 80.008 384.923 79.416C385.259 78.824 385.427 78.12 385.427 77.304ZM394.661 72.624C395.093 72.016 395.685 71.512 396.437 71.112C397.205 70.696 398.077 70.488 399.053 70.488C400.189 70.488 401.213 70.768 402.125 71.328C403.053 71.888 403.781 72.688 404.309 73.728C404.853 74.752 405.125 75.944 405.125 77.304C405.125 78.664 404.853 79.872 404.309 80.928C403.781 81.968 403.053 82.776 402.125 83.352C401.213 83.928 400.189 84.216 399.053 84.216C398.077 84.216 397.213 84.016 396.461 83.616C395.725 83.216 395.125 82.712 394.661 82.104V90.336H391.301V70.704H394.661V72.624ZM401.693 77.304C401.693 76.504 401.525 75.816 401.189 75.24C400.869 74.648 400.437 74.2 399.893 73.896C399.365 73.592 398.789 73.44 398.165 73.44C397.557 73.44 396.981 73.6 396.437 73.92C395.909 74.224 395.477 74.672 395.141 75.264C394.821 75.856 394.661 76.552 394.661 77.352C394.661 78.152 394.821 78.848 395.141 79.44C395.477 80.032 395.909 80.488 396.437 80.808C396.981 81.112 397.557 81.264 398.165 81.264C398.789 81.264 399.365 81.104 399.893 80.784C400.437 80.464 400.869 80.008 401.189 79.416C401.525 78.824 401.693 78.12 401.693 77.304Z" fill="#4956E3"/>
<rect x="212" y="129" width="199.273" height="24.6736" rx="12.3368" fill="#C2F1DE"/>
<rect x="212" y="162" width="199.273" height="24.6736" rx="12.3368" fill="#C2F1DE"/>
<rect x="212" y="195" width="199.273" height="24.6736" rx="12.3368" fill="#C2F1DE"/>
<rect x="262" y="228" width="101" height="28" rx="14" fill="#4956E3"/>
<path d="M286.643 247.112C285.907 247.112 285.246 246.984 284.659 246.728C284.083 246.461 283.63 246.099 283.299 245.64C282.968 245.171 282.798 244.632 282.787 244.024H284.339C284.392 244.547 284.606 244.989 284.979 245.352C285.363 245.704 285.918 245.88 286.643 245.88C287.336 245.88 287.88 245.709 288.275 245.368C288.68 245.016 288.883 244.568 288.883 244.024C288.883 243.597 288.766 243.251 288.531 242.984C288.296 242.717 288.003 242.515 287.651 242.376C287.299 242.237 286.824 242.088 286.227 241.928C285.491 241.736 284.899 241.544 284.451 241.352C284.014 241.16 283.635 240.861 283.315 240.456C283.006 240.04 282.851 239.485 282.851 238.792C282.851 238.184 283.006 237.645 283.315 237.176C283.624 236.707 284.056 236.344 284.611 236.088C285.176 235.832 285.822 235.704 286.547 235.704C287.592 235.704 288.446 235.965 289.107 236.488C289.779 237.011 290.158 237.704 290.243 238.568H288.643C288.59 238.141 288.366 237.768 287.971 237.448C287.576 237.117 287.054 236.952 286.403 236.952C285.795 236.952 285.299 237.112 284.915 237.432C284.531 237.741 284.339 238.179 284.339 238.744C284.339 239.149 284.451 239.48 284.675 239.736C284.91 239.992 285.192 240.189 285.523 240.328C285.864 240.456 286.339 240.605 286.947 240.776C287.683 240.979 288.275 241.181 288.723 241.384C289.171 241.576 289.555 241.88 289.875 242.296C290.195 242.701 290.355 243.256 290.355 243.96C290.355 244.504 290.211 245.016 289.923 245.496C289.635 245.976 289.208 246.365 288.643 246.664C288.078 246.963 287.411 247.112 286.643 247.112ZM293.25 236.808C292.972 236.808 292.738 236.712 292.546 236.52C292.354 236.328 292.258 236.093 292.258 235.816C292.258 235.539 292.354 235.304 292.546 235.112C292.738 234.92 292.972 234.824 293.25 234.824C293.516 234.824 293.74 234.92 293.922 235.112C294.114 235.304 294.21 235.539 294.21 235.816C294.21 236.093 294.114 236.328 293.922 236.52C293.74 236.712 293.516 236.808 293.25 236.808ZM293.954 238.232V247H292.498V238.232H293.954ZM300.051 238.088C300.808 238.088 301.47 238.253 302.035 238.584C302.611 238.915 303.038 239.331 303.315 239.832V238.232H304.787V247.192C304.787 247.992 304.616 248.701 304.275 249.32C303.934 249.949 303.443 250.44 302.803 250.792C302.174 251.144 301.438 251.32 300.595 251.32C299.443 251.32 298.483 251.048 297.715 250.504C296.947 249.96 296.494 249.219 296.355 248.28H297.795C297.955 248.813 298.286 249.24 298.787 249.56C299.288 249.891 299.891 250.056 300.595 250.056C301.395 250.056 302.046 249.805 302.547 249.304C303.059 248.803 303.315 248.099 303.315 247.192V245.352C303.027 245.864 302.6 246.291 302.035 246.632C301.47 246.973 300.808 247.144 300.051 247.144C299.272 247.144 298.563 246.952 297.923 246.568C297.294 246.184 296.798 245.645 296.435 244.952C296.072 244.259 295.891 243.469 295.891 242.584C295.891 241.688 296.072 240.904 296.435 240.232C296.798 239.549 297.294 239.021 297.923 238.648C298.563 238.275 299.272 238.088 300.051 238.088ZM303.315 242.6C303.315 241.939 303.182 241.363 302.915 240.872C302.648 240.381 302.286 240.008 301.827 239.752C301.379 239.485 300.883 239.352 300.339 239.352C299.795 239.352 299.299 239.48 298.851 239.736C298.403 239.992 298.046 240.365 297.779 240.856C297.512 241.347 297.379 241.923 297.379 242.584C297.379 243.256 297.512 243.843 297.779 244.344C298.046 244.835 298.403 245.213 298.851 245.48C299.299 245.736 299.795 245.864 300.339 245.864C300.883 245.864 301.379 245.736 301.827 245.48C302.286 245.213 302.648 244.835 302.915 244.344C303.182 243.843 303.315 243.261 303.315 242.6ZM311.52 238.072C312.586 238.072 313.45 238.397 314.112 239.048C314.773 239.688 315.104 240.616 315.104 241.832V247H313.664V242.04C313.664 241.165 313.445 240.499 313.008 240.04C312.57 239.571 311.973 239.336 311.216 239.336C310.448 239.336 309.834 239.576 309.376 240.056C308.928 240.536 308.704 241.235 308.704 242.152V247H307.248V238.232H308.704V239.48C308.992 239.032 309.381 238.685 309.872 238.44C310.373 238.195 310.922 238.072 311.52 238.072ZM323.172 235.848V242.904C323.172 243.896 323.412 244.632 323.892 245.112C324.382 245.592 325.06 245.832 325.924 245.832C326.777 245.832 327.444 245.592 327.924 245.112C328.414 244.632 328.66 243.896 328.66 242.904V235.848H330.116V242.888C330.116 243.816 329.929 244.6 329.556 245.24C329.182 245.869 328.676 246.339 328.036 246.648C327.406 246.957 326.697 247.112 325.908 247.112C325.118 247.112 324.404 246.957 323.764 246.648C323.134 246.339 322.633 245.869 322.26 245.24C321.897 244.6 321.716 243.816 321.716 242.888V235.848H323.172ZM334.001 239.848C334.289 239.347 334.715 238.931 335.281 238.6C335.857 238.259 336.523 238.088 337.281 238.088C338.059 238.088 338.763 238.275 339.392 238.648C340.032 239.021 340.534 239.549 340.897 240.232C341.259 240.904 341.441 241.688 341.441 242.584C341.441 243.469 341.259 244.259 340.897 244.952C340.534 245.645 340.032 246.184 339.392 246.568C338.763 246.952 338.059 247.144 337.281 247.144C336.534 247.144 335.873 246.979 335.297 246.648C334.731 246.307 334.299 245.885 334.001 245.384V251.16H332.545V238.232H334.001V239.848ZM339.953 242.584C339.953 241.923 339.819 241.347 339.553 240.856C339.286 240.365 338.923 239.992 338.465 239.736C338.017 239.48 337.521 239.352 336.977 239.352C336.443 239.352 335.947 239.485 335.489 239.752C335.041 240.008 334.678 240.387 334.401 240.888C334.134 241.379 334.001 241.949 334.001 242.6C334.001 243.261 334.134 243.843 334.401 244.344C334.678 244.835 335.041 245.213 335.489 245.48C335.947 245.736 336.443 245.864 336.977 245.864C337.521 245.864 338.017 245.736 338.465 245.48C338.923 245.213 339.286 244.835 339.553 244.344C339.819 243.843 339.953 243.256 339.953 242.584Z" fill="#F0F1FF"/>
<path d="M231.5 145H230.408L226.016 138.34V145H224.924V136.624H226.016L230.408 143.272V136.624H231.5V145ZM232.954 141.688C232.954 141.016 233.09 140.428 233.362 139.924C233.634 139.412 234.006 139.016 234.478 138.736C234.958 138.456 235.49 138.316 236.074 138.316C236.65 138.316 237.15 138.44 237.574 138.688C237.998 138.936 238.314 139.248 238.522 139.624V138.424H239.626V145H238.522V143.776C238.306 144.16 237.982 144.48 237.55 144.736C237.126 144.984 236.63 145.108 236.062 145.108C235.478 145.108 234.95 144.964 234.478 144.676C234.006 144.388 233.634 143.984 233.362 143.464C233.09 142.944 232.954 142.352 232.954 141.688ZM238.522 141.7C238.522 141.204 238.422 140.772 238.222 140.404C238.022 140.036 237.75 139.756 237.406 139.564C237.07 139.364 236.698 139.264 236.29 139.264C235.882 139.264 235.51 139.36 235.174 139.552C234.838 139.744 234.57 140.024 234.37 140.392C234.17 140.76 234.07 141.192 234.07 141.688C234.07 142.192 234.17 142.632 234.37 143.008C234.57 143.376 234.838 143.66 235.174 143.86C235.51 144.052 235.882 144.148 236.29 144.148C236.698 144.148 237.07 144.052 237.406 143.86C237.75 143.66 238.022 143.376 238.222 143.008C238.422 142.632 238.522 142.196 238.522 141.7ZM249.379 138.304C249.891 138.304 250.347 138.412 250.747 138.628C251.147 138.836 251.463 139.152 251.695 139.576C251.927 140 252.043 140.516 252.043 141.124V145H250.963V141.28C250.963 140.624 250.799 140.124 250.471 139.78C250.151 139.428 249.715 139.252 249.163 139.252C248.595 139.252 248.143 139.436 247.807 139.804C247.471 140.164 247.303 140.688 247.303 141.376V145H246.223V141.28C246.223 140.624 246.059 140.124 245.731 139.78C245.411 139.428 244.975 139.252 244.423 139.252C243.855 139.252 243.403 139.436 243.067 139.804C242.731 140.164 242.563 140.688 242.563 141.376V145H241.471V138.424H242.563V139.372C242.779 139.028 243.067 138.764 243.427 138.58C243.795 138.396 244.199 138.304 244.639 138.304C245.191 138.304 245.679 138.428 246.103 138.676C246.527 138.924 246.843 139.288 247.051 139.768C247.235 139.304 247.539 138.944 247.963 138.688C248.387 138.432 248.859 138.304 249.379 138.304ZM259.834 141.46C259.834 141.668 259.822 141.888 259.798 142.12H254.542C254.582 142.768 254.802 143.276 255.202 143.644C255.61 144.004 256.102 144.184 256.678 144.184C257.15 144.184 257.542 144.076 257.854 143.86C258.174 143.636 258.398 143.34 258.526 142.972H259.702C259.526 143.604 259.174 144.12 258.646 144.52C258.118 144.912 257.462 145.108 256.678 145.108C256.054 145.108 255.494 144.968 254.998 144.688C254.51 144.408 254.126 144.012 253.846 143.5C253.566 142.98 253.426 142.38 253.426 141.7C253.426 141.02 253.562 140.424 253.834 139.912C254.106 139.4 254.486 139.008 254.974 138.736C255.47 138.456 256.038 138.316 256.678 138.316C257.302 138.316 257.854 138.452 258.334 138.724C258.814 138.996 259.182 139.372 259.438 139.852C259.702 140.324 259.834 140.86 259.834 141.46ZM258.706 141.232C258.706 140.816 258.614 140.46 258.43 140.164C258.246 139.86 257.994 139.632 257.674 139.48C257.362 139.32 257.014 139.24 256.63 139.24C256.078 139.24 255.606 139.416 255.214 139.768C254.83 140.12 254.61 140.608 254.554 141.232H258.706Z" fill="#4956E3"/>
<path d="M225.992 169.636V174.928C225.992 175.672 226.172 176.224 226.532 176.584C226.9 176.944 227.408 177.124 228.056 177.124C228.696 177.124 229.196 176.944 229.556 176.584C229.924 176.224 230.108 175.672 230.108 174.928V169.636H231.2V174.916C231.2 175.612 231.06 176.2 230.78 176.68C230.5 177.152 230.12 177.504 229.64 177.736C229.168 177.968 228.636 178.084 228.044 178.084C227.452 178.084 226.916 177.968 226.436 177.736C225.964 177.504 225.588 177.152 225.308 176.68C225.036 176.2 224.9 175.612 224.9 174.916V169.636H225.992ZM235.35 178.108C234.846 178.108 234.394 178.024 233.994 177.856C233.594 177.68 233.278 177.44 233.046 177.136C232.814 176.824 232.686 176.468 232.662 176.068H233.79C233.822 176.396 233.974 176.664 234.246 176.872C234.526 177.08 234.89 177.184 235.338 177.184C235.754 177.184 236.082 177.092 236.322 176.908C236.562 176.724 236.682 176.492 236.682 176.212C236.682 175.924 236.554 175.712 236.298 175.576C236.042 175.432 235.646 175.292 235.11 175.156C234.622 175.028 234.222 174.9 233.91 174.772C233.606 174.636 233.342 174.44 233.118 174.184C232.902 173.92 232.794 173.576 232.794 173.152C232.794 172.816 232.894 172.508 233.094 172.228C233.294 171.948 233.578 171.728 233.946 171.568C234.314 171.4 234.734 171.316 235.206 171.316C235.934 171.316 236.522 171.5 236.97 171.868C237.418 172.236 237.658 172.74 237.69 173.38H236.598C236.574 173.036 236.434 172.76 236.178 172.552C235.93 172.344 235.594 172.24 235.17 172.24C234.778 172.24 234.466 172.324 234.234 172.492C234.002 172.66 233.886 172.88 233.886 173.152C233.886 173.368 233.954 173.548 234.09 173.692C234.234 173.828 234.41 173.94 234.618 174.028C234.834 174.108 235.13 174.2 235.506 174.304C235.978 174.432 236.362 174.56 236.658 174.688C236.954 174.808 237.206 174.992 237.414 175.24C237.63 175.488 237.742 175.812 237.75 176.212C237.75 176.572 237.65 176.896 237.45 177.184C237.25 177.472 236.966 177.7 236.598 177.868C236.238 178.028 235.822 178.108 235.35 178.108ZM245.291 174.46C245.291 174.668 245.279 174.888 245.255 175.12H239.999C240.039 175.768 240.259 176.276 240.659 176.644C241.067 177.004 241.559 177.184 242.135 177.184C242.607 177.184 242.999 177.076 243.311 176.86C243.631 176.636 243.855 176.34 243.983 175.972H245.159C244.983 176.604 244.631 177.12 244.103 177.52C243.575 177.912 242.919 178.108 242.135 178.108C241.511 178.108 240.951 177.968 240.455 177.688C239.967 177.408 239.583 177.012 239.303 176.5C239.023 175.98 238.883 175.38 238.883 174.7C238.883 174.02 239.019 173.424 239.291 172.912C239.563 172.4 239.943 172.008 240.431 171.736C240.927 171.456 241.495 171.316 242.135 171.316C242.759 171.316 243.311 171.452 243.791 171.724C244.271 171.996 244.639 172.372 244.895 172.852C245.159 173.324 245.291 173.86 245.291 174.46ZM244.163 174.232C244.163 173.816 244.071 173.46 243.887 173.164C243.703 172.86 243.451 172.632 243.131 172.48C242.819 172.32 242.471 172.24 242.087 172.24C241.535 172.24 241.063 172.416 240.671 172.768C240.287 173.12 240.067 173.608 240.011 174.232H244.163ZM247.825 172.492C248.017 172.116 248.289 171.824 248.641 171.616C249.001 171.408 249.437 171.304 249.949 171.304V172.432H249.661C248.437 172.432 247.825 173.096 247.825 174.424V178H246.733V171.424H247.825V172.492ZM254.413 171.304C255.213 171.304 255.861 171.548 256.357 172.036C256.853 172.516 257.101 173.212 257.101 174.124V178H256.021V174.28C256.021 173.624 255.857 173.124 255.529 172.78C255.201 172.428 254.753 172.252 254.185 172.252C253.609 172.252 253.149 172.432 252.805 172.792C252.469 173.152 252.301 173.676 252.301 174.364V178H251.209V171.424H252.301V172.36C252.517 172.024 252.809 171.764 253.177 171.58C253.553 171.396 253.965 171.304 254.413 171.304ZM258.477 174.688C258.477 174.016 258.613 173.428 258.885 172.924C259.157 172.412 259.529 172.016 260.001 171.736C260.481 171.456 261.013 171.316 261.597 171.316C262.173 171.316 262.673 171.44 263.097 171.688C263.521 171.936 263.837 172.248 264.045 172.624V171.424H265.149V178H264.045V176.776C263.829 177.16 263.505 177.48 263.073 177.736C262.649 177.984 262.153 178.108 261.585 178.108C261.001 178.108 260.473 177.964 260.001 177.676C259.529 177.388 259.157 176.984 258.885 176.464C258.613 175.944 258.477 175.352 258.477 174.688ZM264.045 174.7C264.045 174.204 263.945 173.772 263.745 173.404C263.545 173.036 263.273 172.756 262.929 172.564C262.593 172.364 262.221 172.264 261.813 172.264C261.405 172.264 261.033 172.36 260.697 172.552C260.361 172.744 260.093 173.024 259.893 173.392C259.693 173.76 259.593 174.192 259.593 174.688C259.593 175.192 259.693 175.632 259.893 176.008C260.093 176.376 260.361 176.66 260.697 176.86C261.033 177.052 261.405 177.148 261.813 177.148C262.221 177.148 262.593 177.052 262.929 176.86C263.273 176.66 263.545 176.376 263.745 176.008C263.945 175.632 264.045 175.196 264.045 174.7ZM274.902 171.304C275.414 171.304 275.87 171.412 276.27 171.628C276.67 171.836 276.986 172.152 277.218 172.576C277.45 173 277.566 173.516 277.566 174.124V178H276.486V174.28C276.486 173.624 276.322 173.124 275.994 172.78C275.674 172.428 275.238 172.252 274.686 172.252C274.118 172.252 273.666 172.436 273.33 172.804C272.994 173.164 272.826 173.688 272.826 174.376V178H271.746V174.28C271.746 173.624 271.582 173.124 271.254 172.78C270.934 172.428 270.498 172.252 269.946 172.252C269.378 172.252 268.926 172.436 268.59 172.804C268.254 173.164 268.086 173.688 268.086 174.376V178H266.994V171.424H268.086V172.372C268.302 172.028 268.59 171.764 268.95 171.58C269.318 171.396 269.722 171.304 270.162 171.304C270.714 171.304 271.202 171.428 271.626 171.676C272.05 171.924 272.366 172.288 272.574 172.768C272.758 172.304 273.062 171.944 273.486 171.688C273.91 171.432 274.382 171.304 274.902 171.304ZM285.358 174.46C285.358 174.668 285.346 174.888 285.322 175.12H280.066C280.106 175.768 280.326 176.276 280.726 176.644C281.134 177.004 281.626 177.184 282.202 177.184C282.674 177.184 283.066 177.076 283.378 176.86C283.698 176.636 283.922 176.34 284.05 175.972H285.226C285.05 176.604 284.698 177.12 284.17 177.52C283.642 177.912 282.986 178.108 282.202 178.108C281.578 178.108 281.018 177.968 280.522 177.688C280.034 177.408 279.65 177.012 279.37 176.5C279.09 175.98 278.95 175.38 278.95 174.7C278.95 174.02 279.086 173.424 279.358 172.912C279.63 172.4 280.01 172.008 280.498 171.736C280.994 171.456 281.562 171.316 282.202 171.316C282.826 171.316 283.378 171.452 283.858 171.724C284.338 171.996 284.706 172.372 284.962 172.852C285.226 173.324 285.358 173.86 285.358 174.46ZM284.23 174.232C284.23 173.816 284.138 173.46 283.954 173.164C283.77 172.86 283.518 172.632 283.198 172.48C282.886 172.32 282.538 172.24 282.154 172.24C281.602 172.24 281.13 172.416 280.738 172.768C280.354 173.12 280.134 173.608 280.078 174.232H284.23Z" fill="#4956E3"/>
<path d="M230.516 205.084C230.516 205.78 230.276 206.36 229.796 206.824C229.324 207.28 228.6 207.508 227.624 207.508H226.016V211H224.924V202.636H227.624C228.568 202.636 229.284 202.864 229.772 203.32C230.268 203.776 230.516 204.364 230.516 205.084ZM227.624 206.608C228.232 206.608 228.68 206.476 228.968 206.212C229.256 205.948 229.4 205.572 229.4 205.084C229.4 204.052 228.808 203.536 227.624 203.536H226.016V206.608H227.624ZM231.465 207.688C231.465 207.016 231.601 206.428 231.873 205.924C232.145 205.412 232.517 205.016 232.989 204.736C233.469 204.456 234.001 204.316 234.585 204.316C235.161 204.316 235.661 204.44 236.085 204.688C236.509 204.936 236.825 205.248 237.033 205.624V204.424H238.137V211H237.033V209.776C236.817 210.16 236.493 210.48 236.061 210.736C235.637 210.984 235.141 211.108 234.573 211.108C233.989 211.108 233.461 210.964 232.989 210.676C232.517 210.388 232.145 209.984 231.873 209.464C231.601 208.944 231.465 208.352 231.465 207.688ZM237.033 207.7C237.033 207.204 236.933 206.772 236.733 206.404C236.533 206.036 236.261 205.756 235.917 205.564C235.581 205.364 235.209 205.264 234.801 205.264C234.393 205.264 234.021 205.36 233.685 205.552C233.349 205.744 233.081 206.024 232.881 206.392C232.681 206.76 232.581 207.192 232.581 207.688C232.581 208.192 232.681 208.632 232.881 209.008C233.081 209.376 233.349 209.66 233.685 209.86C234.021 210.052 234.393 210.148 234.801 210.148C235.209 210.148 235.581 210.052 235.917 209.86C236.261 209.66 236.533 209.376 236.733 209.008C236.933 208.632 237.033 208.196 237.033 207.7ZM242.311 211.108C241.807 211.108 241.355 211.024 240.955 210.856C240.555 210.68 240.239 210.44 240.007 210.136C239.775 209.824 239.647 209.468 239.623 209.068H240.751C240.783 209.396 240.935 209.664 241.207 209.872C241.487 210.08 241.851 210.184 242.299 210.184C242.715 210.184 243.043 210.092 243.283 209.908C243.523 209.724 243.643 209.492 243.643 209.212C243.643 208.924 243.515 208.712 243.259 208.576C243.003 208.432 242.607 208.292 242.071 208.156C241.583 208.028 241.183 207.9 240.871 207.772C240.567 207.636 240.303 207.44 240.079 207.184C239.863 206.92 239.755 206.576 239.755 206.152C239.755 205.816 239.855 205.508 240.055 205.228C240.255 204.948 240.539 204.728 240.907 204.568C241.275 204.4 241.695 204.316 242.167 204.316C242.895 204.316 243.483 204.5 243.931 204.868C244.379 205.236 244.619 205.74 244.651 206.38H243.559C243.535 206.036 243.395 205.76 243.139 205.552C242.891 205.344 242.555 205.24 242.131 205.24C241.739 205.24 241.427 205.324 241.195 205.492C240.963 205.66 240.847 205.88 240.847 206.152C240.847 206.368 240.915 206.548 241.051 206.692C241.195 206.828 241.371 206.94 241.579 207.028C241.795 207.108 242.091 207.2 242.467 207.304C242.939 207.432 243.323 207.56 243.619 207.688C243.915 207.808 244.167 207.992 244.375 208.24C244.591 208.488 244.703 208.812 244.711 209.212C244.711 209.572 244.611 209.896 244.411 210.184C244.211 210.472 243.927 210.7 243.559 210.868C243.199 211.028 242.783 211.108 242.311 211.108ZM248.58 211.108C248.076 211.108 247.624 211.024 247.224 210.856C246.824 210.68 246.508 210.44 246.276 210.136C246.044 209.824 245.916 209.468 245.892 209.068H247.02C247.052 209.396 247.204 209.664 247.476 209.872C247.756 210.08 248.12 210.184 248.568 210.184C248.984 210.184 249.312 210.092 249.552 209.908C249.792 209.724 249.912 209.492 249.912 209.212C249.912 208.924 249.784 208.712 249.528 208.576C249.272 208.432 248.876 208.292 248.34 208.156C247.852 208.028 247.452 207.9 247.14 207.772C246.836 207.636 246.572 207.44 246.348 207.184C246.132 206.92 246.024 206.576 246.024 206.152C246.024 205.816 246.124 205.508 246.324 205.228C246.524 204.948 246.808 204.728 247.176 204.568C247.544 204.4 247.964 204.316 248.436 204.316C249.164 204.316 249.752 204.5 250.2 204.868C250.648 205.236 250.888 205.74 250.92 206.38H249.828C249.804 206.036 249.664 205.76 249.408 205.552C249.16 205.344 248.824 205.24 248.4 205.24C248.008 205.24 247.696 205.324 247.464 205.492C247.232 205.66 247.116 205.88 247.116 206.152C247.116 206.368 247.184 206.548 247.32 206.692C247.464 206.828 247.64 206.94 247.848 207.028C248.064 207.108 248.36 207.2 248.736 207.304C249.208 207.432 249.592 207.56 249.888 207.688C250.184 207.808 250.436 207.992 250.644 208.24C250.86 208.488 250.972 208.812 250.98 209.212C250.98 209.572 250.88 209.896 250.68 210.184C250.48 210.472 250.196 210.7 249.828 210.868C249.468 211.028 249.052 211.108 248.58 211.108ZM261.282 204.424L259.23 211H258.102L256.518 205.78L254.934 211H253.806L251.742 204.424H252.858L254.37 209.944L256.002 204.424H257.118L258.714 209.956L260.202 204.424H261.282ZM265.233 211.108C264.617 211.108 264.057 210.968 263.553 210.688C263.057 210.408 262.665 210.012 262.377 209.5C262.097 208.98 261.957 208.38 261.957 207.7C261.957 207.028 262.101 206.436 262.389 205.924C262.685 205.404 263.085 205.008 263.589 204.736C264.093 204.456 264.657 204.316 265.281 204.316C265.905 204.316 266.469 204.456 266.973 204.736C267.477 205.008 267.873 205.4 268.161 205.912C268.457 206.424 268.605 207.02 268.605 207.7C268.605 208.38 268.453 208.98 268.149 209.5C267.853 210.012 267.449 210.408 266.937 210.688C266.425 210.968 265.857 211.108 265.233 211.108ZM265.233 210.148C265.625 210.148 265.993 210.056 266.337 209.872C266.681 209.688 266.957 209.412 267.165 209.044C267.381 208.676 267.489 208.228 267.489 207.7C267.489 207.172 267.385 206.724 267.177 206.356C266.969 205.988 266.697 205.716 266.361 205.54C266.025 205.356 265.661 205.264 265.269 205.264C264.869 205.264 264.501 205.356 264.165 205.54C263.837 205.716 263.573 205.988 263.373 206.356C263.173 206.724 263.073 207.172 263.073 207.7C263.073 208.236 263.169 208.688 263.361 209.056C263.561 209.424 263.825 209.7 264.153 209.884C264.481 210.06 264.841 210.148 265.233 210.148ZM271.133 205.492C271.325 205.116 271.597 204.824 271.949 204.616C272.309 204.408 272.745 204.304 273.257 204.304V205.432H272.969C271.745 205.432 271.133 206.096 271.133 207.424V211H270.041V204.424H271.133V205.492ZM274.11 207.688C274.11 207.016 274.246 206.428 274.518 205.924C274.79 205.412 275.162 205.016 275.634 204.736C276.114 204.456 276.65 204.316 277.242 204.316C277.754 204.316 278.23 204.436 278.67 204.676C279.11 204.908 279.446 205.216 279.678 205.6V202.12H280.782V211H279.678V209.764C279.462 210.156 279.142 210.48 278.718 210.736C278.294 210.984 277.798 211.108 277.23 211.108C276.646 211.108 276.114 210.964 275.634 210.676C275.162 210.388 274.79 209.984 274.518 209.464C274.246 208.944 274.11 208.352 274.11 207.688ZM279.678 207.7C279.678 207.204 279.578 206.772 279.378 206.404C279.178 206.036 278.906 205.756 278.562 205.564C278.226 205.364 277.854 205.264 277.446 205.264C277.038 205.264 276.666 205.36 276.33 205.552C275.994 205.744 275.726 206.024 275.526 206.392C275.326 206.76 275.226 207.192 275.226 207.688C275.226 208.192 275.326 208.632 275.526 209.008C275.726 209.376 275.994 209.66 276.33 209.86C276.666 210.052 277.038 210.148 277.446 210.148C277.854 210.148 278.226 210.052 278.562 209.86C278.906 209.66 279.178 209.376 279.378 209.008C279.578 208.632 279.678 208.196 279.678 207.7Z" fill="#4956E3"/>
<defs>
<filter id="filter0_d_178_1098" x="0" y="0" width="625" height="309" filterUnits="userSpaceOnUse" color-interpolation-filters="sRGB">
<feFlood flood-opacity="0" result="BackgroundImageFix"/>
<feColorMatrix in="SourceAlpha" type="matrix" values="0 0 0 0 0 0 0 0 0 0 0 0 0 0 0 0 0 0 127 0" result="hardAlpha"/>
<feOffset dy="2"/>
<feGaussianBlur stdDeviation="10"/>
<feComposite in2="hardAlpha" operator="out"/>
<feColorMatrix type="matrix" values="0 0 0 0 0 0 0 0 0 0 0 0 0 0 0 0 0 0 0.1 0"/>
<feBlend mode="normal" in2="BackgroundImageFix" result="effect1_dropShadow_178_1098"/>
<feBlend mode="normal" in="SourceGraphic" in2="effect1_dropShadow_178_1098" result="shape"/>
</filter>
</defs>
</svg>
