<svg width="137" height="75" viewBox="0 0 137 75" fill="none" xmlns="http://www.w3.org/2000/svg">
<rect width="137" height="75" rx="5" fill="#4956E3"/>
<rect x="60" y="19" width="65" height="7" rx="3.5" fill="#DADDFE"/>
<rect x="60" y="34" width="65" height="8" rx="4" fill="#DADDFE"/>
<rect x="60" y="50" width="65" height="7" rx="3.5" fill="#DADDFE"/>
<path d="M33.9997 34C38.9703 34 42.9997 29.9705 42.9997 25C42.9997 20.0294 38.9703 16 33.9997 16C29.0292 16 24.9998 20.0294 24.9998 25C24.9998 29.9705 29.0292 34 33.9997 34Z" fill="#69D3A7"/>
<path d="M13 57.9999C13 52.2727 15.2116 46.78 19.1484 42.7294C23.0852 38.6789 28.425 36.4022 33.9937 36.3999C39.5642 36.3999 44.9065 38.6755 48.8459 42.7261C52.7852 46.7768 54.9988 52.2708 54.9999 57.9999H13Z" fill="#69D3A7"/>
</svg>
