<svg width="132" height="59" viewBox="0 0 132 59" fill="none" xmlns="http://www.w3.org/2000/svg">
<rect x="67" y="9" width="57" height="48" rx="5" fill="#4956E3"/>
<circle cx="25.5" cy="33.5" r="25.5" fill="#F0F1FF"/>
<path d="M33.9191 39.2428C33.9191 40.3896 33.6214 41.4703 33.0259 42.4847C32.4525 43.4772 31.5924 44.3042 30.4456 44.9658C29.3208 45.6054 27.9865 45.9803 26.4428 46.0906V48.7701H24.3256V46.0575C22.1202 45.859 20.3448 45.1974 18.9995 44.0726C17.6542 42.9258 16.9595 41.382 16.9154 39.4413H21.8776C22.0099 41.0292 22.8259 41.9885 24.3256 42.3193V36.0008C22.7377 35.6039 21.4585 35.2069 20.4882 34.8099C19.5178 34.413 18.6797 33.7734 17.974 32.8912C17.2683 32.0091 16.9154 30.8071 16.9154 29.2854C16.9154 27.3667 17.5991 25.8008 18.9664 24.5879C20.3558 23.3749 22.1422 22.6802 24.3256 22.5038V19.8242H26.4428V22.5038C28.5599 22.6802 30.2471 23.3198 31.5042 24.4225C32.7833 25.5252 33.5001 27.0469 33.6544 28.9877H28.6592C28.593 28.3481 28.3615 27.7967 27.9645 27.3336C27.5896 26.8484 27.0823 26.5066 26.4428 26.3081V32.5604C28.0968 32.9794 29.398 33.3874 30.3463 33.7844C31.3167 34.1593 32.1548 34.7879 32.8605 35.67C33.5662 36.5301 33.9191 37.7211 33.9191 39.2428ZM21.7452 29.0538C21.7452 29.7816 21.9658 30.3771 22.4069 30.8402C22.8479 31.2813 23.4875 31.6452 24.3256 31.9319V26.2088C23.5316 26.3191 22.9031 26.6168 22.4399 27.102C21.9768 27.5872 21.7452 28.2378 21.7452 29.0538ZM26.4428 42.3855C27.2808 42.2311 27.9314 41.8893 28.3945 41.36C28.8797 40.8307 29.1223 40.1911 29.1223 39.4413C29.1223 38.7135 28.8908 38.1291 28.4276 37.688C27.9645 37.2469 27.3029 36.883 26.4428 36.5963V42.3855Z" fill="#4956E3"/>
<rect x="45" y="31.4331" width="32.2112" height="5.66351" fill="#69D3A7"/>
<path d="M89.6001 34.0881L74.4679 42.8247L74.4679 25.3516L89.6001 34.0881Z" fill="#69D3A7"/>
<circle cx="120.5" cy="11.5" r="11.5" fill="#F0F1FF"/>
<path d="M114.914 12.1852L117.648 15.1142L125.429 7.22852" stroke="#69D3A7" stroke-width="2"/>
</svg>
