<svg width="263" height="127" viewBox="0 0 263 127" fill="none" xmlns="http://www.w3.org/2000/svg">
<rect y="38" width="263" height="7" rx="3.5" fill="#4956E3"/>
<circle cx="234.5" cy="41.5" r="7.5" fill="#3A46CC"/>
<rect y="59" width="263" height="7.17808" rx="3.58904" fill="#9AA2FC"/>
<circle cx="42.5" cy="62.5" r="7.5" fill="#A3E7CB"/>
<rect y="81" width="263" height="7.17808" rx="3.58904" fill="#2F3AB0"/>
<circle cx="197.5" cy="84.5" r="7.5" fill="#A3E7CB"/>
<path d="M175.618 16.1624H83.1118V108.715H175.618V16.1624Z" fill="#E4FBF2"/>
<path d="M177.041 36.1789L155.619 14.746L83.1167 87.2853L104.539 108.718L177.041 36.1789Z" fill="#4956E3"/>
<path d="M177.04 36.1872L155.614 14.7506L160.557 9.80456C166.474 3.8846 176.066 3.8846 181.983 9.80456C187.9 15.7245 187.9 25.3212 181.983 31.2411L177.04 36.1872Z" fill="#A3E7CB"/>
<path d="M104.538 108.726H83.1118V87.2893L104.538 108.726Z" fill="#69D3A7"/>
</svg>
