<svg width="137" height="98" viewBox="0 0 137 98" fill="none" xmlns="http://www.w3.org/2000/svg">
<path d="M136.85 14.74H15.53V97.95H136.85V14.74Z" fill="#2F3AB0"/>
<path d="M121.32 14.74H46.6499V83.21H121.32V14.74Z" fill="#9AA2FC"/>
<path d="M46.65 14.74H0V83.21H46.65V14.74Z" fill="#E4FBF2"/>
<path d="M121.32 0H0V14.74H121.32V0Z" fill="#2F3AB0"/>
<path d="M10.2199 9.93C11.4902 9.93 12.5199 8.90026 12.5199 7.63C12.5199 6.35975 11.4902 5.33 10.2199 5.33C8.94967 5.33 7.91992 6.35975 7.91992 7.63C7.91992 8.90026 8.94967 9.93 10.2199 9.93Z" fill="#E1E3ED"/>
<path d="M18.26 9.93C19.5302 9.93 20.56 8.90026 20.56 7.63C20.56 6.35975 19.5302 5.33 18.26 5.33C16.9897 5.33 15.96 6.35975 15.96 7.63C15.96 8.90026 16.9897 9.93 18.26 9.93Z" fill="#E1E3ED"/>
<path d="M26.3 9.93C27.5703 9.93 28.6 8.90026 28.6 7.63C28.6 6.35975 27.5703 5.33 26.3 5.33C25.0297 5.33 24 6.35975 24 7.63C24 8.90026 25.0297 9.93 26.3 9.93Z" fill="#E1E3ED"/>
<path d="M111.14 5.39H37.8001C36.5685 5.39 35.5701 6.3884 35.5701 7.62C35.5701 8.85159 36.5685 9.85 37.8001 9.85H111.14C112.372 9.85 113.37 8.85159 113.37 7.62C113.37 6.3884 112.372 5.39 111.14 5.39Z" fill="#E1E3ED"/>
<path d="M113.7 24.89H52.6699V28.98H113.7V24.89Z" fill="#6470F3"/>
<path d="M113.7 34.83H52.6699V38.92H113.7V34.83Z" fill="#6470F3"/>
<path d="M113.7 44.78H52.6699V48.87H113.7V44.78Z" fill="#6470F3"/>
<path d="M36.0599 24.89H9.62988V28.98H36.0599V24.89Z" fill="#69D3A7"/>
<path d="M36.0599 34.79H9.62988V38.88H36.0599V34.79Z" fill="#69D3A7"/>
<path d="M36.0599 44.68H9.62988V48.77H36.0599V44.68Z" fill="#69D3A7"/>
<path d="M36.0599 54.58H9.62988V58.67H36.0599V54.58Z" fill="#69D3A7"/>
</svg>
