<svg width="142" height="99" viewBox="0 0 142 99" fill="none" xmlns="http://www.w3.org/2000/svg">
<rect width="141.768" height="17.424" rx="8.712" fill="#E4FBF2"/>
<rect y="26.136" width="141.768" height="17.424" rx="8.712" fill="#E4FBF2"/>
<rect y="53.064" width="141.768" height="17.424" rx="8.712" fill="#E4FBF2"/>
<rect y="79.2" width="72.072" height="19.8" rx="9.9" fill="#4956E3"/>
<g clip-path="url(#clip0_144_438)">
<path d="M42.6557 48.8299L68.0793 9.83155C68.4453 9.26867 68.9484 8.80567 69.5424 8.48502C70.1365 8.16437 70.8024 7.99634 71.4792 7.99634C72.156 7.99634 72.8219 8.16437 73.4159 8.48502C74.01 8.80567 74.5131 9.26867 74.8791 9.83155L100.329 48.8299C100.723 49.4341 100.945 50.1322 100.972 50.8507C100.999 51.5692 100.829 52.2816 100.481 52.9129C100.133 53.5443 99.6199 54.0712 98.9947 54.4384C98.3695 54.8056 97.6558 54.9994 96.9287 54.9995H46.0513C45.3239 55 44.6099 54.8066 43.9845 54.4394C43.3591 54.0722 42.8454 53.545 42.4977 52.9133C42.15 52.2816 41.9813 51.5688 42.0091 50.8501C42.0369 50.1315 42.2603 49.4335 42.6557 48.8299Z" fill="#3A46CC"/>
<path d="M73.0212 41.715H70.0048L68.2812 27.3181C68.2264 26.8652 68.2693 26.4061 68.4071 25.9708C68.5449 25.5356 68.7745 25.1342 69.0807 24.7932C69.387 24.4522 69.7629 24.1792 70.1836 23.9923C70.6044 23.8055 71.0604 23.709 71.5216 23.7092C71.9814 23.7114 72.4356 23.8097 72.8542 23.9976C73.2729 24.1855 73.6467 24.4588 73.951 24.7995C74.2554 25.1403 74.4834 25.5409 74.6202 25.9749C74.757 26.4089 74.7995 26.8667 74.7448 27.3181L73.0212 41.715Z" fill="#69D3A7"/>
<path d="M71.4999 48.9541C73.0183 48.9541 74.2491 47.7371 74.2491 46.2358C74.2491 44.7345 73.0183 43.5175 71.4999 43.5175C69.9816 43.5175 68.7507 44.7345 68.7507 46.2358C68.7507 47.7371 69.9816 48.9541 71.4999 48.9541Z" fill="#69D3A7"/>
</g>
<defs>
<clipPath id="clip0_144_438">
<rect width="59" height="47" fill="white" transform="translate(42 8)"/>
</clipPath>
</defs>
</svg>
