<svg width="188" height="96" viewBox="0 0 188 96" fill="none" xmlns="http://www.w3.org/2000/svg">
<rect x="51" y="5.13672" width="137" height="12" rx="6" fill="#6470F3"/>
<rect x="51" y="26.1368" width="137" height="12" rx="6" fill="#E4FBF2"/>
<rect y="50.1368" width="188" height="13" rx="6.5" fill="#F0F1FF"/>
<rect x="141" y="74.718" width="47" height="20.8889" rx="10.4444" fill="#3A46CC"/>
<circle cx="177.556" cy="85.1624" r="8.35556" fill="#69D3A7"/>
<path d="M19.282 16.5275C23.846 16.5275 27.5458 12.8277 27.5458 8.26374C27.5458 3.6998 23.846 0 19.282 0C14.7181 0 11.0183 3.6998 11.0183 8.26374C11.0183 12.8277 14.7181 16.5275 19.282 16.5275Z" fill="#4956E3"/>
<path d="M0 38.564C-4.04827e-07 33.3054 2.03065 28.262 5.64543 24.5428C9.26022 20.8236 14.1632 18.7332 19.2763 18.7311C24.3911 18.7311 29.2964 20.8205 32.9135 24.5398C36.5305 28.2591 38.5631 33.3037 38.5641 38.564H0Z" fill="#4956E3"/>
</svg>
