<svg width="188" height="72" viewBox="0 0 188 72" fill="none" xmlns="http://www.w3.org/2000/svg">
<rect x="51" y="13.1367" width="137" height="12" rx="6" fill="#9AA2FC"/>
<rect x="51" y="34.1368" width="137" height="12" rx="6" fill="#E4FBF2"/>
<rect y="58.1368" width="188" height="13" rx="6.5" fill="#2F3AB0"/>
<path d="M19.282 24.5275C23.846 24.5275 27.5458 20.8277 27.5458 16.2637C27.5458 11.6998 23.846 8 19.282 8C14.7181 8 11.0183 11.6998 11.0183 16.2637C11.0183 20.8277 14.7181 24.5275 19.282 24.5275Z" fill="#4956E3"/>
<path d="M0 46.564C-4.04827e-07 41.3054 2.03065 36.262 5.64543 32.5428C9.26022 28.8236 14.1632 26.7332 19.2763 26.7311C24.3911 26.7311 29.2964 28.8205 32.9135 32.5398C36.5305 36.2591 38.5631 41.3037 38.5641 46.564H0Z" fill="#4956E3"/>
<path d="M165.849 21.2745L151.06 6.47705L101.003 56.5586L115.793 71.3561L165.849 21.2745Z" fill="#4956E3"/>
<path d="M165.848 21.2801L151.056 6.48017L154.469 3.06538C158.554 -1.02179 165.176 -1.02179 169.261 3.06538C173.347 7.15255 173.347 13.7782 169.261 17.8653L165.848 21.2801Z" fill="#C2F1DE"/>
<path d="M115.792 71.3612H101V56.5613L115.792 71.3612Z" fill="#69D3A7"/>
</svg>
