<svg width="78" height="83" viewBox="0 0 78 83" fill="none" xmlns="http://www.w3.org/2000/svg">
<path d="M66.0104 54.5526V25.4799L40.8304 10.9374L15.6504 25.4799V54.5526L40.8304 69.0889L66.0104 54.5526Z" fill="#DADDFE" stroke="#4956E3" stroke-width="4.28439" stroke-miterlimit="10"/>
<path d="M23.4111 50.1886H58.2494L40.8302 19.8979L23.4111 50.1886Z" fill="#4956E3" stroke="#4956E3" stroke-width="4.09306" stroke-miterlimit="10"/>
<path d="M40.8303 15.84C43.5379 15.84 45.7329 13.645 45.7329 10.9374C45.7329 8.22981 43.5379 6.03485 40.8303 6.03485C38.1227 6.03485 35.9277 8.22981 35.9277 10.9374C35.9277 13.645 38.1227 15.84 40.8303 15.84Z" fill="#69D3A7"/>
<path d="M66.0102 30.0947C68.7179 30.0947 70.9128 27.8998 70.9128 25.1922C70.9128 22.4846 68.7179 20.2896 66.0102 20.2896C63.3026 20.2896 61.1077 22.4846 61.1077 25.1922C61.1077 27.8998 63.3026 30.0947 66.0102 30.0947Z" fill="#69D3A7"/>
<path d="M66.0102 59.6326C68.7179 59.6326 70.9128 57.4376 70.9128 54.73C70.9128 52.0224 68.7179 49.8275 66.0102 49.8275C63.3026 49.8275 61.1077 52.0224 61.1077 54.73C61.1077 57.4376 63.3026 59.6326 66.0102 59.6326Z" fill="#69D3A7"/>
<path d="M40.8303 73.9915C43.5379 73.9915 45.7329 71.7965 45.7329 69.0889C45.7329 66.3813 43.5379 64.1863 40.8303 64.1863C38.1227 64.1863 35.9277 66.3813 35.9277 69.0889C35.9277 71.7965 38.1227 73.9915 40.8303 73.9915Z" fill="#69D3A7"/>
<path d="M15.6504 59.6326C18.358 59.6326 20.5529 57.4376 20.5529 54.73C20.5529 52.0224 18.358 49.8275 15.6504 49.8275C12.9428 49.8275 10.7478 52.0224 10.7478 54.73C10.7478 57.4376 12.9428 59.6326 15.6504 59.6326Z" fill="#69D3A7"/>
<path d="M15.6504 30.0947C18.358 30.0947 20.5529 27.8998 20.5529 25.1922C20.5529 22.4846 18.358 20.2896 15.6504 20.2896C12.9428 20.2896 10.7478 22.4846 10.7478 25.1922C10.7478 27.8998 12.9428 30.0947 15.6504 30.0947Z" fill="#69D3A7"/>
</svg>
