<svg width="625" height="309" viewBox="0 0 625 309" fill="none" xmlns="http://www.w3.org/2000/svg">
<g filter="url(#filter0_d_178_1102)">
<rect x="20" y="18" width="585" height="269" rx="15" fill="#C2F1DE"/>
</g>
<rect x="385" y="193" width="152" height="42" rx="21" fill="#4956E3"/>
<path d="M429.025 204.214C430.849 204.214 432.425 204.558 433.753 205.246C435.097 205.918 436.121 206.886 436.825 208.15C437.545 209.414 437.905 210.902 437.905 212.614C437.905 214.326 437.545 215.814 436.825 217.078C436.121 218.326 435.097 219.286 433.753 219.958C432.425 220.614 430.849 220.942 429.025 220.942H423.817V204.214H429.025ZM429.025 219.142C431.185 219.142 432.833 218.574 433.969 217.438C435.105 216.286 435.673 214.678 435.673 212.614C435.673 210.534 435.097 208.91 433.945 207.742C432.809 206.574 431.169 205.99 429.025 205.99H426.001V219.142H429.025ZM452.785 213.862C452.785 214.278 452.761 214.718 452.713 215.182H442.201C442.281 216.478 442.721 217.494 443.521 218.23C444.337 218.95 445.321 219.31 446.473 219.31C447.417 219.31 448.201 219.094 448.825 218.662C449.465 218.214 449.913 217.622 450.169 216.886H452.521C452.169 218.15 451.465 219.182 450.409 219.982C449.353 220.766 448.041 221.158 446.473 221.158C445.225 221.158 444.105 220.878 443.113 220.318C442.137 219.758 441.369 218.966 440.809 217.942C440.249 216.902 439.969 215.702 439.969 214.342C439.969 212.982 440.241 211.79 440.785 210.766C441.329 209.742 442.089 208.958 443.065 208.414C444.057 207.854 445.193 207.574 446.473 207.574C447.721 207.574 448.825 207.846 449.785 208.39C450.745 208.934 451.481 209.686 451.993 210.646C452.521 211.59 452.785 212.662 452.785 213.862ZM450.529 213.406C450.529 212.574 450.345 211.862 449.977 211.27C449.609 210.662 449.105 210.206 448.465 209.902C447.841 209.582 447.145 209.422 446.377 209.422C445.273 209.422 444.329 209.774 443.545 210.478C442.777 211.182 442.337 212.158 442.225 213.406H450.529ZM457.852 203.182V220.942H455.668V203.182H457.852ZM473.574 213.862C473.574 214.278 473.55 214.718 473.502 215.182H462.99C463.07 216.478 463.51 217.494 464.31 218.23C465.126 218.95 466.11 219.31 467.262 219.31C468.206 219.31 468.99 219.094 469.614 218.662C470.254 218.214 470.702 217.622 470.958 216.886H473.31C472.958 218.15 472.254 219.182 471.198 219.982C470.142 220.766 468.83 221.158 467.262 221.158C466.014 221.158 464.894 220.878 463.902 220.318C462.926 219.758 462.158 218.966 461.598 217.942C461.038 216.902 460.758 215.702 460.758 214.342C460.758 212.982 461.03 211.79 461.574 210.766C462.118 209.742 462.878 208.958 463.854 208.414C464.846 207.854 465.982 207.574 467.262 207.574C468.51 207.574 469.614 207.846 470.574 208.39C471.534 208.934 472.27 209.686 472.782 210.646C473.31 211.59 473.574 212.662 473.574 213.862ZM471.318 213.406C471.318 212.574 471.134 211.862 470.766 211.27C470.398 210.662 469.894 210.206 469.254 209.902C468.63 209.582 467.934 209.422 467.166 209.422C466.062 209.422 465.118 209.774 464.334 210.478C463.566 211.182 463.126 212.158 463.014 213.406H471.318ZM479.121 209.59V217.342C479.121 217.982 479.257 218.438 479.529 218.71C479.801 218.966 480.273 219.094 480.945 219.094H482.553V220.942H480.585C479.369 220.942 478.457 220.662 477.849 220.102C477.241 219.542 476.937 218.622 476.937 217.342V209.59H475.233V207.79H476.937V204.478H479.121V207.79H482.553V209.59H479.121ZM497.199 213.862C497.199 214.278 497.175 214.718 497.127 215.182H486.615C486.695 216.478 487.135 217.494 487.935 218.23C488.751 218.95 489.735 219.31 490.887 219.31C491.831 219.31 492.615 219.094 493.239 218.662C493.879 218.214 494.327 217.622 494.583 216.886H496.935C496.583 218.15 495.879 219.182 494.823 219.982C493.767 220.766 492.455 221.158 490.887 221.158C489.639 221.158 488.519 220.878 487.527 220.318C486.551 219.758 485.783 218.966 485.223 217.942C484.663 216.902 484.383 215.702 484.383 214.342C484.383 212.982 484.655 211.79 485.199 210.766C485.743 209.742 486.503 208.958 487.479 208.414C488.471 207.854 489.607 207.574 490.887 207.574C492.135 207.574 493.239 207.846 494.199 208.39C495.159 208.934 495.895 209.686 496.407 210.646C496.935 211.59 497.199 212.662 497.199 213.862ZM494.943 213.406C494.943 212.574 494.759 211.862 494.391 211.27C494.023 210.662 493.519 210.206 492.879 209.902C492.255 209.582 491.559 209.422 490.791 209.422C489.687 209.422 488.743 209.774 487.959 210.478C487.191 211.182 486.751 212.158 486.639 213.406H494.943Z" fill="#F0F1FF"/>
<rect x="384.843" y="132" width="152.023" height="42.1449" rx="21.0725" fill="#4956E3"/>
<path d="M420.024 151.454C420.024 149.822 420.392 148.358 421.128 147.062C421.864 145.75 422.864 144.726 424.128 143.99C425.408 143.254 426.824 142.886 428.376 142.886C430.2 142.886 431.792 143.326 433.152 144.206C434.512 145.086 435.504 146.334 436.128 147.95H433.512C433.048 146.942 432.376 146.166 431.496 145.622C430.632 145.078 429.592 144.806 428.376 144.806C427.208 144.806 426.16 145.078 425.232 145.622C424.304 146.166 423.576 146.942 423.048 147.95C422.52 148.942 422.256 150.11 422.256 151.454C422.256 152.782 422.52 153.95 423.048 154.958C423.576 155.95 424.304 156.718 425.232 157.262C426.16 157.806 427.208 158.078 428.376 158.078C429.592 158.078 430.632 157.814 431.496 157.286C432.376 156.742 433.048 155.966 433.512 154.958H436.128C435.504 156.558 434.512 157.798 433.152 158.678C431.792 159.542 430.2 159.974 428.376 159.974C426.824 159.974 425.408 159.614 424.128 158.894C422.864 158.158 421.864 157.142 421.128 155.846C420.392 154.55 420.024 153.086 420.024 151.454ZM441.563 148.814C441.947 148.062 442.491 147.478 443.195 147.062C443.915 146.646 444.787 146.438 445.811 146.438V148.694H445.235C442.787 148.694 441.563 150.022 441.563 152.678V159.83H439.379V146.678H441.563V148.814ZM460.332 152.75C460.332 153.166 460.308 153.606 460.26 154.07H449.748C449.828 155.366 450.268 156.382 451.068 157.118C451.884 157.838 452.868 158.198 454.02 158.198C454.964 158.198 455.748 157.982 456.372 157.55C457.012 157.102 457.46 156.51 457.716 155.774H460.068C459.716 157.038 459.012 158.07 457.956 158.87C456.9 159.654 455.588 160.046 454.02 160.046C452.772 160.046 451.652 159.766 450.66 159.206C449.684 158.646 448.916 157.854 448.356 156.83C447.796 155.79 447.516 154.59 447.516 153.23C447.516 151.87 447.788 150.678 448.332 149.654C448.876 148.63 449.636 147.846 450.612 147.302C451.604 146.742 452.74 146.462 454.02 146.462C455.268 146.462 456.372 146.734 457.332 147.278C458.292 147.822 459.028 148.574 459.54 149.534C460.068 150.478 460.332 151.55 460.332 152.75ZM458.076 152.294C458.076 151.462 457.892 150.75 457.524 150.158C457.156 149.55 456.652 149.094 456.012 148.79C455.388 148.47 454.692 148.31 453.924 148.31C452.82 148.31 451.876 148.662 451.092 149.366C450.324 150.07 449.884 151.046 449.772 152.294H458.076ZM462.399 153.206C462.399 151.862 462.671 150.686 463.215 149.678C463.759 148.654 464.503 147.862 465.447 147.302C466.407 146.742 467.471 146.462 468.639 146.462C469.791 146.462 470.791 146.71 471.639 147.206C472.487 147.702 473.119 148.326 473.535 149.078V146.678H475.743V159.83H473.535V157.382C473.103 158.15 472.455 158.79 471.591 159.302C470.743 159.798 469.751 160.046 468.615 160.046C467.447 160.046 466.391 159.758 465.447 159.182C464.503 158.606 463.759 157.798 463.215 156.758C462.671 155.718 462.399 154.534 462.399 153.206ZM473.535 153.23C473.535 152.238 473.335 151.374 472.935 150.638C472.535 149.902 471.991 149.342 471.303 148.958C470.631 148.558 469.887 148.358 469.071 148.358C468.255 148.358 467.511 148.55 466.839 148.934C466.167 149.318 465.631 149.878 465.231 150.614C464.831 151.35 464.631 152.214 464.631 153.206C464.631 154.214 464.831 155.094 465.231 155.846C465.631 156.582 466.167 157.15 466.839 157.55C467.511 157.934 468.255 158.126 469.071 158.126C469.887 158.126 470.631 157.934 471.303 157.55C471.991 157.15 472.535 156.582 472.935 155.846C473.335 155.094 473.535 154.222 473.535 153.23ZM482.098 148.478V156.23C482.098 156.87 482.234 157.326 482.506 157.598C482.778 157.854 483.25 157.982 483.922 157.982H485.53V159.83H483.562C482.346 159.83 481.434 159.55 480.826 158.99C480.218 158.43 479.914 157.51 479.914 156.23V148.478H478.21V146.678H479.914V143.366H482.098V146.678H485.53V148.478H482.098ZM500.176 152.75C500.176 153.166 500.152 153.606 500.104 154.07H489.592C489.672 155.366 490.112 156.382 490.912 157.118C491.728 157.838 492.712 158.198 493.864 158.198C494.808 158.198 495.592 157.982 496.216 157.55C496.856 157.102 497.304 156.51 497.56 155.774H499.912C499.56 157.038 498.856 158.07 497.8 158.87C496.744 159.654 495.432 160.046 493.864 160.046C492.616 160.046 491.496 159.766 490.504 159.206C489.528 158.646 488.76 157.854 488.2 156.83C487.64 155.79 487.36 154.59 487.36 153.23C487.36 151.87 487.632 150.678 488.176 149.654C488.72 148.63 489.48 147.846 490.456 147.302C491.448 146.742 492.584 146.462 493.864 146.462C495.112 146.462 496.216 146.734 497.176 147.278C498.136 147.822 498.872 148.574 499.384 149.534C499.912 150.478 500.176 151.55 500.176 152.75ZM497.92 152.294C497.92 151.462 497.736 150.75 497.368 150.158C497 149.55 496.496 149.094 495.856 148.79C495.232 148.47 494.536 148.31 493.768 148.31C492.664 148.31 491.72 148.662 490.936 149.366C490.168 150.07 489.728 151.046 489.616 152.294H497.92Z" fill="#F0F1FF"/>
<path d="M72.16 73.408C73.104 73.584 73.88 74.056 74.488 74.824C75.096 75.592 75.4 76.472 75.4 77.464C75.4 78.36 75.176 79.152 74.728 79.84C74.296 80.512 73.664 81.04 72.832 81.424C72 81.808 71.016 82 69.88 82H62.656V65.248H69.568C70.704 65.248 71.68 65.432 72.496 65.8C73.328 66.168 73.952 66.68 74.368 67.336C74.8 67.992 75.016 68.736 75.016 69.568C75.016 70.544 74.752 71.36 74.224 72.016C73.712 72.672 73.024 73.136 72.16 73.408ZM66.016 72.16H69.088C69.888 72.16 70.504 71.984 70.936 71.632C71.368 71.264 71.584 70.744 71.584 70.072C71.584 69.4 71.368 68.88 70.936 68.512C70.504 68.144 69.888 67.96 69.088 67.96H66.016V72.16ZM69.4 79.264C70.216 79.264 70.848 79.072 71.296 78.688C71.76 78.304 71.992 77.76 71.992 77.056C71.992 76.336 71.752 75.776 71.272 75.376C70.792 74.96 70.144 74.752 69.328 74.752H66.016V79.264H69.4ZM77.2139 75.304C77.2139 73.96 77.4779 72.768 78.0059 71.728C78.5499 70.688 79.2779 69.888 80.1899 69.328C81.1179 68.768 82.1499 68.488 83.2859 68.488C84.2779 68.488 85.1419 68.688 85.8779 69.088C86.6299 69.488 87.2299 69.992 87.6779 70.6V68.704H91.0619V82H87.6779V80.056C87.2459 80.68 86.6459 81.2 85.8779 81.616C85.1259 82.016 84.2539 82.216 83.2619 82.216C82.1419 82.216 81.1179 81.928 80.1899 81.352C79.2779 80.776 78.5499 79.968 78.0059 78.928C77.4779 77.872 77.2139 76.664 77.2139 75.304ZM87.6779 75.352C87.6779 74.536 87.5179 73.84 87.1979 73.264C86.8779 72.672 86.4459 72.224 85.9019 71.92C85.3579 71.6 84.7739 71.44 84.1499 71.44C83.5259 71.44 82.9499 71.592 82.4219 71.896C81.8939 72.2 81.4619 72.648 81.1259 73.24C80.8059 73.816 80.6459 74.504 80.6459 75.304C80.6459 76.104 80.8059 76.808 81.1259 77.416C81.4619 78.008 81.8939 78.464 82.4219 78.784C82.9659 79.104 83.5419 79.264 84.1499 79.264C84.7739 79.264 85.3579 79.112 85.9019 78.808C86.4459 78.488 86.8779 78.04 87.1979 77.464C87.5179 76.872 87.6779 76.168 87.6779 75.352ZM101.712 68.512C103.296 68.512 104.576 69.016 105.552 70.024C106.528 71.016 107.016 72.408 107.016 74.2V82H103.656V74.656C103.656 73.6 103.392 72.792 102.864 72.232C102.336 71.656 101.616 71.368 100.704 71.368C99.7755 71.368 99.0395 71.656 98.4955 72.232C97.9675 72.792 97.7035 73.6 97.7035 74.656V82H94.3435V68.704H97.7035V70.36C98.1515 69.784 98.7195 69.336 99.4075 69.016C100.112 68.68 100.88 68.512 101.712 68.512ZM118.083 82L113.571 76.336V82H110.211V64.24H113.571V74.344L118.035 68.704H122.403L116.547 75.376L122.451 82H118.083ZM140.217 78.808H133.545L132.441 82H128.913L134.937 65.224H138.849L144.873 82H141.321L140.217 78.808ZM139.305 76.12L136.881 69.112L134.457 76.12H139.305ZM146.261 75.352C146.261 73.976 146.541 72.776 147.101 71.752C147.661 70.712 148.437 69.912 149.429 69.352C150.421 68.776 151.557 68.488 152.837 68.488C154.485 68.488 155.845 68.904 156.917 69.736C158.005 70.552 158.733 71.704 159.101 73.192H155.477C155.285 72.616 154.957 72.168 154.493 71.848C154.045 71.512 153.485 71.344 152.813 71.344C151.853 71.344 151.093 71.696 150.533 72.4C149.973 73.088 149.693 74.072 149.693 75.352C149.693 76.616 149.973 77.6 150.533 78.304C151.093 78.992 151.853 79.336 152.813 79.336C154.173 79.336 155.061 78.728 155.477 77.512H159.101C158.733 78.952 158.005 80.096 156.917 80.944C155.829 81.792 154.469 82.216 152.837 82.216C151.557 82.216 150.421 81.936 149.429 81.376C148.437 80.8 147.661 80 147.101 78.976C146.541 77.936 146.261 76.728 146.261 75.352ZM160.698 75.352C160.698 73.976 160.978 72.776 161.538 71.752C162.098 70.712 162.874 69.912 163.866 69.352C164.858 68.776 165.994 68.488 167.274 68.488C168.922 68.488 170.282 68.904 171.354 69.736C172.442 70.552 173.17 71.704 173.538 73.192H169.914C169.722 72.616 169.394 72.168 168.93 71.848C168.482 71.512 167.922 71.344 167.25 71.344C166.29 71.344 165.53 71.696 164.97 72.4C164.41 73.088 164.13 74.072 164.13 75.352C164.13 76.616 164.41 77.6 164.97 78.304C165.53 78.992 166.29 79.336 167.25 79.336C168.61 79.336 169.498 78.728 169.914 77.512H173.538C173.17 78.952 172.442 80.096 171.354 80.944C170.266 81.792 168.906 82.216 167.274 82.216C165.994 82.216 164.858 81.936 163.866 81.376C162.874 80.8 162.098 80 161.538 78.976C160.978 77.936 160.698 76.728 160.698 75.352ZM181.904 82.216C180.624 82.216 179.472 81.936 178.448 81.376C177.424 80.8 176.616 79.992 176.024 78.952C175.448 77.912 175.16 76.712 175.16 75.352C175.16 73.992 175.456 72.792 176.048 71.752C176.656 70.712 177.48 69.912 178.52 69.352C179.56 68.776 180.72 68.488 182 68.488C183.28 68.488 184.44 68.776 185.48 69.352C186.52 69.912 187.336 70.712 187.928 71.752C188.536 72.792 188.84 73.992 188.84 75.352C188.84 76.712 188.528 77.912 187.904 78.952C187.296 79.992 186.464 80.8 185.408 81.376C184.368 81.936 183.2 82.216 181.904 82.216ZM181.904 79.288C182.512 79.288 183.08 79.144 183.608 78.856C184.152 78.552 184.584 78.104 184.904 77.512C185.224 76.92 185.384 76.2 185.384 75.352C185.384 74.088 185.048 73.12 184.376 72.448C183.72 71.76 182.912 71.416 181.952 71.416C180.992 71.416 180.184 71.76 179.528 72.448C178.888 73.12 178.568 74.088 178.568 75.352C178.568 76.616 178.88 77.592 179.504 78.28C180.144 78.952 180.944 79.288 181.904 79.288ZM203.856 68.704V82H200.472V80.32C200.04 80.896 199.472 81.352 198.768 81.688C198.08 82.008 197.328 82.168 196.512 82.168C195.472 82.168 194.552 81.952 193.752 81.52C192.952 81.072 192.32 80.424 191.856 79.576C191.408 78.712 191.184 77.688 191.184 76.504V68.704H194.544V76.024C194.544 77.08 194.808 77.896 195.336 78.472C195.864 79.032 196.584 79.312 197.496 79.312C198.424 79.312 199.152 79.032 199.68 78.472C200.208 77.896 200.472 77.08 200.472 76.024V68.704H203.856ZM214.54 68.512C216.124 68.512 217.404 69.016 218.38 70.024C219.356 71.016 219.844 72.408 219.844 74.2V82H216.484V74.656C216.484 73.6 216.22 72.792 215.692 72.232C215.164 71.656 214.444 71.368 213.532 71.368C212.604 71.368 211.868 71.656 211.324 72.232C210.796 72.792 210.532 73.6 210.532 74.656V82H207.172V68.704H210.532V70.36C210.98 69.784 211.548 69.336 212.236 69.016C212.94 68.68 213.708 68.512 214.54 68.512ZM226.951 71.464V77.896C226.951 78.344 227.055 78.672 227.263 78.88C227.487 79.072 227.855 79.168 228.367 79.168H229.927V82H227.815C224.983 82 223.567 80.624 223.567 77.872V71.464H221.983V68.704H223.567V65.416H226.951V68.704H229.927V71.464H226.951ZM237.432 82.216C236.344 82.216 235.368 82.024 234.504 81.64C233.64 81.24 232.952 80.704 232.44 80.032C231.944 79.36 231.672 78.616 231.624 77.8H235.008C235.072 78.312 235.32 78.736 235.752 79.072C236.2 79.408 236.752 79.576 237.408 79.576C238.048 79.576 238.544 79.448 238.896 79.192C239.264 78.936 239.448 78.608 239.448 78.208C239.448 77.776 239.224 77.456 238.776 77.248C238.344 77.024 237.648 76.784 236.688 76.528C235.696 76.288 234.88 76.04 234.24 75.784C233.616 75.528 233.072 75.136 232.608 74.608C232.16 74.08 231.936 73.368 231.936 72.472C231.936 71.736 232.144 71.064 232.56 70.456C232.992 69.848 233.6 69.368 234.384 69.016C235.184 68.664 236.12 68.488 237.192 68.488C238.776 68.488 240.04 68.888 240.984 69.688C241.928 70.472 242.448 71.536 242.544 72.88H239.328C239.28 72.352 239.056 71.936 238.656 71.632C238.272 71.312 237.752 71.152 237.096 71.152C236.488 71.152 236.016 71.264 235.68 71.488C235.36 71.712 235.2 72.024 235.2 72.424C235.2 72.872 235.424 73.216 235.872 73.456C236.32 73.68 237.016 73.912 237.96 74.152C238.92 74.392 239.712 74.64 240.336 74.896C240.96 75.152 241.496 75.552 241.944 76.096C242.408 76.624 242.648 77.328 242.664 78.208C242.664 78.976 242.448 79.664 242.016 80.272C241.6 80.88 240.992 81.36 240.192 81.712C239.408 82.048 238.488 82.216 237.432 82.216Z" fill="#4956E3"/>
<defs>
<filter id="filter0_d_178_1102" x="0" y="0" width="625" height="309" filterUnits="userSpaceOnUse" color-interpolation-filters="sRGB">
<feFlood flood-opacity="0" result="BackgroundImageFix"/>
<feColorMatrix in="SourceAlpha" type="matrix" values="0 0 0 0 0 0 0 0 0 0 0 0 0 0 0 0 0 0 127 0" result="hardAlpha"/>
<feOffset dy="2"/>
<feGaussianBlur stdDeviation="10"/>
<feComposite in2="hardAlpha" operator="out"/>
<feColorMatrix type="matrix" values="0 0 0 0 0 0 0 0 0 0 0 0 0 0 0 0 0 0 0.1 0"/>
<feBlend mode="normal" in2="BackgroundImageFix" result="effect1_dropShadow_178_1102"/>
<feBlend mode="normal" in="SourceGraphic" in2="effect1_dropShadow_178_1102" result="shape"/>
</filter>
</defs>
</svg>
