<svg width="74" height="66" viewBox="0 0 74 66" fill="none" xmlns="http://www.w3.org/2000/svg">
<path d="M36.3757 57.6228C51.0419 57.6228 62.9312 45.781 62.9312 31.1735C62.9312 16.566 51.0419 4.72426 36.3757 4.72426C21.7096 4.72426 9.82031 16.566 9.82031 31.1735C9.82031 45.781 21.7096 57.6228 36.3757 57.6228Z" fill="#B9EED8"/>
<path d="M30.3056 26.9746C31.9622 26.9746 33.3098 27.853 34.0021 29.3881L34.0557 29.5071L36.8373 28.5672L36.7796 28.4235C35.7041 25.8131 33.2233 24.1877 30.3097 24.1877C28.2616 24.1877 26.5926 24.8403 25.2162 26.1866C23.8481 27.5205 23.1558 29.1993 23.1558 31.1817C23.1558 33.1437 23.8481 34.8142 25.2162 36.1481C26.5926 37.4903 28.2575 38.147 30.3097 38.147C33.2274 38.147 35.7041 36.5257 36.7796 33.9153L36.8373 33.7716L34.0516 32.8276L33.998 32.9507C33.3757 34.4571 31.9952 35.3601 30.3056 35.3601C29.1518 35.3601 28.1792 34.9578 27.4086 34.1698C26.6297 33.3694 26.2341 32.3638 26.2341 31.1817C26.2341 29.9914 26.6215 29.0063 27.4086 28.169C28.1792 27.3728 29.1518 26.9746 30.3056 26.9746Z" fill="#00595D"/>
<path d="M47.7166 24.4463L43.7564 34.4284L39.7673 24.4463H36.5035L42.0957 38.0731L38.1148 47.6858L37.9294 48.1209C37.8016 48.4246 37.5255 48.6422 37.2041 48.6832C36.928 48.6955 36.6519 48.7037 36.3716 48.7037C36.314 48.7037 36.2563 48.7037 36.1986 48.7037C26.5596 48.6093 18.771 40.7985 18.771 31.1735C18.771 21.491 26.6503 13.6433 36.3716 13.6433C46.093 13.6433 53.9722 21.491 53.9722 31.1735C53.9722 38.4508 49.5216 44.6896 43.1836 47.341L42.1492 49.8448C41.9967 50.2142 41.8072 50.559 41.5847 50.8791C50.3582 48.5847 56.8281 40.6302 56.8281 31.1735C56.8281 19.9231 47.6713 10.7989 36.3716 10.7989C25.072 10.7989 15.9235 19.9231 15.9235 31.1735C15.9235 42.3664 24.9896 51.4537 36.2068 51.544C36.2315 51.544 37.2494 51.5276 37.2453 51.5276C38.7082 51.4661 40.0187 50.5508 40.5791 49.1963L41.0407 48.0799L50.8032 24.4422H47.7166V24.4463Z" fill="#00595D"/>
</svg>
