<svg width="72" height="80" viewBox="0 0 72 80" fill="none" xmlns="http://www.w3.org/2000/svg">
<path d="M57.51 39.73C53.08 42.92 45.03 45.05 35.84 45.05C26.65 45.05 18.6 42.92 14.17 39.73C11.86 38.07 10.53 36.13 10.53 34.04V45.41C10.53 51.49 21.86 56.41 35.84 56.41C49.82 56.41 61.15 51.48 61.15 45.41V34.05C61.15 36.13 59.82 38.07 57.51 39.73Z" fill="#00595D"/>
<path d="M57.51 51.1C53.08 54.29 45.03 56.42 35.84 56.42C26.65 56.42 18.6 54.29 14.16 51.1C11.85 49.44 10.52 47.5 10.52 45.41V56.78C10.52 62.86 21.85 67.78 35.83 67.78C49.81 67.78 61.14 62.85 61.14 56.78V45.42C61.15 47.5 59.82 49.44 57.51 51.1Z" fill="#69D3A7"/>
<path d="M35.84 45.05C49.8184 45.05 61.15 40.1251 61.15 34.05C61.15 27.9749 49.8184 23.05 35.84 23.05C21.8617 23.05 10.53 27.9749 10.53 34.05C10.53 40.1251 21.8617 45.05 35.84 45.05Z" fill="#B9EED8"/>
<path d="M61.15 22.68H10.53V34.05H61.15V22.68Z" fill="#B9EED8"/>
<path d="M35.84 33.68C49.8184 33.68 61.15 28.7551 61.15 22.68C61.15 16.6049 49.8184 11.68 35.84 11.68C21.8617 11.68 10.53 16.6049 10.53 22.68C10.53 28.7551 21.8617 33.68 35.84 33.68Z" fill="#69D3A7"/>
</svg>
