<svg width="86" height="83" viewBox="0 0 86 83" fill="none" xmlns="http://www.w3.org/2000/svg">
<path d="M80.0317 5.75964H27.1466V66.1139H80.0317V5.75964Z" fill="#B9EED8"/>
<path d="M42.2783 49.3514L38.0251 53.6157L46.5314 62.1444L50.7846 57.8801L42.2783 49.3514Z" fill="#00595D"/>
<path d="M65.2973 71.1068L59.73 76.6887C58.9933 77.4274 57.7996 77.4274 57.0629 76.6887L42.8694 62.4487L51.1039 54.1926L65.3067 68.4327C66.034 69.1713 66.034 70.3681 65.2973 71.1068Z" fill="#00595D"/>
<path d="M41.8157 23.3657C50.0128 31.5843 50.0128 44.9174 41.8157 53.1361C33.6185 61.3547 20.3203 61.3547 12.1232 53.1361C3.92606 44.9174 3.92606 31.5843 12.1232 23.3657C20.3203 15.147 33.6092 15.147 41.8157 23.3657ZM17.5133 28.7793C12.2911 34.0153 12.2911 42.4958 17.5133 47.7318C22.7356 52.9678 31.1939 52.9678 36.4162 47.7318C41.6385 42.4958 41.6385 34.0153 36.4162 28.7793C31.1939 23.5433 22.7356 23.5433 17.5133 28.7793Z" fill="#00595D"/>
<path d="M73.4479 12.0055H56.7925V17.2789H73.4479V12.0055Z" fill="#69D3A7"/>
</svg>
