<svg width="580" height="460" viewBox="0 0 580 460" fill="none" xmlns="http://www.w3.org/2000/svg">
<g clip-path="url(#clip0_77_886)">
<path d="M311.616 109.36H716V450.843C716 453.276 715.032 455.609 713.31 457.33C711.587 459.05 709.251 460.017 706.815 460.017H311.616V109.36Z" fill="#AFB3C7"/>
<path d="M0 138.139H311.616V460H9.18494C6.74894 460 4.41272 459.033 2.69021 457.313C0.967696 455.592 0 453.259 0 450.826L0 138.139Z" fill="#69D3A7"/>
<path d="M284.861 138.139H33.7886V318.726H284.861V138.139Z" fill="#E1E3ED"/>
<path d="M284.861 264.794H33.7886V318.726H284.861V264.794Z" fill="#C8A7F5"/>
<path d="M40.3202 264.794H33.7886V318.726H40.3202V264.794Z" fill="#7F43C9"/>
<path d="M284.861 359.781H33.7886V460.008H284.861V359.781Z" fill="#E1E3ED"/>
<path d="M9.18494 0H706.815C709.251 0 711.587 0.966562 713.31 2.68705C715.032 4.40755 716 6.74103 716 9.17418V35.8218H0V9.17418C0 6.74103 0.967696 4.40755 2.69021 2.68705C4.41272 0.966562 6.74894 0 9.18494 0V0Z" fill="#00595D"/>
<path d="M112.533 153.557C114.097 153.557 115.365 152.291 115.365 150.728C115.365 149.166 114.097 147.9 112.533 147.9C110.968 147.9 109.701 149.166 109.701 150.728C109.701 152.291 110.968 153.557 112.533 153.557Z" fill="#BFC2D4"/>
<path d="M156.076 148.231H124.235C122.854 148.231 121.734 149.347 121.734 150.724C121.734 152.101 122.854 153.217 124.235 153.217H156.076C157.457 153.217 158.576 152.101 158.576 150.724C158.576 149.347 157.457 148.231 156.076 148.231Z" fill="#BFC2D4"/>
<path d="M195.996 148.231H164.155C162.774 148.231 161.655 149.347 161.655 150.724C161.655 152.101 162.774 153.217 164.155 153.217H195.996C197.377 153.217 198.497 152.101 198.497 150.724C198.497 149.347 197.377 148.231 195.996 148.231Z" fill="#BFC2D4"/>
<path d="M235.517 148.231H204.688C203.307 148.231 202.188 149.347 202.188 150.724C202.188 152.101 203.307 153.217 204.688 153.217H235.517C236.898 153.217 238.018 152.101 238.018 150.724C238.018 149.347 236.898 148.231 235.517 148.231Z" fill="#BFC2D4"/>
<path d="M112.533 175.601C114.097 175.601 115.365 174.334 115.365 172.772C115.365 171.21 114.097 169.943 112.533 169.943C110.968 169.943 109.701 171.21 109.701 172.772C109.701 174.334 110.968 175.601 112.533 175.601Z" fill="#BFC2D4"/>
<path d="M207.154 170.274H124.235C122.854 170.274 121.734 171.391 121.734 172.768C121.734 174.145 122.854 175.261 124.235 175.261H207.154C208.535 175.261 209.655 174.145 209.655 172.768C209.655 171.391 208.535 170.274 207.154 170.274Z" fill="#BFC2D4"/>
<path d="M229.981 170.274H215.31C213.929 170.274 212.81 171.391 212.81 172.768C212.81 174.145 213.929 175.261 215.31 175.261H229.981C231.362 175.261 232.481 174.145 232.481 172.768C232.481 171.391 231.362 170.274 229.981 170.274Z" fill="#BFC2D4"/>
<path d="M254.652 170.274H238.017C236.637 170.274 235.517 171.391 235.517 172.768C235.517 174.145 236.637 175.261 238.017 175.261H254.652C256.033 175.261 257.153 174.145 257.153 172.768C257.153 171.391 256.033 170.274 254.652 170.274Z" fill="#BFC2D4"/>
<path d="M112.533 195.928C114.097 195.928 115.365 194.662 115.365 193.099C115.365 191.537 114.097 190.271 112.533 190.271C110.968 190.271 109.701 191.537 109.701 193.099C109.701 194.662 110.968 195.928 112.533 195.928Z" fill="#BFC2D4"/>
<path d="M173.034 190.602H124.235C122.854 190.602 121.734 191.718 121.734 193.095C121.734 194.472 122.854 195.588 124.235 195.588H173.034C174.415 195.588 175.534 194.472 175.534 193.095C175.534 191.718 174.415 190.602 173.034 190.602Z" fill="#BFC2D4"/>
<path d="M112.533 215.789C114.097 215.789 115.365 214.522 115.365 212.96C115.365 211.398 114.097 210.131 112.533 210.131C110.968 210.131 109.701 211.398 109.701 212.96C109.701 214.522 110.968 215.789 112.533 215.789Z" fill="#BFC2D4"/>
<path d="M222.973 210.462H124.235C122.854 210.462 121.734 211.579 121.734 212.956C121.734 214.333 122.854 215.449 124.235 215.449H222.973C224.354 215.449 225.473 214.333 225.473 212.956C225.473 211.579 224.354 210.462 222.973 210.462Z" fill="#BFC2D4"/>
<path d="M112.533 256.614C114.097 256.614 115.365 255.347 115.365 253.785C115.365 252.223 114.097 250.956 112.533 250.956C110.968 250.956 109.701 252.223 109.701 253.785C109.701 255.347 110.968 256.614 112.533 256.614Z" fill="#BFC2D4"/>
<path d="M222.973 251.287H124.235C122.854 251.287 121.734 252.404 121.734 253.781C121.734 255.158 122.854 256.274 124.235 256.274H222.973C224.354 256.274 225.473 255.158 225.473 253.781C225.473 252.404 224.354 251.287 222.973 251.287Z" fill="#BFC2D4"/>
<path d="M112.533 236.167C114.097 236.167 115.365 234.901 115.365 233.338C115.365 231.776 114.097 230.51 112.533 230.51C110.968 230.51 109.701 231.776 109.701 233.338C109.701 234.901 110.968 236.167 112.533 236.167Z" fill="#BFC2D4"/>
<path d="M191.344 230.841H124.235C122.854 230.841 121.734 231.957 121.734 233.334C121.734 234.711 122.854 235.827 124.235 235.827H191.344C192.725 235.827 193.845 234.711 193.845 233.334C193.845 231.957 192.725 230.841 191.344 230.841Z" fill="#BFC2D4"/>
<path d="M88.7027 148.231H56.8616C55.4807 148.231 54.3612 149.347 54.3612 150.724C54.3612 152.101 55.4807 153.217 56.8616 153.217H88.7027C90.0836 153.217 91.203 152.101 91.203 150.724C91.203 149.347 90.0836 148.231 88.7027 148.231Z" fill="#BFC2D4"/>
<path d="M88.7027 170.274H56.8616C55.4807 170.274 54.3612 171.391 54.3612 172.768C54.3612 174.145 55.4807 175.261 56.8616 175.261H88.7027C90.0836 175.261 91.203 174.145 91.203 172.768C91.203 171.391 90.0836 170.274 88.7027 170.274Z" fill="#BFC2D4"/>
<path d="M88.7027 190.602H56.8616C55.4807 190.602 54.3612 191.718 54.3612 193.095C54.3612 194.472 55.4807 195.588 56.8616 195.588H88.7027C90.0836 195.588 91.203 194.472 91.203 193.095C91.203 191.718 90.0836 190.602 88.7027 190.602Z" fill="#BFC2D4"/>
<path d="M88.7027 210.462H56.8616C55.4807 210.462 54.3612 211.579 54.3612 212.956C54.3612 214.333 55.4807 215.449 56.8616 215.449H88.7027C90.0836 215.449 91.203 214.333 91.203 212.956C91.203 211.579 90.0836 210.462 88.7027 210.462Z" fill="#BFC2D4"/>
<path d="M88.7027 230.841H56.8616C55.4807 230.841 54.3612 231.957 54.3612 233.334C54.3612 234.711 55.4807 235.827 56.8616 235.827H88.7027C90.0836 235.827 91.203 234.711 91.203 233.334C91.203 231.957 90.0836 230.841 88.7027 230.841Z" fill="#BFC2D4"/>
<path d="M88.7027 250.956H56.8616C55.4807 250.956 54.3612 252.072 54.3612 253.449C54.3612 254.826 55.4807 255.943 56.8616 255.943H88.7027C90.0836 255.943 91.203 254.826 91.203 253.449C91.203 252.072 90.0836 250.956 88.7027 250.956Z" fill="#BFC2D4"/>
<path d="M112.533 372.913C114.097 372.913 115.365 371.647 115.365 370.085C115.365 368.522 114.097 367.256 112.533 367.256C110.968 367.256 109.701 368.522 109.701 370.085C109.701 371.647 110.968 372.913 112.533 372.913Z" fill="#BFC2D4"/>
<path d="M156.076 367.596H124.235C122.854 367.596 121.734 368.712 121.734 370.089C121.734 371.466 122.854 372.582 124.235 372.582H156.076C157.457 372.582 158.576 371.466 158.576 370.089C158.576 368.712 157.457 367.596 156.076 367.596Z" fill="#BFC2D4"/>
<path d="M195.996 367.596H164.155C162.774 367.596 161.655 368.712 161.655 370.089C161.655 371.466 162.774 372.582 164.155 372.582H195.996C197.377 372.582 198.497 371.466 198.497 370.089C198.497 368.712 197.377 367.596 195.996 367.596Z" fill="#BFC2D4"/>
<path d="M235.517 367.596H204.688C203.307 367.596 202.188 368.712 202.188 370.089C202.188 371.466 203.307 372.582 204.688 372.582H235.517C236.898 372.582 238.018 371.466 238.018 370.089C238.018 368.712 236.898 367.596 235.517 367.596Z" fill="#BFC2D4"/>
<path d="M112.533 394.957C114.097 394.957 115.365 393.69 115.365 392.128C115.365 390.566 114.097 389.299 112.533 389.299C110.968 389.299 109.701 390.566 109.701 392.128C109.701 393.69 110.968 394.957 112.533 394.957Z" fill="#BFC2D4"/>
<path d="M207.154 389.639H124.235C122.854 389.639 121.734 390.755 121.734 392.132C121.734 393.509 122.854 394.625 124.235 394.625H207.154C208.535 394.625 209.655 393.509 209.655 392.132C209.655 390.755 208.535 389.639 207.154 389.639Z" fill="#BFC2D4"/>
<path d="M229.981 389.639H215.31C213.929 389.639 212.81 390.755 212.81 392.132C212.81 393.509 213.929 394.625 215.31 394.625H229.981C231.362 394.625 232.481 393.509 232.481 392.132C232.481 390.755 231.362 389.639 229.981 389.639Z" fill="#BFC2D4"/>
<path d="M254.652 389.639H238.017C236.637 389.639 235.517 390.755 235.517 392.132C235.517 393.509 236.637 394.625 238.017 394.625H254.652C256.033 394.625 257.153 393.509 257.153 392.132C257.153 390.755 256.033 389.639 254.652 389.639Z" fill="#BFC2D4"/>
<path d="M112.533 415.284C114.097 415.284 115.365 414.018 115.365 412.456C115.365 410.893 114.097 409.627 112.533 409.627C110.968 409.627 109.701 410.893 109.701 412.456C109.701 414.018 110.968 415.284 112.533 415.284Z" fill="#BFC2D4"/>
<path d="M173.034 409.967H124.235C122.854 409.967 121.734 411.083 121.734 412.46C121.734 413.837 122.854 414.953 124.235 414.953H173.034C174.415 414.953 175.534 413.837 175.534 412.46C175.534 411.083 174.415 409.967 173.034 409.967Z" fill="#BFC2D4"/>
<path d="M211.066 433.217H112.328C110.948 433.217 109.828 434.333 109.828 435.71C109.828 437.087 110.948 438.203 112.328 438.203H211.066C212.447 438.203 213.567 437.087 213.567 435.71C213.567 434.333 212.447 433.217 211.066 433.217Z" fill="#BFC2D4"/>
<path d="M88.7027 367.596H56.8616C55.4807 367.596 54.3612 368.712 54.3612 370.089C54.3612 371.466 55.4807 372.582 56.8616 372.582H88.7027C90.0836 372.582 91.203 371.466 91.203 370.089C91.203 368.712 90.0836 367.596 88.7027 367.596Z" fill="#BFC2D4"/>
<path d="M88.7027 389.639H56.8616C55.4807 389.639 54.3612 390.755 54.3612 392.132C54.3612 393.509 55.4807 394.625 56.8616 394.625H88.7027C90.0836 394.625 91.203 393.509 91.203 392.132C91.203 390.755 90.0836 389.639 88.7027 389.639Z" fill="#BFC2D4"/>
<path d="M88.7027 409.967H56.8616C55.4807 409.967 54.3612 411.083 54.3612 412.46C54.3612 413.837 55.4807 414.953 56.8616 414.953H88.7027C90.0836 414.953 91.203 413.837 91.203 412.46C91.203 411.083 90.0836 409.967 88.7027 409.967Z" fill="#BFC2D4"/>
<path d="M88.7027 433.217H56.8616C55.4807 433.217 54.3612 434.333 54.3612 435.71C54.3612 437.087 55.4807 438.203 56.8616 438.203H88.7027C90.0836 438.203 91.203 437.087 91.203 435.71C91.203 434.333 90.0836 433.217 88.7027 433.217Z" fill="#BFC2D4"/>
<path d="M23.243 23.3857C26.249 23.3857 28.6859 20.9516 28.6859 17.9491C28.6859 14.9466 26.249 12.5126 23.243 12.5126C20.2369 12.5126 17.8 14.9466 17.8 17.9491C17.8 20.9516 20.2369 23.3857 23.243 23.3857Z" fill="#69D3A7"/>
<path d="M41.749 23.3857C44.755 23.3857 47.1919 20.9516 47.1919 17.9491C47.1919 14.9466 44.755 12.5126 41.749 12.5126C38.7429 12.5126 36.306 14.9466 36.306 17.9491C36.306 20.9516 38.7429 23.3857 41.749 23.3857Z" fill="#69D3A7"/>
<path d="M60.2634 23.3857C63.2695 23.3857 65.7064 20.9516 65.7064 17.9491C65.7064 14.9466 63.2695 12.5126 60.2634 12.5126C57.2574 12.5126 54.8205 14.9466 54.8205 17.9491C54.8205 20.9516 57.2574 23.3857 60.2634 23.3857Z" fill="#69D3A7"/>
<path d="M716 35.8218H0V72.5949H716V35.8218Z" fill="#F3F4FA"/>
<path d="M176.393 72.5864H72.7822V109.36H176.393V72.5864Z" fill="#D0D2E0"/>
<path d="M311.616 72.5864H249.175V109.36H311.616V72.5864Z" fill="#D0D2E0"/>
<path d="M72.7821 72.5864H0V109.36H72.7821V72.5864Z" fill="#E1E3ED"/>
<path d="M249.175 72.5864H176.393V109.36H249.175V72.5864Z" fill="#E1E3ED"/>
<path d="M270.037 49.9313H20.6321C18.7627 49.9313 17.2473 51.4449 17.2473 53.3121V53.3206C17.2473 55.1878 18.7627 56.7015 20.6321 56.7015H270.037C271.907 56.7015 273.422 55.1878 273.422 53.3206V53.3121C273.422 51.4449 271.907 49.9313 270.037 49.9313Z" fill="#69D3A7"/>
<path d="M358 108.553H716V450.826C716 453.259 715.032 455.592 713.31 457.313C711.587 459.033 709.251 460 706.815 460H358V108.553Z" fill="#6470F3"/>
<path d="M716 72.5864H311.616V109.36H716V72.5864Z" fill="#E1E3ED"/>
<path d="M678.742 81.4802H346.493C341.242 81.4802 336.985 85.7303 336.985 90.9729C336.985 96.2156 341.242 100.466 346.493 100.466H678.742C683.993 100.466 688.25 96.2156 688.25 90.9729C688.25 85.7303 683.993 81.4802 678.742 81.4802Z" fill="#D0D2E0"/>
<path d="M33.7886 161.245H284.861" stroke="#D0D2E0" stroke-width="0.75" stroke-miterlimit="10"/>
<path d="M33.7886 181.954H284.861" stroke="#D0D2E0" stroke-width="0.75" stroke-miterlimit="10"/>
<path d="M33.7886 202.664H284.861" stroke="#D0D2E0" stroke-width="0.75" stroke-miterlimit="10"/>
<path d="M33.7886 223.374H284.861" stroke="#D0D2E0" stroke-width="0.75" stroke-miterlimit="10"/>
<path d="M33.7886 244.084H284.861" stroke="#D0D2E0" stroke-width="0.75" stroke-miterlimit="10"/>
<path d="M33.7886 264.794H284.861" stroke="#D0D2E0" stroke-width="0.75" stroke-miterlimit="10"/>
<path d="M33.7886 382.24H284.861" stroke="#D0D2E0" stroke-width="0.75" stroke-miterlimit="10"/>
<path d="M33.7886 402.95H284.861" stroke="#D0D2E0" stroke-width="0.75" stroke-miterlimit="10"/>
<path d="M33.7886 423.66H284.861" stroke="#D0D2E0" stroke-width="0.75" stroke-miterlimit="10"/>
<path d="M311.616 109.36H0V138.139H311.616V109.36Z" fill="#00595D"/>
<path d="M201.516 120.122H20.6321C18.7627 120.122 17.2473 121.636 17.2473 123.503V123.512C17.2473 125.379 18.7627 126.892 20.6321 126.892H201.516C203.385 126.892 204.901 125.379 204.901 123.512V123.503C204.901 121.636 203.385 120.122 201.516 120.122Z" fill="#69D3A7"/>
<path d="M87.8097 337.746H37.9899C36.1205 337.746 34.6051 339.259 34.6051 341.126V341.135C34.6051 343.002 36.1205 344.516 37.9899 344.516H87.8097C89.6791 344.516 91.1945 343.002 91.1945 341.135V341.126C91.1945 339.259 89.6791 337.746 87.8097 337.746Z" fill="#69D3A7"/>
<path d="M92.079 279.218H53.4852V289.683H92.079V279.218Z" fill="#0097A8"/>
<path d="M211.024 281.953H112.286C110.905 281.953 109.786 283.069 109.786 284.446C109.786 285.823 110.905 286.939 112.286 286.939H211.024C212.405 286.939 213.524 285.823 213.524 284.446C213.524 283.069 212.405 281.953 211.024 281.953Z" fill="#0097A8"/>
<path d="M255.903 296.402H112.286C110.905 296.402 109.786 297.519 109.786 298.896C109.786 300.272 110.905 301.389 112.286 301.389H255.903C257.283 301.389 258.403 300.272 258.403 298.896C258.403 297.519 257.283 296.402 255.903 296.402Z" fill="#0097A8"/>
</g>
<defs>
<clipPath id="clip0_77_886">
<rect width="716" height="460" fill="white"/>
</clipPath>
</defs>
</svg>
