<svg width="88" height="81" viewBox="0 0 88 81" fill="none" xmlns="http://www.w3.org/2000/svg">
<path d="M46.1701 77.5001V71.0701H57.0601C60.1001 71.0701 62.5601 68.6101 62.5601 65.5701V59.6301C62.6001 59.5901 62.6201 59.5701 62.6501 59.5401H68.8801C70.2901 59.5401 71.2701 58.1301 70.7801 56.8101L67.4001 47.7901C67.6701 46.3601 67.8201 44.8901 67.8201 43.3901C67.8201 29.7801 56.3301 18.8601 42.5201 19.8101C30.9901 20.5801 21.6001 29.8201 20.6201 41.3301C20.0801 47.7001 22.0801 53.5901 25.7001 58.1201L25.4101 77.5001H46.1701Z" fill="#00595D"/>
<path d="M28.46 33.8601C30.56 34.5101 36.11 36.8101 37.44 43.0401C37.49 43.2801 37.84 43.2801 37.89 43.0401C39.22 36.8001 44.77 34.5101 46.87 33.8601C47.09 33.7901 47.09 33.4901 46.87 33.4201C44.77 32.7701 39.22 30.4701 37.89 24.2401C37.84 24.0001 37.49 24.0001 37.44 24.2401C36.11 30.4801 30.56 32.7701 28.46 33.4201C28.25 33.4901 28.25 33.7901 28.46 33.8601Z" fill="#69D3A7"/>
<path d="M43.47 13.2V4.42004" stroke="#B9EED8" stroke-width="3.7636" stroke-miterlimit="10" stroke-linecap="round" stroke-linejoin="round"/>
<path d="M28.42 17.2901L24.03 9.68005" stroke="#B9EED8" stroke-width="3.7636" stroke-miterlimit="10" stroke-linecap="round" stroke-linejoin="round"/>
<path d="M17.4201 28.3601L9.81006 23.9701" stroke="#B9EED8" stroke-width="3.7636" stroke-miterlimit="10" stroke-linecap="round" stroke-linejoin="round"/>
<path d="M13.43 43.4401H4.65002" stroke="#B9EED8" stroke-width="3.7636" stroke-miterlimit="10" stroke-linecap="round" stroke-linejoin="round"/>
<path d="M73.71 43.25H82.49" stroke="#B9EED8" stroke-width="3.7636" stroke-miterlimit="10" stroke-linecap="round" stroke-linejoin="round"/>
<path d="M69.62 28.1901L77.23 23.8" stroke="#B9EED8" stroke-width="3.7636" stroke-miterlimit="10" stroke-linecap="round" stroke-linejoin="round"/>
<path d="M58.5601 17.1901L62.9501 9.59009" stroke="#B9EED8" stroke-width="3.7636" stroke-miterlimit="10" stroke-linecap="round" stroke-linejoin="round"/>
</svg>
