<svg width="667" height="488" viewBox="0 0 667 488" fill="none" xmlns="http://www.w3.org/2000/svg">
<g filter="url(#filter0_d_404_25309)">
<g clip-path="url(#clip0_404_25309)">
<rect x="4" y="3" width="659" height="479.965" rx="2.5395" fill="#9095AD"/>
<rect x="4" y="3" width="659" height="33.0135" fill="#434861"/>
<circle cx="26.8545" cy="19.5068" r="5.71387" fill="#F8C4CD"/>
<circle cx="48.4404" cy="19.5068" r="5.71387" fill="#F1E08F"/>
<circle cx="70.0264" cy="19.5068" r="5.71387" fill="#69D3A7"/>
<g clip-path="url(#clip1_404_25309)">
<rect x="4" y="35.7581" width="659" height="450.488" rx="1.28711" fill="white"/>
<rect x="145.582" y="35.7582" width="517.418" height="49.5537" fill="#4956E3"/>
<path d="M352.525 65.2729L350.834 62.2032H350.359V65.2729H348.378V57.141H351.703C352.344 57.141 352.888 57.2529 353.336 57.4769C353.792 57.7009 354.132 58.0098 354.356 58.4036C354.58 58.7897 354.692 59.2222 354.692 59.701C354.692 60.2416 354.537 60.7243 354.228 61.149C353.927 61.5738 353.479 61.8749 352.885 62.0526L354.761 65.2729H352.525ZM350.359 60.8015H351.587C351.95 60.8015 352.22 60.7127 352.398 60.5351C352.583 60.3574 352.676 60.1065 352.676 59.7821C352.676 59.4732 352.583 59.2299 352.398 59.0523C352.22 58.8747 351.95 58.7859 351.587 58.7859H350.359V60.8015ZM362.028 61.9367C362.028 62.1221 362.017 62.3151 361.994 62.5159H357.511C357.541 62.9175 357.669 63.2264 357.893 63.4426C358.124 63.6512 358.406 63.7554 358.738 63.7554C359.233 63.7554 359.576 63.5469 359.769 63.1299H361.878C361.77 63.5546 361.573 63.9369 361.287 64.2767C361.009 64.6165 360.658 64.8829 360.233 65.076C359.808 65.2691 359.333 65.3656 358.808 65.3656C358.175 65.3656 357.611 65.2304 357.117 64.9602C356.622 64.6899 356.236 64.3037 355.958 63.8018C355.68 63.2998 355.541 62.7129 355.541 62.041C355.541 61.3691 355.676 60.7822 355.947 60.2802C356.225 59.7782 356.611 59.3921 357.105 59.1218C357.599 58.8515 358.167 58.7164 358.808 58.7164C359.433 58.7164 359.989 58.8477 360.476 59.1102C360.963 59.3728 361.341 59.7474 361.611 60.2339C361.889 60.7204 362.028 61.288 362.028 61.9367ZM360.001 61.4155C360.001 61.0757 359.885 60.8054 359.654 60.6046C359.422 60.4038 359.132 60.3034 358.785 60.3034C358.453 60.3034 358.171 60.3999 357.939 60.593C357.715 60.7861 357.576 61.0602 357.522 61.4155H360.001ZM362.679 62.0294C362.679 61.3653 362.803 60.7822 363.05 60.2802C363.305 59.7782 363.649 59.3921 364.081 59.1218C364.514 58.8515 364.996 58.7164 365.529 58.7164C365.985 58.7164 366.382 58.8091 366.722 58.9944C367.07 59.1797 367.336 59.423 367.522 59.7242V58.8091H369.502V65.2729H367.522V64.3578C367.328 64.659 367.058 64.9022 366.711 65.0876C366.371 65.2729 365.973 65.3656 365.518 65.3656C364.992 65.3656 364.514 65.2304 364.081 64.9602C363.649 64.6821 363.305 64.2921 363.05 63.7902C362.803 63.2805 362.679 62.6936 362.679 62.0294ZM367.522 62.041C367.522 61.5467 367.383 61.1567 367.105 60.871C366.834 60.5853 366.502 60.4424 366.108 60.4424C365.714 60.4424 365.378 60.5853 365.1 60.871C364.83 61.149 364.695 61.5352 364.695 62.0294C364.695 62.5237 364.83 62.9175 365.1 63.211C365.378 63.4967 365.714 63.6396 366.108 63.6396C366.502 63.6396 366.834 63.4967 367.105 63.211C367.383 62.9252 367.522 62.5352 367.522 62.041ZM372.916 56.7008V65.2729H370.935V56.7008H372.916ZM387.997 57.141L385.877 65.2729H383.479L382.182 59.9211L380.838 65.2729H378.44L376.378 57.141H378.498L379.668 63.0604L381.116 57.141H383.294L384.684 63.0604L385.865 57.141H387.997ZM391.933 65.3656C391.299 65.3656 390.728 65.2304 390.218 64.9602C389.716 64.6899 389.318 64.3037 389.025 63.8018C388.739 63.2998 388.596 62.7129 388.596 62.041C388.596 61.3768 388.743 60.7938 389.037 60.2918C389.33 59.7821 389.732 59.3921 390.241 59.1218C390.751 58.8515 391.322 58.7164 391.956 58.7164C392.589 58.7164 393.16 58.8515 393.67 59.1218C394.18 59.3921 394.581 59.7821 394.875 60.2918C395.168 60.7938 395.315 61.3768 395.315 62.041C395.315 62.7051 395.164 63.2921 394.863 63.8018C394.57 64.3037 394.164 64.6899 393.647 64.9602C393.137 65.2304 392.566 65.3656 391.933 65.3656ZM391.933 63.6512C392.311 63.6512 392.631 63.5122 392.894 63.2341C393.164 62.9561 393.299 62.5584 393.299 62.041C393.299 61.5236 393.168 61.1259 392.906 60.8478C392.651 60.5698 392.334 60.4308 391.956 60.4308C391.57 60.4308 391.249 60.5698 390.994 60.8478C390.739 61.1181 390.612 61.5158 390.612 62.041C390.612 62.5584 390.736 62.9561 390.983 63.2341C391.237 63.5122 391.554 63.6512 391.933 63.6512ZM398.347 59.8864C398.578 59.5311 398.868 59.2531 399.216 59.0523C399.563 58.8438 399.949 58.7396 400.374 58.7396V60.8363H399.83C399.335 60.8363 398.965 60.9444 398.717 61.1606C398.47 61.3691 398.347 61.7398 398.347 62.2727V65.2729H396.366V58.8091H398.347V59.8864ZM403.302 56.7008V65.2729H401.321V56.7008H403.302ZM404.343 62.0294C404.343 61.3653 404.467 60.7822 404.714 60.2802C404.969 59.7782 405.313 59.3921 405.745 59.1218C406.177 58.8515 406.66 58.7164 407.193 58.7164C407.618 58.7164 408.004 58.8052 408.351 58.9828C408.707 59.1604 408.985 59.3998 409.185 59.701V56.7008H411.166V65.2729H409.185V64.3462C409 64.6551 408.734 64.9022 408.386 65.0876C408.046 65.2729 407.649 65.3656 407.193 65.3656C406.66 65.3656 406.177 65.2304 405.745 64.9602C405.313 64.6821 404.969 64.2921 404.714 63.7902C404.467 63.2805 404.343 62.6936 404.343 62.0294ZM409.185 62.041C409.185 61.5467 409.046 61.1567 408.768 60.871C408.498 60.5853 408.166 60.4424 407.772 60.4424C407.378 60.4424 407.042 60.5853 406.764 60.871C406.494 61.149 406.359 61.5352 406.359 62.0294C406.359 62.5237 406.494 62.9175 406.764 63.211C407.042 63.4967 407.378 63.6396 407.772 63.6396C408.166 63.6396 408.498 63.4967 408.768 63.211C409.046 62.9252 409.185 62.5352 409.185 62.041ZM420.116 63.8365H417.081L416.595 65.2729H414.521L417.464 57.141H419.757L422.7 65.2729H420.603L420.116 63.8365ZM419.607 62.3074L418.599 59.3303L417.603 62.3074H419.607ZM425.576 59.7242C425.769 59.423 426.035 59.1797 426.375 58.9944C426.715 58.8091 427.113 58.7164 427.568 58.7164C428.101 58.7164 428.584 58.8515 429.016 59.1218C429.449 59.3921 429.789 59.7782 430.036 60.2802C430.291 60.7822 430.418 61.3653 430.418 62.0294C430.418 62.6936 430.291 63.2805 430.036 63.7902C429.789 64.2921 429.449 64.6821 429.016 64.9602C428.584 65.2304 428.101 65.3656 427.568 65.3656C427.12 65.3656 426.723 65.2729 426.375 65.0876C426.035 64.9022 425.769 64.6628 425.576 64.3694V68.3543H423.595V58.8091H425.576V59.7242ZM428.402 62.0294C428.402 61.5352 428.263 61.149 427.985 60.871C427.715 60.5853 427.379 60.4424 426.978 60.4424C426.584 60.4424 426.248 60.5853 425.97 60.871C425.7 61.1567 425.564 61.5467 425.564 62.041C425.564 62.5352 425.7 62.9252 425.97 63.211C426.248 63.4967 426.584 63.6396 426.978 63.6396C427.371 63.6396 427.707 63.4967 427.985 63.211C428.263 62.9175 428.402 62.5237 428.402 62.0294ZM433.438 59.7242C433.631 59.423 433.898 59.1797 434.237 58.9944C434.577 58.8091 434.975 58.7164 435.431 58.7164C435.963 58.7164 436.446 58.8515 436.879 59.1218C437.311 59.3921 437.651 59.7782 437.898 60.2802C438.153 60.7822 438.28 61.3653 438.28 62.0294C438.28 62.6936 438.153 63.2805 437.898 63.7902C437.651 64.2921 437.311 64.6821 436.879 64.9602C436.446 65.2304 435.963 65.3656 435.431 65.3656C434.983 65.3656 434.585 65.2729 434.237 65.0876C433.898 64.9022 433.631 64.6628 433.438 64.3694V68.3543H431.457V58.8091H433.438V59.7242ZM436.265 62.0294C436.265 61.5352 436.126 61.149 435.848 60.871C435.577 60.5853 435.241 60.4424 434.84 60.4424C434.446 60.4424 434.11 60.5853 433.832 60.871C433.562 61.1567 433.427 61.5467 433.427 62.041C433.427 62.5352 433.562 62.9252 433.832 63.211C434.11 63.4967 434.446 63.6396 434.84 63.6396C435.234 63.6396 435.57 63.4967 435.848 63.211C436.126 62.9175 436.265 62.5237 436.265 62.0294Z" fill="white"/>
<path d="M336.074 53.7782H321.916C321.575 53.7786 321.248 53.9143 321.006 54.1556C320.765 54.3969 320.629 54.7241 320.629 55.0653V66.6493C320.629 66.9905 320.765 67.3177 321.006 67.559C321.248 67.8003 321.575 67.936 321.916 67.9364H336.074C336.415 67.936 336.743 67.8003 336.984 67.559C337.225 67.3177 337.361 66.9905 337.361 66.6493V55.0653C337.361 54.7241 337.225 54.3969 336.984 54.1556C336.743 53.9143 336.415 53.7786 336.074 53.7782ZM324.168 58.2831C323.978 58.2831 323.791 58.2265 323.632 58.1204C323.473 58.0143 323.35 57.8636 323.277 57.6872C323.204 57.5108 323.184 57.3167 323.222 57.1294C323.259 56.9422 323.351 56.7702 323.486 56.6352C323.621 56.5002 323.793 56.4082 323.98 56.371C324.167 56.3337 324.361 56.3528 324.538 56.4259C324.714 56.499 324.865 56.6227 324.971 56.7814C325.077 56.9402 325.134 57.1268 325.134 57.3177C325.134 57.5738 325.032 57.8193 324.851 58.0003C324.67 58.1814 324.424 58.2831 324.168 58.2831ZM327.386 58.2831C327.195 58.2831 327.009 58.2265 326.85 58.1204C326.691 58.0143 326.567 57.8636 326.494 57.6872C326.421 57.5108 326.402 57.3167 326.439 57.1294C326.477 56.9422 326.569 56.7702 326.704 56.6352C326.839 56.5002 327.011 56.4082 327.198 56.371C327.385 56.3337 327.579 56.3528 327.756 56.4259C327.932 56.499 328.083 56.6227 328.189 56.7814C328.295 56.9402 328.352 57.1268 328.352 57.3177C328.352 57.5738 328.25 57.8193 328.069 58.0003C327.888 58.1814 327.642 58.2831 327.386 58.2831Z" fill="white"/>
<path d="M607.656 53.1342C607.656 51.7125 608.809 50.56 610.23 50.56H638.527C639.949 50.56 641.102 51.7125 641.102 53.1342V68.5795C641.102 70.0012 639.949 71.1537 638.527 71.1537H610.23C608.809 71.1537 607.656 70.0012 607.656 68.5795V53.1342Z" fill="white"/>
<path d="M616.128 63.3568H617.263V59.7934H617.286L619.752 63.3568H620.74V57.9155H619.605V61.4526H619.582L617.124 57.9155H616.128V63.3568ZM621.649 63.3568H625.254V62.4179H622.788V61.0491H625.114V60.1592H622.788V58.8545H625.254V57.9155H621.649V63.3568ZM627.226 63.3568H628.338L629.341 59.7105H629.364L630.363 63.3568H631.476L632.92 57.9155H631.74L630.876 61.8146H630.853L629.85 57.9155H628.851L627.848 61.8146H627.825L626.966 57.9155H625.785L627.226 63.3568Z" fill="#003220"/>
<rect x="3.67822" y="35.4364" width="142.226" height="451.132" fill="white" stroke="#C4C4C4" stroke-width="0.643555"/>
<circle cx="34.2461" cy="72.4408" r="12.8711" fill="#1FA971"/>
<path d="M31.9986 243.447L27.1715 239.059C26.9942 238.896 26.7625 238.806 26.5221 238.806C26.2817 238.806 26.05 238.897 25.8728 239.059L21.0465 243.447C20.9471 243.538 20.8676 243.648 20.8132 243.771C20.7588 243.894 20.7307 244.027 20.7305 244.161V249.718C20.7278 249.96 20.8138 250.196 20.9725 250.379C21.0629 250.482 21.1742 250.564 21.299 250.62C21.4238 250.677 21.5591 250.706 21.696 250.705H24.5897C24.7178 250.705 24.8405 250.654 24.931 250.564C25.0216 250.473 25.0724 250.351 25.0724 250.223V247.326C25.0724 247.198 25.1233 247.075 25.2138 246.985C25.3043 246.894 25.4271 246.843 25.5551 246.843H27.4857C27.6137 246.843 27.7365 246.894 27.827 246.985C27.9175 247.075 27.9684 247.198 27.9684 247.326V250.223C27.9684 250.351 28.0193 250.473 28.1098 250.564C28.2003 250.654 28.3231 250.705 28.4511 250.705H31.3505C31.5091 250.707 31.6656 250.669 31.8051 250.593C31.959 250.51 32.0877 250.387 32.1773 250.237C32.267 250.087 32.3144 249.915 32.3145 249.74V244.161C32.3144 244.027 32.2862 243.894 32.2318 243.771C32.1774 243.648 32.098 243.538 31.9986 243.447Z" fill="#9095AD"/>
<path d="M32.794 275.723C31.8933 274.172 30.451 273.008 28.7444 272.456C29.562 271.97 30.1973 271.228 30.5527 270.346C30.9081 269.463 30.9639 268.488 30.7116 267.571C30.4594 266.654 29.9129 265.845 29.1563 265.268C28.3996 264.691 27.4745 264.379 26.5231 264.379C25.5718 264.379 24.6467 264.691 23.89 265.268C23.1333 265.845 22.5869 266.654 22.3346 267.571C22.0824 268.488 22.1382 269.463 22.4936 270.346C22.849 271.228 23.4843 271.97 24.3019 272.456C22.5953 273.008 21.153 274.171 20.2524 275.723C20.2099 275.796 20.1876 275.879 20.1875 275.964C20.1874 276.049 20.2097 276.132 20.252 276.205C20.2944 276.279 20.3553 276.34 20.4287 276.382C20.5021 276.425 20.5854 276.447 20.6702 276.447L32.3762 276.447C32.461 276.447 32.5442 276.425 32.6176 276.382C32.691 276.34 32.752 276.279 32.7943 276.206C32.8367 276.132 32.8589 276.049 32.8589 275.964C32.8588 275.879 32.8364 275.796 32.794 275.723L32.794 275.723Z" fill="#9095AD"/>
<g clip-path="url(#clip2_404_25309)">
<path d="M33.7651 301.224C33.7651 301.352 33.7143 301.475 33.6238 301.566C33.5332 301.656 33.4105 301.707 33.2825 301.707H19.7678C19.6398 301.707 19.517 301.656 19.4265 301.566C19.336 301.475 19.2852 301.352 19.2852 301.224C19.2852 301.096 19.336 300.974 19.4265 300.883C19.517 300.793 19.6398 300.742 19.7678 300.742H33.2825C33.4105 300.742 33.5332 300.793 33.6238 300.883C33.7143 300.974 33.7651 301.096 33.7651 301.224ZM19.7861 294.598C19.7575 294.497 19.7626 294.39 19.8008 294.292C19.8389 294.194 19.908 294.111 19.9975 294.056L26.2722 290.195C26.3483 290.148 26.4358 290.123 26.5251 290.123C26.6145 290.123 26.702 290.148 26.7781 290.195L33.0527 294.056C33.1422 294.111 33.2113 294.194 33.2495 294.292C33.2877 294.39 33.2928 294.497 33.2642 294.598C33.2356 294.7 33.1748 294.789 33.0909 294.852C33.0071 294.915 32.9049 294.95 32.7998 294.95H31.3518V298.811H32.3171C32.4451 298.811 32.5679 298.862 32.6584 298.952C32.749 299.043 32.7998 299.166 32.7998 299.294C32.7998 299.422 32.749 299.544 32.6584 299.635C32.5679 299.725 32.4451 299.776 32.3171 299.776H20.7332C20.6051 299.776 20.4824 299.725 20.3919 299.635C20.3013 299.544 20.2505 299.422 20.2505 299.294C20.2505 299.166 20.3013 299.043 20.3919 298.952C20.4824 298.862 20.6051 298.811 20.7332 298.811H21.6985V294.95H20.2505C20.1454 294.95 20.0432 294.915 19.9594 294.852C19.8755 294.789 19.8147 294.7 19.7861 294.598ZM27.4905 298.328C27.4905 298.456 27.5413 298.579 27.6318 298.67C27.7224 298.76 27.8451 298.811 27.9731 298.811C28.1012 298.811 28.2239 298.76 28.3144 298.67C28.405 298.579 28.4558 298.456 28.4558 298.328V295.432C28.4558 295.304 28.405 295.182 28.3144 295.091C28.2239 295.001 28.1012 294.95 27.9731 294.95C27.8451 294.95 27.7224 295.001 27.6318 295.091C27.5413 295.182 27.4905 295.304 27.4905 295.432V298.328ZM24.5945 298.328C24.5945 298.456 24.6453 298.579 24.7359 298.67C24.8264 298.76 24.9491 298.811 25.0771 298.811C25.2052 298.811 25.3279 298.76 25.4184 298.67C25.509 298.579 25.5598 298.456 25.5598 298.328V295.432C25.5598 295.304 25.509 295.182 25.4184 295.091C25.3279 295.001 25.2052 294.95 25.0771 294.95C24.9491 294.95 24.8264 295.001 24.7359 295.091C24.6453 295.182 24.5945 295.304 24.5945 295.432V298.328Z" fill="#9095AD"/>
</g>
<path d="M32.1241 325.032C31.7661 324.416 31.3392 323.246 31.3392 321.175V320.746C31.3392 318.074 29.1957 315.885 26.5611 315.865C26.5487 315.865 26.5365 315.865 26.5242 315.865C25.2458 315.867 24.0203 316.376 23.1175 317.281C22.2146 318.187 21.7083 319.413 21.7099 320.692V321.174C21.7099 323.246 21.2828 324.416 20.9246 325.032C20.839 325.179 20.7936 325.345 20.793 325.515C20.7923 325.685 20.8364 325.851 20.9208 325.999C21.0053 326.146 21.127 326.268 21.2738 326.353C21.4206 326.439 21.5873 326.484 21.757 326.484H24.111C24.111 327.124 24.3653 327.738 24.8179 328.19C25.2705 328.643 25.8843 328.897 26.5243 328.897C27.1644 328.897 27.7782 328.643 28.2308 328.19C28.6834 327.738 28.9377 327.124 28.9377 326.484H31.2917C31.4614 326.484 31.628 326.439 31.7748 326.354C31.9216 326.268 32.0433 326.146 32.1278 325.999C32.2122 325.852 32.2563 325.685 32.2557 325.515C32.255 325.345 32.2097 325.179 32.1241 325.032ZM26.5243 327.932C26.1405 327.931 25.7724 327.779 25.5009 327.507C25.2295 327.236 25.0768 326.868 25.0763 326.484H27.9723C27.9719 326.868 27.8192 327.236 27.5478 327.507C27.2763 327.779 26.9082 327.931 26.5243 327.932Z" fill="#9095AD"/>
<path d="M30.8679 458.734H29.4199V448.116C29.4196 447.86 29.3178 447.614 29.1369 447.433C28.9559 447.252 28.7105 447.151 28.4546 447.15H20.7319C20.476 447.151 20.2306 447.252 20.0497 447.433C19.8687 447.614 19.7669 447.86 19.7666 448.116V458.734H18.3186C18.1906 458.734 18.0678 458.785 17.9773 458.876C17.8868 458.966 17.8359 459.089 17.8359 459.217C17.8359 459.345 17.8868 459.468 17.9773 459.558C18.0678 459.649 18.1906 459.7 18.3186 459.7H30.8679C30.9959 459.7 31.1187 459.649 31.2092 459.558C31.2997 459.468 31.3506 459.345 31.3506 459.217C31.3506 459.089 31.2997 458.966 31.2092 458.876C31.1187 458.785 30.9959 458.734 30.8679 458.734ZM26.7653 454.149C26.6221 454.149 26.4821 454.107 26.363 454.027C26.244 453.947 26.1512 453.834 26.0964 453.702C26.0416 453.57 26.0272 453.424 26.0552 453.284C26.0831 453.143 26.1521 453.014 26.2533 452.913C26.3546 452.812 26.4836 452.743 26.624 452.715C26.7645 452.687 26.91 452.701 27.0423 452.756C27.1746 452.811 27.2877 452.904 27.3672 453.023C27.4468 453.142 27.4893 453.282 27.4893 453.425C27.4893 453.617 27.413 453.801 27.2772 453.937C27.1414 454.073 26.9573 454.149 26.7653 454.149Z" fill="#9095AD"/>
<rect x="54.5181" y="59.8915" width="41.8311" height="12.2275" rx="5.47021" fill="#9095AD" stroke="white" stroke-width="0.643555"/>
<rect x="21.0532" y="119.742" width="34.1084" height="12.2275" rx="5.47021" fill="#9095AD" stroke="white" stroke-width="0.643555"/>
<rect x="21.0532" y="137.761" width="67.5732" height="7.0791" rx="3.53955" fill="#BFC2D4" stroke="white" stroke-width="0.643555"/>
<rect x="44.8657" y="242.017" width="43.7617" height="7.0791" rx="3.53955" fill="#BFC2D4" stroke="white" stroke-width="0.643555"/>
<rect x="54.5181" y="76.6239" width="43.7617" height="7.0791" rx="3.53955" fill="#BFC2D4" stroke="white" stroke-width="0.643555"/>
<rect x="44.8657" y="293.502" width="43.7617" height="7.0791" rx="3.53955" fill="#BFC2D4" stroke="white" stroke-width="0.643555"/>
<rect x="44.8657" y="267.76" width="28.3164" height="7.0791" rx="3.53955" fill="#BFC2D4" stroke="white" stroke-width="0.643555"/>
<rect x="44.8657" y="319.244" width="28.3164" height="7.0791" rx="3.53955" fill="#BFC2D4" stroke="white" stroke-width="0.643555"/>
<rect x="44.8657" y="449.242" width="28.3164" height="7.0791" rx="3.53955" fill="#BFC2D4" stroke="white" stroke-width="0.643555"/>
<circle cx="180.977" cy="125.212" r="12.8711" fill="#A3E7CB"/>
<rect x="204.145" y="113.628" width="61.7812" height="11.584" rx="5.14844" fill="#9095AD"/>
<rect x="204.145" y="131.648" width="123.562" height="6.43555" rx="3.21777" fill="#BFC2D4"/>
<path d="M600.176 122.04H598.161V124.102H596.284V122.04H594.268V120.268H596.284V118.194H598.161V120.268H600.176V122.04ZM607.728 122.839C607.728 123.264 607.616 123.658 607.392 124.021C607.176 124.376 606.852 124.67 606.419 124.901C605.994 125.125 605.489 125.249 604.902 125.272V126.21H604.16V125.26C603.342 125.191 602.681 124.948 602.179 124.531C601.677 124.106 601.411 123.531 601.38 122.805H603.488C603.535 123.268 603.759 123.565 604.16 123.697V121.866C603.558 121.712 603.075 121.561 602.712 121.415C602.357 121.268 602.044 121.032 601.774 120.708C601.504 120.384 601.369 119.94 601.369 119.376C601.369 118.673 601.627 118.109 602.145 117.685C602.67 117.26 603.342 117.02 604.16 116.966V116.028H604.902V116.966C605.713 117.028 606.354 117.264 606.825 117.673C607.296 118.082 607.558 118.65 607.612 119.376H605.492C605.446 118.959 605.249 118.688 604.902 118.565V120.36C605.543 120.538 606.037 120.696 606.384 120.835C606.732 120.974 607.041 121.206 607.311 121.53C607.589 121.847 607.728 122.283 607.728 122.839ZM603.465 119.283C603.465 119.476 603.523 119.638 603.639 119.77C603.763 119.901 603.936 120.017 604.16 120.117V118.507C603.944 118.546 603.774 118.631 603.651 118.762C603.527 118.885 603.465 119.059 603.465 119.283ZM604.902 123.731C605.133 123.693 605.315 123.6 605.446 123.453C605.585 123.307 605.655 123.125 605.655 122.909C605.655 122.708 605.589 122.546 605.458 122.422C605.334 122.291 605.149 122.179 604.902 122.086V123.731ZM611.136 122.724C611.252 123.334 611.607 123.639 612.202 123.639C612.611 123.639 612.901 123.457 613.071 123.094C613.241 122.731 613.326 122.141 613.326 121.322C613.156 121.561 612.924 121.747 612.631 121.878C612.337 122.009 612.009 122.075 611.646 122.075C611.152 122.075 610.711 121.974 610.325 121.774C609.939 121.565 609.634 121.26 609.41 120.859C609.194 120.449 609.086 119.955 609.086 119.376C609.086 118.804 609.202 118.306 609.433 117.881C609.673 117.457 610.009 117.129 610.441 116.897C610.881 116.665 611.399 116.549 611.993 116.549C613.136 116.549 613.936 116.905 614.391 117.615C614.847 118.326 615.075 119.372 615.075 120.754C615.075 121.758 614.982 122.588 614.797 123.245C614.619 123.894 614.314 124.388 613.882 124.728C613.457 125.067 612.874 125.237 612.132 125.237C611.545 125.237 611.044 125.121 610.626 124.89C610.217 124.658 609.901 124.353 609.677 123.975C609.46 123.596 609.337 123.179 609.306 122.724H611.136ZM612.098 120.511C612.422 120.511 612.681 120.414 612.874 120.221C613.067 120.021 613.163 119.75 613.163 119.411C613.163 119.04 613.063 118.754 612.862 118.553C612.661 118.353 612.391 118.252 612.051 118.252C611.712 118.252 611.441 118.356 611.24 118.565C611.047 118.766 610.951 119.044 610.951 119.399C610.951 119.731 611.047 120.001 611.24 120.21C611.441 120.411 611.727 120.511 612.098 120.511ZM620.313 119.028C620.252 118.743 620.144 118.53 619.989 118.391C619.835 118.244 619.615 118.171 619.329 118.171C618.889 118.171 618.572 118.364 618.379 118.75C618.186 119.129 618.085 119.731 618.078 120.557C618.248 120.287 618.491 120.075 618.807 119.92C619.132 119.766 619.487 119.689 619.873 119.689C620.63 119.689 621.236 119.928 621.692 120.407C622.155 120.886 622.387 121.554 622.387 122.411C622.387 122.975 622.271 123.469 622.039 123.894C621.815 124.318 621.483 124.65 621.043 124.89C620.611 125.129 620.097 125.249 619.503 125.249C618.313 125.249 617.487 124.878 617.024 124.137C616.56 123.388 616.329 122.314 616.329 120.916C616.329 119.449 616.572 118.36 617.058 117.65C617.553 116.932 618.34 116.572 619.421 116.572C620.001 116.572 620.487 116.688 620.881 116.92C621.283 117.144 621.584 117.441 621.785 117.812C621.993 118.183 622.117 118.588 622.155 119.028H620.313ZM619.398 121.252C619.066 121.252 618.788 121.353 618.564 121.554C618.348 121.747 618.24 122.025 618.24 122.388C618.24 122.758 618.34 123.048 618.541 123.256C618.75 123.465 619.043 123.569 619.421 123.569C619.761 123.569 620.028 123.469 620.221 123.268C620.422 123.06 620.522 122.778 620.522 122.422C620.522 122.059 620.425 121.774 620.232 121.565C620.039 121.357 619.761 121.252 619.398 121.252ZM624.631 125.295C624.283 125.295 623.998 125.195 623.774 124.994C623.558 124.786 623.449 124.531 623.449 124.229C623.449 123.921 623.558 123.662 623.774 123.453C623.998 123.245 624.283 123.141 624.631 123.141C624.971 123.141 625.249 123.245 625.465 123.453C625.689 123.662 625.801 123.921 625.801 124.229C625.801 124.531 625.689 124.786 625.465 124.994C625.249 125.195 624.971 125.295 624.631 125.295ZM632.731 118.472H629.117V120.071C629.271 119.901 629.487 119.762 629.765 119.654C630.043 119.546 630.345 119.492 630.669 119.492C631.248 119.492 631.727 119.623 632.105 119.885C632.491 120.148 632.773 120.488 632.951 120.905C633.129 121.322 633.217 121.774 633.217 122.26C633.217 123.164 632.962 123.882 632.453 124.415C631.943 124.94 631.225 125.203 630.298 125.203C629.68 125.203 629.144 125.098 628.688 124.89C628.232 124.674 627.881 124.376 627.634 123.998C627.387 123.619 627.252 123.183 627.228 122.689H629.163C629.209 122.928 629.321 123.129 629.499 123.291C629.677 123.446 629.92 123.523 630.229 123.523C630.592 123.523 630.862 123.407 631.04 123.175C631.217 122.944 631.306 122.635 631.306 122.249C631.306 121.87 631.213 121.581 631.028 121.38C630.843 121.179 630.572 121.079 630.217 121.079C629.955 121.079 629.738 121.144 629.568 121.276C629.398 121.399 629.287 121.565 629.232 121.774H627.321V116.735H632.731V118.472ZM634.241 123.616C634.504 123.407 634.624 123.31 634.6 123.326C635.357 122.7 635.952 122.187 636.384 121.785C636.824 121.384 637.195 120.963 637.496 120.523C637.798 120.082 637.948 119.654 637.948 119.237C637.948 118.92 637.875 118.673 637.728 118.495C637.581 118.318 637.361 118.229 637.068 118.229C636.774 118.229 636.543 118.341 636.373 118.565C636.211 118.781 636.129 119.09 636.129 119.492H634.218C634.234 118.835 634.373 118.287 634.635 117.847C634.905 117.407 635.257 117.082 635.689 116.874C636.129 116.665 636.616 116.561 637.149 116.561C638.068 116.561 638.759 116.796 639.222 117.268C639.693 117.739 639.929 118.353 639.929 119.109C639.929 119.936 639.647 120.704 639.083 121.415C638.52 122.117 637.801 122.805 636.929 123.477H640.056V125.087H634.241V123.616Z" fill="#1FA971"/>
<line x1="168.75" y1="158.355" x2="639.832" y2="158.355" stroke="#D0D2E0" stroke-width="0.643555"/>
<circle cx="180.977" cy="183.132" r="12.8711" fill="#C5C9FD"/>
<rect x="204.145" y="171.548" width="61.7812" height="11.584" rx="5.14844" fill="#9095AD"/>
<rect x="204.145" y="189.568" width="123.562" height="6.43555" rx="3.21777" fill="#BFC2D4"/>
<path d="M600.176 179.96H598.161V182.022H596.284V179.96H594.268V178.188H596.284V176.114H598.161V178.188H600.176V179.96ZM607.728 180.759C607.728 181.184 607.616 181.578 607.392 181.941C607.176 182.296 606.852 182.59 606.419 182.821C605.994 183.045 605.489 183.169 604.902 183.192V184.13H604.16V183.18C603.342 183.111 602.681 182.868 602.179 182.451C601.677 182.026 601.411 181.451 601.38 180.725H603.488C603.535 181.188 603.759 181.485 604.16 181.617V179.786C603.558 179.632 603.075 179.481 602.712 179.335C602.357 179.188 602.044 178.952 601.774 178.628C601.504 178.304 601.369 177.859 601.369 177.296C601.369 176.593 601.627 176.029 602.145 175.604C602.67 175.18 603.342 174.94 604.16 174.886V173.948H604.902V174.886C605.713 174.948 606.354 175.184 606.825 175.593C607.296 176.002 607.558 176.57 607.612 177.296H605.492C605.446 176.879 605.249 176.608 604.902 176.485V178.28C605.543 178.458 606.037 178.616 606.384 178.755C606.732 178.894 607.041 179.126 607.311 179.45C607.589 179.767 607.728 180.203 607.728 180.759ZM603.465 177.203C603.465 177.396 603.523 177.558 603.639 177.69C603.763 177.821 603.936 177.937 604.16 178.037V176.427C603.944 176.466 603.774 176.55 603.651 176.682C603.527 176.805 603.465 176.979 603.465 177.203ZM604.902 181.651C605.133 181.613 605.315 181.52 605.446 181.373C605.585 181.227 605.655 181.045 605.655 180.829C605.655 180.628 605.589 180.466 605.458 180.342C605.334 180.211 605.149 180.099 604.902 180.006V181.651ZM611.136 180.643C611.252 181.254 611.607 181.559 612.202 181.559C612.611 181.559 612.901 181.377 613.071 181.014C613.241 180.651 613.326 180.06 613.326 179.242C613.156 179.481 612.924 179.667 612.631 179.798C612.337 179.929 612.009 179.995 611.646 179.995C611.152 179.995 610.711 179.894 610.325 179.694C609.939 179.485 609.634 179.18 609.41 178.778C609.194 178.369 609.086 177.875 609.086 177.296C609.086 176.724 609.202 176.226 609.433 175.801C609.673 175.377 610.009 175.048 610.441 174.817C610.881 174.585 611.399 174.469 611.993 174.469C613.136 174.469 613.936 174.824 614.391 175.535C614.847 176.245 615.075 177.292 615.075 178.674C615.075 179.678 614.982 180.508 614.797 181.165C614.619 181.813 614.314 182.308 613.882 182.648C613.457 182.987 612.874 183.157 612.132 183.157C611.545 183.157 611.044 183.041 610.626 182.81C610.217 182.578 609.901 182.273 609.677 181.895C609.46 181.516 609.337 181.099 609.306 180.643H611.136ZM612.098 178.431C612.422 178.431 612.681 178.334 612.874 178.141C613.067 177.941 613.163 177.67 613.163 177.33C613.163 176.96 613.063 176.674 612.862 176.473C612.661 176.272 612.391 176.172 612.051 176.172C611.712 176.172 611.441 176.276 611.24 176.485C611.047 176.686 610.951 176.964 610.951 177.319C610.951 177.651 611.047 177.921 611.24 178.13C611.441 178.331 611.727 178.431 612.098 178.431ZM620.313 176.948C620.252 176.662 620.144 176.45 619.989 176.311C619.835 176.164 619.615 176.091 619.329 176.091C618.889 176.091 618.572 176.284 618.379 176.67C618.186 177.049 618.085 177.651 618.078 178.477C618.248 178.207 618.491 177.995 618.807 177.84C619.132 177.686 619.487 177.608 619.873 177.608C620.63 177.608 621.236 177.848 621.692 178.327C622.155 178.806 622.387 179.474 622.387 180.331C622.387 180.894 622.271 181.389 622.039 181.813C621.815 182.238 621.483 182.57 621.043 182.81C620.611 183.049 620.097 183.169 619.503 183.169C618.313 183.169 617.487 182.798 617.024 182.057C616.56 181.308 616.329 180.234 616.329 178.836C616.329 177.369 616.572 176.28 617.058 175.57C617.553 174.852 618.34 174.492 619.421 174.492C620.001 174.492 620.487 174.608 620.881 174.84C621.283 175.064 621.584 175.361 621.785 175.732C621.993 176.103 622.117 176.508 622.155 176.948H620.313ZM619.398 179.172C619.066 179.172 618.788 179.273 618.564 179.474C618.348 179.667 618.24 179.945 618.24 180.308C618.24 180.678 618.34 180.968 618.541 181.176C618.75 181.385 619.043 181.489 619.421 181.489C619.761 181.489 620.028 181.389 620.221 181.188C620.422 180.979 620.522 180.698 620.522 180.342C620.522 179.979 620.425 179.694 620.232 179.485C620.039 179.277 619.761 179.172 619.398 179.172ZM624.631 183.215C624.283 183.215 623.998 183.115 623.774 182.914C623.558 182.705 623.449 182.451 623.449 182.149C623.449 181.841 623.558 181.582 623.774 181.373C623.998 181.165 624.283 181.061 624.631 181.061C624.971 181.061 625.249 181.165 625.465 181.373C625.689 181.582 625.801 181.841 625.801 182.149C625.801 182.451 625.689 182.705 625.465 182.914C625.249 183.115 624.971 183.215 624.631 183.215ZM632.731 176.392H629.117V177.991C629.271 177.821 629.487 177.682 629.765 177.574C630.043 177.466 630.345 177.412 630.669 177.412C631.248 177.412 631.727 177.543 632.105 177.805C632.491 178.068 632.773 178.408 632.951 178.825C633.129 179.242 633.217 179.694 633.217 180.18C633.217 181.084 632.962 181.802 632.453 182.335C631.943 182.86 631.225 183.122 630.298 183.122C629.68 183.122 629.144 183.018 628.688 182.81C628.232 182.593 627.881 182.296 627.634 181.918C627.387 181.539 627.252 181.103 627.228 180.609H629.163C629.209 180.848 629.321 181.049 629.499 181.211C629.677 181.366 629.92 181.443 630.229 181.443C630.592 181.443 630.862 181.327 631.04 181.095C631.217 180.864 631.306 180.555 631.306 180.169C631.306 179.79 631.213 179.501 631.028 179.3C630.843 179.099 630.572 178.999 630.217 178.999C629.955 178.999 629.738 179.064 629.568 179.195C629.398 179.319 629.287 179.485 629.232 179.694H627.321V174.655H632.731V176.392ZM634.241 181.535C634.504 181.327 634.624 181.23 634.6 181.246C635.357 180.62 635.952 180.107 636.384 179.705C636.824 179.304 637.195 178.883 637.496 178.443C637.798 178.002 637.948 177.574 637.948 177.157C637.948 176.84 637.875 176.593 637.728 176.415C637.581 176.238 637.361 176.149 637.068 176.149C636.774 176.149 636.543 176.261 636.373 176.485C636.211 176.701 636.129 177.01 636.129 177.412H634.218C634.234 176.755 634.373 176.207 634.635 175.767C634.905 175.326 635.257 175.002 635.689 174.794C636.129 174.585 636.616 174.481 637.149 174.481C638.068 174.481 638.759 174.716 639.222 175.187C639.693 175.659 639.929 176.272 639.929 177.029C639.929 177.856 639.647 178.624 639.083 179.335C638.52 180.037 637.801 180.725 636.929 181.396H640.056V183.007H634.241V181.535Z" fill="#1FA971"/>
<line x1="168.75" y1="216.275" x2="639.832" y2="216.275" stroke="#D0D2E0" stroke-width="0.643555"/>
<circle cx="180.977" cy="241.052" r="12.8711" fill="#B7E7F0"/>
<rect x="204.145" y="229.468" width="61.7812" height="11.584" rx="5.14844" fill="#9095AD"/>
<rect x="204.145" y="247.488" width="123.562" height="6.43555" rx="3.21777" fill="#BFC2D4"/>
<path d="M600.176 237.88H598.161V239.942H596.284V237.88H594.268V236.108H596.284V234.034H598.161V236.108H600.176V237.88ZM607.728 238.679C607.728 239.104 607.616 239.498 607.392 239.861C607.176 240.216 606.852 240.51 606.419 240.741C605.994 240.965 605.489 241.089 604.902 241.112V242.05H604.16V241.1C603.342 241.031 602.681 240.788 602.179 240.371C601.677 239.946 601.411 239.37 601.38 238.645H603.488C603.535 239.108 603.759 239.405 604.16 239.536V237.706C603.558 237.552 603.075 237.401 602.712 237.254C602.357 237.108 602.044 236.872 601.774 236.548C601.504 236.223 601.369 235.779 601.369 235.216C601.369 234.513 601.627 233.949 602.145 233.524C602.67 233.1 603.342 232.86 604.16 232.806V231.868H604.902V232.806C605.713 232.868 606.354 233.103 606.825 233.513C607.296 233.922 607.558 234.49 607.612 235.216H605.492C605.446 234.799 605.249 234.528 604.902 234.405V236.2C605.543 236.378 606.037 236.536 606.384 236.675C606.732 236.814 607.041 237.046 607.311 237.37C607.589 237.687 607.728 238.123 607.728 238.679ZM603.465 235.123C603.465 235.316 603.523 235.478 603.639 235.61C603.763 235.741 603.936 235.857 604.16 235.957V234.347C603.944 234.385 603.774 234.47 603.651 234.602C603.527 234.725 603.465 234.899 603.465 235.123ZM604.902 239.571C605.133 239.533 605.315 239.44 605.446 239.293C605.585 239.146 605.655 238.965 605.655 238.749C605.655 238.548 605.589 238.386 605.458 238.262C605.334 238.131 605.149 238.019 604.902 237.926V239.571ZM611.136 238.563C611.252 239.174 611.607 239.479 612.202 239.479C612.611 239.479 612.901 239.297 613.071 238.934C613.241 238.571 613.326 237.98 613.326 237.162C613.156 237.401 612.924 237.587 612.631 237.718C612.337 237.849 612.009 237.915 611.646 237.915C611.152 237.915 610.711 237.814 610.325 237.614C609.939 237.405 609.634 237.1 609.41 236.698C609.194 236.289 609.086 235.795 609.086 235.216C609.086 234.644 609.202 234.146 609.433 233.721C609.673 233.297 610.009 232.968 610.441 232.737C610.881 232.505 611.399 232.389 611.993 232.389C613.136 232.389 613.936 232.744 614.391 233.455C614.847 234.165 615.075 235.212 615.075 236.594C615.075 237.598 614.982 238.428 614.797 239.085C614.619 239.733 614.314 240.228 613.882 240.567C613.457 240.907 612.874 241.077 612.132 241.077C611.545 241.077 611.044 240.961 610.626 240.73C610.217 240.498 609.901 240.193 609.677 239.814C609.46 239.436 609.337 239.019 609.306 238.563H611.136ZM612.098 236.351C612.422 236.351 612.681 236.254 612.874 236.061C613.067 235.86 613.163 235.59 613.163 235.25C613.163 234.88 613.063 234.594 612.862 234.393C612.661 234.192 612.391 234.092 612.051 234.092C611.712 234.092 611.441 234.196 611.24 234.405C611.047 234.606 610.951 234.884 610.951 235.239C610.951 235.571 611.047 235.841 611.24 236.05C611.441 236.25 611.727 236.351 612.098 236.351ZM620.313 234.868C620.252 234.582 620.144 234.37 619.989 234.231C619.835 234.084 619.615 234.011 619.329 234.011C618.889 234.011 618.572 234.204 618.379 234.59C618.186 234.969 618.085 235.571 618.078 236.397C618.248 236.127 618.491 235.915 618.807 235.76C619.132 235.606 619.487 235.528 619.873 235.528C620.63 235.528 621.236 235.768 621.692 236.247C622.155 236.725 622.387 237.393 622.387 238.251C622.387 238.814 622.271 239.309 622.039 239.733C621.815 240.158 621.483 240.49 621.043 240.73C620.611 240.969 620.097 241.089 619.503 241.089C618.313 241.089 617.487 240.718 617.024 239.977C616.56 239.228 616.329 238.154 616.329 236.756C616.329 235.289 616.572 234.2 617.058 233.49C617.553 232.771 618.34 232.412 619.421 232.412C620.001 232.412 620.487 232.528 620.881 232.76C621.283 232.984 621.584 233.281 621.785 233.652C621.993 234.022 622.117 234.428 622.155 234.868H620.313ZM619.398 237.092C619.066 237.092 618.788 237.193 618.564 237.393C618.348 237.586 618.24 237.865 618.24 238.227C618.24 238.598 618.34 238.888 618.541 239.096C618.75 239.305 619.043 239.409 619.421 239.409C619.761 239.409 620.028 239.309 620.221 239.108C620.422 238.899 620.522 238.617 620.522 238.262C620.522 237.899 620.425 237.614 620.232 237.405C620.039 237.197 619.761 237.092 619.398 237.092ZM624.631 241.135C624.283 241.135 623.998 241.035 623.774 240.834C623.558 240.625 623.449 240.371 623.449 240.069C623.449 239.76 623.558 239.502 623.774 239.293C623.998 239.085 624.283 238.98 624.631 238.98C624.971 238.98 625.249 239.085 625.465 239.293C625.689 239.502 625.801 239.76 625.801 240.069C625.801 240.371 625.689 240.625 625.465 240.834C625.249 241.035 624.971 241.135 624.631 241.135ZM632.731 234.312H629.117V235.911C629.271 235.741 629.487 235.602 629.765 235.494C630.043 235.386 630.345 235.331 630.669 235.331C631.248 235.331 631.727 235.463 632.105 235.725C632.491 235.988 632.773 236.328 632.951 236.745C633.129 237.162 633.217 237.614 633.217 238.1C633.217 239.004 632.962 239.722 632.453 240.255C631.943 240.78 631.225 241.042 630.298 241.042C629.68 241.042 629.144 240.938 628.688 240.73C628.232 240.513 627.881 240.216 627.634 239.838C627.387 239.459 627.252 239.023 627.228 238.529H629.163C629.209 238.768 629.321 238.969 629.499 239.131C629.677 239.285 629.92 239.363 630.229 239.363C630.592 239.363 630.862 239.247 631.04 239.015C631.217 238.784 631.306 238.475 631.306 238.088C631.306 237.71 631.213 237.42 631.028 237.22C630.843 237.019 630.572 236.918 630.217 236.918C629.955 236.918 629.738 236.984 629.568 237.115C629.398 237.239 629.287 237.405 629.232 237.614H627.321V232.574H632.731V234.312ZM634.241 239.455C634.504 239.247 634.624 239.15 634.6 239.166C635.357 238.54 635.952 238.027 636.384 237.625C636.824 237.224 637.195 236.803 637.496 236.362C637.798 235.922 637.948 235.494 637.948 235.077C637.948 234.76 637.875 234.513 637.728 234.335C637.581 234.158 637.361 234.069 637.068 234.069C636.774 234.069 636.543 234.181 636.373 234.405C636.211 234.621 636.129 234.93 636.129 235.331H634.218C634.234 234.675 634.373 234.127 634.635 233.687C634.905 233.246 635.257 232.922 635.689 232.714C636.129 232.505 636.616 232.401 637.149 232.401C638.068 232.401 638.759 232.636 639.222 233.107C639.693 233.578 639.929 234.192 639.929 234.949C639.929 235.776 639.647 236.544 639.083 237.254C638.52 237.957 637.801 238.645 636.929 239.316H640.056V240.927H634.241V239.455Z" fill="#1FA971"/>
<line x1="168.75" y1="274.195" x2="639.832" y2="274.195" stroke="#D0D2E0" stroke-width="0.643555"/>
<circle cx="180.977" cy="298.972" r="12.8711" fill="#4BBFD2"/>
<rect x="204.145" y="287.388" width="61.7812" height="11.584" rx="5.14844" fill="#9095AD"/>
<rect x="204.145" y="305.408" width="123.562" height="6.43555" rx="3.21777" fill="#BFC2D4"/>
<path d="M600.176 295.8H598.161V297.862H596.284V295.8H594.268V294.028H596.284V291.954H598.161V294.028H600.176V295.8ZM607.728 296.599C607.728 297.024 607.616 297.418 607.392 297.781C607.176 298.136 606.852 298.429 606.419 298.661C605.994 298.885 605.489 299.009 604.902 299.032V299.97H604.16V299.02C603.342 298.951 602.681 298.707 602.179 298.29C601.677 297.866 601.411 297.29 601.38 296.564H603.488C603.535 297.028 603.759 297.325 604.16 297.456V295.626C603.558 295.472 603.075 295.321 602.712 295.174C602.357 295.028 602.044 294.792 601.774 294.468C601.504 294.143 601.369 293.699 601.369 293.136C601.369 292.433 601.627 291.869 602.145 291.444C602.67 291.02 603.342 290.78 604.16 290.726V289.788H604.902V290.726C605.713 290.788 606.354 291.023 606.825 291.433C607.296 291.842 607.558 292.41 607.612 293.136H605.492C605.446 292.719 605.249 292.448 604.902 292.325V294.12C605.543 294.298 606.037 294.456 606.384 294.595C606.732 294.734 607.041 294.966 607.311 295.29C607.589 295.607 607.728 296.043 607.728 296.599ZM603.465 293.043C603.465 293.236 603.523 293.398 603.639 293.529C603.763 293.661 603.936 293.777 604.16 293.877V292.267C603.944 292.305 603.774 292.39 603.651 292.522C603.527 292.645 603.465 292.819 603.465 293.043ZM604.902 297.491C605.133 297.453 605.315 297.36 605.446 297.213C605.585 297.066 605.655 296.885 605.655 296.669C605.655 296.468 605.589 296.306 605.458 296.182C605.334 296.051 605.149 295.939 604.902 295.846V297.491ZM611.136 296.483C611.252 297.093 611.607 297.398 612.202 297.398C612.611 297.398 612.901 297.217 613.071 296.854C613.241 296.491 613.326 295.9 613.326 295.082C613.156 295.321 612.924 295.506 612.631 295.638C612.337 295.769 612.009 295.835 611.646 295.835C611.152 295.835 610.711 295.734 610.325 295.533C609.939 295.325 609.634 295.02 609.41 294.618C609.194 294.209 609.086 293.715 609.086 293.136C609.086 292.564 609.202 292.066 609.433 291.641C609.673 291.216 610.009 290.888 610.441 290.657C610.881 290.425 611.399 290.309 611.993 290.309C613.136 290.309 613.936 290.664 614.391 291.375C614.847 292.085 615.075 293.132 615.075 294.514C615.075 295.518 614.982 296.348 614.797 297.005C614.619 297.653 614.314 298.148 613.882 298.487C613.457 298.827 612.874 298.997 612.132 298.997C611.545 298.997 611.044 298.881 610.626 298.65C610.217 298.418 609.901 298.113 609.677 297.734C609.46 297.356 609.337 296.939 609.306 296.483H611.136ZM612.098 294.271C612.422 294.271 612.681 294.174 612.874 293.981C613.067 293.78 613.163 293.51 613.163 293.17C613.163 292.8 613.063 292.514 612.862 292.313C612.661 292.112 612.391 292.012 612.051 292.012C611.712 292.012 611.441 292.116 611.24 292.325C611.047 292.525 610.951 292.803 610.951 293.159C610.951 293.491 611.047 293.761 611.24 293.97C611.441 294.17 611.727 294.271 612.098 294.271ZM620.313 292.788C620.252 292.502 620.144 292.29 619.989 292.151C619.835 292.004 619.615 291.931 619.329 291.931C618.889 291.931 618.572 292.124 618.379 292.51C618.186 292.888 618.085 293.491 618.078 294.317C618.248 294.047 618.491 293.834 618.807 293.68C619.132 293.526 619.487 293.448 619.873 293.448C620.63 293.448 621.236 293.688 621.692 294.167C622.155 294.645 622.387 295.313 622.387 296.171C622.387 296.734 622.271 297.229 622.039 297.653C621.815 298.078 621.483 298.41 621.043 298.65C620.611 298.889 620.097 299.009 619.503 299.009C618.313 299.009 617.487 298.638 617.024 297.897C616.56 297.147 616.329 296.074 616.329 294.676C616.329 293.209 616.572 292.12 617.058 291.41C617.553 290.691 618.34 290.332 619.421 290.332C620.001 290.332 620.487 290.448 620.881 290.68C621.283 290.904 621.584 291.201 621.785 291.572C621.993 291.942 622.117 292.348 622.155 292.788H620.313ZM619.398 295.012C619.066 295.012 618.788 295.113 618.564 295.313C618.348 295.506 618.24 295.784 618.24 296.147C618.24 296.518 618.34 296.808 618.541 297.016C618.75 297.225 619.043 297.329 619.421 297.329C619.761 297.329 620.028 297.229 620.221 297.028C620.422 296.819 620.522 296.537 620.522 296.182C620.522 295.819 620.425 295.533 620.232 295.325C620.039 295.116 619.761 295.012 619.398 295.012ZM624.631 299.055C624.283 299.055 623.998 298.955 623.774 298.754C623.558 298.545 623.449 298.29 623.449 297.989C623.449 297.68 623.558 297.422 623.774 297.213C623.998 297.005 624.283 296.9 624.631 296.9C624.971 296.9 625.249 297.005 625.465 297.213C625.689 297.422 625.801 297.68 625.801 297.989C625.801 298.29 625.689 298.545 625.465 298.754C625.249 298.955 624.971 299.055 624.631 299.055ZM632.731 292.232H629.117V293.831C629.271 293.661 629.487 293.522 629.765 293.414C630.043 293.305 630.345 293.251 630.669 293.251C631.248 293.251 631.727 293.383 632.105 293.645C632.491 293.908 632.773 294.248 632.951 294.665C633.129 295.082 633.217 295.533 633.217 296.02C633.217 296.924 632.962 297.642 632.453 298.175C631.943 298.7 631.225 298.962 630.298 298.962C629.68 298.962 629.144 298.858 628.688 298.65C628.232 298.433 627.881 298.136 627.634 297.758C627.387 297.379 627.252 296.943 627.228 296.449H629.163C629.209 296.688 629.321 296.889 629.499 297.051C629.677 297.205 629.92 297.283 630.229 297.283C630.592 297.283 630.862 297.167 631.04 296.935C631.217 296.703 631.306 296.395 631.306 296.008C631.306 295.63 631.213 295.34 631.028 295.14C630.843 294.939 630.572 294.838 630.217 294.838C629.955 294.838 629.738 294.904 629.568 295.035C629.398 295.159 629.287 295.325 629.232 295.533H627.321V290.494H632.731V292.232ZM634.241 297.375C634.504 297.167 634.624 297.07 634.6 297.086C635.357 296.46 635.952 295.947 636.384 295.545C636.824 295.143 637.195 294.723 637.496 294.282C637.798 293.842 637.948 293.414 637.948 292.997C637.948 292.68 637.875 292.433 637.728 292.255C637.581 292.078 637.361 291.989 637.068 291.989C636.774 291.989 636.543 292.101 636.373 292.325C636.211 292.541 636.129 292.85 636.129 293.251H634.218C634.234 292.595 634.373 292.047 634.635 291.606C634.905 291.166 635.257 290.842 635.689 290.633C636.129 290.425 636.616 290.321 637.149 290.321C638.068 290.321 638.759 290.556 639.222 291.027C639.693 291.498 639.929 292.112 639.929 292.869C639.929 293.695 639.647 294.464 639.083 295.174C638.52 295.877 637.801 296.564 636.929 297.236H640.056V298.846H634.241V297.375Z" fill="#E45770"/>
<line x1="168.75" y1="332.115" x2="639.832" y2="332.115" stroke="#D0D2E0" stroke-width="0.643555"/>
<circle cx="180.977" cy="356.892" r="12.8711" fill="#F1E08F"/>
<rect x="204.145" y="345.308" width="61.7812" height="11.584" rx="5.14844" fill="#9095AD"/>
<rect x="204.145" y="363.328" width="123.562" height="6.43555" rx="3.21777" fill="#BFC2D4"/>
<path d="M600.176 353.72H598.161V355.782H596.284V353.72H594.268V351.947H596.284V349.874H598.161V351.947H600.176V353.72ZM607.728 354.519C607.728 354.944 607.616 355.338 607.392 355.701C607.176 356.056 606.852 356.349 606.419 356.581C605.994 356.805 605.489 356.929 604.902 356.952V357.89H604.16V356.94C603.342 356.871 602.681 356.627 602.179 356.21C601.677 355.786 601.411 355.21 601.38 354.484H603.488C603.535 354.948 603.759 355.245 604.16 355.376V353.546C603.558 353.392 603.075 353.241 602.712 353.094C602.357 352.948 602.044 352.712 601.774 352.388C601.504 352.063 601.369 351.619 601.369 351.055C601.369 350.353 601.627 349.789 602.145 349.364C602.67 348.939 603.342 348.7 604.16 348.646V347.708H604.902V348.646C605.713 348.708 606.354 348.943 606.825 349.353C607.296 349.762 607.558 350.33 607.612 351.055H605.492C605.446 350.638 605.249 350.368 604.902 350.245V352.04C605.543 352.218 606.037 352.376 606.384 352.515C606.732 352.654 607.041 352.886 607.311 353.21C607.589 353.527 607.728 353.963 607.728 354.519ZM603.465 350.963C603.465 351.156 603.523 351.318 603.639 351.449C603.763 351.581 603.936 351.696 604.16 351.797V350.187C603.944 350.225 603.774 350.31 603.651 350.442C603.527 350.565 603.465 350.739 603.465 350.963ZM604.902 355.411C605.133 355.372 605.315 355.28 605.446 355.133C605.585 354.986 605.655 354.805 605.655 354.589C605.655 354.388 605.589 354.226 605.458 354.102C605.334 353.971 605.149 353.859 604.902 353.766V355.411ZM611.136 354.403C611.252 355.013 611.607 355.318 612.202 355.318C612.611 355.318 612.901 355.137 613.071 354.774C613.241 354.411 613.326 353.82 613.326 353.002C613.156 353.241 612.924 353.426 612.631 353.558C612.337 353.689 612.009 353.755 611.646 353.755C611.152 353.755 610.711 353.654 610.325 353.453C609.939 353.245 609.634 352.94 609.41 352.538C609.194 352.129 609.086 351.635 609.086 351.055C609.086 350.484 609.202 349.986 609.433 349.561C609.673 349.136 610.009 348.808 610.441 348.576C610.881 348.345 611.399 348.229 611.993 348.229C613.136 348.229 613.936 348.584 614.391 349.295C614.847 350.005 615.075 351.052 615.075 352.434C615.075 353.438 614.982 354.268 614.797 354.925C614.619 355.573 614.314 356.067 613.882 356.407C613.457 356.747 612.874 356.917 612.132 356.917C611.545 356.917 611.044 356.801 610.626 356.569C610.217 356.338 609.901 356.033 609.677 355.654C609.46 355.276 609.337 354.859 609.306 354.403H611.136ZM612.098 352.191C612.422 352.191 612.681 352.094 612.874 351.901C613.067 351.7 613.163 351.43 613.163 351.09C613.163 350.72 613.063 350.434 612.862 350.233C612.661 350.032 612.391 349.932 612.051 349.932C611.712 349.932 611.441 350.036 611.24 350.245C611.047 350.445 610.951 350.723 610.951 351.079C610.951 351.411 611.047 351.681 611.24 351.89C611.441 352.09 611.727 352.191 612.098 352.191ZM620.313 350.708C620.252 350.422 620.144 350.21 619.989 350.071C619.835 349.924 619.615 349.851 619.329 349.851C618.889 349.851 618.572 350.044 618.379 350.43C618.186 350.808 618.085 351.411 618.078 352.237C618.248 351.967 618.491 351.754 618.807 351.6C619.132 351.445 619.487 351.368 619.873 351.368C620.63 351.368 621.236 351.608 621.692 352.086C622.155 352.565 622.387 353.233 622.387 354.09C622.387 354.654 622.271 355.148 622.039 355.573C621.815 355.998 621.483 356.33 621.043 356.569C620.611 356.809 620.097 356.929 619.503 356.929C618.313 356.929 617.487 356.558 617.024 355.816C616.56 355.067 616.329 353.994 616.329 352.596C616.329 351.129 616.572 350.04 617.058 349.329C617.553 348.611 618.34 348.252 619.421 348.252C620.001 348.252 620.487 348.368 620.881 348.6C621.283 348.824 621.584 349.121 621.785 349.492C621.993 349.862 622.117 350.268 622.155 350.708H620.313ZM619.398 352.932C619.066 352.932 618.788 353.032 618.564 353.233C618.348 353.426 618.24 353.704 618.24 354.067C618.24 354.438 618.34 354.728 618.541 354.936C618.75 355.145 619.043 355.249 619.421 355.249C619.761 355.249 620.028 355.148 620.221 354.948C620.422 354.739 620.522 354.457 620.522 354.102C620.522 353.739 620.425 353.453 620.232 353.245C620.039 353.036 619.761 352.932 619.398 352.932ZM624.631 356.975C624.283 356.975 623.998 356.874 623.774 356.674C623.558 356.465 623.449 356.21 623.449 355.909C623.449 355.6 623.558 355.342 623.774 355.133C623.998 354.925 624.283 354.82 624.631 354.82C624.971 354.82 625.249 354.925 625.465 355.133C625.689 355.342 625.801 355.6 625.801 355.909C625.801 356.21 625.689 356.465 625.465 356.674C625.249 356.874 624.971 356.975 624.631 356.975ZM632.731 350.152H629.117V351.75C629.271 351.581 629.487 351.442 629.765 351.333C630.043 351.225 630.345 351.171 630.669 351.171C631.248 351.171 631.727 351.303 632.105 351.565C632.491 351.828 632.773 352.168 632.951 352.585C633.129 353.002 633.217 353.453 633.217 353.94C633.217 354.843 632.962 355.562 632.453 356.094C631.943 356.62 631.225 356.882 630.298 356.882C629.68 356.882 629.144 356.778 628.688 356.569C628.232 356.353 627.881 356.056 627.634 355.677C627.387 355.299 627.252 354.863 627.228 354.368H629.163C629.209 354.608 629.321 354.809 629.499 354.971C629.677 355.125 629.92 355.203 630.229 355.203C630.592 355.203 630.862 355.087 631.04 354.855C631.217 354.623 631.306 354.314 631.306 353.928C631.306 353.55 631.213 353.26 631.028 353.059C630.843 352.859 630.572 352.758 630.217 352.758C629.955 352.758 629.738 352.824 629.568 352.955C629.398 353.079 629.287 353.245 629.232 353.453H627.321V348.414H632.731V350.152ZM634.241 355.295C634.504 355.087 634.624 354.99 634.6 355.006C635.357 354.38 635.952 353.867 636.384 353.465C636.824 353.063 637.195 352.642 637.496 352.202C637.798 351.762 637.948 351.333 637.948 350.916C637.948 350.6 637.875 350.353 637.728 350.175C637.581 349.997 637.361 349.909 637.068 349.909C636.774 349.909 636.543 350.021 636.373 350.245C636.211 350.461 636.129 350.77 636.129 351.171H634.218C634.234 350.515 634.373 349.967 634.635 349.526C634.905 349.086 635.257 348.762 635.689 348.553C636.129 348.345 636.616 348.241 637.149 348.241C638.068 348.241 638.759 348.476 639.222 348.947C639.693 349.418 639.929 350.032 639.929 350.789C639.929 351.615 639.647 352.384 639.083 353.094C638.52 353.797 637.801 354.484 636.929 355.156H640.056V356.766H634.241V355.295Z" fill="#1FA971"/>
<line x1="168.75" y1="390.035" x2="639.832" y2="390.035" stroke="#D0D2E0" stroke-width="0.643555"/>
<circle cx="180.977" cy="414.812" r="12.8711" fill="#E45DA3"/>
<rect x="204.145" y="403.228" width="61.7812" height="11.584" rx="5.14844" fill="#9095AD"/>
<rect x="204.145" y="421.247" width="123.562" height="6.43555" rx="3.21777" fill="#BFC2D4"/>
<path d="M600.176 411.64H598.161V413.702H596.284V411.64H594.268V409.867H596.284V407.794H598.161V409.867H600.176V411.64ZM607.728 412.439C607.728 412.864 607.616 413.258 607.392 413.621C607.176 413.976 606.852 414.269 606.419 414.501C605.994 414.725 605.489 414.848 604.902 414.872V415.81H604.16V414.86C603.342 414.791 602.681 414.547 602.179 414.13C601.677 413.706 601.411 413.13 601.38 412.404H603.488C603.535 412.868 603.759 413.165 604.16 413.296V411.466C603.558 411.311 603.075 411.161 602.712 411.014C602.357 410.867 602.044 410.632 601.774 410.308C601.504 409.983 601.369 409.539 601.369 408.975C601.369 408.273 601.627 407.709 602.145 407.284C602.67 406.859 603.342 406.62 604.16 406.566V405.628H604.902V406.566C605.713 406.628 606.354 406.863 606.825 407.273C607.296 407.682 607.558 408.249 607.612 408.975H605.492C605.446 408.558 605.249 408.288 604.902 408.165V409.96C605.543 410.138 606.037 410.296 606.384 410.435C606.732 410.574 607.041 410.806 607.311 411.13C607.589 411.447 607.728 411.883 607.728 412.439ZM603.465 408.883C603.465 409.076 603.523 409.238 603.639 409.369C603.763 409.501 603.936 409.616 604.16 409.717V408.107C603.944 408.145 603.774 408.23 603.651 408.361C603.527 408.485 603.465 408.659 603.465 408.883ZM604.902 413.331C605.133 413.292 605.315 413.2 605.446 413.053C605.585 412.906 605.655 412.725 605.655 412.508C605.655 412.308 605.589 412.146 605.458 412.022C605.334 411.891 605.149 411.779 604.902 411.686V413.331ZM611.136 412.323C611.252 412.933 611.607 413.238 612.202 413.238C612.611 413.238 612.901 413.057 613.071 412.694C613.241 412.331 613.326 411.74 613.326 410.921C613.156 411.161 612.924 411.346 612.631 411.478C612.337 411.609 612.009 411.674 611.646 411.674C611.152 411.674 610.711 411.574 610.325 411.373C609.939 411.165 609.634 410.86 609.41 410.458C609.194 410.049 609.086 409.555 609.086 408.975C609.086 408.404 609.202 407.906 609.433 407.481C609.673 407.056 610.009 406.728 610.441 406.496C610.881 406.265 611.399 406.149 611.993 406.149C613.136 406.149 613.936 406.504 614.391 407.215C614.847 407.925 615.075 408.972 615.075 410.354C615.075 411.358 614.982 412.188 614.797 412.844C614.619 413.493 614.314 413.987 613.882 414.327C613.457 414.667 612.874 414.837 612.132 414.837C611.545 414.837 611.044 414.721 610.626 414.489C610.217 414.258 609.901 413.953 609.677 413.574C609.46 413.196 609.337 412.779 609.306 412.323H611.136ZM612.098 410.111C612.422 410.111 612.681 410.014 612.874 409.821C613.067 409.62 613.163 409.35 613.163 409.01C613.163 408.639 613.063 408.354 612.862 408.153C612.661 407.952 612.391 407.852 612.051 407.852C611.712 407.852 611.441 407.956 611.24 408.165C611.047 408.365 610.951 408.643 610.951 408.999C610.951 409.331 611.047 409.601 611.24 409.809C611.441 410.01 611.727 410.111 612.098 410.111ZM620.313 408.628C620.252 408.342 620.144 408.13 619.989 407.991C619.835 407.844 619.615 407.771 619.329 407.771C618.889 407.771 618.572 407.964 618.379 408.35C618.186 408.728 618.085 409.331 618.078 410.157C618.248 409.887 618.491 409.674 618.807 409.52C619.132 409.365 619.487 409.288 619.873 409.288C620.63 409.288 621.236 409.528 621.692 410.006C622.155 410.485 622.387 411.153 622.387 412.01C622.387 412.574 622.271 413.068 622.039 413.493C621.815 413.918 621.483 414.25 621.043 414.489C620.611 414.729 620.097 414.848 619.503 414.848C618.313 414.848 617.487 414.478 617.024 413.736C616.56 412.987 616.329 411.914 616.329 410.516C616.329 409.049 616.572 407.96 617.058 407.249C617.553 406.531 618.34 406.172 619.421 406.172C620.001 406.172 620.487 406.288 620.881 406.52C621.283 406.744 621.584 407.041 621.785 407.412C621.993 407.782 622.117 408.188 622.155 408.628H620.313ZM619.398 410.852C619.066 410.852 618.788 410.952 618.564 411.153C618.348 411.346 618.24 411.624 618.24 411.987C618.24 412.358 618.34 412.648 618.541 412.856C618.75 413.065 619.043 413.169 619.421 413.169C619.761 413.169 620.028 413.068 620.221 412.868C620.422 412.659 620.522 412.377 620.522 412.022C620.522 411.659 620.425 411.373 620.232 411.165C620.039 410.956 619.761 410.852 619.398 410.852ZM624.631 414.895C624.283 414.895 623.998 414.794 623.774 414.594C623.558 414.385 623.449 414.13 623.449 413.829C623.449 413.52 623.558 413.261 623.774 413.053C623.998 412.844 624.283 412.74 624.631 412.74C624.971 412.74 625.249 412.844 625.465 413.053C625.689 413.261 625.801 413.52 625.801 413.829C625.801 414.13 625.689 414.385 625.465 414.594C625.249 414.794 624.971 414.895 624.631 414.895ZM632.731 408.072H629.117V409.67C629.271 409.501 629.487 409.362 629.765 409.253C630.043 409.145 630.345 409.091 630.669 409.091C631.248 409.091 631.727 409.223 632.105 409.485C632.491 409.748 632.773 410.087 632.951 410.504C633.129 410.921 633.217 411.373 633.217 411.86C633.217 412.763 632.962 413.482 632.453 414.014C631.943 414.54 631.225 414.802 630.298 414.802C629.68 414.802 629.144 414.698 628.688 414.489C628.232 414.273 627.881 413.976 627.634 413.597C627.387 413.219 627.252 412.783 627.228 412.288H629.163C629.209 412.528 629.321 412.729 629.499 412.891C629.677 413.045 629.92 413.122 630.229 413.122C630.592 413.122 630.862 413.007 631.04 412.775C631.217 412.543 631.306 412.234 631.306 411.848C631.306 411.47 631.213 411.18 631.028 410.979C630.843 410.779 630.572 410.678 630.217 410.678C629.955 410.678 629.738 410.744 629.568 410.875C629.398 410.999 629.287 411.165 629.232 411.373H627.321V406.334H632.731V408.072ZM634.241 413.215C634.504 413.007 634.624 412.91 634.6 412.926C635.357 412.3 635.952 411.786 636.384 411.385C636.824 410.983 637.195 410.562 637.496 410.122C637.798 409.682 637.948 409.253 637.948 408.836C637.948 408.52 637.875 408.273 637.728 408.095C637.581 407.917 637.361 407.829 637.068 407.829C636.774 407.829 636.543 407.941 636.373 408.165C636.211 408.381 636.129 408.69 636.129 409.091H634.218C634.234 408.435 634.373 407.886 634.635 407.446C634.905 407.006 635.257 406.682 635.689 406.473C636.129 406.265 636.616 406.16 637.149 406.16C638.068 406.16 638.759 406.396 639.222 406.867C639.693 407.338 639.929 407.952 639.929 408.709C639.929 409.535 639.647 410.304 639.083 411.014C638.52 411.717 637.801 412.404 636.929 413.076H640.056V414.686H634.241V413.215Z" fill="#E45770"/>
<line x1="168.75" y1="447.955" x2="639.832" y2="447.955" stroke="#D0D2E0" stroke-width="0.643555"/>
</g>
</g>
</g>
<defs>
<filter id="filter0_d_404_25309" x="0" y="0" width="667" height="487.965" filterUnits="userSpaceOnUse" color-interpolation-filters="sRGB">
<feFlood flood-opacity="0" result="BackgroundImageFix"/>
<feColorMatrix in="SourceAlpha" type="matrix" values="0 0 0 0 0 0 0 0 0 0 0 0 0 0 0 0 0 0 127 0" result="hardAlpha"/>
<feOffset dy="1"/>
<feGaussianBlur stdDeviation="2"/>
<feColorMatrix type="matrix" values="0 0 0 0 0 0 0 0 0 0 0 0 0 0 0 0 0 0 0.15 0"/>
<feBlend mode="normal" in2="BackgroundImageFix" result="effect1_dropShadow_404_25309"/>
<feBlend mode="normal" in="SourceGraphic" in2="effect1_dropShadow_404_25309" result="shape"/>
</filter>
<clipPath id="clip0_404_25309">
<rect x="4" y="3" width="659" height="479.965" rx="2.5395" fill="white"/>
</clipPath>
<clipPath id="clip1_404_25309">
<rect x="4" y="35.7581" width="659" height="450.488" rx="1.28711" fill="white"/>
</clipPath>
<clipPath id="clip2_404_25309">
<rect width="15.4453" height="15.4453" fill="white" transform="translate(18.8008 288.675)"/>
</clipPath>
</defs>
</svg>
