<svg width="812" height="590" viewBox="0 0 812 590" fill="none" xmlns="http://www.w3.org/2000/svg">
<g filter="url(#filter0_d_404_22808)">
<g clip-path="url(#clip0_404_22808)">
<rect x="60" y="16" width="835.556" height="470" rx="14" fill="white"/>
<rect width="600" height="470" transform="translate(296 16)" fill="#E1E3ED"/>
<g filter="url(#filter1_d_404_22808)">
<rect width="600" height="36.5556" transform="translate(296 57.7778)" fill="#F3F4FA"/>
<g clip-path="url(#clip1_404_22808)">
<path d="M323.415 74.0972V73.4445C323.415 72.7234 322.831 72.1389 322.11 72.1389H316.888C316.167 72.1389 315.582 72.7234 315.582 73.4445V78.6667C315.582 79.3877 316.167 79.9722 316.888 79.9722H317.54" stroke="#4956E3" stroke-width="1.30556" stroke-linecap="round" stroke-linejoin="round"/>
<path d="M320.806 78.0139L322.764 79.9723L323.417 79.3195L321.459 77.3612L322.438 76.382L318.848 75.4028L319.827 78.9931L320.806 78.0139Z" fill="#4956E3" stroke="#4956E3" stroke-width="1.30556" stroke-linejoin="round"/>
</g>
<path d="M309.056 66.2639H329.945V64.9583H309.056V66.2639ZM331.904 68.2222V83.8889H333.209V68.2222H331.904ZM329.945 85.8472H309.056V87.1528H329.945V85.8472ZM307.098 83.8889V68.2222H305.793V83.8889H307.098ZM309.056 85.8472C307.975 85.8472 307.098 84.9704 307.098 83.8889H305.793C305.793 85.6915 307.254 87.1528 309.056 87.1528V85.8472ZM331.904 83.8889C331.904 84.9704 331.027 85.8472 329.945 85.8472V87.1528C331.748 87.1528 333.209 85.6915 333.209 83.8889H331.904ZM329.945 66.2639C331.027 66.2639 331.904 67.1406 331.904 68.2222H333.209C333.209 66.4196 331.748 64.9583 329.945 64.9583V66.2639ZM309.056 64.9583C307.254 64.9583 305.793 66.4196 305.793 68.2222H307.098C307.098 67.1406 307.975 66.2639 309.056 66.2639V64.9583Z" fill="#D0D2E0"/>
<rect x="340.717" y="65.9375" width="476.625" height="20.2361" rx="2.28472" fill="white"/>
<path d="M340.717 68.2222C340.717 66.9604 341.74 65.9375 343.002 65.9375H366.175V86.1736H343.002C341.74 86.1736 340.717 85.1507 340.717 83.8889V68.2222Z" fill="#F3F4FA"/>
<path d="M350.832 74.75L353.443 77.3611L356.054 74.75" stroke="#9095AD" stroke-width="1.30556" stroke-linecap="round" stroke-linejoin="round"/>
<path d="M340.717 68.2222C340.717 66.9604 341.74 65.9375 343.002 65.9375H366.175V86.1736H343.002C341.74 86.1736 340.717 85.1507 340.717 83.8889V68.2222Z" stroke="#D0D2E0" stroke-width="0.652778"/>
<line x1="373.836" y1="83.729" x2="374.836" y2="83.729" stroke="#BFC2D4" stroke-width="0.652778" stroke-dasharray="1.31 1.31"/>
<rect x="340.717" y="65.9375" width="476.625" height="20.2361" rx="2.28472" stroke="#D0D2E0" stroke-width="0.652778"/>
</g>
<g filter="url(#filter2_b_404_22808)">
<rect width="600" height="41.7778" transform="translate(296 16)" fill="white" fill-opacity="0.95"/>
<line opacity="0.06" x1="296" y1="58.1043" x2="895.903" y2="58.1043" stroke="#1B1E2E" stroke-width="0.652778"/>
<g clip-path="url(#clip2_404_22808)">
<path d="M319.499 38.1941C320.22 38.1941 320.804 37.6096 320.804 36.8886C320.804 36.1676 320.22 35.583 319.499 35.583C318.778 35.583 318.193 36.1676 318.193 36.8886C318.193 37.6096 318.778 38.1941 319.499 38.1941Z" fill="#9095AD"/>
<path fill-rule="evenodd" clip-rule="evenodd" d="M320.804 36.8886C320.804 37.6096 320.22 38.1941 319.499 38.1941C318.778 38.1941 318.193 37.6096 318.193 36.8886C318.193 36.1676 318.778 35.583 319.499 35.583C320.22 35.583 320.804 36.1676 320.804 36.8886Z" fill="#9095AD"/>
<path d="M319.499 38.1941C320.22 38.1941 320.804 37.6096 320.804 36.8886C320.804 36.1676 320.22 35.583 319.499 35.583C318.778 35.583 318.193 36.1676 318.193 36.8886C318.193 37.6096 318.778 38.1941 319.499 38.1941Z" stroke="#747994" stroke-width="1.30556"/>
<path fill-rule="evenodd" clip-rule="evenodd" d="M320.804 36.8886C320.804 37.6096 320.22 38.1941 319.499 38.1941C318.778 38.1941 318.193 37.6096 318.193 36.8886C318.193 36.1676 318.778 35.583 319.499 35.583C320.22 35.583 320.804 36.1676 320.804 36.8886Z" stroke="#747994" stroke-width="1.30556"/>
</g>
<path d="M309.056 27.0971H329.945V25.7916H309.056V27.0971ZM331.904 29.0554V44.7221H333.209V29.0554H331.904ZM329.945 46.6804H309.056V47.986H329.945V46.6804ZM307.098 44.7221V29.0554H305.793V44.7221H307.098ZM309.056 46.6804C307.975 46.6804 307.098 45.8037 307.098 44.7221H305.793C305.793 46.5247 307.254 47.986 309.056 47.986V46.6804ZM331.904 44.7221C331.904 45.8037 331.027 46.6804 329.945 46.6804V47.986C331.748 47.986 333.209 46.5247 333.209 44.7221H331.904ZM329.945 27.0971C331.027 27.0971 331.904 27.9739 331.904 29.0554H333.209C333.209 27.2529 331.748 25.7916 329.945 25.7916V27.0971ZM309.056 25.7916C307.254 25.7916 305.793 27.2528 305.793 29.0554H307.098C307.098 27.9739 307.975 27.0971 309.056 27.0971V25.7916Z" fill="#E1E3ED"/>
<path d="M340.391 29.0554C340.391 27.6134 341.56 26.4443 343.002 26.4443H363.891C365.333 26.4443 366.502 27.6134 366.502 29.0554V44.7221C366.502 46.1642 365.333 47.3332 363.891 47.3332H343.002C341.56 47.3332 340.391 46.1642 340.391 44.7221V29.0554Z" fill="#F3F4FA"/>
<path fill-rule="evenodd" clip-rule="evenodd" d="M353.445 31.6665C353.805 31.6665 354.098 31.9588 354.098 32.3193V32.3656C356.099 32.6518 357.682 34.2347 357.968 36.2359H358.014C358.375 36.2359 358.667 36.5282 358.667 36.8887C358.667 37.2492 358.375 37.5415 358.014 37.5415H357.968C357.682 39.5427 356.099 41.1256 354.098 41.4119V41.4582C354.098 41.8187 353.805 42.1109 353.445 42.1109C353.084 42.1109 352.792 41.8187 352.792 41.4582V41.4119C350.791 41.1256 349.208 39.5427 348.922 37.5415H348.875C348.515 37.5415 348.223 37.2492 348.223 36.8887C348.223 36.5282 348.515 36.2359 348.875 36.2359H348.922C349.208 34.2347 350.791 32.6518 352.792 32.3656V32.3193C352.792 31.9588 353.084 31.6665 353.445 31.6665ZM352.792 33.6901C351.513 33.9497 350.506 34.9571 350.246 36.2359H350.834C351.194 36.2359 351.487 36.5282 351.487 36.8887C351.487 37.2492 351.194 37.5415 350.834 37.5415H350.246C350.506 38.8204 351.513 39.8277 352.792 40.0873V39.4998C352.792 39.1393 353.084 38.8471 353.445 38.8471C353.805 38.8471 354.098 39.1393 354.098 39.4998V40.0873C355.377 39.8277 356.384 38.8204 356.643 37.5415H356.056C355.695 37.5415 355.403 37.2492 355.403 36.8887C355.403 36.5282 355.695 36.2359 356.056 36.2359H356.643C356.384 34.9571 355.377 33.9497 354.098 33.6901V34.2776C354.098 34.6381 353.805 34.9304 353.445 34.9304C353.084 34.9304 352.792 34.6381 352.792 34.2776V33.6901Z" fill="#4956E3"/>
<path d="M354.098 36.8887C354.098 36.5282 353.805 36.2359 353.445 36.2359C353.084 36.2359 352.792 36.5282 352.792 36.8887C352.792 37.2492 353.084 37.5415 353.445 37.5415C353.805 37.5415 354.098 37.2492 354.098 36.8887Z" fill="#4956E3"/>
<path d="M343.002 27.0971H363.891V25.7916H343.002V27.0971ZM365.849 29.0554V44.7221H367.155V29.0554H365.849ZM363.891 46.6804H343.002V47.986H363.891V46.6804ZM341.043 44.7221V29.0554H339.738V44.7221H341.043ZM343.002 46.6804C341.92 46.6804 341.043 45.8037 341.043 44.7221H339.738C339.738 46.5247 341.199 47.986 343.002 47.986V46.6804ZM365.849 44.7221C365.849 45.8037 364.972 46.6804 363.891 46.6804V47.986C365.693 47.986 367.155 46.5247 367.155 44.7221H365.849ZM363.891 27.0971C364.972 27.0971 365.849 27.9739 365.849 29.0554H367.155C367.155 27.2529 365.693 25.7916 363.891 25.7916V27.0971ZM343.002 25.7916C341.199 25.7916 339.738 27.2528 339.738 29.0554H341.043C341.043 27.9739 341.92 27.0971 343.002 27.0971V25.7916Z" fill="#E1E3ED"/>
</g>
<g clip-path="url(#clip3_404_22808)">
<rect x="312" y="109" width="573.44" height="392" rx="4" fill="white"/>
<rect x="435.199" y="109" width="450.24" height="43.12" fill="#4956E3"/>
<path d="M615.273 134.76L613.801 132.089H613.388V134.76H611.664V127.684H614.557C615.115 127.684 615.589 127.781 615.978 127.976C616.375 128.171 616.67 128.44 616.865 128.783C617.06 129.119 617.158 129.495 617.158 129.912C617.158 130.382 617.023 130.802 616.754 131.172C616.492 131.541 616.103 131.803 615.585 131.958L617.218 134.76H615.273ZM613.388 130.869H614.456C614.772 130.869 615.007 130.792 615.162 130.637C615.323 130.483 615.404 130.264 615.404 129.982C615.404 129.713 615.323 129.502 615.162 129.347C615.007 129.192 614.772 129.115 614.456 129.115H613.388V130.869ZM623.542 131.857C623.542 132.018 623.532 132.186 623.511 132.361H619.611C619.637 132.71 619.748 132.979 619.943 133.167C620.145 133.349 620.39 133.44 620.679 133.44C621.109 133.44 621.408 133.258 621.576 132.895H623.411C623.317 133.265 623.145 133.597 622.897 133.893C622.655 134.189 622.349 134.421 621.979 134.589C621.61 134.757 621.196 134.841 620.739 134.841C620.188 134.841 619.698 134.723 619.268 134.488C618.838 134.253 618.502 133.917 618.26 133.48C618.018 133.043 617.897 132.532 617.897 131.948C617.897 131.363 618.015 130.852 618.25 130.416C618.492 129.979 618.828 129.643 619.258 129.408C619.688 129.172 620.182 129.055 620.739 129.055C621.284 129.055 621.768 129.169 622.191 129.397C622.614 129.626 622.944 129.952 623.179 130.375C623.421 130.799 623.542 131.292 623.542 131.857ZM621.778 131.403C621.778 131.108 621.677 130.872 621.475 130.698C621.274 130.523 621.022 130.436 620.719 130.436C620.43 130.436 620.185 130.52 619.983 130.688C619.789 130.856 619.668 131.094 619.621 131.403H621.778ZM624.108 131.938C624.108 131.36 624.216 130.852 624.431 130.416C624.653 129.979 624.952 129.643 625.328 129.408C625.704 129.172 626.124 129.055 626.588 129.055C626.984 129.055 627.331 129.135 627.626 129.297C627.929 129.458 628.16 129.67 628.322 129.932V129.135H630.045V134.76H628.322V133.964C628.154 134.226 627.919 134.437 627.616 134.599C627.32 134.76 626.974 134.841 626.578 134.841C626.121 134.841 625.704 134.723 625.328 134.488C624.952 134.246 624.653 133.907 624.431 133.47C624.216 133.026 624.108 132.516 624.108 131.938ZM628.322 131.948C628.322 131.518 628.201 131.178 627.959 130.93C627.724 130.681 627.435 130.557 627.092 130.557C626.749 130.557 626.457 130.681 626.215 130.93C625.98 131.172 625.862 131.508 625.862 131.938C625.862 132.368 625.98 132.71 626.215 132.966C626.457 133.214 626.749 133.339 627.092 133.339C627.435 133.339 627.724 133.214 627.959 132.966C628.201 132.717 628.322 132.378 628.322 131.948ZM633.016 127.301V134.76H631.292V127.301H633.016ZM646.139 127.684L644.294 134.76H642.207L641.078 130.103L639.909 134.76H637.823L636.028 127.684H637.873L638.891 132.835L640.151 127.684H642.046L643.256 132.835L644.284 127.684H646.139ZM649.563 134.841C649.012 134.841 648.515 134.723 648.072 134.488C647.635 134.253 647.289 133.917 647.033 133.48C646.785 133.043 646.66 132.532 646.66 131.948C646.66 131.37 646.788 130.862 647.043 130.426C647.299 129.982 647.648 129.643 648.092 129.408C648.535 129.172 649.033 129.055 649.584 129.055C650.135 129.055 650.632 129.172 651.075 129.408C651.519 129.643 651.868 129.982 652.124 130.426C652.379 130.862 652.507 131.37 652.507 131.948C652.507 132.526 652.376 133.036 652.114 133.48C651.858 133.917 651.505 134.253 651.055 134.488C650.612 134.723 650.114 134.841 649.563 134.841ZM649.563 133.349C649.893 133.349 650.172 133.228 650.4 132.986C650.635 132.744 650.753 132.398 650.753 131.948C650.753 131.497 650.639 131.151 650.41 130.909C650.188 130.668 649.913 130.547 649.584 130.547C649.248 130.547 648.969 130.668 648.747 130.909C648.525 131.145 648.414 131.491 648.414 131.948C648.414 132.398 648.522 132.744 648.737 132.986C648.959 133.228 649.234 133.349 649.563 133.349ZM655.145 130.073C655.346 129.764 655.598 129.522 655.901 129.347C656.203 129.166 656.539 129.075 656.909 129.075V130.899H656.435C656.005 130.899 655.682 130.993 655.467 131.182C655.252 131.363 655.145 131.686 655.145 132.149V134.76H653.421V129.135H655.145V130.073ZM659.456 127.301V134.76H657.733V127.301H659.456ZM660.363 131.938C660.363 131.36 660.47 130.852 660.685 130.416C660.907 129.979 661.206 129.643 661.583 129.408C661.959 129.172 662.379 129.055 662.843 129.055C663.212 129.055 663.548 129.132 663.851 129.287C664.16 129.441 664.402 129.649 664.576 129.912V127.301H666.3V134.76H664.576V133.954C664.415 134.222 664.183 134.437 663.881 134.599C663.585 134.76 663.239 134.841 662.843 134.841C662.379 134.841 661.959 134.723 661.583 134.488C661.206 134.246 660.907 133.907 660.685 133.47C660.47 133.026 660.363 132.516 660.363 131.938ZM664.576 131.948C664.576 131.518 664.455 131.178 664.213 130.93C663.978 130.681 663.689 130.557 663.347 130.557C663.004 130.557 662.712 130.681 662.47 130.93C662.234 131.172 662.117 131.508 662.117 131.938C662.117 132.368 662.234 132.71 662.47 132.966C662.712 133.214 663.004 133.339 663.347 133.339C663.689 133.339 663.978 133.214 664.213 132.966C664.455 132.717 664.576 132.378 664.576 131.948ZM674.088 133.51H671.447L671.024 134.76H669.219L671.78 127.684H673.776L676.336 134.76H674.511L674.088 133.51ZM673.645 132.18L672.768 129.589L671.901 132.18H673.645ZM678.839 129.932C679.007 129.67 679.239 129.458 679.534 129.297C679.83 129.135 680.176 129.055 680.573 129.055C681.036 129.055 681.456 129.172 681.833 129.408C682.209 129.643 682.505 129.979 682.72 130.416C682.941 130.852 683.052 131.36 683.052 131.938C683.052 132.516 682.941 133.026 682.72 133.47C682.505 133.907 682.209 134.246 681.833 134.488C681.456 134.723 681.036 134.841 680.573 134.841C680.183 134.841 679.837 134.76 679.534 134.599C679.239 134.437 679.007 134.229 678.839 133.974V137.441H677.115V129.135H678.839V129.932ZM681.298 131.938C681.298 131.508 681.177 131.172 680.935 130.93C680.7 130.681 680.408 130.557 680.058 130.557C679.716 130.557 679.423 130.681 679.182 130.93C678.946 131.178 678.829 131.518 678.829 131.948C678.829 132.378 678.946 132.717 679.182 132.966C679.423 133.214 679.716 133.339 680.058 133.339C680.401 133.339 680.694 133.214 680.935 132.966C681.177 132.71 681.298 132.368 681.298 131.938ZM685.68 129.932C685.848 129.67 686.08 129.458 686.376 129.297C686.671 129.135 687.017 129.055 687.414 129.055C687.878 129.055 688.298 129.172 688.674 129.408C689.05 129.643 689.346 129.979 689.561 130.416C689.783 130.852 689.894 131.36 689.894 131.938C689.894 132.516 689.783 133.026 689.561 133.47C689.346 133.907 689.05 134.246 688.674 134.488C688.298 134.723 687.878 134.841 687.414 134.841C687.024 134.841 686.678 134.76 686.376 134.599C686.08 134.437 685.848 134.229 685.68 133.974V137.441H683.957V129.135H685.68V129.932ZM688.14 131.938C688.14 131.508 688.019 131.172 687.777 130.93C687.542 130.681 687.249 130.557 686.9 130.557C686.557 130.557 686.265 130.681 686.023 130.93C685.788 131.178 685.67 131.518 685.67 131.948C685.67 132.378 685.788 132.717 686.023 132.966C686.265 133.214 686.557 133.339 686.9 133.339C687.243 133.339 687.535 133.214 687.777 132.966C688.019 132.71 688.14 132.368 688.14 131.938Z" fill="white"/>
<g clip-path="url(#clip4_404_22808)">
<path d="M600.96 124.68H588.64C588.343 124.681 588.058 124.799 587.848 125.009C587.638 125.219 587.52 125.503 587.52 125.8V135.88C587.52 136.177 587.638 136.462 587.848 136.672C588.058 136.882 588.343 137 588.64 137H600.96C601.256 137 601.541 136.882 601.751 136.672C601.961 136.462 602.079 136.177 602.08 135.88V125.8C602.079 125.503 601.961 125.219 601.751 125.009C601.541 124.799 601.256 124.681 600.96 124.68ZM590.6 128.6C590.433 128.6 590.271 128.551 590.133 128.459C589.995 128.367 589.887 128.235 589.823 128.082C589.76 127.928 589.743 127.759 589.776 127.597C589.808 127.434 589.888 127.284 590.006 127.166C590.123 127.049 590.273 126.969 590.436 126.937C590.599 126.904 590.767 126.921 590.921 126.984C591.074 127.048 591.206 127.156 591.298 127.294C591.39 127.432 591.44 127.594 591.44 127.76C591.44 127.983 591.351 128.197 591.194 128.354C591.036 128.512 590.822 128.6 590.6 128.6ZM593.4 128.6C593.233 128.6 593.071 128.551 592.933 128.459C592.795 128.367 592.687 128.235 592.623 128.082C592.56 127.928 592.543 127.759 592.576 127.597C592.608 127.434 592.688 127.284 592.806 127.166C592.923 127.049 593.073 126.969 593.236 126.937C593.399 126.904 593.567 126.921 593.721 126.984C593.874 127.048 594.006 127.156 594.098 127.294C594.19 127.432 594.24 127.594 594.24 127.76C594.24 127.983 594.151 128.197 593.994 128.354C593.836 128.512 593.622 128.6 593.4 128.6Z" fill="white"/>
</g>
<rect x="311.72" y="108.72" width="123.76" height="392.56" fill="white" stroke="#C4C4C4" stroke-width="0.56"/>
<circle cx="338.321" cy="140.92" r="11.2" fill="#9095AD"/>
<g clip-path="url(#clip5_404_22808)">
<path d="M336.364 289.724L332.163 285.906C332.009 285.764 331.807 285.686 331.598 285.686C331.389 285.686 331.188 285.764 331.033 285.906L326.834 289.724C326.747 289.803 326.678 289.899 326.631 290.006C326.583 290.113 326.559 290.229 326.559 290.346V295.181C326.556 295.392 326.631 295.597 326.769 295.756C326.848 295.846 326.945 295.917 327.053 295.966C327.162 296.015 327.28 296.04 327.399 296.04H329.917C330.028 296.04 330.135 295.996 330.214 295.917C330.293 295.838 330.337 295.731 330.337 295.62V293.1C330.337 292.988 330.381 292.881 330.46 292.803C330.539 292.724 330.645 292.68 330.757 292.68H332.437C332.548 292.68 332.655 292.724 332.734 292.803C332.813 292.881 332.857 292.988 332.857 293.1V295.62C332.857 295.731 332.901 295.838 332.98 295.917C333.059 295.996 333.165 296.04 333.277 296.04H335.8C335.938 296.042 336.074 296.008 336.195 295.943C336.329 295.87 336.441 295.763 336.519 295.632C336.597 295.502 336.639 295.352 336.639 295.2V290.346C336.639 290.229 336.614 290.113 336.567 290.006C336.519 289.899 336.45 289.803 336.364 289.724Z" fill="#9095AD"/>
</g>
<g clip-path="url(#clip6_404_22808)">
<path d="M337.056 317.809C336.272 316.46 335.017 315.447 333.532 314.967C334.243 314.544 334.796 313.898 335.105 313.131C335.415 312.363 335.463 311.514 335.244 310.716C335.024 309.918 334.549 309.214 333.89 308.712C333.232 308.21 332.427 307.938 331.599 307.938C330.771 307.938 329.966 308.21 329.308 308.712C328.649 309.214 328.174 309.918 327.954 310.716C327.735 311.514 327.783 312.363 328.093 313.131C328.402 313.898 328.955 314.544 329.666 314.967C328.181 315.447 326.926 316.46 326.142 317.809C326.105 317.873 326.086 317.946 326.086 318.019C326.086 318.093 326.105 318.166 326.142 318.229C326.179 318.293 326.232 318.346 326.296 318.383C326.36 318.42 326.432 318.44 326.506 318.44L336.692 318.44C336.766 318.44 336.838 318.42 336.902 318.383C336.966 318.347 337.019 318.293 337.056 318.23C337.093 318.166 337.112 318.093 337.112 318.019C337.112 317.946 337.093 317.873 337.056 317.809L337.056 317.809Z" fill="#9095AD"/>
</g>
<g clip-path="url(#clip7_404_22808)">
<path d="M337.897 340C337.897 340.111 337.853 340.218 337.774 340.297C337.695 340.376 337.588 340.42 337.477 340.42H325.717C325.605 340.42 325.499 340.376 325.42 340.297C325.341 340.218 325.297 340.111 325.297 340C325.297 339.889 325.341 339.782 325.42 339.703C325.499 339.624 325.605 339.58 325.717 339.58H337.477C337.588 339.58 337.695 339.624 337.774 339.703C337.853 339.782 337.897 339.889 337.897 340ZM325.733 334.234C325.708 334.146 325.712 334.053 325.746 333.968C325.779 333.882 325.839 333.81 325.917 333.762L331.377 330.402C331.443 330.362 331.519 330.34 331.597 330.34C331.675 330.34 331.751 330.362 331.817 330.402L337.277 333.762C337.355 333.81 337.415 333.882 337.448 333.968C337.481 334.053 337.486 334.146 337.461 334.234C337.436 334.322 337.383 334.4 337.31 334.455C337.237 334.51 337.148 334.54 337.057 334.54H335.797V337.9H336.637C336.748 337.9 336.855 337.944 336.934 338.023C337.013 338.102 337.057 338.209 337.057 338.32C337.057 338.431 337.013 338.538 336.934 338.617C336.855 338.696 336.748 338.74 336.637 338.74H326.557C326.445 338.74 326.339 338.696 326.26 338.617C326.181 338.538 326.137 338.431 326.137 338.32C326.137 338.209 326.181 338.102 326.26 338.023C326.339 337.944 326.445 337.9 326.557 337.9H327.397V334.54H326.137C326.045 334.54 325.956 334.51 325.884 334.455C325.811 334.4 325.758 334.322 325.733 334.234ZM332.437 337.48C332.437 337.591 332.481 337.698 332.56 337.777C332.639 337.856 332.745 337.9 332.857 337.9C332.968 337.9 333.075 337.856 333.154 337.777C333.233 337.698 333.277 337.591 333.277 337.48V334.96C333.277 334.849 333.233 334.742 333.154 334.663C333.075 334.584 332.968 334.54 332.857 334.54C332.745 334.54 332.639 334.584 332.56 334.663C332.481 334.742 332.437 334.849 332.437 334.96V337.48ZM329.917 337.48C329.917 337.591 329.961 337.698 330.04 337.777C330.119 337.856 330.225 337.9 330.337 337.9C330.448 337.9 330.555 337.856 330.634 337.777C330.713 337.698 330.757 337.591 330.757 337.48V334.96C330.757 334.849 330.713 334.742 330.634 334.663C330.555 334.584 330.448 334.54 330.337 334.54C330.225 334.54 330.119 334.584 330.04 334.663C329.961 334.742 329.917 334.849 329.917 334.96V337.48Z" fill="#9095AD"/>
</g>
<g clip-path="url(#clip8_404_22808)">
<path d="M336.473 360.717C336.162 360.18 335.79 359.163 335.79 357.36V356.987C335.79 354.662 333.925 352.757 331.632 352.74C331.622 352.74 331.611 352.74 331.6 352.74C330.488 352.741 329.422 353.185 328.636 353.972C327.85 354.76 327.41 355.828 327.411 356.94V357.36C327.411 359.163 327.04 360.18 326.728 360.717C326.653 360.844 326.614 360.989 326.613 361.137C326.613 361.284 326.651 361.43 326.725 361.558C326.798 361.686 326.904 361.792 327.032 361.867C327.159 361.941 327.304 361.98 327.452 361.98H329.501C329.501 362.537 329.722 363.071 330.116 363.465C330.509 363.859 331.044 364.08 331.601 364.08C332.157 364.08 332.692 363.859 333.085 363.465C333.479 363.071 333.701 362.537 333.701 361.98H335.749C335.897 361.98 336.042 361.941 336.169 361.867C336.297 361.792 336.403 361.686 336.476 361.558C336.55 361.43 336.588 361.285 336.588 361.137C336.587 360.989 336.548 360.844 336.473 360.717ZM331.601 363.24C331.266 363.24 330.946 363.107 330.71 362.871C330.474 362.634 330.341 362.314 330.341 361.98H332.861C332.86 362.314 332.727 362.634 332.491 362.871C332.255 363.107 331.935 363.24 331.601 363.24Z" fill="#9095AD"/>
</g>
<g clip-path="url(#clip9_404_22808)">
<path d="M335.379 477.06H334.119V467.82C334.119 467.597 334.03 467.384 333.873 467.226C333.715 467.069 333.502 466.98 333.279 466.98H326.559C326.336 466.98 326.123 467.069 325.965 467.226C325.808 467.384 325.719 467.597 325.719 467.82V477.06H324.459C324.348 477.06 324.241 477.104 324.162 477.183C324.083 477.262 324.039 477.369 324.039 477.48C324.039 477.591 324.083 477.698 324.162 477.777C324.241 477.856 324.348 477.9 324.459 477.9H335.379C335.49 477.9 335.597 477.856 335.676 477.777C335.755 477.698 335.799 477.591 335.799 477.48C335.799 477.369 335.755 477.262 335.676 477.183C335.597 477.104 335.49 477.06 335.379 477.06ZM331.809 473.07C331.684 473.07 331.563 473.033 331.459 472.964C331.355 472.895 331.275 472.796 331.227 472.681C331.179 472.566 331.167 472.439 331.191 472.317C331.215 472.195 331.275 472.083 331.364 471.995C331.452 471.906 331.564 471.846 331.686 471.822C331.808 471.798 331.935 471.81 332.05 471.858C332.165 471.906 332.264 471.986 332.333 472.09C332.402 472.194 332.439 472.315 332.439 472.44C332.439 472.607 332.373 472.767 332.255 472.885C332.136 473.004 331.976 473.07 331.809 473.07Z" fill="#9095AD"/>
</g>
<rect x="355.958" y="130" width="36.4" height="10.64" rx="4.76" fill="#9095AD" stroke="white" stroke-width="0.56"/>
<rect x="326.841" y="182.08" width="29.68" height="10.64" rx="4.76" fill="#9095AD" stroke="white" stroke-width="0.56"/>
<rect x="326.841" y="197.76" width="58.8" height="6.16" rx="3.08" fill="#BFC2D4" stroke="white" stroke-width="0.56"/>
<rect x="347.56" y="288.48" width="38.08" height="6.16" rx="3.08" fill="#BFC2D4" stroke="white" stroke-width="0.56"/>
<rect x="355.958" y="144.56" width="38.08" height="6.16" rx="3.08" fill="#BFC2D4" stroke="white" stroke-width="0.56"/>
<rect x="347.56" y="333.28" width="38.08" height="6.16" rx="3.08" fill="#BFC2D4" stroke="white" stroke-width="0.56"/>
<rect x="347.56" y="310.88" width="24.64" height="6.16" rx="3.08" fill="#BFC2D4" stroke="white" stroke-width="0.56"/>
<rect x="347.56" y="355.68" width="24.64" height="6.16" rx="3.08" fill="#BFC2D4" stroke="white" stroke-width="0.56"/>
<rect x="347.56" y="468.72" width="24.64" height="6.16" rx="3.08" fill="#BFC2D4" stroke="white" stroke-width="0.56"/>
<circle cx="466.001" cy="186.84" r="11.2" fill="#A3E7CB"/>
<rect x="486.16" y="176.76" width="53.76" height="10.08" rx="4.48" fill="#9095AD"/>
<rect x="486.16" y="192.44" width="107.52" height="5.6" rx="2.8" fill="#BFC2D4"/>
<line x1="455.359" y1="215.68" x2="865.279" y2="215.68" stroke="#D0D2E0" stroke-width="0.56"/>
<circle cx="466.001" cy="237.24" r="11.2" fill="#C5C9FD"/>
<rect x="486.16" y="227.16" width="53.76" height="10.08" rx="4.48" fill="#9095AD"/>
<rect x="486.16" y="242.84" width="107.52" height="5.6" rx="2.8" fill="#BFC2D4"/>
<line x1="455.359" y1="266.08" x2="865.279" y2="266.08" stroke="#D0D2E0" stroke-width="0.56"/>
<circle cx="466.001" cy="287.64" r="11.2" fill="#F1E08F"/>
<rect x="486.16" y="277.56" width="53.76" height="10.08" rx="4.48" fill="#9095AD"/>
<rect x="486.16" y="293.24" width="107.52" height="5.6" rx="2.8" fill="#BFC2D4"/>
<line x1="455.359" y1="316.48" x2="865.279" y2="316.48" stroke="#D0D2E0" stroke-width="0.56"/>
<circle cx="466.001" cy="338.04" r="11.2" fill="#B7E7F0"/>
<rect x="486.16" y="327.96" width="53.76" height="10.08" rx="4.48" fill="#9095AD"/>
<rect x="486.16" y="343.64" width="107.52" height="5.6" rx="2.8" fill="#BFC2D4"/>
<line x1="455.359" y1="366.88" x2="865.279" y2="366.88" stroke="#D0D2E0" stroke-width="0.56"/>
<circle cx="466.001" cy="388.44" r="11.2" fill="#4BBFD2"/>
<rect x="486.16" y="378.36" width="53.76" height="10.08" rx="4.48" fill="#9095AD"/>
<rect x="486.16" y="394.04" width="107.52" height="5.6" rx="2.8" fill="#BFC2D4"/>
<line x1="455.359" y1="417.28" x2="865.279" y2="417.28" stroke="#D0D2E0" stroke-width="0.56"/>
<circle cx="466.001" cy="438.84" r="11.2" fill="#E45DA3"/>
<rect x="486.16" y="428.76" width="53.76" height="10.08" rx="4.48" fill="#9095AD"/>
<rect x="486.16" y="444.44" width="107.52" height="5.6" rx="2.8" fill="#BFC2D4"/>
<line x1="455.359" y1="467.68" x2="865.279" y2="467.68" stroke="#D0D2E0" stroke-width="0.56"/>
<path d="M757.864 185.248H756.11V187.042H754.477V185.248H752.723V183.706H754.477V181.902H756.11V183.706H757.864V185.248ZM764.435 185.944C764.435 186.313 764.338 186.656 764.143 186.972C763.955 187.281 763.673 187.536 763.296 187.738C762.927 187.933 762.487 188.04 761.976 188.06V188.877H761.331V188.05C760.618 187.99 760.044 187.778 759.607 187.415C759.17 187.046 758.938 186.545 758.911 185.913H760.746C760.786 186.317 760.981 186.575 761.331 186.69V185.097C760.807 184.963 760.387 184.832 760.071 184.704C759.762 184.576 759.489 184.371 759.254 184.089C759.019 183.807 758.901 183.42 758.901 182.93C758.901 182.318 759.127 181.828 759.577 181.458C760.034 181.088 760.618 180.88 761.331 180.833V180.017H761.976V180.833C762.681 180.887 763.239 181.092 763.649 181.448C764.059 181.804 764.287 182.298 764.335 182.93H762.49C762.45 182.567 762.278 182.332 761.976 182.224V183.787C762.534 183.941 762.964 184.079 763.266 184.2C763.568 184.321 763.837 184.522 764.072 184.805C764.314 185.08 764.435 185.46 764.435 185.944ZM760.726 182.849C760.726 183.017 760.776 183.158 760.877 183.272C760.985 183.387 761.136 183.488 761.331 183.575V182.174C761.143 182.207 760.995 182.281 760.887 182.396C760.78 182.503 760.726 182.654 760.726 182.849ZM761.976 186.72C762.177 186.686 762.335 186.606 762.45 186.478C762.571 186.35 762.631 186.192 762.631 186.004C762.631 185.829 762.574 185.688 762.46 185.581C762.352 185.467 762.191 185.369 761.976 185.288V186.72ZM767.401 185.843C767.502 186.374 767.811 186.639 768.328 186.639C768.684 186.639 768.936 186.481 769.084 186.165C769.232 185.85 769.306 185.336 769.306 184.623C769.158 184.832 768.957 184.993 768.701 185.107C768.446 185.221 768.16 185.278 767.844 185.278C767.414 185.278 767.031 185.191 766.695 185.016C766.359 184.835 766.094 184.569 765.899 184.22C765.711 183.864 765.617 183.434 765.617 182.93C765.617 182.432 765.718 181.999 765.919 181.629C766.127 181.26 766.42 180.974 766.796 180.773C767.179 180.571 767.629 180.47 768.147 180.47C769.141 180.47 769.837 180.779 770.233 181.398C770.63 182.016 770.828 182.926 770.828 184.129C770.828 185.003 770.747 185.725 770.586 186.296C770.432 186.861 770.166 187.291 769.79 187.587C769.42 187.882 768.913 188.03 768.268 188.03C767.757 188.03 767.32 187.929 766.957 187.728C766.601 187.526 766.326 187.261 766.131 186.932C765.943 186.602 765.835 186.239 765.808 185.843H767.401ZM768.238 183.918C768.52 183.918 768.745 183.834 768.913 183.666C769.081 183.491 769.165 183.256 769.165 182.96C769.165 182.637 769.078 182.389 768.903 182.214C768.728 182.039 768.493 181.952 768.197 181.952C767.902 181.952 767.666 182.043 767.492 182.224C767.324 182.399 767.24 182.641 767.24 182.95C767.24 183.239 767.324 183.474 767.492 183.656C767.666 183.83 767.915 183.918 768.238 183.918ZM775.387 182.627C775.333 182.379 775.239 182.194 775.104 182.073C774.97 181.945 774.778 181.881 774.53 181.881C774.147 181.881 773.871 182.049 773.703 182.385C773.535 182.715 773.448 183.239 773.441 183.958C773.589 183.723 773.801 183.538 774.076 183.404C774.358 183.269 774.668 183.202 775.004 183.202C775.662 183.202 776.19 183.41 776.586 183.827C776.989 184.244 777.191 184.825 777.191 185.571C777.191 186.061 777.09 186.491 776.889 186.861C776.694 187.231 776.405 187.52 776.022 187.728C775.645 187.936 775.198 188.04 774.681 188.04C773.646 188.04 772.927 187.718 772.524 187.073C772.121 186.421 771.919 185.487 771.919 184.27C771.919 182.994 772.131 182.046 772.554 181.428C772.984 180.803 773.67 180.49 774.61 180.49C775.114 180.49 775.538 180.591 775.881 180.793C776.23 180.988 776.492 181.246 776.667 181.569C776.848 181.892 776.956 182.244 776.989 182.627H775.387ZM774.59 184.563C774.301 184.563 774.059 184.65 773.865 184.825C773.676 184.993 773.582 185.235 773.582 185.551C773.582 185.873 773.67 186.125 773.844 186.307C774.026 186.488 774.281 186.579 774.61 186.579C774.906 186.579 775.138 186.491 775.306 186.317C775.481 186.135 775.568 185.89 775.568 185.581C775.568 185.265 775.484 185.016 775.316 184.835C775.148 184.653 774.906 184.563 774.59 184.563ZM779.144 188.081C778.841 188.081 778.593 187.993 778.398 187.819C778.21 187.637 778.115 187.415 778.115 187.153C778.115 186.884 778.21 186.659 778.398 186.478C778.593 186.296 778.841 186.206 779.144 186.206C779.439 186.206 779.681 186.296 779.869 186.478C780.064 186.659 780.162 186.884 780.162 187.153C780.162 187.415 780.064 187.637 779.869 187.819C779.681 187.993 779.439 188.081 779.144 188.081ZM786.192 182.144H783.047V183.535C783.181 183.387 783.369 183.266 783.611 183.172C783.853 183.078 784.115 183.031 784.398 183.031C784.902 183.031 785.318 183.145 785.648 183.373C785.984 183.602 786.229 183.897 786.383 184.26C786.538 184.623 786.615 185.016 786.615 185.44C786.615 186.226 786.393 186.851 785.95 187.315C785.506 187.772 784.881 188 784.075 188C783.537 188 783.07 187.909 782.674 187.728C782.277 187.54 781.972 187.281 781.757 186.952C781.542 186.622 781.424 186.243 781.404 185.813H783.087C783.128 186.021 783.225 186.196 783.38 186.337C783.534 186.471 783.746 186.538 784.015 186.538C784.33 186.538 784.566 186.438 784.72 186.236C784.875 186.034 784.952 185.766 784.952 185.43C784.952 185.1 784.871 184.848 784.71 184.674C784.549 184.499 784.314 184.412 784.004 184.412C783.776 184.412 783.588 184.469 783.44 184.583C783.292 184.69 783.195 184.835 783.148 185.016H781.484V180.632H786.192V182.144ZM787.506 186.619C787.735 186.438 787.839 186.354 787.819 186.367C788.477 185.823 788.995 185.376 789.371 185.026C789.754 184.677 790.077 184.311 790.339 183.928C790.601 183.545 790.732 183.172 790.732 182.809C790.732 182.533 790.668 182.318 790.54 182.164C790.413 182.009 790.221 181.932 789.966 181.932C789.71 181.932 789.509 182.029 789.361 182.224C789.22 182.412 789.149 182.681 789.149 183.031H787.486C787.499 182.459 787.62 181.982 787.849 181.599C788.084 181.216 788.39 180.934 788.766 180.752C789.149 180.571 789.573 180.48 790.036 180.48C790.836 180.48 791.437 180.685 791.841 181.095C792.25 181.505 792.455 182.039 792.455 182.698C792.455 183.417 792.21 184.086 791.72 184.704C791.229 185.315 790.604 185.913 789.845 186.498H792.566V187.899H787.506V186.619Z" fill="#1FA971"/>
<path d="M757.864 235.648H756.11V237.442H754.477V235.648H752.723V234.106H754.477V232.302H756.11V234.106H757.864V235.648ZM764.435 236.344C764.435 236.713 764.338 237.056 764.143 237.372C763.955 237.681 763.673 237.936 763.296 238.138C762.927 238.333 762.487 238.44 761.976 238.46V239.277H761.331V238.45C760.618 238.39 760.044 238.178 759.607 237.815C759.17 237.446 758.938 236.945 758.911 236.313H760.746C760.786 236.717 760.981 236.975 761.331 237.09V235.497C760.807 235.362 760.387 235.231 760.071 235.104C759.762 234.976 759.489 234.771 759.254 234.489C759.019 234.207 758.901 233.82 758.901 233.33C758.901 232.718 759.127 232.228 759.577 231.858C760.034 231.488 760.618 231.28 761.331 231.233V230.417H761.976V231.233C762.681 231.287 763.239 231.492 763.649 231.848C764.059 232.204 764.287 232.698 764.335 233.33H762.49C762.45 232.967 762.278 232.732 761.976 232.624V234.186C762.534 234.341 762.964 234.479 763.266 234.6C763.568 234.721 763.837 234.922 764.072 235.205C764.314 235.48 764.435 235.86 764.435 236.344ZM760.726 233.249C760.726 233.417 760.776 233.558 760.877 233.672C760.985 233.787 761.136 233.887 761.331 233.975V232.574C761.143 232.607 760.995 232.681 760.887 232.795C760.78 232.903 760.726 233.054 760.726 233.249ZM761.976 237.12C762.177 237.086 762.335 237.006 762.45 236.878C762.571 236.75 762.631 236.592 762.631 236.404C762.631 236.229 762.574 236.088 762.46 235.981C762.352 235.866 762.191 235.769 761.976 235.688V237.12ZM767.401 236.243C767.502 236.774 767.811 237.039 768.328 237.039C768.684 237.039 768.936 236.881 769.084 236.565C769.232 236.25 769.306 235.735 769.306 235.023C769.158 235.231 768.957 235.393 768.701 235.507C768.446 235.621 768.16 235.678 767.844 235.678C767.414 235.678 767.031 235.591 766.695 235.416C766.359 235.235 766.094 234.969 765.899 234.62C765.711 234.264 765.617 233.834 765.617 233.33C765.617 232.832 765.718 232.399 765.919 232.029C766.127 231.66 766.42 231.374 766.796 231.173C767.179 230.971 767.629 230.87 768.147 230.87C769.141 230.87 769.837 231.179 770.233 231.798C770.63 232.416 770.828 233.326 770.828 234.529C770.828 235.403 770.747 236.125 770.586 236.696C770.432 237.261 770.166 237.691 769.79 237.987C769.42 238.282 768.913 238.43 768.268 238.43C767.757 238.43 767.32 238.329 766.957 238.128C766.601 237.926 766.326 237.661 766.131 237.331C765.943 237.002 765.835 236.639 765.808 236.243H767.401ZM768.238 234.318C768.52 234.318 768.745 234.234 768.913 234.066C769.081 233.891 769.165 233.656 769.165 233.36C769.165 233.037 769.078 232.789 768.903 232.614C768.728 232.439 768.493 232.352 768.197 232.352C767.902 232.352 767.666 232.443 767.492 232.624C767.324 232.799 767.24 233.041 767.24 233.35C767.24 233.639 767.324 233.874 767.492 234.055C767.666 234.23 767.915 234.318 768.238 234.318ZM775.387 233.027C775.333 232.779 775.239 232.594 775.104 232.473C774.97 232.345 774.778 232.281 774.53 232.281C774.147 232.281 773.871 232.449 773.703 232.785C773.535 233.115 773.448 233.639 773.441 234.358C773.589 234.123 773.801 233.938 774.076 233.803C774.358 233.669 774.668 233.602 775.004 233.602C775.662 233.602 776.19 233.81 776.586 234.227C776.989 234.643 777.191 235.225 777.191 235.971C777.191 236.461 777.09 236.891 776.889 237.261C776.694 237.63 776.405 237.919 776.022 238.128C775.645 238.336 775.198 238.44 774.681 238.44C773.646 238.44 772.927 238.118 772.524 237.473C772.121 236.821 771.919 235.887 771.919 234.67C771.919 233.394 772.131 232.446 772.554 231.828C772.984 231.203 773.67 230.89 774.61 230.89C775.114 230.89 775.538 230.991 775.881 231.193C776.23 231.388 776.492 231.646 776.667 231.969C776.848 232.291 776.956 232.644 776.989 233.027H775.387ZM774.59 234.963C774.301 234.963 774.059 235.05 773.865 235.225C773.676 235.393 773.582 235.635 773.582 235.95C773.582 236.273 773.67 236.525 773.844 236.706C774.026 236.888 774.281 236.979 774.61 236.979C774.906 236.979 775.138 236.891 775.306 236.717C775.481 236.535 775.568 236.29 775.568 235.981C775.568 235.665 775.484 235.416 775.316 235.235C775.148 235.053 774.906 234.963 774.59 234.963ZM779.144 238.481C778.841 238.481 778.593 238.393 778.398 238.218C778.21 238.037 778.115 237.815 778.115 237.553C778.115 237.284 778.21 237.059 778.398 236.878C778.593 236.696 778.841 236.606 779.144 236.606C779.439 236.606 779.681 236.696 779.869 236.878C780.064 237.059 780.162 237.284 780.162 237.553C780.162 237.815 780.064 238.037 779.869 238.218C779.681 238.393 779.439 238.481 779.144 238.481ZM786.192 232.543H783.047V233.934C783.181 233.787 783.369 233.666 783.611 233.572C783.853 233.478 784.115 233.43 784.398 233.43C784.902 233.43 785.318 233.545 785.648 233.773C785.984 234.002 786.229 234.297 786.383 234.66C786.538 235.023 786.615 235.416 786.615 235.84C786.615 236.626 786.393 237.251 785.95 237.714C785.506 238.171 784.881 238.4 784.075 238.4C783.537 238.4 783.07 238.309 782.674 238.128C782.277 237.94 781.972 237.681 781.757 237.352C781.542 237.022 781.424 236.643 781.404 236.213H783.087C783.128 236.421 783.225 236.596 783.38 236.737C783.534 236.871 783.746 236.938 784.015 236.938C784.33 236.938 784.566 236.838 784.72 236.636C784.875 236.434 784.952 236.166 784.952 235.83C784.952 235.5 784.871 235.248 784.71 235.074C784.549 234.899 784.314 234.811 784.004 234.811C783.776 234.811 783.588 234.869 783.44 234.983C783.292 235.09 783.195 235.235 783.148 235.416H781.484V231.031H786.192V232.543ZM787.506 237.019C787.735 236.838 787.839 236.754 787.819 236.767C788.477 236.223 788.995 235.776 789.371 235.426C789.754 235.077 790.077 234.711 790.339 234.328C790.601 233.945 790.732 233.572 790.732 233.209C790.732 232.933 790.668 232.718 790.54 232.564C790.413 232.409 790.221 232.332 789.966 232.332C789.71 232.332 789.509 232.429 789.361 232.624C789.22 232.812 789.149 233.081 789.149 233.43H787.486C787.499 232.859 787.62 232.382 787.849 231.999C788.084 231.616 788.39 231.334 788.766 231.152C789.149 230.971 789.573 230.88 790.036 230.88C790.836 230.88 791.437 231.085 791.841 231.495C792.25 231.905 792.455 232.439 792.455 233.098C792.455 233.817 792.21 234.486 791.72 235.104C791.229 235.715 790.604 236.313 789.845 236.898H792.566V238.299H787.506V237.019Z" fill="#1FA971"/>
<path d="M757.864 286.048H756.11V287.842H754.477V286.048H752.723V284.506H754.477V282.701H756.11V284.506H757.864V286.048ZM764.435 286.743C764.435 287.113 764.338 287.456 764.143 287.772C763.955 288.081 763.673 288.336 763.296 288.538C762.927 288.733 762.487 288.84 761.976 288.86V289.677H761.331V288.85C760.618 288.79 760.044 288.578 759.607 288.215C759.17 287.846 758.938 287.345 758.911 286.713H760.746C760.786 287.116 760.981 287.375 761.331 287.489V285.897C760.807 285.762 760.387 285.631 760.071 285.504C759.762 285.376 759.489 285.171 759.254 284.889C759.019 284.607 758.901 284.22 758.901 283.73C758.901 283.118 759.127 282.627 759.577 282.258C760.034 281.888 760.618 281.68 761.331 281.633V280.816H761.976V281.633C762.681 281.687 763.239 281.892 763.649 282.248C764.059 282.604 764.287 283.098 764.335 283.73H762.49C762.45 283.367 762.278 283.131 761.976 283.024V284.586C762.534 284.741 762.964 284.879 763.266 285C763.568 285.121 763.837 285.322 764.072 285.604C764.314 285.88 764.435 286.26 764.435 286.743ZM760.726 283.649C760.726 283.817 760.776 283.958 760.877 284.072C760.985 284.187 761.136 284.287 761.331 284.375V282.974C761.143 283.007 760.995 283.081 760.887 283.195C760.78 283.303 760.726 283.454 760.726 283.649ZM761.976 287.52C762.177 287.486 762.335 287.405 762.45 287.278C762.571 287.15 762.631 286.992 762.631 286.804C762.631 286.629 762.574 286.488 762.46 286.381C762.352 286.266 762.191 286.169 761.976 286.088V287.52ZM767.401 286.643C767.502 287.174 767.811 287.439 768.328 287.439C768.684 287.439 768.936 287.281 769.084 286.965C769.232 286.649 769.306 286.135 769.306 285.423C769.158 285.631 768.957 285.793 768.701 285.907C768.446 286.021 768.16 286.078 767.844 286.078C767.414 286.078 767.031 285.991 766.695 285.816C766.359 285.635 766.094 285.369 765.899 285.02C765.711 284.664 765.617 284.234 765.617 283.73C765.617 283.232 765.718 282.799 765.919 282.429C766.127 282.06 766.42 281.774 766.796 281.572C767.179 281.371 767.629 281.27 768.147 281.27C769.141 281.27 769.837 281.579 770.233 282.197C770.63 282.816 770.828 283.726 770.828 284.929C770.828 285.803 770.747 286.525 770.586 287.096C770.432 287.661 770.166 288.091 769.79 288.387C769.42 288.682 768.913 288.83 768.268 288.83C767.757 288.83 767.32 288.729 766.957 288.528C766.601 288.326 766.326 288.061 766.131 287.731C765.943 287.402 765.835 287.039 765.808 286.643H767.401ZM768.238 284.717C768.52 284.717 768.745 284.633 768.913 284.465C769.081 284.291 769.165 284.055 769.165 283.76C769.165 283.437 769.078 283.189 768.903 283.014C768.728 282.839 768.493 282.752 768.197 282.752C767.902 282.752 767.666 282.843 767.492 283.024C767.324 283.199 767.24 283.441 767.24 283.75C767.24 284.039 767.324 284.274 767.492 284.455C767.666 284.63 767.915 284.717 768.238 284.717ZM775.387 283.427C775.333 283.179 775.239 282.994 775.104 282.873C774.97 282.745 774.778 282.681 774.53 282.681C774.147 282.681 773.871 282.849 773.703 283.185C773.535 283.515 773.448 284.039 773.441 284.758C773.589 284.523 773.801 284.338 774.076 284.203C774.358 284.069 774.668 284.002 775.004 284.002C775.662 284.002 776.19 284.21 776.586 284.627C776.989 285.043 777.191 285.625 777.191 286.371C777.191 286.861 777.09 287.291 776.889 287.661C776.694 288.03 776.405 288.319 776.022 288.528C775.645 288.736 775.198 288.84 774.681 288.84C773.646 288.84 772.927 288.518 772.524 287.872C772.121 287.221 771.919 286.287 771.919 285.07C771.919 283.793 772.131 282.846 772.554 282.228C772.984 281.603 773.67 281.29 774.61 281.29C775.114 281.29 775.538 281.391 775.881 281.593C776.23 281.787 776.492 282.046 776.667 282.369C776.848 282.691 776.956 283.044 776.989 283.427H775.387ZM774.59 285.363C774.301 285.363 774.059 285.45 773.865 285.625C773.676 285.793 773.582 286.035 773.582 286.35C773.582 286.673 773.67 286.925 773.844 287.106C774.026 287.288 774.281 287.379 774.61 287.379C774.906 287.379 775.138 287.291 775.306 287.116C775.481 286.935 775.568 286.69 775.568 286.381C775.568 286.065 775.484 285.816 775.316 285.635C775.148 285.453 774.906 285.363 774.59 285.363ZM779.144 288.88C778.841 288.88 778.593 288.793 778.398 288.618C778.21 288.437 778.115 288.215 778.115 287.953C778.115 287.684 778.21 287.459 778.398 287.278C778.593 287.096 778.841 287.006 779.144 287.006C779.439 287.006 779.681 287.096 779.869 287.278C780.064 287.459 780.162 287.684 780.162 287.953C780.162 288.215 780.064 288.437 779.869 288.618C779.681 288.793 779.439 288.88 779.144 288.88ZM786.192 282.943H783.047V284.334C783.181 284.187 783.369 284.066 783.611 283.971C783.853 283.877 784.115 283.83 784.398 283.83C784.902 283.83 785.318 283.945 785.648 284.173C785.984 284.402 786.229 284.697 786.383 285.06C786.538 285.423 786.615 285.816 786.615 286.239C786.615 287.026 786.393 287.651 785.95 288.114C785.506 288.571 784.881 288.8 784.075 288.8C783.537 288.8 783.07 288.709 782.674 288.528C782.277 288.339 781.972 288.081 781.757 287.751C781.542 287.422 781.424 287.043 781.404 286.612H783.087C783.128 286.821 783.225 286.995 783.38 287.137C783.534 287.271 783.746 287.338 784.015 287.338C784.33 287.338 784.566 287.237 784.72 287.036C784.875 286.834 784.952 286.565 784.952 286.229C784.952 285.9 784.871 285.648 784.71 285.473C784.549 285.299 784.314 285.211 784.004 285.211C783.776 285.211 783.588 285.268 783.44 285.383C783.292 285.49 783.195 285.635 783.148 285.816H781.484V281.431H786.192V282.943ZM787.506 287.419C787.735 287.237 787.839 287.153 787.819 287.167C788.477 286.623 788.995 286.176 789.371 285.826C789.754 285.477 790.077 285.111 790.339 284.727C790.601 284.344 790.732 283.971 790.732 283.609C790.732 283.333 790.668 283.118 790.54 282.963C790.413 282.809 790.221 282.732 789.966 282.732C789.71 282.732 789.509 282.829 789.361 283.024C789.22 283.212 789.149 283.481 789.149 283.83H787.486C787.499 283.259 787.62 282.782 787.849 282.399C788.084 282.016 788.39 281.734 788.766 281.552C789.149 281.371 789.573 281.28 790.036 281.28C790.836 281.28 791.437 281.485 791.841 281.895C792.25 282.305 792.455 282.839 792.455 283.498C792.455 284.217 792.21 284.885 791.72 285.504C791.229 286.115 790.604 286.713 789.845 287.298H792.566V288.699H787.506V287.419Z" fill="#1FA971"/>
<path d="M757.864 336.448H756.11V338.242H754.477V336.448H752.723V334.906H754.477V333.102H756.11V334.906H757.864V336.448ZM764.435 337.144C764.435 337.513 764.338 337.856 764.143 338.172C763.955 338.481 763.673 338.736 763.296 338.938C762.927 339.133 762.487 339.24 761.976 339.26V340.077H761.331V339.25C760.618 339.19 760.044 338.978 759.607 338.615C759.17 338.246 758.938 337.745 758.911 337.113H760.746C760.786 337.517 760.981 337.775 761.331 337.89V336.297C760.807 336.163 760.387 336.031 760.071 335.904C759.762 335.776 759.489 335.571 759.254 335.289C759.019 335.007 758.901 334.62 758.901 334.13C758.901 333.518 759.127 333.028 759.577 332.658C760.034 332.288 760.618 332.08 761.331 332.033V331.217H761.976V332.033C762.681 332.087 763.239 332.292 763.649 332.648C764.059 333.004 764.287 333.498 764.335 334.13H762.49C762.45 333.767 762.278 333.532 761.976 333.424V334.987C762.534 335.141 762.964 335.279 763.266 335.4C763.568 335.521 763.837 335.722 764.072 336.005C764.314 336.28 764.435 336.66 764.435 337.144ZM760.726 334.049C760.726 334.217 760.776 334.358 760.877 334.472C760.985 334.587 761.136 334.687 761.331 334.775V333.374C761.143 333.407 760.995 333.481 760.887 333.595C760.78 333.703 760.726 333.854 760.726 334.049ZM761.976 337.92C762.177 337.886 762.335 337.806 762.45 337.678C762.571 337.55 762.631 337.392 762.631 337.204C762.631 337.029 762.574 336.888 762.46 336.781C762.352 336.667 762.191 336.569 761.976 336.488V337.92ZM767.401 337.043C767.502 337.574 767.811 337.839 768.328 337.839C768.684 337.839 768.936 337.681 769.084 337.365C769.232 337.05 769.306 336.535 769.306 335.823C769.158 336.031 768.957 336.193 768.701 336.307C768.446 336.421 768.16 336.478 767.844 336.478C767.414 336.478 767.031 336.391 766.695 336.216C766.359 336.035 766.094 335.769 765.899 335.42C765.711 335.064 765.617 334.634 765.617 334.13C765.617 333.632 765.718 333.199 765.919 332.829C766.127 332.46 766.42 332.174 766.796 331.973C767.179 331.771 767.629 331.67 768.147 331.67C769.141 331.67 769.837 331.979 770.233 332.598C770.63 333.216 770.828 334.126 770.828 335.329C770.828 336.203 770.747 336.925 770.586 337.496C770.432 338.061 770.166 338.491 769.79 338.787C769.42 339.082 768.913 339.23 768.268 339.23C767.757 339.23 767.32 339.129 766.957 338.928C766.601 338.726 766.326 338.461 766.131 338.131C765.943 337.802 765.835 337.439 765.808 337.043H767.401ZM768.238 335.118C768.52 335.118 768.745 335.034 768.913 334.866C769.081 334.691 769.165 334.456 769.165 334.16C769.165 333.837 769.078 333.589 768.903 333.414C768.728 333.239 768.493 333.152 768.197 333.152C767.902 333.152 767.666 333.243 767.492 333.424C767.324 333.599 767.24 333.841 767.24 334.15C767.24 334.439 767.324 334.674 767.492 334.855C767.666 335.03 767.915 335.118 768.238 335.118ZM775.387 333.827C775.333 333.579 775.239 333.394 775.104 333.273C774.97 333.145 774.778 333.081 774.53 333.081C774.147 333.081 773.871 333.249 773.703 333.585C773.535 333.915 773.448 334.439 773.441 335.158C773.589 334.923 773.801 334.738 774.076 334.603C774.358 334.469 774.668 334.402 775.004 334.402C775.662 334.402 776.19 334.61 776.586 335.027C776.989 335.443 777.191 336.025 777.191 336.771C777.191 337.261 777.09 337.691 776.889 338.061C776.694 338.431 776.405 338.719 776.022 338.928C775.645 339.136 775.198 339.24 774.681 339.24C773.646 339.24 772.927 338.918 772.524 338.273C772.121 337.621 771.919 336.687 771.919 335.47C771.919 334.194 772.131 333.246 772.554 332.628C772.984 332.003 773.67 331.69 774.61 331.69C775.114 331.69 775.538 331.791 775.881 331.993C776.23 332.188 776.492 332.446 776.667 332.769C776.848 333.091 776.956 333.444 776.989 333.827H775.387ZM774.59 335.763C774.301 335.763 774.059 335.85 773.865 336.025C773.676 336.193 773.582 336.435 773.582 336.751C773.582 337.073 773.67 337.325 773.844 337.507C774.026 337.688 774.281 337.779 774.61 337.779C774.906 337.779 775.138 337.691 775.306 337.517C775.481 337.335 775.568 337.09 775.568 336.781C775.568 336.465 775.484 336.216 775.316 336.035C775.148 335.853 774.906 335.763 774.59 335.763ZM779.144 339.281C778.841 339.281 778.593 339.193 778.398 339.019C778.21 338.837 778.115 338.615 778.115 338.353C778.115 338.084 778.21 337.859 778.398 337.678C778.593 337.496 778.841 337.406 779.144 337.406C779.439 337.406 779.681 337.496 779.869 337.678C780.064 337.859 780.162 338.084 780.162 338.353C780.162 338.615 780.064 338.837 779.869 339.019C779.681 339.193 779.439 339.281 779.144 339.281ZM786.192 333.343H783.047V334.735C783.181 334.587 783.369 334.466 783.611 334.372C783.853 334.278 784.115 334.231 784.398 334.231C784.902 334.231 785.318 334.345 785.648 334.573C785.984 334.802 786.229 335.097 786.383 335.46C786.538 335.823 786.615 336.216 786.615 336.64C786.615 337.426 786.393 338.051 785.95 338.515C785.506 338.971 784.881 339.2 784.075 339.2C783.537 339.2 783.07 339.109 782.674 338.928C782.277 338.74 781.972 338.481 781.757 338.152C781.542 337.822 781.424 337.443 781.404 337.013H783.087C783.128 337.221 783.225 337.396 783.38 337.537C783.534 337.671 783.746 337.738 784.015 337.738C784.33 337.738 784.566 337.638 784.72 337.436C784.875 337.234 784.952 336.966 784.952 336.63C784.952 336.3 784.871 336.048 784.71 335.874C784.549 335.699 784.314 335.611 784.004 335.611C783.776 335.611 783.588 335.669 783.44 335.783C783.292 335.89 783.195 336.035 783.148 336.216H781.484V331.831H786.192V333.343ZM787.506 337.819C787.735 337.638 787.839 337.554 787.819 337.567C788.477 337.023 788.995 336.576 789.371 336.226C789.754 335.877 790.077 335.511 790.339 335.128C790.601 334.745 790.732 334.372 790.732 334.009C790.732 333.733 790.668 333.518 790.54 333.364C790.413 333.209 790.221 333.132 789.966 333.132C789.71 333.132 789.509 333.229 789.361 333.424C789.22 333.612 789.149 333.881 789.149 334.231H787.486C787.499 333.659 787.62 333.182 787.849 332.799C788.084 332.416 788.39 332.134 788.766 331.952C789.149 331.771 789.573 331.68 790.036 331.68C790.836 331.68 791.437 331.885 791.841 332.295C792.25 332.705 792.455 333.239 792.455 333.898C792.455 334.617 792.21 335.286 791.72 335.904C791.229 336.515 790.604 337.113 789.845 337.698H792.566V339.099H787.506V337.819Z" fill="#E45770"/>
<path d="M757.864 386.848H756.11V388.642H754.477V386.848H752.723V385.306H754.477V383.502H756.11V385.306H757.864V386.848ZM764.435 387.544C764.435 387.913 764.338 388.256 764.143 388.572C763.955 388.881 763.673 389.136 763.296 389.338C762.927 389.533 762.487 389.64 761.976 389.661V390.477H761.331V389.65C760.618 389.59 760.044 389.378 759.607 389.015C759.17 388.646 758.938 388.145 758.911 387.514H760.746C760.786 387.917 760.981 388.175 761.331 388.29V386.697C760.807 386.563 760.387 386.432 760.071 386.304C759.762 386.176 759.489 385.971 759.254 385.689C759.019 385.407 758.901 385.02 758.901 384.53C758.901 383.918 759.127 383.428 759.577 383.058C760.034 382.689 760.618 382.48 761.331 382.433V381.617H761.976V382.433C762.681 382.487 763.239 382.692 763.649 383.048C764.059 383.404 764.287 383.898 764.335 384.53H762.49C762.45 384.167 762.278 383.932 761.976 383.824V385.387C762.534 385.541 762.964 385.679 763.266 385.8C763.568 385.921 763.837 386.122 764.072 386.405C764.314 386.68 764.435 387.06 764.435 387.544ZM760.726 384.449C760.726 384.617 760.776 384.758 760.877 384.873C760.985 384.987 761.136 385.088 761.331 385.175V383.774C761.143 383.807 760.995 383.881 760.887 383.996C760.78 384.103 760.726 384.254 760.726 384.449ZM761.976 388.32C762.177 388.286 762.335 388.206 762.45 388.078C762.571 387.95 762.631 387.792 762.631 387.604C762.631 387.43 762.574 387.288 762.46 387.181C762.352 387.067 762.191 386.969 761.976 386.889V388.32ZM767.401 387.443C767.502 387.974 767.811 388.239 768.328 388.239C768.684 388.239 768.936 388.081 769.084 387.766C769.232 387.45 769.306 386.936 769.306 386.223C769.158 386.432 768.957 386.593 768.701 386.707C768.446 386.821 768.16 386.878 767.844 386.878C767.414 386.878 767.031 386.791 766.695 386.616C766.359 386.435 766.094 386.17 765.899 385.82C765.711 385.464 765.617 385.034 765.617 384.53C765.617 384.033 765.718 383.599 765.919 383.23C766.127 382.86 766.42 382.574 766.796 382.373C767.179 382.171 767.629 382.07 768.147 382.07C769.141 382.07 769.837 382.379 770.233 382.998C770.63 383.616 770.828 384.526 770.828 385.729C770.828 386.603 770.747 387.325 770.586 387.897C770.432 388.461 770.166 388.891 769.79 389.187C769.42 389.482 768.913 389.63 768.268 389.63C767.757 389.63 767.32 389.53 766.957 389.328C766.601 389.126 766.326 388.861 766.131 388.532C765.943 388.202 765.835 387.839 765.808 387.443H767.401ZM768.238 385.518C768.52 385.518 768.745 385.434 768.913 385.266C769.081 385.091 769.165 384.856 769.165 384.56C769.165 384.238 769.078 383.989 768.903 383.814C768.728 383.639 768.493 383.552 768.197 383.552C767.902 383.552 767.666 383.643 767.492 383.824C767.324 383.999 767.24 384.241 767.24 384.55C767.24 384.839 767.324 385.074 767.492 385.256C767.666 385.43 767.915 385.518 768.238 385.518ZM775.387 384.227C775.333 383.979 775.239 383.794 775.104 383.673C774.97 383.545 774.778 383.482 774.53 383.482C774.147 383.482 773.871 383.65 773.703 383.986C773.535 384.315 773.448 384.839 773.441 385.558C773.589 385.323 773.801 385.138 774.076 385.004C774.358 384.869 774.668 384.802 775.004 384.802C775.662 384.802 776.19 385.01 776.586 385.427C776.989 385.844 777.191 386.425 777.191 387.171C777.191 387.661 777.09 388.091 776.889 388.461C776.694 388.831 776.405 389.12 776.022 389.328C775.645 389.536 775.198 389.64 774.681 389.64C773.646 389.64 772.927 389.318 772.524 388.673C772.121 388.021 771.919 387.087 771.919 385.87C771.919 384.594 772.131 383.646 772.554 383.028C772.984 382.403 773.67 382.09 774.61 382.09C775.114 382.09 775.538 382.191 775.881 382.393C776.23 382.588 776.492 382.846 776.667 383.169C776.848 383.492 776.956 383.844 776.989 384.227H775.387ZM774.59 386.163C774.301 386.163 774.059 386.25 773.865 386.425C773.676 386.593 773.582 386.835 773.582 387.151C773.582 387.473 773.67 387.725 773.844 387.907C774.026 388.088 774.281 388.179 774.61 388.179C774.906 388.179 775.138 388.091 775.306 387.917C775.481 387.735 775.568 387.49 775.568 387.181C775.568 386.865 775.484 386.616 775.316 386.435C775.148 386.254 774.906 386.163 774.59 386.163ZM779.144 389.681C778.841 389.681 778.593 389.593 778.398 389.419C778.21 389.237 778.115 389.015 778.115 388.753C778.115 388.485 778.21 388.259 778.398 388.078C778.593 387.897 778.841 387.806 779.144 387.806C779.439 387.806 779.681 387.897 779.869 388.078C780.064 388.259 780.162 388.485 780.162 388.753C780.162 389.015 780.064 389.237 779.869 389.419C779.681 389.593 779.439 389.681 779.144 389.681ZM786.192 383.744H783.047V385.135C783.181 384.987 783.369 384.866 783.611 384.772C783.853 384.678 784.115 384.631 784.398 384.631C784.902 384.631 785.318 384.745 785.648 384.973C785.984 385.202 786.229 385.498 786.383 385.86C786.538 386.223 786.615 386.616 786.615 387.04C786.615 387.826 786.393 388.451 785.95 388.915C785.506 389.372 784.881 389.6 784.075 389.6C783.537 389.6 783.07 389.509 782.674 389.328C782.277 389.14 781.972 388.881 781.757 388.552C781.542 388.222 781.424 387.843 781.404 387.413H783.087C783.128 387.621 783.225 387.796 783.38 387.937C783.534 388.071 783.746 388.138 784.015 388.138C784.33 388.138 784.566 388.038 784.72 387.836C784.875 387.634 784.952 387.366 784.952 387.03C784.952 386.7 784.871 386.448 784.71 386.274C784.549 386.099 784.314 386.012 784.004 386.012C783.776 386.012 783.588 386.069 783.44 386.183C783.292 386.29 783.195 386.435 783.148 386.616H781.484V382.232H786.192V383.744ZM787.506 388.219C787.735 388.038 787.839 387.954 787.819 387.967C788.477 387.423 788.995 386.976 789.371 386.626C789.754 386.277 790.077 385.911 790.339 385.528C790.601 385.145 790.732 384.772 790.732 384.409C790.732 384.133 790.668 383.918 790.54 383.764C790.413 383.609 790.221 383.532 789.966 383.532C789.71 383.532 789.509 383.629 789.361 383.824C789.22 384.012 789.149 384.281 789.149 384.631H787.486C787.499 384.059 787.62 383.582 787.849 383.199C788.084 382.816 788.39 382.534 788.766 382.353C789.149 382.171 789.573 382.08 790.036 382.08C790.836 382.08 791.437 382.285 791.841 382.695C792.25 383.105 792.455 383.639 792.455 384.298C792.455 385.017 792.21 385.686 791.72 386.304C791.229 386.915 790.604 387.514 789.845 388.098H792.566V389.499H787.506V388.219Z" fill="#1FA971"/>
<path d="M757.864 437.248H756.11V439.042H754.477V437.248H752.723V435.706H754.477V433.902H756.11V435.706H757.864V437.248ZM764.435 437.944C764.435 438.313 764.338 438.656 764.143 438.972C763.955 439.281 763.673 439.536 763.296 439.738C762.927 439.933 762.487 440.04 761.976 440.06V440.877H761.331V440.05C760.618 439.99 760.044 439.778 759.607 439.415C759.17 439.046 758.938 438.545 758.911 437.913H760.746C760.786 438.317 760.981 438.575 761.331 438.69V437.097C760.807 436.963 760.387 436.832 760.071 436.704C759.762 436.576 759.489 436.371 759.254 436.089C759.019 435.807 758.901 435.42 758.901 434.93C758.901 434.318 759.127 433.828 759.577 433.458C760.034 433.088 760.618 432.88 761.331 432.833V432.017H761.976V432.833C762.681 432.887 763.239 433.092 763.649 433.448C764.059 433.804 764.287 434.298 764.335 434.93H762.49C762.45 434.567 762.278 434.332 761.976 434.224V435.787C762.534 435.941 762.964 436.079 763.266 436.2C763.568 436.321 763.837 436.522 764.072 436.805C764.314 437.08 764.435 437.46 764.435 437.944ZM760.726 434.849C760.726 435.017 760.776 435.158 760.877 435.272C760.985 435.387 761.136 435.488 761.331 435.575V434.174C761.143 434.207 760.995 434.281 760.887 434.396C760.78 434.503 760.726 434.654 760.726 434.849ZM761.976 438.72C762.177 438.686 762.335 438.606 762.45 438.478C762.571 438.35 762.631 438.192 762.631 438.004C762.631 437.829 762.574 437.688 762.46 437.581C762.352 437.467 762.191 437.369 761.976 437.288V438.72ZM767.401 437.843C767.502 438.374 767.811 438.639 768.328 438.639C768.684 438.639 768.936 438.481 769.084 438.165C769.232 437.85 769.306 437.336 769.306 436.623C769.158 436.832 768.957 436.993 768.701 437.107C768.446 437.221 768.16 437.278 767.844 437.278C767.414 437.278 767.031 437.191 766.695 437.016C766.359 436.835 766.094 436.569 765.899 436.22C765.711 435.864 765.617 435.434 765.617 434.93C765.617 434.432 765.718 433.999 765.919 433.629C766.127 433.26 766.42 432.974 766.796 432.773C767.179 432.571 767.629 432.47 768.147 432.47C769.141 432.47 769.837 432.779 770.233 433.398C770.63 434.016 770.828 434.926 770.828 436.129C770.828 437.003 770.747 437.725 770.586 438.296C770.432 438.861 770.166 439.291 769.79 439.587C769.42 439.882 768.913 440.03 768.268 440.03C767.757 440.03 767.32 439.929 766.957 439.728C766.601 439.526 766.326 439.261 766.131 438.932C765.943 438.602 765.835 438.239 765.808 437.843H767.401ZM768.238 435.918C768.52 435.918 768.745 435.834 768.913 435.666C769.081 435.491 769.165 435.256 769.165 434.96C769.165 434.637 769.078 434.389 768.903 434.214C768.728 434.039 768.493 433.952 768.197 433.952C767.902 433.952 767.666 434.043 767.492 434.224C767.324 434.399 767.24 434.641 767.24 434.95C767.24 435.239 767.324 435.474 767.492 435.656C767.666 435.83 767.915 435.918 768.238 435.918ZM775.387 434.627C775.333 434.379 775.239 434.194 775.104 434.073C774.97 433.945 774.778 433.881 774.53 433.881C774.147 433.881 773.871 434.049 773.703 434.385C773.535 434.715 773.448 435.239 773.441 435.958C773.589 435.723 773.801 435.538 774.076 435.404C774.358 435.269 774.668 435.202 775.004 435.202C775.662 435.202 776.19 435.41 776.586 435.827C776.989 436.244 777.191 436.825 777.191 437.571C777.191 438.061 777.09 438.491 776.889 438.861C776.694 439.231 776.405 439.52 776.022 439.728C775.645 439.936 775.198 440.04 774.681 440.04C773.646 440.04 772.927 439.718 772.524 439.073C772.121 438.421 771.919 437.487 771.919 436.27C771.919 434.994 772.131 434.046 772.554 433.428C772.984 432.803 773.67 432.49 774.61 432.49C775.114 432.49 775.538 432.591 775.881 432.793C776.23 432.988 776.492 433.246 776.667 433.569C776.848 433.892 776.956 434.244 776.989 434.627H775.387ZM774.59 436.563C774.301 436.563 774.059 436.65 773.865 436.825C773.676 436.993 773.582 437.235 773.582 437.551C773.582 437.873 773.67 438.125 773.844 438.307C774.026 438.488 774.281 438.579 774.61 438.579C774.906 438.579 775.138 438.491 775.306 438.317C775.481 438.135 775.568 437.89 775.568 437.581C775.568 437.265 775.484 437.016 775.316 436.835C775.148 436.653 774.906 436.563 774.59 436.563ZM779.144 440.081C778.841 440.081 778.593 439.993 778.398 439.819C778.21 439.637 778.115 439.415 778.115 439.153C778.115 438.884 778.21 438.659 778.398 438.478C778.593 438.296 778.841 438.206 779.144 438.206C779.439 438.206 779.681 438.296 779.869 438.478C780.064 438.659 780.162 438.884 780.162 439.153C780.162 439.415 780.064 439.637 779.869 439.819C779.681 439.993 779.439 440.081 779.144 440.081ZM786.192 434.144H783.047V435.535C783.181 435.387 783.369 435.266 783.611 435.172C783.853 435.078 784.115 435.031 784.398 435.031C784.902 435.031 785.318 435.145 785.648 435.373C785.984 435.602 786.229 435.897 786.383 436.26C786.538 436.623 786.615 437.016 786.615 437.44C786.615 438.226 786.393 438.851 785.95 439.315C785.506 439.772 784.881 440 784.075 440C783.537 440 783.07 439.909 782.674 439.728C782.277 439.54 781.972 439.281 781.757 438.952C781.542 438.622 781.424 438.243 781.404 437.813H783.087C783.128 438.021 783.225 438.196 783.38 438.337C783.534 438.471 783.746 438.538 784.015 438.538C784.33 438.538 784.566 438.438 784.72 438.236C784.875 438.034 784.952 437.766 784.952 437.43C784.952 437.1 784.871 436.848 784.71 436.674C784.549 436.499 784.314 436.412 784.004 436.412C783.776 436.412 783.588 436.469 783.44 436.583C783.292 436.69 783.195 436.835 783.148 437.016H781.484V432.632H786.192V434.144ZM787.506 438.619C787.735 438.438 787.839 438.354 787.819 438.367C788.477 437.823 788.995 437.376 789.371 437.026C789.754 436.677 790.077 436.311 790.339 435.928C790.601 435.545 790.732 435.172 790.732 434.809C790.732 434.533 790.668 434.318 790.54 434.164C790.413 434.009 790.221 433.932 789.966 433.932C789.71 433.932 789.509 434.029 789.361 434.224C789.22 434.412 789.149 434.681 789.149 435.031H787.486C787.499 434.459 787.62 433.982 787.849 433.599C788.084 433.216 788.39 432.934 788.766 432.752C789.149 432.571 789.573 432.48 790.036 432.48C790.836 432.48 791.437 432.685 791.841 433.095C792.25 433.505 792.455 434.039 792.455 434.698C792.455 435.417 792.21 436.086 791.72 436.704C791.229 437.315 790.604 437.913 789.845 438.498H792.566V439.899H787.506V438.619Z" fill="#E45770"/>
</g>
<g clip-path="url(#clip10_404_22808)">
<rect width="194" height="470" transform="translate(102 16)" fill="#1B1E2E"/>
<g clip-path="url(#clip11_404_22808)">
<rect x="102" y="475.555" width="193.875" height="10.4444" fill="url(#paint0_linear_404_22808)"/>
<rect x="102" y="94.3333" width="193.875" height="10.4444" fill="url(#paint1_linear_404_22808)"/>
</g>
<path d="M113.75 79.9724V72.1391C113.75 71.7786 114.042 71.4863 114.403 71.4863H120.931C121.291 71.4863 121.583 71.7786 121.583 72.1391V79.9724C121.583 80.333 121.291 80.6252 120.931 80.6252H114.403C114.042 80.6252 113.75 80.333 113.75 79.9724Z" fill="#2E3247"/>
<path d="M115.708 76.0558H117.667M115.708 74.0974H119.625M115.708 78.0141H118.972M120.931 71.4863L114.403 71.4863C114.042 71.4863 113.75 71.7786 113.75 72.1391V79.9724C113.75 80.333 114.042 80.6252 114.403 80.6252H120.931C121.291 80.6252 121.583 80.333 121.583 79.9724V72.1391C121.583 71.7786 121.291 71.4863 120.931 71.4863Z" stroke="#5A5F7A" stroke-width="1.30556" stroke-linecap="round" stroke-linejoin="round"/>
<path d="M267.035 78.5557H267.873V73.0364H267.028L265.574 74.0691V74.88L267.016 73.8855H267.035V78.5557ZM269.671 74.8608C269.95 74.8608 270.172 74.639 270.172 74.356C270.172 74.0767 269.95 73.8549 269.671 73.8549C269.388 73.8549 269.166 74.0767 269.166 74.356C269.166 74.639 269.388 74.8608 269.671 74.8608ZM269.671 77.7333C269.95 77.7333 270.172 77.5115 270.172 77.2323C270.172 76.9492 269.95 76.7312 269.671 76.7312C269.388 76.7312 269.166 76.9492 269.166 77.2323C269.166 77.5115 269.388 77.7333 269.671 77.7333ZM272.995 78.6475C274.31 78.6475 275.102 77.5497 275.102 75.7979V75.7903C275.102 74.0385 274.31 72.9446 272.995 72.9446C271.675 72.9446 270.887 74.0385 270.887 75.7903V75.7979C270.887 77.5497 271.675 78.6475 272.995 78.6475ZM272.995 77.9322C272.207 77.9322 271.751 77.1213 271.751 75.7979V75.7903C271.751 74.4669 272.207 73.6637 272.995 73.6637C273.779 73.6637 274.238 74.4669 274.238 75.7903V75.7979C274.238 77.1213 273.779 77.9322 272.995 77.9322ZM277.795 78.6475C278.965 78.6475 279.795 77.9743 279.795 77.0295V77.0219C279.795 76.2493 279.252 75.7597 278.441 75.687V75.6679C279.114 75.5264 279.604 75.0674 279.604 74.3827V74.3751C279.604 73.526 278.885 72.9446 277.787 72.9446C276.708 72.9446 275.974 73.5527 275.89 74.4745L275.886 74.5128H276.689L276.693 74.4784C276.747 73.9658 277.175 73.6445 277.787 73.6445C278.411 73.6445 278.77 73.9543 278.77 74.486V74.4937C278.77 75.0062 278.342 75.3772 277.711 75.3772H277.064V76.0427H277.734C278.472 76.0427 278.923 76.3908 278.923 77.0142V77.0219C278.923 77.5574 278.468 77.9322 277.795 77.9322C277.11 77.9322 276.647 77.588 276.594 77.0984L276.59 77.0563H275.768L275.771 77.106C275.848 78.0049 276.617 78.6475 277.795 78.6475Z" fill="#747994"/>
<rect x="260.315" y="68.271" width="24.7917" height="15.5694" rx="7.78472" stroke="#2E3247" stroke-width="0.652778"/>
<line opacity="0.6" x1="112.445" y1="94.6597" x2="285.431" y2="94.6597" stroke="#2E3247" stroke-width="0.652778"/>
<g clip-path="url(#clip12_404_22808)">
<rect width="194" height="0.652813" transform="translate(102 57.7778)" fill="#1B1E2E"/>
</g>
<path opacity="0.6" d="M112.445 58.1042L285.431 58.1043" stroke="#2E3247" stroke-width="0.652778"/>
<path opacity="0.6" d="M102.328 16L102.328 486" stroke="#2E3247" stroke-width="0.652778"/>
</g>
<rect width="41.7778" height="470.415" transform="translate(60 16)" fill="#1B1E2E"/>
<path d="M77.887 462.957C78.7366 462.957 79.4287 463.407 79.7844 464.194L79.8125 464.255L81.2395 463.773L81.2091 463.7C80.6565 462.362 79.3837 461.53 77.887 461.53C76.8347 461.53 75.9794 461.865 75.2727 462.554C74.5705 463.239 74.2148 464.1 74.2148 465.114C74.2148 466.119 74.5705 466.976 75.2727 467.66C75.9794 468.349 76.8347 468.685 77.887 468.685C79.3837 468.685 80.6565 467.853 81.2091 466.515L81.2395 466.443L79.8102 465.959L79.7832 466.023C79.4648 466.796 78.7558 467.258 77.887 467.258C77.295 467.258 76.7953 467.052 76.3992 466.647C75.9986 466.237 75.796 465.721 75.796 465.115C75.796 464.504 75.9941 463.999 76.3992 463.57C76.7942 463.163 77.295 462.957 77.887 462.957Z" fill="white"/>
<path d="M86.8247 461.662L84.7912 466.78L82.7441 461.662H81.0695L83.9404 468.648L81.8978 473.575L81.803 473.799C81.7378 473.955 81.5954 474.065 81.431 474.088C81.2893 474.094 81.1467 474.098 81.0033 474.098V475.556C81.1518 475.556 81.3002 475.553 81.4485 475.547C82.2003 475.515 82.8722 475.047 83.1591 474.352L88.407 461.662H86.8247Z" fill="white"/>
<path fill-rule="evenodd" clip-rule="evenodd" d="M81 474.098C85.9895 474.098 90.0344 470.074 90.0344 465.111C90.0344 460.148 85.9895 456.125 81 456.125C76.0105 456.125 71.9656 460.148 71.9656 465.111C71.9656 470.074 76.0105 474.098 81 474.098ZM81 475.556C86.799 475.556 91.5 470.879 91.5 465.111C91.5 459.343 86.799 454.667 81 454.667C75.201 454.667 70.5 459.343 70.5 465.111C70.5 470.879 75.201 475.556 81 475.556Z" fill="url(#paint2_angular_404_22808)"/>
<path d="M70.668 425.944C70.668 424.502 71.837 423.333 73.2791 423.333H88.9457C90.3878 423.333 91.5569 424.502 91.5569 425.944V441.611C91.5569 443.053 90.3878 444.222 88.9457 444.222H73.2791C71.837 444.222 70.668 443.053 70.668 441.611V425.944Z" fill="#1B1E2E"/>
<g clip-path="url(#clip13_404_22808)">
<path d="M79.158 431.819V435.736M79.158 431.819H83.0747M79.158 431.819V430.514C79.158 429.793 78.5735 429.208 77.8524 429.208V429.208C77.1314 429.208 76.5469 429.793 76.5469 430.514V430.514C76.5469 431.235 77.1314 431.819 77.8524 431.819H79.158ZM79.158 435.736H83.0747M79.158 435.736V437.042C79.158 437.763 78.5735 438.347 77.8524 438.347V438.347C77.1314 438.347 76.5469 437.763 76.5469 437.042V437.042C76.5469 436.321 77.1314 435.736 77.8524 435.736H79.158ZM83.0747 435.736V431.819M83.0747 435.736H84.3802C85.1012 435.736 85.6858 436.321 85.6858 437.042V437.042C85.6858 437.763 85.1012 438.347 84.3802 438.347V438.347C83.6592 438.347 83.0747 437.763 83.0747 437.042V435.736ZM83.0747 431.819V430.514C83.0747 429.793 83.6592 429.208 84.3802 429.208V429.208C85.1012 429.208 85.6858 429.793 85.6858 430.514V430.514C85.6858 431.235 85.1012 431.819 84.3802 431.819H83.0747Z" stroke="#747994" stroke-width="1.30556" stroke-linecap="round"/>
</g>
<rect x="68.1584" y="65.9375" width="25.4583" height="25.4583" rx="2.28472" fill="#2E3247"/>
<rect x="68.1584" y="65.9375" width="25.4583" height="25.4583" rx="2.28472" stroke="#2E3247" stroke-width="0.652778"/>
<path d="M75.0156 79.9723H79.5851V84.5417H75.6684C75.3079 84.5417 75.0156 84.2495 75.0156 83.889V79.9723Z" fill="#005F39"/>
<path d="M82.1962 72.7917H86.1128C86.4734 72.7917 86.7656 73.084 86.7656 73.4445V77.3612H82.1962V72.7917Z" fill="#005F39"/>
<path d="M79.5851 75.4029H80.2378V74.7501H79.5851V75.4029ZM82.1962 72.7917V72.139H81.5434V72.7917H82.1962ZM86.7656 77.3612V78.014H87.4184V77.3612H86.7656ZM82.1962 77.3612H81.5434V78.014H82.1962V77.3612ZM84.1545 79.9723H84.8073V79.3195H84.1545V79.9723ZM75.6684 76.0556H79.5851V74.7501H75.6684V76.0556ZM78.9323 75.4029V79.9723H80.2378V75.4029H78.9323ZM79.5851 79.3195H75.0156V80.6251H79.5851V79.3195ZM75.6684 79.9723V76.0556H74.3628V79.9723H75.6684ZM78.9323 79.9723V84.5417H80.2378V79.9723H78.9323ZM79.5851 83.889H75.6684V85.1945H79.5851V83.889ZM75.6684 83.889V79.9723H74.3628V83.889H75.6684ZM82.1962 73.4445H86.1128V72.139H82.1962V73.4445ZM86.1128 73.4445V77.3612H87.4184V73.4445H86.1128ZM86.7656 76.7084H82.1962V78.014H86.7656V76.7084ZM82.849 77.3612V72.7917H81.5434V77.3612H82.849ZM79.5851 80.6251H84.1545V79.3195H79.5851V80.6251ZM83.5017 79.9723V83.889H84.8073V79.9723H83.5017ZM83.5017 83.889H79.5851V85.1945H83.5017V83.889ZM83.5017 83.889V85.1945C84.2228 85.1945 84.8073 84.61 84.8073 83.889H83.5017ZM86.1128 73.4445V73.4445H87.4184C87.4184 72.7235 86.8339 72.139 86.1128 72.139V73.4445ZM75.6684 83.889H75.6684H74.3628C74.3628 84.61 74.9474 85.1945 75.6684 85.1945V83.889ZM75.6684 74.7501C74.9474 74.7501 74.3628 75.3346 74.3628 76.0556H75.6684L75.6684 76.0556V74.7501Z" fill="#69D3A7"/>
<path d="M60 102.167C61.4421 102.167 62.6111 103.336 62.6111 104.778V125.667C62.6111 127.109 61.4421 128.278 60 128.278V102.167Z" fill="#69D3A7"/>
<path d="M86.7656 111.306C86.7656 110.585 86.1811 110 85.4601 110H76.3212C75.6001 110 75.0156 110.585 75.0156 111.306V112.611H86.7656V111.306Z" fill="#005F39"/>
<path fill-rule="evenodd" clip-rule="evenodd" d="M86.7656 111.306C86.7656 110.585 86.1811 110 85.4601 110H76.3212C75.6001 110 75.0156 110.585 75.0156 111.306V112.611H86.7656V111.306Z" fill="#005F39"/>
<path d="M75.0156 112.611V118.444C75.0156 119.549 75.9111 120.444 77.0156 120.444H84.7656C85.8702 120.444 86.7656 119.549 86.7656 118.444V112.611M75.0156 112.611V112C75.0156 110.895 75.9111 110 77.0156 110H84.7656C85.8702 110 86.7656 110.895 86.7656 112V112.611M75.0156 112.611H86.7656M82.1962 115.222L83.5017 116.528L82.1962 117.833M79.5851 115.222L78.2795 116.481L79.5851 117.74" stroke="#69D3A7" stroke-width="1.30556" stroke-linecap="round" stroke-linejoin="round"/>
<path d="M75.0156 153.736H77.6267V156.347H75.0156V153.736Z" fill="#2E3247"/>
<path d="M86.7656 149.167C87.1261 149.167 87.4184 148.874 87.4184 148.514C87.4184 148.153 87.1261 147.861 86.7656 147.861V149.167ZM80.2378 147.861C79.8773 147.861 79.5851 148.153 79.5851 148.514C79.5851 148.874 79.8773 149.167 80.2378 149.167V147.861ZM86.7656 155.694C87.1261 155.694 87.4184 155.402 87.4184 155.042C87.4184 154.681 87.1261 154.389 86.7656 154.389V155.694ZM80.2378 154.389C79.8773 154.389 79.5851 154.681 79.5851 155.042C79.5851 155.402 79.8773 155.694 80.2378 155.694V154.389ZM74.554 149.358C74.2991 149.613 74.2991 150.026 74.554 150.281C74.809 150.536 75.2223 150.536 75.4772 150.281L74.554 149.358ZM78.0883 147.67C78.3432 147.415 78.3432 147.002 78.0883 146.747C77.8334 146.492 77.4201 146.492 77.1652 146.747L78.0883 147.67ZM75.4772 146.747C75.2223 146.492 74.809 146.492 74.554 146.747C74.2991 147.002 74.2991 147.415 74.554 147.67L75.4772 146.747ZM77.1652 150.281C77.4201 150.536 77.8334 150.536 78.0883 150.281C78.3432 150.026 78.3432 149.613 78.0883 149.358L77.1652 150.281ZM75.0156 153.736V153.083C74.6551 153.083 74.3628 153.376 74.3628 153.736H75.0156ZM77.6267 153.736H78.2795C78.2795 153.376 77.9873 153.083 77.6267 153.083V153.736ZM77.6267 156.347V157C77.9873 157 78.2795 156.708 78.2795 156.347H77.6267ZM75.0156 156.347H74.3628C74.3628 156.708 74.6551 157 75.0156 157V156.347ZM86.7656 147.861H80.2378V149.167H86.7656V147.861ZM86.7656 154.389H80.2378V155.694H86.7656V154.389ZM75.4772 150.281L76.7828 148.975L75.8596 148.052L74.554 149.358L75.4772 150.281ZM76.7828 148.975L78.0883 147.67L77.1652 146.747L75.8596 148.052L76.7828 148.975ZM74.554 147.67L75.8596 148.975L76.7828 148.052L75.4772 146.747L74.554 147.67ZM75.8596 148.975L77.1652 150.281L78.0883 149.358L76.7828 148.052L75.8596 148.975ZM75.0156 154.389H77.6267V153.083H75.0156V154.389ZM76.974 153.736V156.347H78.2795V153.736H76.974ZM77.6267 155.694H75.0156V157H77.6267V155.694ZM75.6684 156.347V153.736H74.3628V156.347H75.6684Z" fill="#9095AD"/>
<path fill-rule="evenodd" clip-rule="evenodd" d="M79.4507 182.785C79.4507 182.604 79.5969 182.458 79.7771 182.458H81.7355C81.9157 182.458 82.0619 182.604 82.0619 182.785V183.71C82.0619 183.854 82.1572 183.98 82.2932 184.029C82.818 184.216 83.2985 184.497 83.7147 184.851C83.8247 184.944 83.9815 184.964 84.1066 184.891L84.9088 184.428C85.0649 184.338 85.2645 184.392 85.3546 184.548L86.3338 186.244C86.4239 186.4 86.3704 186.599 86.2143 186.69L85.4128 187.152C85.2879 187.224 85.2263 187.37 85.2521 187.512C85.3005 187.778 85.3257 188.053 85.3257 188.333C85.3257 188.614 85.3005 188.888 85.2521 189.155C85.2263 189.297 85.2879 189.442 85.4128 189.514L86.2143 189.977C86.3704 190.067 86.4239 190.267 86.3338 190.423L85.3546 192.119C85.2645 192.275 85.0649 192.328 84.9088 192.238L84.1066 191.775C83.9815 191.703 83.8247 191.722 83.7147 191.816C83.2985 192.17 82.818 192.45 82.2932 192.638C82.1572 192.686 82.0619 192.812 82.0619 192.957V193.882C82.0619 194.062 81.9157 194.208 81.7355 194.208H79.7771C79.5969 194.208 79.4507 194.062 79.4507 193.882V192.957C79.4507 192.812 79.3554 192.686 79.2194 192.638C78.6946 192.45 78.2141 192.17 77.7979 191.816C77.6879 191.722 77.5311 191.703 77.4061 191.775L76.6038 192.238C76.4477 192.328 76.2481 192.275 76.158 192.119L75.1788 190.423C75.0887 190.267 75.1422 190.067 75.2983 189.977L76.0998 189.514C76.2247 189.442 76.2863 189.297 76.2605 189.155C76.2121 188.888 76.1869 188.614 76.1869 188.333C76.1869 188.053 76.2121 187.778 76.2605 187.512C76.2863 187.37 76.2247 187.224 76.0998 187.152L75.2983 186.69C75.1422 186.599 75.0887 186.4 75.1788 186.244L76.158 184.548C76.2481 184.392 76.4477 184.338 76.6038 184.428L77.4061 184.891C77.5311 184.964 77.6879 184.944 77.7979 184.851C78.2141 184.497 78.6946 184.216 79.2194 184.029C79.3554 183.98 79.4507 183.854 79.4507 183.71V182.785ZM80.7563 190.292C81.8379 190.292 82.7146 189.415 82.7146 188.333C82.7146 187.252 81.8379 186.375 80.7563 186.375C79.6747 186.375 78.798 187.252 78.798 188.333C78.798 189.415 79.6747 190.292 80.7563 190.292Z" fill="#2E3247" stroke="#9095AD" stroke-width="1.30556"/>
<path opacity="0.6" d="M60 58.1042H101.778" stroke="#2E3247" stroke-width="0.652778"/>
<path fill-rule="evenodd" clip-rule="evenodd" d="M84.1541 31.0139C85.2356 31.0139 86.1124 31.8907 86.1124 32.9722V42.7639L80.8902 40.8056L75.668 42.7639V32.9722C75.668 31.8907 76.5447 31.0139 77.6263 31.0139H84.1541ZM81.27 35.4345L80.8902 33.999L80.5103 35.4345L79.0277 35.3522L80.2756 36.1571L79.7391 37.5417L80.8902 36.6036L82.0413 37.5417L81.5048 36.1571L82.7527 35.3522L81.27 35.4345Z" fill="#2E3247"/>
<path d="M86.1124 42.7639L85.8832 43.3751C86.0837 43.4503 86.3083 43.4224 86.4842 43.3005C86.6602 43.1785 86.7652 42.978 86.7652 42.7639H86.1124ZM80.8902 40.8056L81.1194 40.1944C80.9716 40.139 80.8088 40.139 80.661 40.1944L80.8902 40.8056ZM75.668 42.7639H75.0152C75.0152 42.978 75.1202 43.1785 75.2961 43.3005C75.4721 43.4224 75.6967 43.4503 75.8972 43.3751L75.668 42.7639ZM80.8902 33.999L81.5212 33.832C81.4455 33.5457 81.1864 33.3463 80.8902 33.3463C80.594 33.3463 80.3349 33.5457 80.2591 33.832L80.8902 33.999ZM81.27 35.4345L80.639 35.6015C80.7182 35.901 80.997 36.1035 81.3062 36.0863L81.27 35.4345ZM82.7527 35.3522L83.1065 35.9008C83.3554 35.7402 83.465 35.4322 83.3735 35.1505C83.282 34.8688 83.0122 34.684 82.7165 34.7004L82.7527 35.3522ZM81.5048 36.1571L81.151 35.6085C80.8907 35.7764 80.7842 36.1041 80.8961 36.3929L81.5048 36.1571ZM82.0413 37.5417L81.6289 38.0477C81.8585 38.2348 82.1853 38.2439 82.425 38.0698C82.6646 37.8957 82.757 37.5821 82.65 37.3059L82.0413 37.5417ZM80.8902 36.6036L81.3026 36.0976C81.0625 35.9019 80.7179 35.9019 80.4778 36.0976L80.8902 36.6036ZM79.7391 37.5417L79.1304 37.3059C79.0234 37.5821 79.1158 37.8957 79.3554 38.0698C79.5951 38.2439 79.9219 38.2348 80.1515 38.0477L79.7391 37.5417ZM80.2756 36.1571L80.8843 36.3929C80.9962 36.1041 80.8897 35.7764 80.6294 35.6085L80.2756 36.1571ZM79.0277 35.3522L79.0639 34.7004C78.7681 34.684 78.4984 34.8688 78.4069 35.1505C78.3153 35.4322 78.425 35.7402 78.6739 35.9008L79.0277 35.3522ZM80.5103 35.4345L80.4741 36.0863C80.7834 36.1035 81.0622 35.901 81.1414 35.6015L80.5103 35.4345ZM85.4596 32.9722V42.7639H86.7652V32.9722H85.4596ZM86.3416 42.1527L81.1194 40.1944L80.661 41.4168L85.8832 43.3751L86.3416 42.1527ZM80.661 40.1944L75.4388 42.1527L75.8972 43.3751L81.1194 41.4168L80.661 40.1944ZM77.6263 31.6667H84.1541V30.3611H77.6263V31.6667ZM76.3207 42.7639V32.9722H75.0152V42.7639H76.3207ZM80.2591 34.166L80.639 35.6015L81.9011 35.2676L81.5212 33.832L80.2591 34.166ZM81.3062 36.0863L82.7889 36.004L82.7165 34.7004L81.2339 34.7828L81.3062 36.0863ZM82.3989 34.8036L81.151 35.6085L81.8586 36.7056L83.1065 35.9008L82.3989 34.8036ZM80.8961 36.3929L81.4326 37.7775L82.65 37.3059L82.1135 35.9212L80.8961 36.3929ZM82.4537 37.0357L81.3026 36.0976L80.4778 37.1096L81.6289 38.0477L82.4537 37.0357ZM80.4778 36.0976L79.3267 37.0357L80.1515 38.0477L81.3026 37.1096L80.4778 36.0976ZM80.3478 37.7775L80.8843 36.3929L79.6669 35.9212L79.1304 37.3059L80.3478 37.7775ZM80.6294 35.6085L79.3815 34.8036L78.6739 35.9008L79.9217 36.7056L80.6294 35.6085ZM78.9915 36.004L80.4741 36.0863L80.5465 34.7828L79.0639 34.7004L78.9915 36.004ZM81.1414 35.6015L81.5212 34.166L80.2591 33.832L79.8793 35.2676L81.1414 35.6015ZM77.6263 30.3611C76.1842 30.3611 75.0152 31.5302 75.0152 32.9722H76.3207C76.3207 32.2512 76.9053 31.6667 77.6263 31.6667V30.3611ZM86.7652 32.9722C86.7652 31.5302 85.5962 30.3611 84.1541 30.3611V31.6667C84.8751 31.6667 85.4596 32.2512 85.4596 32.9722H86.7652Z" fill="#D0D2E0"/>
<rect x="100" y="101" width="2.61111" height="18.2778" fill="#1FA971"/>
<path d="M117.71 108.264L115.099 112.181L113.793 110.549" stroke="#1FA971" stroke-width="1.30556" stroke-linecap="round" stroke-linejoin="round"/>
<rect x="100" y="121" width="2.61111" height="18.2778" fill="#1FA971"/>
<path d="M117.71 128.264L115.099 132.181L113.793 130.549" stroke="#1FA971" stroke-width="1.30556" stroke-linecap="round" stroke-linejoin="round"/>
<rect x="100" y="142" width="2.61111" height="18.2778" fill="#1FA971"/>
<path d="M117.71 149.264L115.099 153.181L113.793 151.549" stroke="#1FA971" stroke-width="1.30556" stroke-linecap="round" stroke-linejoin="round"/>
<rect x="127" y="127" width="51" height="8" rx="4" fill="#5A5F7A"/>
<rect x="127" y="164" width="51" height="8" rx="4" fill="#5A5F7A"/>
<rect x="127" y="146" width="107" height="8" rx="4" fill="#9095AD"/>
<rect x="127" y="107" width="107" height="8" rx="4" fill="#9095AD"/>
<rect x="113" y="32" width="65" height="8" rx="4" fill="#747994"/>
<rect x="128" y="70" width="65" height="8" rx="4" fill="#D0D2E0"/>
<rect x="375" y="72" width="149" height="8" rx="4" fill="#D0D2E0"/>
<rect x="529" y="72" width="38" height="8" rx="4" fill="#E1E3ED"/>
<rect x="253" y="32" width="33" height="8" rx="4" fill="#5A5F7A"/>
<rect x="127" y="183" width="107" height="8" rx="4" fill="#9095AD"/>
</g>
<rect x="57" y="13" width="841.556" height="476" rx="17" stroke="#E1E3ED" stroke-width="6"/>
<rect x="57" y="13" width="841.556" height="476" rx="17" stroke="url(#paint3_radial_404_22808)" stroke-opacity="0.9" stroke-width="6"/>
</g>
<defs>
<filter id="filter0_d_404_22808" x="0" y="0" width="955.555" height="590" filterUnits="userSpaceOnUse" color-interpolation-filters="sRGB">
<feFlood flood-opacity="0" result="BackgroundImageFix"/>
<feColorMatrix in="SourceAlpha" type="matrix" values="0 0 0 0 0 0 0 0 0 0 0 0 0 0 0 0 0 0 127 0" result="hardAlpha"/>
<feOffset dy="44"/>
<feGaussianBlur stdDeviation="27"/>
<feComposite in2="hardAlpha" operator="out"/>
<feColorMatrix type="matrix" values="0 0 0 0 0 0 0 0 0 0.160784 0 0 0 0 0.105882 0 0 0 0.3 0"/>
<feBlend mode="normal" in2="BackgroundImageFix" result="effect1_dropShadow_404_22808"/>
<feBlend mode="normal" in="SourceGraphic" in2="effect1_dropShadow_404_22808" result="shape"/>
</filter>
<filter id="filter1_d_404_22808" x="296" y="57.7778" width="600" height="37.2084" filterUnits="userSpaceOnUse" color-interpolation-filters="sRGB">
<feFlood flood-opacity="0" result="BackgroundImageFix"/>
<feColorMatrix in="SourceAlpha" type="matrix" values="0 0 0 0 0 0 0 0 0 0 0 0 0 0 0 0 0 0 127 0" result="hardAlpha"/>
<feOffset dy="0.652778"/>
<feComposite in2="hardAlpha" operator="out"/>
<feColorMatrix type="matrix" values="0 0 0 0 0.815686 0 0 0 0 0.823529 0 0 0 0 0.878431 0 0 0 1 0"/>
<feBlend mode="normal" in2="BackgroundImageFix" result="effect1_dropShadow_404_22808"/>
<feBlend mode="normal" in="SourceGraphic" in2="effect1_dropShadow_404_22808" result="shape"/>
</filter>
<filter id="filter2_b_404_22808" x="290.778" y="10.7778" width="610.444" height="52.8751" filterUnits="userSpaceOnUse" color-interpolation-filters="sRGB">
<feFlood flood-opacity="0" result="BackgroundImageFix"/>
<feGaussianBlur in="BackgroundImage" stdDeviation="2.61111"/>
<feComposite in2="SourceAlpha" operator="in" result="effect1_backgroundBlur_404_22808"/>
<feBlend mode="normal" in="SourceGraphic" in2="effect1_backgroundBlur_404_22808" result="shape"/>
</filter>
<linearGradient id="paint0_linear_404_22808" x1="198.937" y1="475.555" x2="198.937" y2="486" gradientUnits="userSpaceOnUse">
<stop stop-color="#1B1E2E" stop-opacity="0"/>
<stop offset="1" stop-color="#1B1E2E"/>
</linearGradient>
<linearGradient id="paint1_linear_404_22808" x1="198.937" y1="94.3333" x2="198.937" y2="104.778" gradientUnits="userSpaceOnUse">
<stop stop-color="#1B1E2E"/>
<stop offset="1" stop-color="#1B1E2E" stop-opacity="0"/>
</linearGradient>
<radialGradient id="paint2_angular_404_22808" cx="0" cy="0" r="1" gradientUnits="userSpaceOnUse" gradientTransform="translate(81 465.111) rotate(90) scale(10.4444 10.5)">
<stop stop-color="white"/>
<stop offset="0.494792" stop-color="#58D09E"/>
<stop offset="0.927083" stop-color="#58D09E" stop-opacity="0"/>
<stop offset="1" stop-color="#58D09E" stop-opacity="0"/>
</radialGradient>
<radialGradient id="paint3_radial_404_22808" cx="0" cy="0" r="1" gradientUnits="userSpaceOnUse" gradientTransform="translate(477.778 251) rotate(90) scale(235 417.778)">
<stop stop-color="#6470F3"/>
<stop offset="1" stop-opacity="0"/>
<stop offset="1" stop-opacity="0"/>
</radialGradient>
<clipPath id="clip0_404_22808">
<rect x="60" y="16" width="835.556" height="470" rx="14" fill="white"/>
</clipPath>
<clipPath id="clip1_404_22808">
<rect width="10.4444" height="10.4444" fill="white" transform="translate(314.277 70.8333)"/>
</clipPath>
<clipPath id="clip2_404_22808">
<rect width="10.4444" height="10.4444" fill="white" transform="translate(314.277 31.6665)"/>
</clipPath>
<clipPath id="clip3_404_22808">
<rect x="312" y="109" width="573.44" height="392" rx="4" fill="white"/>
</clipPath>
<clipPath id="clip4_404_22808">
<rect width="17.92" height="17.92" fill="white" transform="translate(585.84 121.88)"/>
</clipPath>
<clipPath id="clip5_404_22808">
<rect width="13.44" height="13.44" fill="white" transform="translate(324.879 284.28)"/>
</clipPath>
<clipPath id="clip6_404_22808">
<rect width="13.44" height="13.44" fill="white" transform="translate(324.879 306.68)"/>
</clipPath>
<clipPath id="clip7_404_22808">
<rect width="13.44" height="13.44" fill="white" transform="translate(324.879 329.08)"/>
</clipPath>
<clipPath id="clip8_404_22808">
<rect width="13.44" height="13.44" fill="white" transform="translate(324.879 351.48)"/>
</clipPath>
<clipPath id="clip9_404_22808">
<rect width="13.44" height="13.44" fill="white" transform="translate(323.199 465.72)"/>
</clipPath>
<clipPath id="clip10_404_22808">
<rect width="194" height="470" fill="white" transform="translate(102 16)"/>
</clipPath>
<clipPath id="clip11_404_22808">
<rect width="194" height="391.667" fill="white" transform="translate(102 94.3333)"/>
</clipPath>
<clipPath id="clip12_404_22808">
<rect width="194" height="0.652813" fill="white" transform="translate(102 57.7778)"/>
</clipPath>
<clipPath id="clip13_404_22808">
<rect width="10.4444" height="10.4444" fill="white" transform="translate(75.8906 428.555)"/>
</clipPath>
</defs>
</svg>
