<svg width="625" height="309" viewBox="0 0 625 309" fill="none" xmlns="http://www.w3.org/2000/svg">
<g filter="url(#filter0_d_178_1109)">
<rect x="20" y="18" width="585" height="269" rx="15" fill="#F3F4FA"/>
</g>
<rect x="66" y="165" width="379" height="8" fill="#9AA2FC"/>
<rect x="66" y="220" width="379" height="8" fill="#A3E7CB"/>
<path d="M99.5025 91.7165C107.432 91.7165 113.861 85.2881 113.861 77.3583C113.861 69.4284 107.432 63 99.5025 63C91.5727 63 85.1443 69.4284 85.1443 77.3583C85.1443 85.2881 91.5727 91.7165 99.5025 91.7165Z" fill="#4956E3"/>
<path d="M66 130.005C66 120.868 69.5283 112.105 75.8089 105.643C82.0896 99.1808 90.6086 95.5486 99.4926 95.5449C108.38 95.5449 116.903 99.1753 123.187 105.638C129.472 112.1 133.003 120.865 133.005 130.005H66Z" fill="#4956E3"/>
<path d="M187.497 91.7165C195.427 91.7165 201.856 85.2881 201.856 77.3583C201.856 69.4284 195.427 63 187.497 63C179.568 63 173.139 69.4284 173.139 77.3583C173.139 85.2881 179.568 91.7165 187.497 91.7165Z" fill="#9AA2FC"/>
<path d="M153.995 130.005C153.995 120.868 157.523 112.105 163.804 105.643C170.085 99.1808 178.603 95.5486 187.487 95.5449C196.374 95.5449 204.897 99.1753 211.182 105.638C217.467 112.1 220.998 120.865 221 130.005H153.995Z" fill="#9AA2FC"/>
<rect x="131.391" y="76.8589" width="28.5692" height="5.02315" fill="#69D3A7"/>
<path d="M170.948 79.2131L157.527 86.9619L157.527 71.4644L170.948 79.2131Z" fill="#69D3A7"/>
<rect x="153.188" y="92.9136" width="28.5692" height="5.02315" transform="rotate(180 153.188 92.9136)" fill="#007780"/>
<path d="M113.63 90.5593L127.051 82.8106L127.051 98.3081L113.63 90.5593Z" fill="#007780"/>
<rect x="463" y="149" width="98" height="38.1111" rx="3.88889" fill="#C5C9FD"/>
<rect x="491" y="165.333" width="59.1111" height="5.44444" rx="2.72222" fill="#F0F1FF"/>
<path d="M484.473 170.026C484.473 170.673 484.305 171.283 483.969 171.855C483.645 172.415 483.16 172.882 482.513 173.255C481.878 173.616 481.125 173.828 480.254 173.89V175.402H479.06V173.871C477.815 173.759 476.813 173.386 476.054 172.751C475.295 172.104 474.903 171.233 474.878 170.138H477.678C477.753 171.034 478.213 171.575 479.06 171.762V168.196C478.164 167.972 477.442 167.748 476.894 167.524C476.347 167.3 475.874 166.94 475.476 166.442C475.077 165.944 474.878 165.266 474.878 164.407C474.878 163.324 475.264 162.441 476.036 161.756C476.82 161.072 477.828 160.68 479.06 160.58V159.068H480.254V160.58C481.449 160.68 482.401 161.041 483.11 161.663C483.832 162.285 484.236 163.144 484.324 164.239H481.505C481.468 163.878 481.337 163.567 481.113 163.306C480.901 163.032 480.615 162.839 480.254 162.727V166.255C481.188 166.492 481.922 166.722 482.457 166.946C483.004 167.157 483.477 167.512 483.876 168.01C484.274 168.495 484.473 169.167 484.473 170.026ZM477.604 164.276C477.604 164.687 477.728 165.023 477.977 165.284C478.226 165.533 478.587 165.739 479.06 165.9V162.671C478.612 162.733 478.257 162.901 477.996 163.175C477.734 163.449 477.604 163.816 477.604 164.276ZM480.254 171.799C480.727 171.712 481.094 171.519 481.356 171.22C481.629 170.922 481.766 170.561 481.766 170.138C481.766 169.727 481.636 169.397 481.374 169.148C481.113 168.9 480.74 168.694 480.254 168.532V171.799Z" fill="#4956E3"/>
<rect x="463" y="204" width="98" height="38.1111" rx="3.88889" fill="#69D3A7"/>
<rect x="491" y="220.333" width="59.1111" height="5.44444" rx="2.72222" fill="#6470F3"/>
<path d="M484.473 225.026C484.473 225.673 484.305 226.283 483.969 226.855C483.645 227.415 483.16 227.882 482.513 228.255C481.878 228.616 481.125 228.828 480.254 228.89V230.402H479.06V228.871C477.815 228.759 476.813 228.386 476.054 227.751C475.295 227.104 474.903 226.233 474.878 225.138H477.678C477.753 226.034 478.213 226.575 479.06 226.762V223.196C478.164 222.972 477.442 222.748 476.894 222.524C476.347 222.3 475.874 221.94 475.476 221.442C475.077 220.944 474.878 220.266 474.878 219.407C474.878 218.324 475.264 217.441 476.036 216.756C476.82 216.072 477.828 215.68 479.06 215.58V214.068H480.254V215.58C481.449 215.68 482.401 216.041 483.11 216.663C483.832 217.285 484.236 218.144 484.324 219.239H481.505C481.468 218.878 481.337 218.567 481.113 218.306C480.901 218.032 480.615 217.839 480.254 217.727V221.255C481.188 221.492 481.922 221.722 482.457 221.946C483.004 222.157 483.477 222.512 483.876 223.01C484.274 223.495 484.473 224.167 484.473 225.026ZM477.604 219.276C477.604 219.687 477.728 220.023 477.977 220.284C478.226 220.533 478.587 220.739 479.06 220.9V217.671C478.612 217.733 478.257 217.901 477.996 218.175C477.734 218.449 477.604 218.816 477.604 219.276ZM480.254 226.799C480.727 226.712 481.094 226.519 481.356 226.22C481.629 225.922 481.766 225.561 481.766 225.138C481.766 224.727 481.636 224.397 481.374 224.148C481.113 223.9 480.74 223.694 480.254 223.532V226.799Z" fill="#4956E3"/>
<defs>
<filter id="filter0_d_178_1109" x="0" y="0" width="625" height="309" filterUnits="userSpaceOnUse" color-interpolation-filters="sRGB">
<feFlood flood-opacity="0" result="BackgroundImageFix"/>
<feColorMatrix in="SourceAlpha" type="matrix" values="0 0 0 0 0 0 0 0 0 0 0 0 0 0 0 0 0 0 127 0" result="hardAlpha"/>
<feOffset dy="2"/>
<feGaussianBlur stdDeviation="10"/>
<feComposite in2="hardAlpha" operator="out"/>
<feColorMatrix type="matrix" values="0 0 0 0 0 0 0 0 0 0 0 0 0 0 0 0 0 0 0.1 0"/>
<feBlend mode="normal" in2="BackgroundImageFix" result="effect1_dropShadow_178_1109"/>
<feBlend mode="normal" in="SourceGraphic" in2="effect1_dropShadow_178_1109" result="shape"/>
</filter>
</defs>
</svg>
