<svg width="1440" height="568" viewBox="0 0 1440 568" fill="none" xmlns="http://www.w3.org/2000/svg">
<g clip-path="url(#clip0_732_32443)">
<rect width="1440" height="568" fill="#C2F1DE"/>
<path d="M-223.312 740.604C-295.565 690.686 -364.753 618.317 -379.529 533.256C-396.304 436.225 -335.525 305.157 -258.921 219.535C-164.391 113.851 -50.8811 64.2767 87.1505 26.4384C87.1505 26.4384 146.82 15.8087 157.159 30.6139C174.502 55.512 173.285 89.7248 164.626 125.754C161.073 140.447 156.288 155.45 151.013 170.239C149.605 174.188 148.168 178.114 146.702 182.018C136.539 209.138 125.359 235.138 118.017 256.672C94.8507 324.563 78.0572 414.551 31.4915 477.408C-3.41443 524.535 -25.1969 573.877 -46.607 623.626C-57.8577 649.764 -69.018 676.025 -81.9195 702.122C-91.6707 721.823 -107.517 736.79 -125.998 746.001C-156.396 761.212 -194.099 760.82 -223.312 740.604Z" fill="#69D3A7"/>
<path d="M-21.9233 628.763C-35.2443 619.145 -46.4013 607.387 -54.9808 593.926C-92.6527 534.302 -36.897 449.349 -36.897 449.349C-20.2253 421.791 -3.64882 394.195 13.1117 366.664C41.8058 319.531 64.5321 271.032 108.592 231.829C123.721 218.369 142.64 199.637 162.862 183.665C161.546 187.542 160.203 191.396 158.831 195.228C149.329 221.851 138.875 247.375 132.01 268.515C110.35 335.162 94.6476 423.5 51.1079 485.205C18.4625 531.489 -1.93541 579.92 -21.9233 628.763Z" fill="#007780"/>
<path d="M341.722 290.583C341.722 290.583 328.567 372.54 297.655 430.432C266.742 488.324 237.547 547.479 198.649 577.691C159.751 607.903 88.684 607.088 50.325 567.708C11.966 528.328 41.5375 453.465 41.5375 453.465C50.0553 429.425 58.5028 405.379 67.0637 381.355C81.7408 340.206 91.6223 299.045 119.384 261.39C137.243 237.131 162.419 196.459 190.587 182.649C217.705 169.36 283.614 179.798 306.858 207.731C330.103 235.663 344.448 245.896 341.719 290.595L341.722 290.583Z" fill="#B7E7F0"/>
<path d="M1988.42 271.932C1876.75 338.891 1733.13 400.127 1598.49 405.045C1444.94 410.573 1280.39 333.959 1191.84 246.726C1082.54 139.076 1066.79 18.8791 1081.16 -124.653C1081.16 -124.653 1095.93 -186.029 1123.35 -194.712C1169.45 -209.27 1219.92 -204.032 1269.29 -191.083C1289.41 -185.779 1309.36 -179.198 1328.74 -172.149C1333.92 -170.268 1339.05 -168.359 1344.12 -166.423C1379.41 -153.003 1412.5 -138.688 1440.9 -128.765C1530.4 -97.4606 1656.19 -69.9875 1726.16 -15.6933C1778.62 25.007 1841.13 52.7423 1904.45 80.1501C1937.71 94.5519 1971.2 108.877 2003.55 124.938C2027.97 137.074 2042.19 154.797 2046.46 174.5C2053.56 206.917 2033.62 244.864 1988.42 271.932Z" fill="#69D3A7"/>
<path d="M1897.41 93.3082C1875.08 106.892 1850.64 117.814 1825.01 125.67C1711.67 160.102 1611.32 87.8686 1611.32 87.8686C1577.98 66.0051 1544.53 44.2425 1511.28 22.2838C1454.35 -15.3093 1391.98 -46.4558 1355.92 -100.107C1343.54 -118.528 1325.12 -141.799 1311.69 -166.174C1316.96 -164.239 1322.17 -162.277 1327.34 -160.286C1363.24 -146.484 1396.91 -131.762 1425.79 -121.557C1516.85 -89.3627 1644.82 -61.1086 1716 -5.27093C1769.4 36.5975 1832.97 65.1548 1897.41 93.3082Z" fill="#003131"/>
<path d="M1532.99 -281.15C1532.99 -281.15 1626.92 -255.694 1680.01 -217.443C1733.1 -179.192 1788.82 -142.348 1802.57 -101.041C1816.32 -59.7348 1771.73 6.76494 1699.21 36.4242C1626.68 66.0834 1551.65 26.3722 1551.65 26.3722C1526.96 14.5373 1502.21 2.76722 1477.56 -9.10555C1435.35 -29.4543 1390.19 -45.309 1360.35 -77.366C1341.11 -97.994 1305.93 -128.11 1306.01 -156.731C1306.1 -184.283 1359.5 -244.406 1408.51 -261.727C1457.52 -279.048 1479.05 -290.859 1533 -281.144L1532.99 -281.15Z" fill="#A3E7CB"/>
<g clip-path="url(#clip1_732_32443)">
<rect x="171" y="240" width="1098" height="799.699" rx="4.23121" fill="#9095AD"/>
<rect x="171" y="240" width="1098" height="55.0058" fill="#434861"/>
<circle cx="209.074" cy="267.503" r="9.52023" fill="#F8C4CD"/>
<circle cx="245.035" cy="267.503" r="9.52023" fill="#F1E08F"/>
<circle cx="281.02" cy="267.503" r="9.52023" fill="#69D3A7"/>
<g clip-path="url(#clip2_732_32443)">
<rect x="171" y="294.581" width="1098" height="750.586" rx="2.14453" fill="white"/>
<rect x="406.9" y="294.58" width="862.102" height="82.5644" fill="#A06CE4"/>
<path d="M751.709 343.098L748.891 337.983H748.1V343.098H744.799V329.549H750.339C751.406 329.549 752.314 329.735 753.06 330.109C753.819 330.482 754.385 330.996 754.758 331.653C755.132 332.296 755.318 333.017 755.318 333.814C755.318 334.715 755.061 335.519 754.546 336.227C754.044 336.935 753.298 337.436 752.307 337.732L755.434 343.098H751.709ZM748.1 335.648H750.146C750.75 335.648 751.201 335.5 751.497 335.204C751.805 334.908 751.96 334.49 751.96 333.949C751.96 333.435 751.805 333.029 751.497 332.734C751.201 332.438 750.75 332.29 750.146 332.29H748.1V335.648ZM767.542 337.539C767.542 337.848 767.523 338.17 767.484 338.504H760.015C760.066 339.174 760.279 339.688 760.652 340.048C761.038 340.396 761.507 340.57 762.061 340.57C762.884 340.57 763.457 340.222 763.778 339.527H767.291C767.111 340.235 766.783 340.872 766.307 341.438C765.844 342.004 765.258 342.448 764.551 342.77C763.843 343.092 763.051 343.252 762.177 343.252C761.121 343.252 760.182 343.027 759.359 342.577C758.535 342.127 757.892 341.483 757.429 340.647C756.965 339.81 756.734 338.833 756.734 337.713C756.734 336.594 756.959 335.616 757.409 334.779C757.872 333.943 758.516 333.3 759.339 332.849C760.163 332.399 761.109 332.174 762.177 332.174C763.219 332.174 764.145 332.393 764.956 332.83C765.766 333.267 766.397 333.892 766.847 334.702C767.311 335.513 767.542 336.459 767.542 337.539ZM764.165 336.671C764.165 336.105 763.971 335.654 763.585 335.32C763.199 334.985 762.717 334.818 762.138 334.818C761.585 334.818 761.115 334.979 760.729 335.301C760.356 335.622 760.124 336.079 760.034 336.671H764.165ZM768.627 337.694C768.627 336.587 768.833 335.616 769.245 334.779C769.669 333.943 770.242 333.3 770.962 332.849C771.683 332.399 772.487 332.174 773.375 332.174C774.134 332.174 774.797 332.328 775.363 332.637C775.942 332.946 776.386 333.351 776.695 333.853V332.328H779.995V343.098H776.695V341.573C776.373 342.075 775.923 342.48 775.344 342.789C774.778 343.098 774.115 343.252 773.356 343.252C772.481 343.252 771.683 343.027 770.962 342.577C770.242 342.114 769.669 341.464 769.245 340.628C768.833 339.778 768.627 338.8 768.627 337.694ZM776.695 337.713C776.695 336.89 776.463 336.24 776 335.764C775.55 335.288 774.996 335.05 774.34 335.05C773.684 335.05 773.124 335.288 772.661 335.764C772.211 336.227 771.985 336.87 771.985 337.694C771.985 338.517 772.211 339.174 772.661 339.662C773.124 340.139 773.684 340.377 774.34 340.377C774.996 340.377 775.55 340.139 776 339.662C776.463 339.186 776.695 338.537 776.695 337.713ZM785.683 328.815V343.098H782.383V328.815H785.683ZM810.81 329.549L807.278 343.098H803.283L801.121 334.181L798.882 343.098H794.887L791.451 329.549H794.983L796.933 339.412L799.345 329.549H802.974L805.29 339.412L807.258 329.549H810.81ZM817.367 343.252C816.312 343.252 815.36 343.027 814.511 342.577C813.675 342.127 813.012 341.483 812.523 340.647C812.047 339.81 811.809 338.833 811.809 337.713C811.809 336.607 812.053 335.635 812.542 334.799C813.031 333.949 813.7 333.3 814.549 332.849C815.399 332.399 816.351 332.174 817.406 332.174C818.461 332.174 819.413 332.399 820.263 332.849C821.112 333.3 821.781 333.949 822.27 334.799C822.759 335.635 823.003 336.607 823.003 337.713C823.003 338.82 822.752 339.798 822.25 340.647C821.762 341.483 821.086 342.127 820.224 342.577C819.375 343.027 818.423 343.252 817.367 343.252ZM817.367 340.396C817.998 340.396 818.532 340.164 818.969 339.701C819.42 339.238 819.645 338.575 819.645 337.713C819.645 336.851 819.426 336.188 818.989 335.725C818.564 335.262 818.036 335.03 817.406 335.03C816.763 335.03 816.229 335.262 815.804 335.725C815.379 336.175 815.167 336.838 815.167 337.713C815.167 338.575 815.373 339.238 815.785 339.701C816.209 340.164 816.737 340.396 817.367 340.396ZM828.055 334.123C828.441 333.531 828.923 333.068 829.502 332.734C830.081 332.386 830.725 332.212 831.432 332.212V335.706H830.525C829.702 335.706 829.084 335.886 828.672 336.246C828.26 336.594 828.055 337.211 828.055 338.099V343.098H824.754V332.328H828.055V334.123ZM836.31 328.815V343.098H833.01V328.815H836.31ZM838.046 337.694C838.046 336.587 838.252 335.616 838.663 334.779C839.088 333.943 839.661 333.3 840.381 332.849C841.102 332.399 841.906 332.174 842.794 332.174C843.501 332.174 844.145 332.322 844.724 332.618C845.316 332.914 845.779 333.313 846.114 333.814V328.815H849.414V343.098H846.114V341.554C845.805 342.069 845.361 342.48 844.782 342.789C844.216 343.098 843.553 343.252 842.794 343.252C841.906 343.252 841.102 343.027 840.381 342.577C839.661 342.114 839.088 341.464 838.663 340.628C838.252 339.778 838.046 338.8 838.046 337.694ZM846.114 337.713C846.114 336.89 845.882 336.24 845.419 335.764C844.968 335.288 844.415 335.05 843.759 335.05C843.103 335.05 842.543 335.288 842.08 335.764C841.629 336.227 841.404 336.87 841.404 337.694C841.404 338.517 841.629 339.174 842.08 339.662C842.543 340.139 843.103 340.377 843.759 340.377C844.415 340.377 844.968 340.139 845.419 339.662C845.882 339.186 846.114 338.537 846.114 337.713ZM864.326 340.705H859.269L858.459 343.098H855.004L859.906 329.549H863.728L868.63 343.098H865.137L864.326 340.705ZM863.477 338.157L861.798 333.197L860.138 338.157H863.477ZM873.423 333.853C873.744 333.351 874.188 332.946 874.755 332.637C875.321 332.328 875.983 332.174 876.742 332.174C877.63 332.174 878.435 332.399 879.155 332.849C879.876 333.3 880.442 333.943 880.854 334.779C881.278 335.616 881.49 336.587 881.49 337.694C881.49 338.8 881.278 339.778 880.854 340.628C880.442 341.464 879.876 342.114 879.155 342.577C878.435 343.027 877.63 343.252 876.742 343.252C875.996 343.252 875.334 343.098 874.755 342.789C874.188 342.48 873.744 342.082 873.423 341.593V348.232H870.122V332.328H873.423V333.853ZM878.132 337.694C878.132 336.87 877.901 336.227 877.437 335.764C876.987 335.288 876.427 335.05 875.758 335.05C875.102 335.05 874.542 335.288 874.079 335.764C873.629 336.24 873.403 336.89 873.403 337.713C873.403 338.537 873.629 339.186 874.079 339.662C874.542 340.139 875.102 340.377 875.758 340.377C876.414 340.377 876.974 340.139 877.437 339.662C877.901 339.174 878.132 338.517 878.132 337.694ZM886.522 333.853C886.844 333.351 887.288 332.946 887.854 332.637C888.42 332.328 889.083 332.174 889.842 332.174C890.73 332.174 891.534 332.399 892.255 332.849C892.975 333.3 893.541 333.943 893.953 334.779C894.378 335.616 894.59 336.587 894.59 337.694C894.59 338.8 894.378 339.778 893.953 340.628C893.541 341.464 892.975 342.114 892.255 342.577C891.534 343.027 890.73 343.252 889.842 343.252C889.096 343.252 888.433 343.098 887.854 342.789C887.288 342.48 886.844 342.082 886.522 341.593V348.232H883.222V332.328H886.522V333.853ZM891.232 337.694C891.232 336.87 891 336.227 890.537 335.764C890.087 335.288 889.527 335.05 888.858 335.05C888.202 335.05 887.642 335.288 887.179 335.764C886.728 336.24 886.503 336.89 886.503 337.713C886.503 338.537 886.728 339.186 887.179 339.662C887.642 340.139 888.202 340.377 888.858 340.377C889.514 340.377 890.074 340.139 890.537 339.662C891 339.174 891.232 338.517 891.232 337.694Z" fill="white"/>
<g clip-path="url(#clip3_732_32443)">
<path d="M724.309 324.606H700.719C700.151 324.607 699.606 324.833 699.204 325.235C698.802 325.637 698.575 326.182 698.575 326.751V346.052C698.575 346.62 698.802 347.165 699.204 347.567C699.606 347.969 700.151 348.196 700.719 348.196H724.309C724.878 348.196 725.423 347.969 725.825 347.567C726.227 347.165 726.453 346.62 726.454 346.052V326.751C726.453 326.182 726.227 325.637 725.825 325.235C725.423 324.833 724.878 324.607 724.309 324.606ZM704.472 332.112C704.154 332.112 703.843 332.018 703.579 331.841C703.314 331.665 703.108 331.413 702.986 331.119C702.864 330.826 702.833 330.502 702.895 330.19C702.957 329.878 703.11 329.592 703.335 329.367C703.56 329.142 703.846 328.988 704.158 328.926C704.47 328.864 704.794 328.896 705.088 329.018C705.382 329.14 705.633 329.346 705.81 329.61C705.986 329.875 706.081 330.186 706.081 330.504C706.081 330.93 705.911 331.34 705.609 331.641C705.308 331.943 704.899 332.112 704.472 332.112ZM709.833 332.112C709.515 332.112 709.204 332.018 708.94 331.841C708.675 331.665 708.469 331.413 708.348 331.119C708.226 330.826 708.194 330.502 708.256 330.19C708.318 329.878 708.471 329.592 708.696 329.367C708.921 329.142 709.208 328.988 709.52 328.926C709.832 328.864 710.155 328.896 710.449 329.018C710.743 329.14 710.994 329.346 711.171 329.61C711.348 329.875 711.442 330.186 711.442 330.504C711.442 330.93 711.272 331.34 710.971 331.641C710.669 331.943 710.26 332.112 709.833 332.112Z" fill="white"/>
</g>
<path d="M1176.79 323.242C1176.79 321.033 1178.58 319.242 1180.79 319.242H1228.52C1230.73 319.242 1232.52 321.033 1232.52 323.242V349.555C1232.52 351.764 1230.73 353.555 1228.52 353.555H1180.79C1178.58 353.555 1176.79 351.764 1176.79 349.555V323.242Z" fill="white"/>
<path d="M1190.91 340.399H1192.8V334.461H1192.84L1196.95 340.399H1198.59V331.333H1196.7V337.226H1196.67L1192.57 331.333H1190.91V340.399ZM1200.11 340.399H1206.11V338.834H1202.01V336.554H1205.88V335.071H1202.01V332.897H1206.11V331.333H1200.11V340.399ZM1209.4 340.399H1211.25L1212.92 334.323H1212.96L1214.63 340.399H1216.48L1218.89 331.333H1216.92L1215.48 337.829H1215.44L1213.77 331.333H1212.11L1210.44 337.829H1210.4L1208.97 331.333H1207L1209.4 340.399Z" fill="#003220"/>
<rect x="170.464" y="294.044" width="236.971" height="751.658" fill="white" stroke="#C4C4C4" stroke-width="1.07227"/>
<circle cx="221.389" cy="355.699" r="21.4453" fill="#1FA971"/>
<rect x="255.184" y="334.79" width="69.6973" height="20.373" rx="9.11426" fill="#9095AD" stroke="white" stroke-width="1.07227"/>
<rect x="199.411" y="434.512" width="56.8301" height="20.373" rx="9.11426" fill="#9095AD" stroke="white" stroke-width="1.07227"/>
<rect x="199.411" y="464.535" width="112.588" height="11.7949" rx="5.89746" fill="#BFC2D4" stroke="white" stroke-width="1.07227"/>
<rect x="255.184" y="362.67" width="72.9141" height="11.7949" rx="5.89746" fill="#BFC2D4" stroke="white" stroke-width="1.07227"/>
<circle cx="465.883" cy="443.624" r="21.4453" fill="#A3E7CB"/>
<rect x="504.484" y="424.323" width="102.937" height="19.3008" rx="8.57812" fill="#9095AD"/>
<rect x="504.484" y="454.346" width="205.875" height="10.7227" rx="5.36133" fill="#BFC2D4"/>
<path d="M1163.68 438.343H1160.32V441.778H1157.2V438.343H1153.84V435.39H1157.2V431.935H1160.32V435.39H1163.68V438.343ZM1176.26 439.675C1176.26 440.382 1176.08 441.038 1175.7 441.643C1175.34 442.235 1174.8 442.724 1174.08 443.11C1173.37 443.483 1172.53 443.689 1171.55 443.728V445.291H1170.32V443.708C1168.95 443.593 1167.85 443.187 1167.02 442.492C1166.18 441.785 1165.74 440.826 1165.69 439.617H1169.2C1169.28 440.389 1169.65 440.884 1170.32 441.103V438.053C1169.31 437.796 1168.51 437.545 1167.91 437.301C1167.31 437.056 1166.79 436.664 1166.34 436.123C1165.89 435.583 1165.67 434.843 1165.67 433.904C1165.67 432.733 1166.1 431.793 1166.96 431.086C1167.84 430.378 1168.95 429.979 1170.32 429.889V428.326H1171.55V429.889C1172.9 429.992 1173.97 430.384 1174.76 431.066C1175.54 431.748 1175.98 432.694 1176.07 433.904H1172.54C1172.46 433.209 1172.13 432.758 1171.55 432.553V435.544C1172.62 435.84 1173.45 436.104 1174.02 436.335C1174.6 436.567 1175.12 436.953 1175.57 437.494C1176.03 438.021 1176.26 438.748 1176.26 439.675ZM1169.16 433.749C1169.16 434.071 1169.26 434.341 1169.45 434.56C1169.66 434.779 1169.95 434.972 1170.32 435.139V432.456C1169.96 432.52 1169.68 432.662 1169.47 432.881C1169.26 433.087 1169.16 433.376 1169.16 433.749ZM1171.55 441.161C1171.94 441.096 1172.24 440.942 1172.46 440.697C1172.69 440.453 1172.81 440.151 1172.81 439.79C1172.81 439.456 1172.7 439.186 1172.48 438.98C1172.27 438.761 1171.97 438.574 1171.55 438.42V441.161ZM1181.94 439.482C1182.13 440.498 1182.73 441.006 1183.72 441.006C1184.4 441.006 1184.88 440.704 1185.16 440.099C1185.45 439.494 1185.59 438.51 1185.59 437.146C1185.31 437.545 1184.92 437.854 1184.43 438.073C1183.94 438.291 1183.4 438.401 1182.79 438.401C1181.97 438.401 1181.23 438.233 1180.59 437.899C1179.95 437.551 1179.44 437.043 1179.07 436.374C1178.71 435.692 1178.53 434.869 1178.53 433.904C1178.53 432.951 1178.72 432.121 1179.1 431.414C1179.5 430.706 1180.06 430.159 1180.78 429.773C1181.52 429.387 1182.38 429.194 1183.37 429.194C1185.27 429.194 1186.61 429.786 1187.37 430.97C1188.12 432.154 1188.5 433.897 1188.5 436.2C1188.5 437.873 1188.35 439.256 1188.04 440.35C1187.74 441.431 1187.24 442.254 1186.52 442.821C1185.81 443.387 1184.84 443.67 1183.6 443.67C1182.62 443.67 1181.79 443.477 1181.09 443.091C1180.41 442.705 1179.88 442.196 1179.51 441.566C1179.15 440.936 1178.94 440.241 1178.89 439.482H1181.94ZM1183.54 435.795C1184.08 435.795 1184.51 435.634 1184.84 435.313C1185.16 434.978 1185.32 434.528 1185.32 433.961C1185.32 433.344 1185.15 432.868 1184.82 432.533C1184.48 432.199 1184.03 432.031 1183.47 432.031C1182.9 432.031 1182.45 432.205 1182.12 432.553C1181.79 432.887 1181.63 433.35 1181.63 433.942C1181.63 434.495 1181.79 434.946 1182.12 435.293C1182.45 435.628 1182.93 435.795 1183.54 435.795ZM1197.23 433.325C1197.13 432.848 1196.95 432.495 1196.69 432.263C1196.43 432.019 1196.07 431.896 1195.59 431.896C1194.86 431.896 1194.33 432.218 1194.01 432.861C1193.69 433.492 1193.52 434.495 1193.51 435.872C1193.79 435.422 1194.2 435.068 1194.72 434.811C1195.26 434.553 1195.86 434.425 1196.5 434.425C1197.76 434.425 1198.77 434.824 1199.53 435.621C1200.3 436.419 1200.69 437.532 1200.69 438.96C1200.69 439.9 1200.49 440.723 1200.11 441.431C1199.73 442.139 1199.18 442.692 1198.45 443.091C1197.73 443.49 1196.87 443.689 1195.88 443.689C1193.9 443.689 1192.52 443.071 1191.75 441.836C1190.98 440.588 1190.59 438.8 1190.59 436.471C1190.59 434.026 1191 432.212 1191.81 431.028C1192.63 429.831 1193.94 429.233 1195.75 429.233C1196.71 429.233 1197.52 429.426 1198.18 429.812C1198.85 430.185 1199.35 430.68 1199.68 431.298C1200.03 431.916 1200.24 432.591 1200.3 433.325H1197.23ZM1195.71 437.03C1195.15 437.03 1194.69 437.198 1194.32 437.532C1193.96 437.854 1193.78 438.317 1193.78 438.922C1193.78 439.539 1193.94 440.022 1194.28 440.369C1194.63 440.717 1195.12 440.89 1195.75 440.89C1196.31 440.89 1196.76 440.723 1197.08 440.389C1197.41 440.041 1197.58 439.572 1197.58 438.98C1197.58 438.375 1197.42 437.899 1197.1 437.551C1196.78 437.204 1196.31 437.03 1195.71 437.03ZM1204.43 443.766C1203.85 443.766 1203.37 443.599 1203 443.264C1202.64 442.917 1202.46 442.492 1202.46 441.991C1202.46 441.476 1202.64 441.045 1203 440.697C1203.37 440.35 1203.85 440.176 1204.43 440.176C1204.99 440.176 1205.46 440.35 1205.82 440.697C1206.19 441.045 1206.38 441.476 1206.38 441.991C1206.38 442.492 1206.19 442.917 1205.82 443.264C1205.46 443.599 1204.99 443.766 1204.43 443.766ZM1217.92 432.398H1211.9V435.062C1212.16 434.779 1212.52 434.547 1212.98 434.367C1213.44 434.187 1213.95 434.097 1214.49 434.097C1215.45 434.097 1216.25 434.315 1216.88 434.753C1217.52 435.19 1217.99 435.756 1218.29 436.451C1218.58 437.146 1218.73 437.899 1218.73 438.709C1218.73 440.215 1218.31 441.412 1217.46 442.299C1216.61 443.174 1215.41 443.612 1213.87 443.612C1212.84 443.612 1211.94 443.438 1211.19 443.091C1210.43 442.73 1209.84 442.235 1209.43 441.605C1209.02 440.974 1208.79 440.247 1208.75 439.424H1211.98C1212.05 439.822 1212.24 440.157 1212.54 440.427C1212.83 440.685 1213.24 440.813 1213.75 440.813C1214.36 440.813 1214.81 440.62 1215.1 440.234C1215.4 439.848 1215.55 439.334 1215.55 438.69C1215.55 438.06 1215.39 437.577 1215.08 437.243C1214.78 436.908 1214.33 436.741 1213.73 436.741C1213.3 436.741 1212.94 436.85 1212.65 437.069C1212.37 437.275 1212.18 437.551 1212.09 437.899H1208.91V429.503H1217.92V432.398ZM1220.44 440.968C1220.88 440.62 1221.08 440.459 1221.04 440.485C1222.3 439.443 1223.29 438.587 1224.01 437.918C1224.74 437.249 1225.36 436.548 1225.86 435.814C1226.36 435.081 1226.61 434.367 1226.61 433.672C1226.61 433.144 1226.49 432.733 1226.25 432.437C1226 432.141 1225.64 431.993 1225.15 431.993C1224.66 431.993 1224.27 432.179 1223.99 432.553C1223.72 432.913 1223.58 433.427 1223.58 434.097H1220.4C1220.43 433.003 1220.66 432.089 1221.09 431.356C1221.54 430.622 1222.13 430.082 1222.85 429.735C1223.58 429.387 1224.39 429.213 1225.28 429.213C1226.81 429.213 1227.97 429.606 1228.74 430.391C1229.52 431.176 1229.91 432.199 1229.91 433.46C1229.91 434.836 1229.45 436.117 1228.51 437.301C1227.57 438.471 1226.37 439.617 1224.92 440.736H1230.13V443.419H1220.44V440.968Z" fill="#1FA971"/>
<line x1="445.51" y1="498.845" x2="1230.41" y2="498.845" stroke="#D0D2E0" stroke-width="1.07227"/>
<circle cx="465.883" cy="540.128" r="21.4453" fill="#C5C9FD"/>
<rect x="504.484" y="520.827" width="102.937" height="19.3008" rx="8.57812" fill="#9095AD"/>
<rect x="504.484" y="550.85" width="205.875" height="10.7227" rx="5.36133" fill="#BFC2D4"/>
<path d="M1163.68 534.847H1160.32V538.282H1157.2V534.847H1153.84V531.894H1157.2V528.439H1160.32V531.894H1163.68V534.847ZM1176.26 536.178C1176.26 536.886 1176.08 537.542 1175.7 538.147C1175.34 538.739 1174.8 539.228 1174.08 539.614C1173.37 539.987 1172.53 540.193 1171.55 540.232V541.795H1170.32V540.212C1168.95 540.096 1167.85 539.691 1167.02 538.996C1166.18 538.289 1165.74 537.33 1165.69 536.121H1169.2C1169.28 536.893 1169.65 537.388 1170.32 537.607V534.557C1169.31 534.3 1168.51 534.049 1167.91 533.804C1167.31 533.56 1166.79 533.168 1166.34 532.627C1165.89 532.087 1165.67 531.347 1165.67 530.407C1165.67 529.237 1166.1 528.297 1166.96 527.59C1167.84 526.882 1168.95 526.483 1170.32 526.393V524.83H1171.55V526.393C1172.9 526.496 1173.97 526.888 1174.76 527.57C1175.54 528.252 1175.98 529.198 1176.07 530.407H1172.54C1172.46 529.713 1172.13 529.262 1171.55 529.056V532.048C1172.62 532.344 1173.45 532.608 1174.02 532.839C1174.6 533.071 1175.12 533.457 1175.57 533.997C1176.03 534.525 1176.26 535.252 1176.26 536.178ZM1169.16 530.253C1169.16 530.575 1169.26 530.845 1169.45 531.064C1169.66 531.282 1169.95 531.475 1170.32 531.643V528.96C1169.96 529.024 1169.68 529.166 1169.47 529.385C1169.26 529.59 1169.16 529.88 1169.16 530.253ZM1171.55 537.665C1171.94 537.6 1172.24 537.446 1172.46 537.201C1172.69 536.957 1172.81 536.655 1172.81 536.294C1172.81 535.96 1172.7 535.689 1172.48 535.484C1172.27 535.265 1171.97 535.078 1171.55 534.924V537.665ZM1181.94 535.985C1182.13 537.002 1182.73 537.51 1183.72 537.51C1184.4 537.51 1184.88 537.208 1185.16 536.603C1185.45 535.998 1185.59 535.014 1185.59 533.65C1185.31 534.049 1184.92 534.358 1184.43 534.576C1183.94 534.795 1183.4 534.905 1182.79 534.905C1181.97 534.905 1181.23 534.737 1180.59 534.403C1179.95 534.055 1179.44 533.547 1179.07 532.878C1178.71 532.196 1178.53 531.373 1178.53 530.407C1178.53 529.455 1178.72 528.625 1179.1 527.918C1179.5 527.21 1180.06 526.663 1180.78 526.277C1181.52 525.891 1182.38 525.698 1183.37 525.698C1185.27 525.698 1186.61 526.29 1187.37 527.474C1188.12 528.658 1188.5 530.401 1188.5 532.704C1188.5 534.377 1188.35 535.76 1188.04 536.854C1187.74 537.935 1187.24 538.758 1186.52 539.324C1185.81 539.891 1184.84 540.174 1183.6 540.174C1182.62 540.174 1181.79 539.981 1181.09 539.595C1180.41 539.209 1179.88 538.7 1179.51 538.07C1179.15 537.439 1178.94 536.745 1178.89 535.985H1181.94ZM1183.54 532.299C1184.08 532.299 1184.51 532.138 1184.84 531.816C1185.16 531.482 1185.32 531.032 1185.32 530.465C1185.32 529.848 1185.15 529.372 1184.82 529.037C1184.48 528.703 1184.03 528.535 1183.47 528.535C1182.9 528.535 1182.45 528.709 1182.12 529.056C1181.79 529.391 1181.63 529.854 1181.63 530.446C1181.63 530.999 1181.79 531.45 1182.12 531.797C1182.45 532.132 1182.93 532.299 1183.54 532.299ZM1197.23 529.828C1197.13 529.352 1196.95 528.999 1196.69 528.767C1196.43 528.522 1196.07 528.4 1195.59 528.4C1194.86 528.4 1194.33 528.722 1194.01 529.365C1193.69 529.996 1193.52 530.999 1193.51 532.376C1193.79 531.926 1194.2 531.572 1194.72 531.315C1195.26 531.057 1195.86 530.929 1196.5 530.929C1197.76 530.929 1198.77 531.327 1199.53 532.125C1200.3 532.923 1200.69 534.036 1200.69 535.464C1200.69 536.404 1200.49 537.227 1200.11 537.935C1199.73 538.642 1199.18 539.196 1198.45 539.595C1197.73 539.994 1196.87 540.193 1195.88 540.193C1193.9 540.193 1192.52 539.575 1191.75 538.34C1190.98 537.092 1190.59 535.303 1190.59 532.974C1190.59 530.53 1191 528.715 1191.81 527.532C1192.63 526.335 1193.94 525.737 1195.75 525.737C1196.71 525.737 1197.52 525.93 1198.18 526.316C1198.85 526.689 1199.35 527.184 1199.68 527.802C1200.03 528.42 1200.24 529.095 1200.3 529.828H1197.23ZM1195.71 533.534C1195.15 533.534 1194.69 533.701 1194.32 534.036C1193.96 534.358 1193.78 534.821 1193.78 535.426C1193.78 536.043 1193.94 536.526 1194.28 536.873C1194.63 537.221 1195.12 537.394 1195.75 537.394C1196.31 537.394 1196.76 537.227 1197.08 536.893C1197.41 536.545 1197.58 536.075 1197.58 535.484C1197.58 534.879 1197.42 534.403 1197.1 534.055C1196.78 533.708 1196.31 533.534 1195.71 533.534ZM1204.43 540.27C1203.85 540.27 1203.37 540.103 1203 539.768C1202.64 539.421 1202.46 538.996 1202.46 538.495C1202.46 537.98 1202.64 537.549 1203 537.201C1203.37 536.854 1203.85 536.68 1204.43 536.68C1204.99 536.68 1205.46 536.854 1205.82 537.201C1206.19 537.549 1206.38 537.98 1206.38 538.495C1206.38 538.996 1206.19 539.421 1205.82 539.768C1205.46 540.103 1204.99 540.27 1204.43 540.27ZM1217.92 528.902H1211.9V531.566C1212.16 531.282 1212.52 531.051 1212.98 530.871C1213.44 530.691 1213.95 530.6 1214.49 530.6C1215.45 530.6 1216.25 530.819 1216.88 531.257C1217.52 531.694 1217.99 532.26 1218.29 532.955C1218.58 533.65 1218.73 534.403 1218.73 535.213C1218.73 536.719 1218.31 537.915 1217.46 538.803C1216.61 539.678 1215.41 540.116 1213.87 540.116C1212.84 540.116 1211.94 539.942 1211.19 539.595C1210.43 539.234 1209.84 538.739 1209.43 538.109C1209.02 537.478 1208.79 536.751 1208.75 535.928H1211.98C1212.05 536.326 1212.24 536.661 1212.54 536.931C1212.83 537.188 1213.24 537.317 1213.75 537.317C1214.36 537.317 1214.81 537.124 1215.1 536.738C1215.4 536.352 1215.55 535.837 1215.55 535.194C1215.55 534.564 1215.39 534.081 1215.08 533.747C1214.78 533.412 1214.33 533.245 1213.73 533.245C1213.3 533.245 1212.94 533.354 1212.65 533.573C1212.37 533.779 1212.18 534.055 1212.09 534.403H1208.91V526.007H1217.92V528.902ZM1220.44 537.472C1220.88 537.124 1221.08 536.963 1221.04 536.989C1222.3 535.947 1223.29 535.091 1224.01 534.422C1224.74 533.753 1225.36 533.052 1225.86 532.318C1226.36 531.585 1226.61 530.871 1226.61 530.176C1226.61 529.648 1226.49 529.237 1226.25 528.941C1226 528.645 1225.64 528.497 1225.15 528.497C1224.66 528.497 1224.27 528.683 1223.99 529.056C1223.72 529.417 1223.58 529.931 1223.58 530.6H1220.4C1220.43 529.507 1220.66 528.593 1221.09 527.86C1221.54 527.126 1222.13 526.586 1222.85 526.239C1223.58 525.891 1224.39 525.717 1225.28 525.717C1226.81 525.717 1227.97 526.11 1228.74 526.895C1229.52 527.68 1229.91 528.703 1229.91 529.964C1229.91 531.34 1229.45 532.621 1228.51 533.804C1227.57 534.975 1226.37 536.121 1224.92 537.24H1230.13V539.923H1220.44V537.472Z" fill="#1FA971"/>
</g>
</g>
<rect x="171" y="375" width="1098" height="193" fill="url(#paint0_linear_732_32443)" fill-opacity="0.04"/>
</g>
<defs>
<linearGradient id="paint0_linear_732_32443" x1="720" y1="568" x2="720" y2="396.263" gradientUnits="userSpaceOnUse">
<stop stop-color="#252E8F"/>
<stop offset="1" stop-color="#C4C4C4" stop-opacity="0"/>
</linearGradient>
<clipPath id="clip0_732_32443">
<rect width="1440" height="568" fill="white"/>
</clipPath>
<clipPath id="clip1_732_32443">
<rect x="171" y="240" width="1098" height="799.699" rx="4.23121" fill="white"/>
</clipPath>
<clipPath id="clip2_732_32443">
<rect x="171" y="294.581" width="1098" height="750.586" rx="2.14453" fill="white"/>
</clipPath>
<clipPath id="clip3_732_32443">
<rect width="34.3125" height="34.3125" fill="white" transform="translate(695.346 319.243)"/>
</clipPath>
</defs>
</svg>
