<svg width="90" height="93" viewBox="0 0 90 93" fill="none" xmlns="http://www.w3.org/2000/svg">
<rect y="13.2915" width="79.1566" height="79.1566" rx="13.6364" fill="#3A46CC"/>
<circle cx="74.3183" cy="15.6818" r="15.6818" fill="#F0F1FF"/>
<path d="M69.1937 16.3146C69.1937 14.1128 69.5882 12.3882 70.3773 11.141C71.1792 9.89368 72.5028 9.27004 74.3482 9.27004C76.1937 9.27004 77.511 9.89368 78.3001 11.141C79.1019 12.3882 79.5028 14.1128 79.5028 16.3146C79.5028 18.5291 79.1019 20.2664 78.3001 21.5264C77.511 22.7864 76.1937 23.4164 74.3482 23.4164C72.5028 23.4164 71.1792 22.7864 70.3773 21.5264C69.5882 20.2664 69.1937 18.5291 69.1937 16.3146ZM76.8682 16.3146C76.8682 15.3728 76.8046 14.5837 76.6773 13.9473C76.5628 13.2982 76.321 12.77 75.9519 12.3628C75.5955 11.9555 75.061 11.7519 74.3482 11.7519C73.6355 11.7519 73.0946 11.9555 72.7255 12.3628C72.3692 12.77 72.1273 13.2982 72.0001 13.9473C71.8855 14.5837 71.8282 15.3728 71.8282 16.3146C71.8282 17.2819 71.8855 18.0964 72.0001 18.7582C72.1146 19.4073 72.3564 19.9355 72.7255 20.3428C73.0946 20.7373 73.6355 20.9346 74.3482 20.9346C75.061 20.9346 75.6019 20.7373 75.971 20.3428C76.3401 19.9355 76.5819 19.4073 76.6964 18.7582C76.811 18.0964 76.8682 17.2819 76.8682 16.3146Z" fill="#69D3A7"/>
</svg>
