<svg width="157" height="67" viewBox="0 0 157 67" fill="none" xmlns="http://www.w3.org/2000/svg">
<path d="M33.4997 28.7143C41.429 28.7143 47.8569 22.2864 47.8569 14.3571C47.8569 6.42791 41.429 0 33.4997 0C25.5705 0 19.1426 6.42791 19.1426 14.3571C19.1426 22.2864 25.5705 28.7143 33.4997 28.7143Z" fill="#4956E3"/>
<path d="M0 66.9996C-7.03332e-07 57.8634 3.52798 49.1012 9.80819 42.6396C16.0884 36.178 24.6067 32.5461 33.49 32.5425C42.3762 32.5425 50.8986 36.1726 57.1828 42.6343C63.4669 49.0961 66.9982 57.8604 67 66.9996H0Z" fill="#4956E3"/>
<path d="M74.4997 28.7143C82.429 28.7143 88.8569 22.2864 88.8569 14.3571C88.8569 6.42791 82.429 0 74.4997 0C66.5705 0 60.1426 6.42791 60.1426 14.3571C60.1426 22.2864 66.5705 28.7143 74.4997 28.7143Z" fill="#69D3A7"/>
<path d="M41 67.0001C41 57.8639 44.528 49.1017 50.8082 42.6401C57.0884 36.1785 65.6067 32.5466 74.49 32.543C83.3762 32.543 91.8986 36.1731 98.1828 42.6348C104.467 49.0966 107.998 57.8609 108 67.0001H41Z" fill="#69D3A7"/>
<path d="M115.5 28.7143C123.429 28.7143 129.857 22.2864 129.857 14.3571C129.857 6.42791 123.429 0 115.5 0C107.57 0 101.143 6.42791 101.143 14.3571C101.143 22.2864 107.57 28.7143 115.5 28.7143Z" fill="#2F3AB0"/>
<path d="M82 66.9996C82 57.8634 85.528 49.1012 91.8082 42.6396C98.0884 36.178 106.607 32.5461 115.49 32.5425C124.376 32.5425 132.899 36.1726 139.183 42.6343C145.467 49.0961 148.998 57.8604 149 66.9996H82Z" fill="#2F3AB0"/>
<path d="M142.5 56C150.508 56 157 49.5081 157 41.5C157 33.4919 150.508 27 142.5 27C134.492 27 128 33.4919 128 41.5C128 49.5081 134.492 56 142.5 56Z" fill="#F0F1FF"/>
<rect x="135" y="39" width="15" height="5" fill="#69D3A7"/>
</svg>
